<svg width="15" height="16" viewBox="0 0 15 16" fill="none" xmlns="http://www.w3.org/2000/svg">
<g filter="url(#filter0_i_73_2934)">
<path d="M10.824 8.04802L9.97604 7.2L6.07198 11.104L4.37604 9.40802L3.52802 10.256L6.07198 12.8L10.824 8.04802ZM12.8 1.6H12V0H10.4V1.6H4V0H2.4V1.6H1.6C0.716042 1.6 0.00802083 2.31604 0.00802083 3.2L0 14.4C0 15.284 0.716042 16 1.6 16H12.8C13.684 16 14.4 15.284 14.4 14.4V3.2C14.4 2.31604 13.684 1.6 12.8 1.6ZM12.8 14.4H1.6V5.6H12.8V14.4Z" fill="#51A133"/>
</g>
<defs>
<filter id="filter0_i_73_2934" x="0" y="-4" width="14.3999" height="20" filterUnits="userSpaceOnUse" color-interpolation-filters="sRGB">
<feFlood flood-opacity="0" result="BackgroundImageFix"/>
<feBlend mode="normal" in="SourceGraphic" in2="BackgroundImageFix" result="shape"/>
<feColorMatrix in="SourceAlpha" type="matrix" values="0 0 0 0 0 0 0 0 0 0 0 0 0 0 0 0 0 0 127 0" result="hardAlpha"/>
<feOffset dy="-4"/>
<feGaussianBlur stdDeviation="2"/>
<feComposite in2="hardAlpha" operator="arithmetic" k2="-1" k3="1"/>
<feColorMatrix type="matrix" values="0 0 0 0 0 0 0 0 0 0 0 0 0 0 0 0 0 0 0.25 0"/>
<feBlend mode="normal" in2="shape" result="effect1_innerShadow_73_2934"/>
</filter>
</defs>
</svg>
