<svg width="17" height="16" viewBox="0 0 17 16" fill="none" xmlns="http://www.w3.org/2000/svg">
<g filter="url(#filter0_i_66_1098)">
<path d="M13.9305 5.66583C13.9983 8.933 11.0568 11.3045 8.16286 11.3045C4.90247 11.3045 2.43937 8.47498 2.45294 5.64208C2.4699 2.80917 4.87533 -0.00677317 8.19 1.22382e-05C11.352 0.00679764 13.9372 2.55133 13.9305 5.66583Z" fill="#663366"/>
<path d="M16.2273 16C10.8567 16 5.50975 16 0 16C0.206955 15.2909 0.329092 14.6226 0.593723 14.0153C1.30619 12.4071 2.61577 11.4165 4.19677 10.7515C4.3223 10.7006 4.53265 10.7277 4.6514 10.8024C7.00254 12.2816 9.3469 12.285 11.698 10.816C11.8134 10.7447 11.983 10.6904 12.1086 10.7176C14.1272 11.1145 16.3325 13.9169 16.2273 16Z" fill="#663366"/>
</g>
<defs>
<filter id="filter0_i_66_1098" x="0" y="-4" width="16.231" height="20" filterUnits="userSpaceOnUse" color-interpolation-filters="sRGB">
<feFlood flood-opacity="0" result="BackgroundImageFix"/>
<feBlend mode="normal" in="SourceGraphic" in2="BackgroundImageFix" result="shape"/>
<feColorMatrix in="SourceAlpha" type="matrix" values="0 0 0 0 0 0 0 0 0 0 0 0 0 0 0 0 0 0 127 0" result="hardAlpha"/>
<feOffset dy="-4"/>
<feGaussianBlur stdDeviation="2"/>
<feComposite in2="hardAlpha" operator="arithmetic" k2="-1" k3="1"/>
<feColorMatrix type="matrix" values="0 0 0 0 0 0 0 0 0 0 0 0 0 0 0 0 0 0 0.25 0"/>
<feBlend mode="normal" in2="shape" result="effect1_innerShadow_66_1098"/>
</filter>
</defs>
</svg>
