<svg width="18" height="18" viewBox="0 0 18 18" fill="none" xmlns="http://www.w3.org/2000/svg">
<g filter="url(#filter0_i_102_872)">
<path d="M2.25351 11.2456V9.34716H2.8664H3.0164V9.19716V8.46159V8.31162L2.86643 8.31159L2.25351 8.31149V6.41308H2.8664H3.0164V6.26308V5.52751V5.37751H2.8664H2.25351V3.47975H2.8664H3.0164V3.32975V2.59418V2.44418H2.8664H2.25351V1V0.85H2.10351H1H0.85V1V16.4482C0.85 16.8361 1.16443 17.15 1.55176 17.15H17H17.15V17V15.8965V15.7465L17 15.7465L15.643 15.7465V15.1336V14.9836H15.493H14.7575H14.6075V15.1336V15.7464H12.7091V15.1336V14.9836H12.5591H11.8235H11.6735V15.1336V15.7464H9.77524V15.1336V14.9836H9.62524H8.88967H8.73967V15.1336V15.7464H6.84129V15.1336V14.9836H6.69129H5.95572H5.80572V15.1336V15.7464H3.90733V15.1336V14.9836H3.75733H3.02177H3.0164V14.3296V14.1796H2.8664H2.25351V12.2812H2.8664H3.0164V12.1312V11.3957V11.2457L2.86643 11.2457L2.25351 11.2456ZM2.8664 15.2152H2.87177V15.7464H2.25351V15.2152H2.8664Z" fill="#663366" stroke="#663366" stroke-width="0.3"/>
<path d="M5.94556 11.6393C5.15819 13.6833 3.41362 13.6909 3.3075 13.6914L3.30534 13.6914L3.30506 13.6435L3.30454 13.6914H3.30446L3.30408 13.563L3.30132 13.6914C3.01555 13.6852 2.78793 13.449 2.79422 13.1627L5.94556 11.6393ZM5.94556 11.6393C6.10998 11.2128 6.2116 10.5977 6.32481 9.91242L6.32768 9.89507C6.32768 9.89506 6.32768 9.89505 6.32768 9.89504C6.49696 8.87208 6.69388 7.68771 7.12603 6.75823C7.34121 6.29541 7.61069 5.90525 7.95569 5.63126C8.29802 5.35937 8.72149 5.1963 9.25824 5.1963C9.79508 5.1963 10.2186 5.35942 10.561 5.63138C10.906 5.90545 11.1755 6.29572 11.3907 6.75869C11.8228 7.68846 12.0196 8.87326 12.1885 9.89666L12.1889 9.89906C12.3028 10.5897 12.405 11.2102 12.5702 11.6393C13.3367 13.6308 15.0076 13.6915 15.1992 13.6915H15.2114V13.6916L15.2146 13.6915C15.5008 13.6853 15.7276 13.4487 15.7214 13.1628C15.7152 12.8728 15.4732 12.6589 15.1976 12.6559L15.1875 12.6558L15.1864 12.656L15.1839 12.6559C15.1767 12.6557 15.1652 12.6553 15.15 12.6541C15.1194 12.6519 15.0741 12.647 15.0175 12.6368C14.9043 12.6163 14.7473 12.5743 14.5735 12.4891C14.2292 12.3201 13.8097 11.9765 13.5366 11.2671C13.412 10.9432 13.3204 10.3938 13.2103 9.72754L13.2103 9.72753L13.2084 9.71564C13.0303 8.63863 12.8025 7.2608 12.2496 6.15152C11.9709 5.59262 11.6062 5.09393 11.1165 4.73484C10.6247 4.37425 10.0148 4.1603 9.25808 4.1603C8.50154 4.1603 7.89171 4.37422 7.39998 4.73473C6.91029 5.09374 6.5455 5.59232 6.26685 6.15109C5.71361 7.26045 5.4857 8.63839 5.30762 9.71503L5.30584 9.72582C5.30583 9.72584 5.30583 9.72586 5.30583 9.72588C5.19522 10.3929 5.10345 10.9429 4.97874 11.2671C4.44765 12.6467 3.35435 12.6558 3.32045 12.6558L3.31968 12.6558L3.31882 12.6558C3.04099 12.6574 2.80049 12.8735 2.79422 13.1626L5.94556 11.6393ZM15.1932 12.656C15.1935 12.656 15.1929 12.656 15.1911 12.656L15.1932 12.656Z" fill="#663366" stroke="#663366" stroke-width="0.3"/>
</g>
<defs>
<filter id="filter0_i_102_872" x="0.699951" y="-3.30005" width="16.6001" height="20.6001" filterUnits="userSpaceOnUse" color-interpolation-filters="sRGB">
<feFlood flood-opacity="0" result="BackgroundImageFix"/>
<feBlend mode="normal" in="SourceGraphic" in2="BackgroundImageFix" result="shape"/>
<feColorMatrix in="SourceAlpha" type="matrix" values="0 0 0 0 0 0 0 0 0 0 0 0 0 0 0 0 0 0 127 0" result="hardAlpha"/>
<feOffset dy="-4"/>
<feGaussianBlur stdDeviation="2"/>
<feComposite in2="hardAlpha" operator="arithmetic" k2="-1" k3="1"/>
<feColorMatrix type="matrix" values="0 0 0 0 0 0 0 0 0 0 0 0 0 0 0 0 0 0 0.25 0"/>
<feBlend mode="normal" in2="shape" result="effect1_innerShadow_102_872"/>
</filter>
</defs>
</svg>
