<svg width="27" height="16" viewBox="0 0 27 16" fill="none" xmlns="http://www.w3.org/2000/svg">
<circle cx="8.41089" cy="8" r="6.85" fill="#663366" stroke="white" stroke-width="0.3"/>
<path d="M0 8.00174C0 8.13264 0.00327249 8.26331 0.00958375 8.39421C0.0161288 8.52487 0.0257125 8.6553 0.0385688 8.78574C0.051425 8.91594 0.06732 9.0459 0.0864875 9.17516C0.105655 9.30466 0.128095 9.43369 0.153574 9.56202C0.179286 9.69035 0.207804 9.81821 0.239594 9.94514C0.271384 10.0721 0.306446 10.1983 0.344314 10.3236C0.382415 10.4486 0.423321 10.573 0.4675 10.6962C0.511679 10.8196 0.558663 10.9416 0.608919 11.0625C0.658941 11.1835 0.712003 11.303 0.767869 11.4215C0.823969 11.5398 0.88264 11.6566 0.94435 11.7721C1.00606 11.8876 1.07058 12.0014 1.1379 12.1136C1.20522 12.2258 1.27511 12.3364 1.34804 12.4453C1.42073 12.5542 1.496 12.6611 1.57407 12.7663C1.65191 12.8714 1.73256 12.9745 1.81554 13.0757C1.89852 13.177 1.98407 13.2761 2.07196 13.3731C2.15985 13.4701 2.25008 13.5647 2.34264 13.6573C2.43521 13.7499 2.52988 13.8401 2.62688 13.928C2.72389 14.0159 2.823 14.1014 2.92421 14.1844C3.02543 14.2676 3.12851 14.348 3.2337 14.4261C3.33889 14.504 3.44594 14.5795 3.55464 14.6522C3.66356 14.7248 3.77413 14.7947 3.88633 14.8621C3.99876 14.9294 4.1126 14.9939 4.22784 15.0556C4.34331 15.1173 4.46018 15.1762 4.5787 15.2321C4.69697 15.2882 4.81665 15.341 4.9375 15.3913C5.05835 15.4413 5.1806 15.4885 5.30379 15.5325C5.42697 15.5766 5.55133 15.6178 5.67662 15.6556C5.80191 15.6937 5.9279 15.7286 6.05483 15.7604C6.18199 15.7921 6.30962 15.8209 6.43794 15.8464C6.56627 15.8719 6.6953 15.8943 6.8248 15.9135C6.9543 15.9326 7.08403 15.9488 7.21446 15.9616C7.34466 15.9745 7.47509 15.9841 7.60599 15.9904C7.73666 15.9969 7.86756 16 7.99846 16C8.12936 16 8.26003 15.9969 8.39093 15.9904C8.52159 15.9841 8.65202 15.9745 8.78246 15.9616C8.91266 15.9488 9.04262 15.9326 9.17188 15.9135C9.30138 15.8943 9.43041 15.8719 9.55874 15.8464C9.68707 15.8209 9.81493 15.7921 9.94186 15.7604C10.0688 15.7286 10.195 15.6937 10.3203 15.6556C10.4454 15.6178 10.5697 15.5766 10.6929 15.5325C10.8163 15.4885 10.9383 15.4413 11.0592 15.3913C11.1803 15.341 11.2997 15.2882 11.4182 15.2321C11.5365 15.1762 11.6534 15.1173 11.7688 15.0556C11.8843 14.9939 11.9982 14.9294 12.1104 14.8621C12.2226 14.7947 12.3331 14.7248 12.442 14.6522C12.551 14.5795 12.6578 14.504 12.763 14.4261C12.8682 14.348 12.9713 14.2676 13.0725 14.1844C13.1737 14.1014 13.2728 14.0159 13.3698 13.928C13.4668 13.8401 13.5615 13.7499 13.654 13.6573C13.7466 13.5647 13.8368 13.4701 13.9247 13.3731C14.0126 13.2761 14.0982 13.177 14.1811 13.0757C14.2644 12.9745 14.3448 12.8714 14.4228 12.7663C14.5007 12.6611 14.5762 12.5542 14.6489 12.4453C14.7216 12.3364 14.7915 12.2258 14.8588 12.1136C14.9261 12.0014 14.9906 11.8876 15.0523 11.7721C15.114 11.6566 15.1729 11.5398 15.2288 11.4215C15.2849 11.303 15.338 11.1835 15.388 11.0625C15.438 10.9416 15.4852 10.8196 15.5292 10.6962C15.5734 10.573 15.6145 10.4486 15.6524 10.3236C15.6905 10.1983 15.7253 10.0721 15.7571 9.94514C15.7889 9.81821 15.8176 9.69035 15.8431 9.56202C15.8686 9.43369 15.891 9.30466 15.9102 9.17516C15.9294 9.0459 15.9455 8.91594 15.9583 8.78574C15.9712 8.6553 15.9808 8.52487 15.9871 8.39421C15.9936 8.26331 15.9969 8.13264 15.9969 8.00174C15.9969 7.87084 15.9936 7.73994 15.9871 7.60927C15.9808 7.47837 15.9712 7.34794 15.9583 7.21774C15.9455 7.08731 15.9294 6.95758 15.9102 6.82808C15.891 6.69859 15.8686 6.56956 15.8431 6.44123C15.8176 6.3129 15.7889 6.18527 15.7571 6.05811C15.7253 5.93119 15.6905 5.8052 15.6524 5.67991C15.6145 5.55462 15.5734 5.43026 15.5292 5.30708C15.4852 5.18389 15.438 5.06164 15.388 4.94079C15.338 4.81994 15.2849 4.70026 15.2288 4.58198C15.1729 4.46347 15.114 4.3466 15.0523 4.23113C14.9906 4.11589 14.9261 4.00182 14.8588 3.88962C14.7915 3.77742 14.7216 3.66685 14.6489 3.55793C14.5762 3.44923 14.5007 3.34218 14.4228 3.23699C14.3448 3.1318 14.2644 3.02872 14.1811 2.9275C14.0982 2.82629 14.0126 2.72718 13.9247 2.63017C13.8368 2.53317 13.7466 2.4385 13.654 2.34593C13.5615 2.25337 13.4668 2.16314 13.3698 2.07525C13.2728 1.98736 13.1737 1.90181 13.0725 1.81883C12.9713 1.73585 12.8682 1.6552 12.763 1.57737C12.6578 1.49929 12.551 1.42403 12.442 1.35133C12.3331 1.2784 12.2226 1.20851 12.1104 1.14119C11.9982 1.07387 11.8843 1.00935 11.7688 0.947644C11.6534 0.885934 11.5365 0.827263 11.4182 0.771163C11.2997 0.715297 11.1803 0.662236 11.0592 0.61198C10.9383 0.561957 10.8163 0.514974 10.6929 0.470795C10.5697 0.426616 10.4454 0.38571 10.3203 0.347609C10.195 0.309742 10.0688 0.274679 9.94186 0.242889C9.81493 0.211099 9.68707 0.182582 9.55874 0.156869C9.43041 0.131391 9.30138 0.108951 9.17188 0.0897833C9.04262 0.0706158 8.91266 0.0547208 8.78246 0.0418646C8.65202 0.0290083 8.52159 0.0194246 8.39093 0.0128796C8.26003 0.00656838 8.12936 0.0032959 7.99846 0.0032959C7.86756 0.0032959 7.73666 0.00680214 7.60599 0.0133471C7.47533 0.0198921 7.34489 0.0297097 7.2147 0.0425658C7.0845 0.0554221 6.95453 0.0715508 6.82527 0.090952C6.69577 0.110353 6.56697 0.132793 6.43864 0.158272C6.31032 0.183984 6.18269 0.212736 6.05576 0.244759C5.92884 0.276549 5.80285 0.311612 5.67756 0.349713C5.55226 0.38758 5.42814 0.42872 5.30496 0.472899C5.18177 0.517078 5.05975 0.564295 4.9389 0.614317C4.81806 0.664574 4.69838 0.717635 4.5801 0.773735C4.46182 0.829601 4.34495 0.888506 4.22971 0.950216C4.11423 1.01193 4.0004 1.07644 3.8882 1.14376C3.776 1.21108 3.66543 1.28121 3.55674 1.3539C3.44805 1.4266 3.34099 1.50186 3.23604 1.57994C3.13085 1.65801 3.02776 1.73842 2.92655 1.8214C2.82534 1.90438 2.72646 1.98993 2.62945 2.07782C2.53245 2.16571 2.43778 2.25594 2.34521 2.34851C2.25265 2.44107 2.16242 2.53574 2.07453 2.63275C1.98664 2.72975 1.90109 2.82863 1.81811 2.92984C1.73513 3.03105 1.65472 3.13414 1.57664 3.23909C1.49857 3.34428 1.4233 3.45134 1.35061 3.56003C1.27791 3.66872 1.20779 3.77929 1.14047 3.89149C1.07315 4.00369 1.00863 4.11752 0.946921 4.233C0.885211 4.34823 0.826306 4.46511 0.77044 4.58339C0.71434 4.70166 0.661279 4.82134 0.611023 4.94219C0.561 5.06304 0.513783 5.18506 0.469604 5.30824C0.425425 5.43143 0.384285 5.55555 0.346418 5.68084C0.308316 5.8059 0.273254 5.93212 0.241464 6.05905C0.20944 6.18597 0.180689 6.3136 0.154976 6.44193C0.129498 6.57026 0.107058 6.69905 0.0876563 6.82855C0.068255 6.95781 0.0521262 7.08778 0.03927 7.21798C0.0264137 7.34818 0.0165963 7.47861 0.0100513 7.60927C0.00350625 7.73994 0 7.87084 0 8.00174ZM14.2195 8.00174C14.2195 8.10342 14.2169 8.2051 14.2118 8.30702C14.2069 8.4087 14.1994 8.51015 14.1893 8.61136C14.1795 8.71281 14.1669 8.81379 14.1519 8.91453C14.1372 9.01528 14.1197 9.11556 14.0998 9.21537C14.0799 9.31518 14.0577 9.41452 14.033 9.51317C14.0082 9.61204 13.9811 9.70998 13.9516 9.80746C13.9219 9.90493 13.8901 10.0015 13.8558 10.0975C13.8214 10.1934 13.7847 10.2883 13.7459 10.3822C13.7069 10.4764 13.6657 10.5695 13.622 10.6616C13.5785 10.7534 13.5327 10.8444 13.4848 10.9341C13.4369 11.0239 13.3866 11.1125 13.3343 11.1999C13.2819 11.2871 13.2274 11.3731 13.1709 11.4577C13.1143 11.5426 13.0559 11.6258 12.9951 11.7076C12.9346 11.7892 12.8719 11.8696 12.8072 11.9481C12.7427 12.0269 12.6763 12.104 12.6078 12.1793C12.5395 12.2548 12.4694 12.3284 12.3974 12.4004C12.3254 12.4724 12.2515 12.5428 12.176 12.611C12.1008 12.6795 12.0236 12.7459 11.9449 12.8104C11.8663 12.8752 11.7859 12.9378 11.7043 12.9984C11.6225 13.0591 11.5393 13.1176 11.4547 13.1742C11.3698 13.2307 11.284 13.2852 11.1966 13.3375C11.1092 13.3899 11.0208 13.4402 10.9309 13.4881C10.8411 13.536 10.7502 13.5818 10.6583 13.6253C10.5662 13.669 10.4732 13.7101 10.379 13.7492C10.285 13.788 10.1901 13.8247 10.0943 13.859C9.99842 13.8932 9.90165 13.9252 9.80418 13.9549C9.7067 13.9843 9.60876 14.0114 9.50989 14.0362C9.41124 14.061 9.3119 14.0832 9.21209 14.1031C9.11228 14.1229 9.012 14.1405 8.91125 14.1552C8.81051 14.1702 8.70953 14.1828 8.60808 14.1926C8.50687 14.2027 8.40542 14.2101 8.30374 14.215C8.20206 14.2202 8.10014 14.2228 7.99846 14.2228C7.89654 14.2228 7.79486 14.2202 7.69318 14.215C7.5915 14.2101 7.49005 14.2027 7.38861 14.1926C7.28739 14.1828 7.18618 14.1702 7.08567 14.1552C6.98492 14.1405 6.88464 14.1229 6.78483 14.1031C6.68478 14.0832 6.58567 14.061 6.4868 14.0362C6.38815 14.0114 6.28998 13.9843 6.19251 13.9549C6.09503 13.9252 5.99849 13.8932 5.90266 13.859C5.80682 13.8247 5.71168 13.788 5.61771 13.7492C5.52375 13.7101 5.43072 13.669 5.33862 13.6253C5.24652 13.5818 5.15559 13.536 5.06583 13.4881C4.97607 13.4402 4.88748 13.3899 4.80006 13.3375C4.71287 13.2852 4.62685 13.2307 4.54223 13.1742C4.45761 13.1176 4.3744 13.0591 4.29259 12.9984C4.21077 12.9378 4.1306 12.8752 4.05182 12.8104C3.97305 12.7459 3.89615 12.6795 3.82064 12.611C3.74514 12.5428 3.67151 12.4724 3.59952 12.4004C3.52752 12.3284 3.4574 12.2548 3.38891 12.1793C3.32065 12.104 3.25403 12.0269 3.18952 11.9481C3.125 11.8696 3.06236 11.7892 3.00158 11.7074C2.94104 11.6258 2.88237 11.5426 2.8258 11.4577C2.76924 11.3731 2.71477 11.2871 2.66241 11.1999C2.61005 11.1125 2.56003 11.0239 2.51188 10.9341C2.46396 10.8444 2.41814 10.7534 2.37467 10.6616C2.33119 10.5695 2.28982 10.4764 2.25101 10.3822C2.21198 10.2883 2.17528 10.1934 2.14115 10.0975C2.10679 10.0015 2.07477 9.90493 2.04531 9.80746C2.01563 9.70998 1.98851 9.61204 1.96373 9.51317C1.93919 9.41452 1.91675 9.31518 1.89688 9.21537C1.87701 9.11556 1.85972 9.01528 1.84476 8.91453C1.8298 8.81379 1.81741 8.71281 1.80736 8.61136C1.7973 8.51015 1.78982 8.4087 1.78492 8.30702C1.78001 8.2051 1.77744 8.10342 1.77744 8.00174C1.77744 7.89983 1.78001 7.79814 1.78492 7.69646C1.78982 7.59478 1.7973 7.4931 1.80736 7.39189C1.81741 7.29067 1.8298 7.18946 1.84476 7.08895C1.85972 6.9882 1.87701 6.88792 1.89688 6.78811C1.91675 6.68807 1.93919 6.58872 1.96373 6.49008C1.98851 6.39121 2.01563 6.29326 2.04531 6.19579C2.07477 6.09832 2.10679 6.00178 2.14115 5.90594C2.17528 5.8101 2.21198 5.71497 2.25101 5.621C2.28982 5.52703 2.33119 5.43377 2.37467 5.3419C2.41814 5.24981 2.46396 5.15888 2.51188 5.06912C2.56003 4.97936 2.61005 4.89077 2.66241 4.80334C2.71477 4.71616 2.76924 4.63014 2.8258 4.54552C2.88237 4.4609 2.94104 4.37769 3.00158 4.29587C3.06236 4.21406 3.125 4.13389 3.18952 4.05511C3.25403 3.97634 3.32065 3.89943 3.38891 3.82393C3.4574 3.74843 3.52752 3.6748 3.59952 3.60281C3.67151 3.53081 3.74514 3.46069 3.82064 3.3922C3.89615 3.32394 3.97305 3.25732 4.05182 3.19281C4.1306 3.12829 4.21077 3.06565 4.29259 3.00487C4.3744 2.94433 4.45761 2.88566 4.54223 2.8291C4.62685 2.77253 4.71287 2.71806 4.80006 2.6657C4.88748 2.61334 4.97607 2.56332 5.06583 2.51517C5.15559 2.46725 5.24652 2.42144 5.33862 2.37796C5.43072 2.33448 5.52375 2.29311 5.61771 2.2543C5.71168 2.21527 5.80682 2.17857 5.90266 2.14444C5.99849 2.11008 6.09503 2.07806 6.19251 2.04861C6.28998 2.01892 6.38815 1.9918 6.4868 1.96703C6.58567 1.94248 6.68478 1.92004 6.78483 1.90017C6.88464 1.88031 6.98492 1.86301 7.08567 1.84805C7.18618 1.83309 7.28739 1.8207 7.38861 1.81065C7.49005 1.8006 7.5915 1.79312 7.69318 1.78821C7.79486 1.78307 7.89654 1.78073 7.99846 1.78073C8.10014 1.78073 8.20182 1.7833 8.3035 1.78844C8.40518 1.79358 8.50663 1.80106 8.60785 1.81135C8.70929 1.8214 8.81027 1.83379 8.91079 1.84898C9.01153 1.86394 9.11181 1.88147 9.21162 1.90134C9.31143 1.92121 9.41054 1.94365 9.50942 1.96843C9.60806 1.99321 9.706 2.02056 9.80348 2.05001C9.90095 2.07969 9.99749 2.11172 10.0933 2.14608C10.1892 2.18044 10.2841 2.21714 10.378 2.25594C10.472 2.29498 10.565 2.33635 10.6569 2.37983C10.749 2.42354 10.8399 2.46935 10.9297 2.51727C11.0192 2.56519 11.1078 2.61545 11.1952 2.66781C11.2824 2.72017 11.3684 2.77463 11.4531 2.8312C11.5377 2.88777 11.6207 2.94644 11.7025 3.00698C11.7843 3.06775 11.8645 3.1304 11.943 3.19491C12.0218 3.25943 12.0989 3.32581 12.1742 3.3943C12.2497 3.46256 12.3233 3.53292 12.3953 3.60468C12.4673 3.67667 12.5374 3.75054 12.6057 3.8258C12.6742 3.9013 12.7405 3.97821 12.8051 4.05698C12.8698 4.13552 12.9325 4.21593 12.993 4.29751C13.0538 4.37932 13.1122 4.46254 13.1688 4.54715C13.2253 4.63177 13.2798 4.71756 13.3322 4.80498C13.3845 4.89217 13.4348 4.98076 13.4827 5.07052C13.5309 5.16028 13.5767 5.25098 13.6201 5.34307C13.6636 5.43494 13.705 5.52797 13.744 5.62217C13.7831 5.71614 13.8198 5.81104 13.8541 5.90688C13.8883 6.00248 13.9203 6.09925 13.95 6.19649C13.9797 6.29397 14.0068 6.39191 14.0315 6.49078C14.0563 6.58943 14.0788 6.68877 14.0986 6.78858C14.1187 6.88839 14.136 6.98844 14.1512 7.08918C14.1662 7.18993 14.1788 7.29091 14.1889 7.39212C14.1989 7.49334 14.2064 7.59478 14.2115 7.69646C14.2167 7.79814 14.2192 7.89983 14.2195 8.00174Z" fill="#663366"/>
<ellipse cx="18.3218" cy="7.9967" rx="6.5" ry="7" fill="#663366"/>
<path d="M10.4109 7.99844C10.4109 8.12934 10.4142 8.26001 10.4205 8.39091C10.427 8.52158 10.4366 8.65201 10.4495 8.78244C10.4623 8.91264 10.4782 9.0426 10.4974 9.17187C10.5165 9.30136 10.539 9.4304 10.5645 9.55872C10.5902 9.68705 10.6187 9.81491 10.6505 9.94184C10.6823 10.0688 10.7173 10.195 10.7552 10.3203C10.7933 10.4453 10.8342 10.5697 10.8784 10.6929C10.9226 10.8163 10.9696 10.9383 11.0198 11.0592C11.0698 11.1802 11.1229 11.2997 11.1788 11.4182C11.2349 11.5365 11.2935 11.6534 11.3552 11.7688C11.4169 11.8843 11.4815 11.9981 11.5488 12.1103C11.6161 12.2225 11.686 12.3331 11.7589 12.442C11.8316 12.551 11.9069 12.6578 11.985 12.763C12.0628 12.8682 12.1434 12.9712 12.2264 13.0724C12.3094 13.1737 12.395 13.2728 12.4828 13.3698C12.5707 13.4668 12.661 13.5615 12.7535 13.654C12.8461 13.7466 12.9408 13.8368 13.0378 13.9247C13.1348 14.0126 13.2339 14.0981 13.3351 14.1811C13.4363 14.2643 13.5394 14.3447 13.6446 14.4228C13.7498 14.5007 13.8568 14.5762 13.9655 14.6489C14.0745 14.7216 14.185 14.7914 14.2972 14.8588C14.4097 14.9261 14.5235 14.9906 14.6387 15.0523C14.7542 15.114 14.8711 15.1729 14.9896 15.2288C15.1079 15.2849 15.2275 15.3377 15.3484 15.388C15.4692 15.438 15.5915 15.4852 15.7147 15.5292C15.8379 15.5733 15.9622 15.6145 16.0875 15.6523C16.2128 15.6904 16.3388 15.7253 16.4657 15.7571C16.5929 15.7889 16.7205 15.8176 16.8488 15.8431C16.9772 15.8686 17.1062 15.891 17.2357 15.9102C17.3652 15.9293 17.4949 15.9455 17.6253 15.9583C17.7555 15.9712 17.886 15.9808 18.0169 15.9871C18.1475 15.9936 18.2784 15.9967 18.4093 15.9967C18.5402 15.9967 18.6709 15.9936 18.8018 15.9871C18.9325 15.9808 19.0629 15.9712 19.1933 15.9583C19.3235 15.9455 19.4535 15.9293 19.5828 15.9102C19.7123 15.891 19.8413 15.8686 19.9696 15.8431C20.098 15.8176 20.2258 15.7889 20.3527 15.7571C20.4797 15.7253 20.6059 15.6904 20.7312 15.6523C20.8562 15.6145 20.9806 15.5733 21.1038 15.5292C21.2272 15.4852 21.3492 15.438 21.4701 15.388C21.5912 15.3377 21.7106 15.2849 21.8291 15.2288C21.9474 15.1729 22.0643 15.114 22.1797 15.0523C22.2952 14.9906 22.409 14.9261 22.5212 14.8588C22.6334 14.7914 22.744 14.7216 22.8529 14.6489C22.9619 14.5762 23.0687 14.5007 23.1739 14.4228C23.2791 14.3447 23.3821 14.2643 23.4834 14.1811C23.5846 14.0981 23.6837 14.0126 23.7807 13.9247C23.8777 13.8368 23.9724 13.7466 24.0649 13.654C24.1575 13.5615 24.2477 13.4668 24.3356 13.3698C24.4235 13.2728 24.5091 13.1737 24.592 13.0724C24.6753 12.9712 24.7557 12.8682 24.8337 12.763C24.9116 12.6578 24.9871 12.551 25.0598 12.442C25.1325 12.3331 25.2024 12.2225 25.2697 12.1103C25.337 11.9981 25.4015 11.8843 25.4632 11.7688C25.5249 11.6534 25.5838 11.5365 25.6397 11.4182C25.6958 11.2997 25.7489 11.1802 25.7989 11.0592C25.8489 10.9383 25.8961 10.8163 25.9401 10.6929C25.9843 10.5697 26.0254 10.4453 26.0633 10.3203C26.1014 10.195 26.1362 10.0688 26.168 9.94184C26.1998 9.81491 26.2285 9.68705 26.254 9.55872C26.2795 9.4304 26.3019 9.30136 26.3211 9.17187C26.3403 9.0426 26.3564 8.91264 26.3692 8.78244C26.3821 8.65201 26.3917 8.52158 26.398 8.39091C26.4045 8.26001 26.4078 8.12934 26.4078 7.99844C26.4078 7.86755 26.4045 7.73665 26.398 7.60598C26.3917 7.47508 26.3821 7.34465 26.3692 7.21445C26.3564 7.08402 26.3403 6.95429 26.3211 6.82479C26.3019 6.69529 26.2795 6.56626 26.254 6.43793C26.2285 6.3096 26.1998 6.18198 26.168 6.05482C26.1362 5.92789 26.1014 5.8019 26.0633 5.67661C26.0254 5.55132 25.9843 5.42697 25.9401 5.30378C25.8961 5.18059 25.8489 5.05834 25.7989 4.93749C25.7489 4.81664 25.6958 4.69696 25.6397 4.57869C25.5838 4.46018 25.5249 4.3433 25.4632 4.22783C25.4015 4.11259 25.337 3.99852 25.2697 3.88632C25.2024 3.77412 25.1325 3.66356 25.0598 3.55463C24.9871 3.44594 24.9116 3.33888 24.8337 3.23369C24.7557 3.1285 24.6753 3.02542 24.592 2.92421C24.5091 2.82299 24.4235 2.72388 24.3356 2.62688C24.2477 2.52987 24.1575 2.4352 24.0649 2.34264C23.9724 2.25007 23.8777 2.15985 23.7807 2.07196C23.6837 1.98407 23.5846 1.89851 23.4834 1.81553C23.3821 1.73255 23.2791 1.65191 23.1739 1.57407C23.0687 1.496 22.9619 1.42073 22.8529 1.34803C22.744 1.2751 22.6334 1.20521 22.5212 1.13789C22.409 1.07057 22.2952 1.00606 22.1797 0.944349C22.0643 0.882639 21.9474 0.823967 21.8291 0.767868C21.7106 0.712001 21.5912 0.65894 21.4701 0.608684C21.3492 0.558662 21.2272 0.511678 21.1038 0.467499C20.9806 0.423321 20.8562 0.382414 20.7312 0.344313C20.6059 0.306446 20.4797 0.271383 20.3527 0.239593C20.2258 0.207803 20.098 0.179286 19.9696 0.153573C19.8413 0.128095 19.7123 0.105655 19.5828 0.0864874C19.4535 0.0673199 19.3235 0.0514249 19.1933 0.0385687C19.0629 0.0257124 18.9325 0.0161287 18.8018 0.00958373C18.6709 0.00327248 18.5402 0 18.4093 0C18.2784 0 18.1475 0.00350624 18.0169 0.0100512C17.8862 0.0165962 17.7558 0.0264138 17.6256 0.0392699C17.4954 0.0521262 17.3654 0.0682549 17.2362 0.0876561C17.1067 0.107057 16.9779 0.129497 16.8495 0.154976C16.7212 0.180688 16.5936 0.20944 16.4667 0.241463C16.3397 0.273253 16.2137 0.308316 16.0884 0.346417C15.9632 0.384284 15.839 0.425424 15.7158 0.469603C15.5927 0.513782 15.4706 0.560999 15.3498 0.611022C15.2289 0.661278 15.1093 0.714339 14.991 0.770439C14.8727 0.826305 14.7558 0.88521 14.6406 0.94692C14.5251 1.00863 14.4113 1.07314 14.2991 1.14046C14.1869 1.20778 14.0763 1.27791 13.9676 1.35061C13.8589 1.4233 13.7519 1.49857 13.6469 1.57664C13.5417 1.65471 13.4387 1.73512 13.3374 1.8181C13.2362 1.90109 13.1373 1.98664 13.0403 2.07453C12.9433 2.16242 12.8487 2.25265 12.7561 2.34521C12.6635 2.43777 12.5733 2.53244 12.4854 2.62945C12.3975 2.72646 12.312 2.82533 12.229 2.92655C12.146 3.02776 12.0656 3.13084 11.9875 3.2358C11.9095 3.34098 11.8342 3.44804 11.7615 3.55673C11.6888 3.66543 11.6187 3.77599 11.5514 3.88819C11.484 4.00039 11.4195 4.11423 11.3578 4.2297C11.2961 4.34494 11.2372 4.46181 11.1813 4.58009C11.1252 4.69837 11.0722 4.81805 11.0219 4.9389C10.9719 5.05974 10.9247 5.18176 10.8805 5.30495C10.8363 5.42813 10.7952 5.55225 10.7573 5.67754C10.7192 5.8026 10.6841 5.92883 10.6524 6.05575C10.6203 6.18268 10.5916 6.31031 10.5659 6.43863C10.5404 6.56696 10.5179 6.69576 10.4985 6.82526C10.4791 6.95452 10.463 7.08448 10.4502 7.21468C10.4373 7.34488 10.4275 7.47531 10.4209 7.60598C10.4144 7.73665 10.4109 7.86755 10.4109 7.99844ZM24.6304 7.99844C24.6304 8.10013 24.6278 8.20181 24.6227 8.30372C24.6177 8.4054 24.6103 8.50685 24.6002 8.60806C24.5904 8.70951 24.5778 8.81049 24.5628 8.91124C24.5481 9.01198 24.5306 9.11226 24.5107 9.21207C24.4908 9.31188 24.4686 9.41123 24.4438 9.50987C24.4191 9.60875 24.3919 9.70669 24.3625 9.80416C24.3328 9.90163 24.301 9.99817 24.2667 10.0942C24.2323 10.1901 24.1956 10.285 24.1568 10.379C24.1178 10.4732 24.0766 10.5662 24.0329 10.6583C23.9894 10.7501 23.9436 10.8411 23.8957 10.9308C23.8478 11.0206 23.7975 11.1092 23.7452 11.1966C23.6928 11.2838 23.6383 11.3698 23.5818 11.4544C23.5252 11.5393 23.4668 11.6225 23.406 11.7043C23.3454 11.7859 23.2828 11.8663 23.2181 11.9448C23.1535 12.0236 23.0872 12.1008 23.0187 12.176C22.9504 12.2515 22.8803 12.3252 22.8083 12.3971C22.7363 12.4691 22.6624 12.5395 22.5869 12.6078C22.5117 12.6762 22.4345 12.7426 22.3558 12.8071C22.2772 12.8719 22.1968 12.9345 22.1152 12.9951C22.0334 13.0559 21.9502 13.1143 21.8656 13.1709C21.7807 13.2274 21.6949 13.2819 21.6075 13.3342C21.5201 13.3866 21.4317 13.4369 21.3417 13.4848C21.252 13.5327 21.1611 13.5785 21.0692 13.622C20.9771 13.6657 20.8841 13.7068 20.7899 13.7459C20.6959 13.7847 20.601 13.8214 20.5052 13.8557C20.4093 13.8899 20.3125 13.9219 20.2151 13.9516C20.1176 13.981 20.0197 14.0081 19.9208 14.0329C19.8221 14.0577 19.7228 14.0799 19.623 14.0998C19.5232 14.1196 19.4229 14.1372 19.3221 14.1519C19.2214 14.1669 19.1204 14.1795 19.019 14.1893C18.9178 14.1994 18.8163 14.2068 18.7146 14.2117C18.6129 14.2169 18.511 14.2195 18.4093 14.2195C18.3074 14.2195 18.2058 14.2169 18.1041 14.2117C18.0024 14.2068 17.9009 14.1994 17.7995 14.1893C17.6983 14.1795 17.5971 14.1669 17.4966 14.1519C17.3958 14.1372 17.2955 14.1196 17.1957 14.0998C17.0957 14.0799 16.9966 14.0577 16.8977 14.0329C16.799 14.0081 16.7009 13.981 16.6034 13.9516C16.5059 13.9219 16.4094 13.8899 16.3135 13.8557C16.2177 13.8214 16.1226 13.7847 16.0286 13.7459C15.9346 13.7068 15.8416 13.6657 15.7495 13.622C15.6574 13.5785 15.5665 13.5327 15.4767 13.4848C15.387 13.4369 15.2984 13.3866 15.2109 13.3342C15.1238 13.2819 15.0377 13.2274 14.9531 13.1709C14.8685 13.1143 14.7853 13.0559 14.7035 12.9951C14.6217 12.9345 14.5415 12.8719 14.4627 12.8071C14.3839 12.7426 14.307 12.6762 14.2315 12.6078C14.156 12.5395 14.0824 12.4691 14.0104 12.3971C13.9384 12.3252 13.8683 12.2515 13.7998 12.176C13.7315 12.1008 13.6649 12.0236 13.6004 11.9448C13.5359 11.8663 13.4732 11.7859 13.4125 11.7041C13.3519 11.6225 13.2933 11.5393 13.2367 11.4544C13.1801 11.3698 13.1257 11.2838 13.0733 11.1966C13.0209 11.1092 12.9709 11.0206 12.9228 10.9308C12.8748 10.8411 12.829 10.7501 12.7856 10.6583C12.7421 10.5662 12.7007 10.4732 12.6619 10.379C12.6229 10.285 12.5862 10.1901 12.552 10.0942C12.5177 9.99817 12.4857 9.90163 12.4562 9.80416C12.4265 9.70669 12.3994 9.60875 12.3746 9.50987C12.3501 9.41123 12.3276 9.31188 12.3078 9.21207C12.2879 9.11226 12.2706 9.01198 12.2556 8.91124C12.2407 8.81049 12.2283 8.70951 12.2182 8.60806C12.2082 8.50685 12.2007 8.4054 12.1958 8.30372C12.1909 8.20181 12.1883 8.10013 12.1883 7.99844C12.1883 7.89653 12.1909 7.79485 12.1958 7.69317C12.2007 7.59149 12.2082 7.48981 12.2182 7.38859C12.2283 7.28738 12.2407 7.18616 12.2556 7.08565C12.2706 6.98491 12.2879 6.88463 12.3078 6.78482C12.3276 6.68477 12.3501 6.58543 12.3746 6.48679C12.3994 6.38791 12.4265 6.28997 12.4562 6.19249C12.4857 6.09502 12.5177 5.99848 12.552 5.90265C12.5862 5.80681 12.6229 5.71167 12.6619 5.6177C12.7007 5.52374 12.7421 5.43047 12.7856 5.33861C12.829 5.24651 12.8748 5.15558 12.9228 5.06582C12.9709 4.97606 13.0209 4.88747 13.0733 4.80005C13.1257 4.71286 13.1801 4.62684 13.2367 4.54222C13.2933 4.45761 13.3519 4.37439 13.4125 4.29258C13.4732 4.21077 13.5359 4.13059 13.6004 4.05182C13.6649 3.97304 13.7315 3.89614 13.7998 3.82064C13.8683 3.74514 13.9384 3.67151 14.0104 3.59951C14.0824 3.52752 14.156 3.45739 14.2315 3.3889C14.307 3.32065 14.3839 3.25403 14.4627 3.18951C14.5415 3.125 14.6217 3.06235 14.7035 3.00158C14.7853 2.94104 14.8685 2.88237 14.9531 2.8258C15.0377 2.76923 15.1238 2.71477 15.2109 2.66241C15.2984 2.61005 15.387 2.56003 15.4767 2.51187C15.5665 2.46395 15.6574 2.41814 15.7495 2.37466C15.8416 2.33119 15.9346 2.28981 16.0286 2.25101C16.1226 2.21197 16.2177 2.17527 16.3135 2.14115C16.4094 2.10679 16.5059 2.07476 16.6034 2.04531C16.7009 2.01562 16.799 1.98851 16.8977 1.96373C16.9966 1.93919 17.0957 1.91675 17.1957 1.89688C17.2955 1.87701 17.3958 1.85971 17.4966 1.84475C17.5971 1.82979 17.6983 1.8174 17.7995 1.80735C17.9009 1.7973 18.0024 1.78982 18.1041 1.78491C18.2058 1.77977 18.3074 1.77743 18.4093 1.77743C18.511 1.77743 18.6127 1.78 18.7144 1.78515C18.8161 1.79029 18.9175 1.79777 19.0187 1.80805C19.1202 1.8181 19.2212 1.83049 19.3217 1.84569C19.4224 1.86065 19.5227 1.87818 19.6225 1.89805C19.7223 1.91792 19.8214 1.94036 19.9203 1.96513C20.019 1.98991 20.1169 2.01726 20.2144 2.04671C20.3118 2.0764 20.4084 2.10842 20.5042 2.14278C20.6001 2.17714 20.695 2.21384 20.7889 2.25265C20.8829 2.29168 20.9759 2.33306 21.0678 2.37653C21.1599 2.42024 21.2508 2.46606 21.3406 2.51398C21.4301 2.5619 21.5187 2.61215 21.6061 2.66451C21.6933 2.71687 21.7793 2.77134 21.8639 2.8279C21.9486 2.88447 22.0315 2.94314 22.1134 3.00368C22.1952 3.06446 22.2753 3.1271 22.3539 3.19162C22.4327 3.25613 22.5098 3.32252 22.5851 3.39101C22.6606 3.45926 22.7342 3.52962 22.8062 3.60138C22.8782 3.67338 22.9483 3.74724 23.0166 3.82251C23.085 3.89801 23.1514 3.97491 23.216 4.05369C23.2807 4.13223 23.3433 4.21264 23.4039 4.29421C23.4647 4.37603 23.5231 4.45924 23.5797 4.54386C23.6362 4.62848 23.6907 4.71426 23.7431 4.80168C23.7954 4.88887 23.8457 4.97746 23.8936 5.06722C23.9417 5.15698 23.9876 5.24768 24.031 5.33978C24.0745 5.43164 24.1159 5.52467 24.1549 5.61887C24.194 5.71284 24.2307 5.80774 24.265 5.90358C24.2991 5.99918 24.3312 6.09596 24.3609 6.1932C24.3905 6.29067 24.4177 6.38861 24.4424 6.48749C24.4672 6.58613 24.4897 6.68547 24.5095 6.78528C24.5296 6.8851 24.5469 6.98514 24.5621 7.08589C24.5771 7.18663 24.5897 7.28761 24.5998 7.38883C24.6098 7.49004 24.6173 7.59149 24.6224 7.69317C24.6276 7.79485 24.6301 7.89653 24.6304 7.99844Z" fill="#663366"/>
<path d="M12.077 4V6.66614H9.41089V8.44357H12.077V11.1097H13.8545V8.44357H16.5206V6.66614H13.8545V4H12.077Z" fill="white"/>
</svg>
