<svg width="16" height="16" viewBox="0 0 16 16" fill="none" xmlns="http://www.w3.org/2000/svg">
<circle cx="7.91089" cy="8.27393" r="6.5" fill="#663366"/>
<path d="M0 7.99844C0 8.12934 0.00327249 8.26001 0.00958375 8.39091C0.0161288 8.52158 0.0257125 8.65201 0.0385688 8.78244C0.051425 8.91264 0.06732 9.0426 0.0864875 9.17187C0.105655 9.30136 0.128095 9.4304 0.153574 9.55872C0.179286 9.68705 0.207804 9.81491 0.239594 9.94184C0.271384 10.0688 0.306446 10.195 0.344314 10.3203C0.382415 10.4453 0.423321 10.5697 0.4675 10.6929C0.511679 10.8163 0.558663 10.9383 0.608919 11.0592C0.658941 11.1802 0.712003 11.2997 0.767869 11.4182C0.823969 11.5365 0.88264 11.6534 0.94435 11.7688C1.00606 11.8843 1.07058 11.9981 1.1379 12.1103C1.20522 12.2225 1.27511 12.3331 1.34804 12.442C1.42073 12.551 1.496 12.6578 1.57407 12.763C1.65191 12.8682 1.73256 12.9712 1.81554 13.0724C1.89852 13.1737 1.98407 13.2728 2.07196 13.3698C2.15985 13.4668 2.25008 13.5615 2.34264 13.654C2.43521 13.7466 2.52988 13.8368 2.62688 13.9247C2.72389 14.0126 2.823 14.0981 2.92421 14.1811C3.02543 14.2643 3.12851 14.3447 3.2337 14.4228C3.33889 14.5007 3.44594 14.5762 3.55464 14.6489C3.66356 14.7216 3.77413 14.7914 3.88633 14.8588C3.99876 14.9261 4.1126 14.9906 4.22784 15.0523C4.34331 15.114 4.46018 15.1729 4.5787 15.2288C4.69697 15.2849 4.81665 15.3377 4.9375 15.388C5.05835 15.438 5.1806 15.4852 5.30379 15.5292C5.42697 15.5733 5.55133 15.6145 5.67662 15.6523C5.80191 15.6904 5.9279 15.7253 6.05483 15.7571C6.18199 15.7889 6.30962 15.8176 6.43794 15.8431C6.56627 15.8686 6.6953 15.891 6.8248 15.9102C6.9543 15.9293 7.08403 15.9455 7.21446 15.9583C7.34466 15.9712 7.47509 15.9808 7.60599 15.9871C7.73666 15.9936 7.86756 15.9967 7.99846 15.9967C8.12936 15.9967 8.26003 15.9936 8.39093 15.9871C8.52159 15.9808 8.65202 15.9712 8.78246 15.9583C8.91266 15.9455 9.04262 15.9293 9.17188 15.9102C9.30138 15.891 9.43041 15.8686 9.55874 15.8431C9.68707 15.8176 9.81493 15.7889 9.94186 15.7571C10.0688 15.7253 10.195 15.6904 10.3203 15.6523C10.4454 15.6145 10.5697 15.5733 10.6929 15.5292C10.8163 15.4852 10.9383 15.438 11.0592 15.388C11.1803 15.3377 11.2997 15.2849 11.4182 15.2288C11.5365 15.1729 11.6534 15.114 11.7688 15.0523C11.8843 14.9906 11.9982 14.9261 12.1104 14.8588C12.2226 14.7914 12.3331 14.7216 12.442 14.6489C12.551 14.5762 12.6578 14.5007 12.763 14.4228C12.8682 14.3447 12.9713 14.2643 13.0725 14.1811C13.1737 14.0981 13.2728 14.0126 13.3698 13.9247C13.4668 13.8368 13.5615 13.7466 13.654 13.654C13.7466 13.5615 13.8368 13.4668 13.9247 13.3698C14.0126 13.2728 14.0982 13.1737 14.1811 13.0724C14.2644 12.9712 14.3448 12.8682 14.4228 12.763C14.5007 12.6578 14.5762 12.551 14.6489 12.442C14.7216 12.3331 14.7915 12.2225 14.8588 12.1103C14.9261 11.9981 14.9906 11.8843 15.0523 11.7688C15.114 11.6534 15.1729 11.5365 15.2288 11.4182C15.2849 11.2997 15.338 11.1802 15.388 11.0592C15.438 10.9383 15.4852 10.8163 15.5292 10.6929C15.5734 10.5697 15.6145 10.4453 15.6524 10.3203C15.6905 10.195 15.7253 10.0688 15.7571 9.94184C15.7889 9.81491 15.8176 9.68705 15.8431 9.55872C15.8686 9.4304 15.891 9.30136 15.9102 9.17187C15.9294 9.0426 15.9455 8.91264 15.9583 8.78244C15.9712 8.65201 15.9808 8.52158 15.9871 8.39091C15.9936 8.26001 15.9969 8.12934 15.9969 7.99844C15.9969 7.86755 15.9936 7.73665 15.9871 7.60598C15.9808 7.47508 15.9712 7.34465 15.9583 7.21445C15.9455 7.08402 15.9294 6.95429 15.9102 6.82479C15.891 6.69529 15.8686 6.56626 15.8431 6.43793C15.8176 6.3096 15.7889 6.18198 15.7571 6.05482C15.7253 5.92789 15.6905 5.8019 15.6524 5.67661C15.6145 5.55132 15.5734 5.42697 15.5292 5.30378C15.4852 5.18059 15.438 5.05834 15.388 4.93749C15.338 4.81664 15.2849 4.69696 15.2288 4.57869C15.1729 4.46018 15.114 4.3433 15.0523 4.22783C14.9906 4.11259 14.9261 3.99852 14.8588 3.88632C14.7915 3.77412 14.7216 3.66356 14.6489 3.55463C14.5762 3.44594 14.5007 3.33888 14.4228 3.23369C14.3448 3.1285 14.2644 3.02542 14.1811 2.92421C14.0982 2.82299 14.0126 2.72388 13.9247 2.62688C13.8368 2.52987 13.7466 2.4352 13.654 2.34264C13.5615 2.25007 13.4668 2.15985 13.3698 2.07196C13.2728 1.98407 13.1737 1.89851 13.0725 1.81553C12.9713 1.73255 12.8682 1.65191 12.763 1.57407C12.6578 1.496 12.551 1.42073 12.442 1.34803C12.3331 1.2751 12.2226 1.20521 12.1104 1.13789C11.9982 1.07057 11.8843 1.00606 11.7688 0.944349C11.6534 0.882639 11.5365 0.823967 11.4182 0.767868C11.2997 0.712001 11.1803 0.65894 11.0592 0.608684C10.9383 0.558662 10.8163 0.511678 10.6929 0.467499C10.5697 0.423321 10.4454 0.382414 10.3203 0.344313C10.195 0.306446 10.0688 0.271383 9.94186 0.239593C9.81493 0.207803 9.68707 0.179286 9.55874 0.153573C9.43041 0.128095 9.30138 0.105655 9.17188 0.0864874C9.04262 0.0673199 8.91266 0.0514249 8.78246 0.0385687C8.65202 0.0257124 8.52159 0.0161287 8.39093 0.00958373C8.26003 0.00327248 8.12936 0 7.99846 0C7.86756 0 7.73666 0.00350624 7.60599 0.0100512C7.47533 0.0165962 7.34489 0.0264138 7.2147 0.0392699C7.0845 0.0521262 6.95453 0.0682549 6.82527 0.0876561C6.69577 0.107057 6.56697 0.129497 6.43864 0.154976C6.31032 0.180688 6.18269 0.20944 6.05576 0.241463C5.92884 0.273253 5.80285 0.308316 5.67756 0.346417C5.55226 0.384284 5.42814 0.425424 5.30496 0.469603C5.18177 0.513782 5.05975 0.560999 4.9389 0.611022C4.81806 0.661278 4.69838 0.714339 4.5801 0.770439C4.46182 0.826305 4.34495 0.88521 4.22971 0.94692C4.11423 1.00863 4.0004 1.07314 3.8882 1.14046C3.776 1.20778 3.66543 1.27791 3.55674 1.35061C3.44805 1.4233 3.34099 1.49857 3.23604 1.57664C3.13085 1.65471 3.02776 1.73512 2.92655 1.8181C2.82534 1.90109 2.72646 1.98664 2.62945 2.07453C2.53245 2.16242 2.43778 2.25265 2.34521 2.34521C2.25265 2.43777 2.16242 2.53244 2.07453 2.62945C1.98664 2.72646 1.90109 2.82533 1.81811 2.92655C1.73513 3.02776 1.65472 3.13084 1.57664 3.2358C1.49857 3.34098 1.4233 3.44804 1.35061 3.55673C1.27791 3.66543 1.20779 3.77599 1.14047 3.88819C1.07315 4.00039 1.00863 4.11423 0.946921 4.2297C0.885211 4.34494 0.826306 4.46181 0.77044 4.58009C0.71434 4.69837 0.661279 4.81805 0.611023 4.9389C0.561 5.05974 0.513783 5.18176 0.469604 5.30495C0.425425 5.42813 0.384285 5.55225 0.346418 5.67754C0.308316 5.8026 0.273254 5.92883 0.241464 6.05575C0.20944 6.18268 0.180689 6.31031 0.154976 6.43863C0.129498 6.56696 0.107058 6.69576 0.0876563 6.82526C0.068255 6.95452 0.0521262 7.08448 0.03927 7.21468C0.0264137 7.34488 0.0165963 7.47531 0.0100513 7.60598C0.00350625 7.73665 0 7.86755 0 7.99844ZM14.2195 7.99844C14.2195 8.10013 14.2169 8.20181 14.2118 8.30372C14.2069 8.4054 14.1994 8.50685 14.1893 8.60806C14.1795 8.70951 14.1669 8.81049 14.1519 8.91124C14.1372 9.01198 14.1197 9.11226 14.0998 9.21207C14.0799 9.31188 14.0577 9.41123 14.033 9.50987C14.0082 9.60875 13.9811 9.70669 13.9516 9.80416C13.9219 9.90163 13.8901 9.99817 13.8558 10.0942C13.8214 10.1901 13.7847 10.285 13.7459 10.379C13.7069 10.4732 13.6657 10.5662 13.622 10.6583C13.5785 10.7501 13.5327 10.8411 13.4848 10.9308C13.4369 11.0206 13.3866 11.1092 13.3343 11.1966C13.2819 11.2838 13.2274 11.3698 13.1709 11.4544C13.1143 11.5393 13.0559 11.6225 12.9951 11.7043C12.9346 11.7859 12.8719 11.8663 12.8072 11.9448C12.7427 12.0236 12.6763 12.1008 12.6078 12.176C12.5395 12.2515 12.4694 12.3252 12.3974 12.3971C12.3254 12.4691 12.2515 12.5395 12.176 12.6078C12.1008 12.6762 12.0236 12.7426 11.9449 12.8071C11.8663 12.8719 11.7859 12.9345 11.7043 12.9951C11.6225 13.0559 11.5393 13.1143 11.4547 13.1709C11.3698 13.2274 11.284 13.2819 11.1966 13.3342C11.1092 13.3866 11.0208 13.4369 10.9309 13.4848C10.8411 13.5327 10.7502 13.5785 10.6583 13.622C10.5662 13.6657 10.4732 13.7068 10.379 13.7459C10.285 13.7847 10.1901 13.8214 10.0943 13.8557C9.99842 13.8899 9.90165 13.9219 9.80418 13.9516C9.7067 13.981 9.60876 14.0081 9.50989 14.0329C9.41124 14.0577 9.3119 14.0799 9.21209 14.0998C9.11228 14.1196 9.012 14.1372 8.91125 14.1519C8.81051 14.1669 8.70953 14.1795 8.60808 14.1893C8.50687 14.1994 8.40542 14.2068 8.30374 14.2117C8.20206 14.2169 8.10014 14.2195 7.99846 14.2195C7.89654 14.2195 7.79486 14.2169 7.69318 14.2117C7.5915 14.2068 7.49005 14.1994 7.38861 14.1893C7.28739 14.1795 7.18618 14.1669 7.08567 14.1519C6.98492 14.1372 6.88464 14.1196 6.78483 14.0998C6.68478 14.0799 6.58567 14.0577 6.4868 14.0329C6.38815 14.0081 6.28998 13.981 6.19251 13.9516C6.09503 13.9219 5.99849 13.8899 5.90266 13.8557C5.80682 13.8214 5.71168 13.7847 5.61771 13.7459C5.52375 13.7068 5.43072 13.6657 5.33862 13.622C5.24652 13.5785 5.15559 13.5327 5.06583 13.4848C4.97607 13.4369 4.88748 13.3866 4.80006 13.3342C4.71287 13.2819 4.62685 13.2274 4.54223 13.1709C4.45761 13.1143 4.3744 13.0559 4.29259 12.9951C4.21077 12.9345 4.1306 12.8719 4.05182 12.8071C3.97305 12.7426 3.89615 12.6762 3.82064 12.6078C3.74514 12.5395 3.67151 12.4691 3.59952 12.3971C3.52752 12.3252 3.4574 12.2515 3.38891 12.176C3.32065 12.1008 3.25403 12.0236 3.18952 11.9448C3.125 11.8663 3.06236 11.7859 3.00158 11.7041C2.94104 11.6225 2.88237 11.5393 2.8258 11.4544C2.76924 11.3698 2.71477 11.2838 2.66241 11.1966C2.61005 11.1092 2.56003 11.0206 2.51188 10.9308C2.46396 10.8411 2.41814 10.7501 2.37467 10.6583C2.33119 10.5662 2.28982 10.4732 2.25101 10.379C2.21198 10.285 2.17528 10.1901 2.14115 10.0942C2.10679 9.99817 2.07477 9.90163 2.04531 9.80416C2.01563 9.70669 1.98851 9.60875 1.96373 9.50987C1.93919 9.41123 1.91675 9.31188 1.89688 9.21207C1.87701 9.11226 1.85972 9.01198 1.84476 8.91124C1.8298 8.81049 1.81741 8.70951 1.80736 8.60806C1.7973 8.50685 1.78982 8.4054 1.78492 8.30372C1.78001 8.20181 1.77744 8.10013 1.77744 7.99844C1.77744 7.89653 1.78001 7.79485 1.78492 7.69317C1.78982 7.59149 1.7973 7.48981 1.80736 7.38859C1.81741 7.28738 1.8298 7.18616 1.84476 7.08565C1.85972 6.98491 1.87701 6.88463 1.89688 6.78482C1.91675 6.68477 1.93919 6.58543 1.96373 6.48679C1.98851 6.38791 2.01563 6.28997 2.04531 6.19249C2.07477 6.09502 2.10679 5.99848 2.14115 5.90265C2.17528 5.80681 2.21198 5.71167 2.25101 5.6177C2.28982 5.52374 2.33119 5.43047 2.37467 5.33861C2.41814 5.24651 2.46396 5.15558 2.51188 5.06582C2.56003 4.97606 2.61005 4.88747 2.66241 4.80005C2.71477 4.71286 2.76924 4.62684 2.8258 4.54222C2.88237 4.45761 2.94104 4.37439 3.00158 4.29258C3.06236 4.21077 3.125 4.13059 3.18952 4.05182C3.25403 3.97304 3.32065 3.89614 3.38891 3.82064C3.4574 3.74514 3.52752 3.67151 3.59952 3.59951C3.67151 3.52752 3.74514 3.45739 3.82064 3.3889C3.89615 3.32065 3.97305 3.25403 4.05182 3.18951C4.1306 3.125 4.21077 3.06235 4.29259 3.00158C4.3744 2.94104 4.45761 2.88237 4.54223 2.8258C4.62685 2.76923 4.71287 2.71477 4.80006 2.66241C4.88748 2.61005 4.97607 2.56003 5.06583 2.51187C5.15559 2.46395 5.24652 2.41814 5.33862 2.37466C5.43072 2.33119 5.52375 2.28981 5.61771 2.25101C5.71168 2.21197 5.80682 2.17527 5.90266 2.14115C5.99849 2.10679 6.09503 2.07476 6.19251 2.04531C6.28998 2.01562 6.38815 1.98851 6.4868 1.96373C6.58567 1.93919 6.68478 1.91675 6.78483 1.89688C6.88464 1.87701 6.98492 1.85971 7.08567 1.84475C7.18618 1.82979 7.28739 1.8174 7.38861 1.80735C7.49005 1.7973 7.5915 1.78982 7.69318 1.78491C7.79486 1.77977 7.89654 1.77743 7.99846 1.77743C8.10014 1.77743 8.20182 1.78 8.3035 1.78515C8.40518 1.79029 8.50663 1.79777 8.60785 1.80805C8.70929 1.8181 8.81027 1.83049 8.91079 1.84569C9.01153 1.86065 9.11181 1.87818 9.21162 1.89805C9.31143 1.91792 9.41054 1.94036 9.50942 1.96513C9.60806 1.98991 9.706 2.01726 9.80348 2.04671C9.90095 2.0764 9.99749 2.10842 10.0933 2.14278C10.1892 2.17714 10.2841 2.21384 10.378 2.25265C10.472 2.29168 10.565 2.33306 10.6569 2.37653C10.749 2.42024 10.8399 2.46606 10.9297 2.51398C11.0192 2.5619 11.1078 2.61215 11.1952 2.66451C11.2824 2.71687 11.3684 2.77134 11.4531 2.8279C11.5377 2.88447 11.6207 2.94314 11.7025 3.00368C11.7843 3.06446 11.8645 3.1271 11.943 3.19162C12.0218 3.25613 12.0989 3.32252 12.1742 3.39101C12.2497 3.45926 12.3233 3.52962 12.3953 3.60138C12.4673 3.67338 12.5374 3.74724 12.6057 3.82251C12.6742 3.89801 12.7405 3.97491 12.8051 4.05369C12.8698 4.13223 12.9325 4.21264 12.993 4.29421C13.0538 4.37603 13.1122 4.45924 13.1688 4.54386C13.2253 4.62848 13.2798 4.71426 13.3322 4.80168C13.3845 4.88887 13.4348 4.97746 13.4827 5.06722C13.5309 5.15698 13.5767 5.24768 13.6201 5.33978C13.6636 5.43164 13.705 5.52467 13.744 5.61887C13.7831 5.71284 13.8198 5.80774 13.8541 5.90358C13.8883 5.99918 13.9203 6.09596 13.95 6.1932C13.9797 6.29067 14.0068 6.38861 14.0315 6.48749C14.0563 6.58613 14.0788 6.68547 14.0986 6.78528C14.1187 6.8851 14.136 6.98514 14.1512 7.08589C14.1662 7.18663 14.1788 7.28761 14.1889 7.38883C14.1989 7.49004 14.2064 7.59149 14.2115 7.69317C14.2167 7.79485 14.2192 7.89653 14.2195 7.99844Z" fill="#663366"/>
<path d="M7.10975 4.4436V7.10975H4.4436V8.88717H7.10975V11.5533H8.88717V8.88717H11.5533V7.10975H8.88717V4.4436H7.10975Z" fill="white"/>
</svg>
