<svg width="63" height="23" viewBox="0 0 63 23" fill="none" xmlns="http://www.w3.org/2000/svg">
<g filter="url(#filter0_i_42_41)">
<path d="M58.6757 6.99098L62.2423 20.8581C62.3794 21.3904 62.2528 21.9559 61.903 22.3789C61.5528 22.8019 61.0209 23.0314 60.4726 22.9965L46.0867 22.077C45.4434 22.0358 44.8766 21.6372 44.6206 21.0452C44.3649 20.4528 44.4625 19.7675 44.8737 19.271L48.2314 15.2145C47.8891 15.0602 47.5666 14.8474 47.2841 14.5691C47.1954 14.4821 38.3294 5.89572 26.9286 6.55498C19.6179 6.97753 12.6822 11.0971 6.30237 18.8047C6.13503 19.0073 5.96685 19.2134 5.79993 19.4206C5.79026 19.4328 5.78059 19.445 5.7705 19.4568C4.63656 20.8266 2.60833 21.0351 1.21749 19.9163C-0.185538 18.7879 -0.408795 16.7365 0.719262 15.3343C0.90636 15.1014 1.09346 14.8718 1.28182 14.6444C8.88138 5.46392 17.4026 0.552691 26.6217 0.0435303C40.9459 -0.747749 51.4335 9.50525 51.8724 9.94209C52.0091 10.0779 52.1285 10.2246 52.2357 10.3764L55.6682 6.22997C55.669 6.22913 55.6699 6.22829 55.6703 6.22703C56.2745 5.49756 57.3559 5.39623 58.0858 6.00041C58.4036 6.26319 58.6021 6.61594 58.6757 6.99098Z" fill="#51A133" fill-opacity="0.5"/>
</g>
<defs>
<filter id="filter0_i_42_41" x="0" y="-4" width="62.2964" height="27" filterUnits="userSpaceOnUse" color-interpolation-filters="sRGB">
<feFlood flood-opacity="0" result="BackgroundImageFix"/>
<feBlend mode="normal" in="SourceGraphic" in2="BackgroundImageFix" result="shape"/>
<feColorMatrix in="SourceAlpha" type="matrix" values="0 0 0 0 0 0 0 0 0 0 0 0 0 0 0 0 0 0 127 0" result="hardAlpha"/>
<feOffset dy="-4"/>
<feGaussianBlur stdDeviation="2"/>
<feComposite in2="hardAlpha" operator="arithmetic" k2="-1" k3="1"/>
<feColorMatrix type="matrix" values="0 0 0 0 0 0 0 0 0 0 0 0 0 0 0 0 0 0 0.25 0"/>
<feBlend mode="normal" in2="shape" result="effect1_innerShadow_42_41"/>
</filter>
</defs>
</svg>
