<svg width="34" height="35" viewBox="0 0 34 35" fill="none" xmlns="http://www.w3.org/2000/svg">
<mask id="path-1-inside-1_754_4005" fill="white">
<path d="M16.293 33.2228H1.77743V29.3715C1.77743 29.1922 1.7821 29.013 1.79099 28.8339C1.8001 28.6549 1.81343 28.476 1.83119 28.2977C1.84896 28.1191 1.87093 27.9412 1.89758 27.7638C1.92399 27.5866 1.95484 27.4099 1.98991 27.2341C2.02497 27.0581 2.06447 26.8833 2.10818 26.7094C2.1519 26.5354 2.19981 26.3627 2.25194 26.1911C2.30407 26.0196 2.3604 25.8494 2.42094 25.6806C2.48148 25.5119 2.546 25.3445 2.61472 25.179C2.68344 25.0133 2.75637 24.8494 2.83304 24.6874C2.90971 24.5252 2.99035 24.3651 3.07497 24.2071C3.15959 24.049 3.24795 23.8929 3.34028 23.7391C3.43261 23.5855 3.52844 23.4341 3.62825 23.2849C3.72783 23.1358 3.83115 22.9892 3.93797 22.8452C4.0448 22.7012 4.15513 22.5598 4.26896 22.4212C4.3828 22.2828 4.49991 22.147 4.62029 22.014C4.74067 21.8813 4.86432 21.7515 4.99101 21.6246C5.11794 21.4979 5.24767 21.3742 5.38067 21.2536C5.51344 21.1333 5.64925 21.0161 5.78786 20.9023C5.92648 20.7887 6.06766 20.6784 6.21165 20.5716C6.35587 20.4645 6.50244 20.3614 6.65133 20.2616C6.80047 20.162 6.95193 20.0659 7.10574 19.9739C7.25955 19.8815 7.41546 19.7932 7.57347 19.7085C7.73172 19.6239 7.89184 19.5433 8.05383 19.4666C8.21582 19.3897 8.37967 19.317 8.5454 19.2483C8.71113 19.1796 8.87826 19.1151 9.04703 19.0545C9.2158 18.994 9.38597 18.9376 9.55754 18.8855C9.72911 18.8332 9.90208 18.7852 10.076 18.7415C10.2499 18.6978 10.4247 18.6585 10.6005 18.6235C10.7763 18.5882 10.953 18.5576 11.1304 18.5309C11.3079 18.5045 11.4857 18.4823 11.6641 18.4648C11.8424 18.447 12.0213 18.4334 12.2005 18.4246C12.3796 18.4157 12.5586 18.411 12.7382 18.4108H16.293C16.4744 18.4112 16.6558 18.4063 16.837 18.396C17.0181 18.3858 17.199 18.3701 17.3793 18.3491C17.5595 18.328 17.739 18.3018 17.9178 18.2703C18.0966 18.2385 18.2743 18.2018 18.4508 18.1597C18.6272 18.1174 18.8023 18.0702 18.9762 18.0178C19.1499 17.9652 19.3219 17.9077 19.4923 17.8451C19.6627 17.7824 19.831 17.7147 19.9975 17.6422C20.1637 17.5695 20.3278 17.4921 20.4895 17.4098C20.6513 17.3276 20.8105 17.2404 20.9671 17.1488C21.1239 17.0569 21.2775 16.9606 21.4285 16.8598C21.5795 16.7591 21.7272 16.6539 21.8719 16.5443C22.0166 16.4346 22.158 16.321 22.2959 16.203C22.4338 16.0852 22.5683 15.9632 22.6992 15.8372C22.8298 15.7114 22.9567 15.5817 23.0799 15.4485C23.2029 15.315 23.3221 15.178 23.4371 15.0378C23.5521 14.8973 23.6627 14.7535 23.7693 14.6065C23.8758 14.4595 23.9778 14.3096 24.0755 14.1565C24.1729 14.0034 24.266 13.8477 24.3546 13.6893C24.4429 13.5308 24.5266 13.3697 24.6054 13.2063C24.6844 13.0427 24.7582 12.8772 24.8274 12.7094C24.8964 12.5415 24.9604 12.3716 25.0196 12.2C25.0787 12.0285 25.1325 11.8553 25.1813 11.6804C25.2302 11.5056 25.2737 11.3293 25.3122 11.1521C25.3506 10.9747 25.3835 10.7961 25.4113 10.6168C25.4392 10.4376 25.4618 10.2576 25.4789 10.0769C25.4962 9.89619 25.5079 9.71504 25.5144 9.53365C25.521 9.35226 25.5219 9.17087 25.5177 8.98948C25.5135 8.80785 25.5039 8.6267 25.4889 8.44577C25.474 8.26509 25.4537 8.08463 25.4279 7.90511C25.4022 7.72536 25.3714 7.54654 25.3351 7.36865C25.2989 7.19077 25.2575 7.01429 25.2108 6.83874C25.1643 6.66343 25.1124 6.48952 25.0553 6.31725C24.9985 6.14474 24.9366 5.97434 24.8695 5.80557C24.8024 5.63703 24.7304 5.47037 24.6535 5.30605C24.5766 5.14149 24.495 4.9795 24.4086 4.82008C24.3221 4.66043 24.2309 4.50358 24.1353 4.34931C24.0395 4.19503 23.9392 4.0438 23.8345 3.8956C23.7297 3.7474 23.6208 3.60224 23.5075 3.46036C23.3943 3.3187 23.277 3.18032 23.1554 3.04545C23.0341 2.91058 22.9086 2.77944 22.7793 2.65181C22.6503 2.52442 22.5173 2.401 22.3808 2.28132C22.2443 2.16164 22.1043 2.04617 21.961 1.9349C21.8177 1.82364 21.6711 1.71658 21.5215 1.61397C21.3717 1.51135 21.219 1.41317 21.0636 1.31944C20.9082 1.22571 20.7501 1.13688 20.5893 1.0525C20.4285 0.968348 20.2654 0.888873 20.1001 0.814307C19.9346 0.739507 19.767 0.669849 19.5975 0.605101C19.4278 0.540352 19.2565 0.480746 19.0835 0.426282C18.9103 0.371584 18.7357 0.322263 18.5597 0.277851C18.3837 0.233672 18.2065 0.194636 18.0281 0.160976C17.8498 0.127082 17.6707 0.0985645 17.4908 0.0754232C17.3105 0.052282 17.1301 0.0342832 16.9489 0.0218945C16.768 0.00927198 16.5866 0.00225952 16.4052 0.000389519C16.2236 -0.00124669 16.0422 0.00225949 15.8611 0.011142C15.6797 0.0202583 15.4987 0.034517 15.3183 0.054152C15.1378 0.073787 14.9583 0.0987982 14.7793 0.128952C14.6002 0.159339 14.4223 0.194869 14.2456 0.235542C14.0687 0.276448 13.8931 0.322497 13.719 0.373688C13.5448 0.424879 13.3723 0.481213 13.2017 0.542456C13.0308 0.603932 12.8618 0.670317 12.6952 0.741611C12.5283 0.812904 12.3635 0.88934 12.2012 0.970452C12.0388 1.05156 11.8789 1.13735 11.7216 1.22781C11.5643 1.31851 11.4098 1.41364 11.2583 1.51322C11.1066 1.61303 10.9579 1.71705 10.8123 1.82551C10.6669 1.9342 10.5248 2.04687 10.3859 2.16374C10.2471 2.28062 10.1118 2.40147 9.98015 2.52652C9.84832 2.65135 9.72046 2.77991 9.59634 2.91245C9.47222 3.04498 9.35231 3.18102 9.23613 3.32057C9.12019 3.46012 9.00846 3.60294 8.9007 3.74927C8.79318 3.89536 8.69009 4.04473 8.59122 4.1969C8.49258 4.34931 8.39837 4.50428 8.30885 4.66206C8.21932 4.82008 8.13447 4.98043 8.0543 5.14335C7.97412 5.30605 7.89909 5.47131 7.82873 5.63867C7.75837 5.8058 7.69292 5.97527 7.63261 6.14638C7.57231 6.31748 7.51714 6.49046 7.46712 6.66483C7.41686 6.83921 7.37198 7.01499 7.33248 7.19217C7.29274 7.36936 7.25815 7.54747 7.22916 7.72653C7.19994 7.90581 7.1761 8.08557 7.15763 8.26625C7.13917 8.44671 7.12584 8.62763 7.11813 8.80902C7.11018 8.99041 7.10785 9.1718 7.11065 9.35319C7.11369 9.53481 7.12187 9.71597 7.13566 9.89689C7.14922 10.078 7.16815 10.2585 7.19246 10.4383C7.21677 10.6182 7.24646 10.7971 7.28129 10.9752C7.31612 11.1533 7.35632 11.3302 7.40167 11.506C7.44702 11.6818 7.49751 11.8562 7.55314 12.0289C7.60877 12.2017 7.66954 12.3725 7.73546 12.5418C7.80115 12.711 7.87197 12.8779 7.94747 13.0429C8.02321 13.208 8.10362 13.3707 8.18894 13.5308C8.27425 13.6909 8.36425 13.8487 8.45892 14.0034C8.55335 14.1584 8.65246 14.3103 8.75624 14.4595C8.8598 14.6084 8.96755 14.7542 9.07975 14.897C9.19219 15.0396 9.30836 15.1787 9.42898 15.3145C9.54936 15.4503 9.67371 15.5824 9.80204 15.711C9.93013 15.8393 10.0622 15.9639 10.1978 16.0845C10.3334 16.2051 10.4724 16.3215 10.615 16.4339C10.7576 16.5464 10.9032 16.6544 11.0524 16.7582C10.8633 16.7836 10.6749 16.8131 10.4874 16.847C10.2997 16.8806 10.1127 16.9187 9.92686 16.9611C9.7408 17.0031 9.5559 17.0494 9.37217 17.0999C9.18821 17.1504 9.00566 17.2051 8.82403 17.2638C8.64264 17.3224 8.46266 17.3851 8.28407 17.4519C8.10549 17.5188 7.92854 17.5894 7.75299 17.6642C7.57768 17.739 7.40401 17.8175 7.23197 17.9C7.06016 17.9825 6.88999 18.0688 6.72216 18.159C6.55409 18.249 6.38813 18.343 6.22427 18.4405C6.06042 18.5382 5.89889 18.6394 5.73971 18.7441C5.58029 18.849 5.42345 18.9573 5.26894 19.0692C5.11467 19.181 4.96273 19.2962 4.8136 19.415C4.66423 19.5337 4.5179 19.6557 4.37391 19.7808C4.23016 19.9061 4.08944 20.0346 3.9513 20.1662C3.81338 20.2976 3.67828 20.4322 3.54644 20.5699C3.41437 20.7076 3.28558 20.8481 3.15982 20.9916C3.0343 21.1349 2.91181 21.2812 2.79284 21.4301C2.67362 21.579 2.55792 21.7305 2.44572 21.8845C2.33328 22.0386 2.22459 22.1952 2.11917 22.3541C2.01398 22.5131 1.9123 22.6744 1.81413 22.838C1.71619 23.0014 1.62175 23.1671 1.53129 23.3349C1.4406 23.5028 1.35388 23.6725 1.27089 23.844C1.18791 24.0159 1.10867 24.1893 1.03341 24.3644C0.958372 24.5397 0.887078 24.7164 0.819758 24.895C0.752439 25.0733 0.689326 25.2531 0.629954 25.4345C0.570816 25.6156 0.515651 25.7982 0.464693 25.9819C0.413736 26.1657 0.366752 26.3505 0.323976 26.5364C0.281434 26.7222 0.242865 26.9087 0.208504 27.0964C0.174143 27.2839 0.14399 27.4721 0.118043 27.6612C0.0920972 27.8501 0.0705922 28.0394 0.0530611 28.2292C0.0357636 28.4192 0.0224399 28.6093 0.0137912 28.7998C0.0049087 28.9903 0.000233734 29.1808 0 29.3715V35H16.293V33.2228ZM8.88691 9.22743C8.88691 9.10635 8.88995 8.98504 8.89603 8.86395C8.90187 8.7431 8.91075 8.62226 8.92267 8.50164C8.9346 8.38103 8.94932 8.26064 8.96709 8.14073C8.98485 8.02082 9.00566 7.9016 9.02926 7.78263C9.05287 7.66365 9.07952 7.5456 9.10897 7.42803C9.13842 7.31045 9.17068 7.19358 9.20598 7.07764C9.24104 6.9617 9.27914 6.84669 9.31981 6.73239C9.36072 6.61832 9.40443 6.50518 9.45071 6.39322C9.49723 6.28125 9.54632 6.17045 9.59798 6.06106C9.64987 5.95143 9.70433 5.8432 9.76137 5.73638C9.81863 5.62932 9.87824 5.5239 9.94065 5.42011C10.0031 5.3161 10.0678 5.21371 10.1351 5.11297C10.2025 5.01222 10.2721 4.91311 10.3443 4.81564C10.4166 4.7184 10.4911 4.62279 10.568 4.52906C10.6449 4.43556 10.7242 4.3437 10.8055 4.25394C10.8869 4.16418 10.9703 4.07629 11.0561 3.99073C11.1419 3.90495 11.2295 3.8215 11.3193 3.73992C11.4093 3.65858 11.5009 3.57957 11.5947 3.50266C11.6884 3.42576 11.7838 3.35119 11.8812 3.27897C11.9785 3.20674 12.0776 3.13708 12.1783 3.06953C12.2791 3.00221 12.3815 2.93746 12.4855 2.87505C12.5895 2.81287 12.6949 2.75303 12.8017 2.69599C12.9086 2.63896 13.0168 2.58426 13.1264 2.5326C13.236 2.48071 13.3468 2.43162 13.4588 2.38534C13.5708 2.33882 13.6839 2.29535 13.798 2.25444C13.9121 2.21353 14.0271 2.17567 14.143 2.14037C14.2592 2.10531 14.3758 2.07282 14.4934 2.04336C14.611 2.01391 14.7292 1.9875 14.848 1.96389C14.967 1.94028 15.0864 1.91948 15.2063 1.90171C15.3262 1.88395 15.4464 1.86899 15.567 1.85707C15.6876 1.84538 15.8085 1.83626 15.9295 1.83042C16.0506 1.82457 16.1717 1.82154 16.293 1.82154C16.4141 1.82154 16.5352 1.82457 16.6563 1.83042C16.7773 1.83626 16.8982 1.84538 17.0188 1.85707C17.1394 1.86899 17.2598 1.88395 17.3795 1.90171C17.4994 1.91948 17.6188 1.94028 17.7378 1.96389C17.8566 1.9875 17.9748 2.01391 18.0924 2.04336C18.21 2.07282 18.3266 2.10531 18.4428 2.14037C18.5588 2.17567 18.6738 2.21353 18.7878 2.25444C18.9019 2.29535 19.015 2.33882 19.127 2.38534C19.239 2.43162 19.3498 2.48071 19.4594 2.5326C19.569 2.58426 19.6772 2.63896 19.7841 2.69599C19.8909 2.75303 19.9963 2.81287 20.1003 2.87505C20.2043 2.93746 20.3067 3.00221 20.4075 3.06953C20.5082 3.13708 20.6073 3.20674 20.7046 3.27897C20.802 3.35119 20.8974 3.42576 20.9911 3.50266C21.0849 3.57957 21.1765 3.65858 21.2665 3.73992C21.3563 3.8215 21.4439 3.90495 21.5297 3.99073C21.6155 4.07629 21.6989 4.16418 21.7803 4.25394C21.8616 4.3437 21.9409 4.43556 22.0178 4.52906C22.0947 4.62279 22.1692 4.7184 22.2415 4.81564C22.3137 4.91311 22.3834 5.01222 22.4507 5.11297C22.518 5.21371 22.583 5.3161 22.6452 5.42011C22.7076 5.5239 22.7672 5.62932 22.8244 5.73638C22.8815 5.8432 22.9359 5.95143 22.9878 6.06106C23.0395 6.17045 23.0888 6.28125 23.1351 6.39322C23.1814 6.50518 23.2251 6.61832 23.266 6.73239C23.3067 6.84669 23.3448 6.9617 23.3798 7.07764C23.4151 7.19358 23.4474 7.31045 23.4768 7.42803C23.5063 7.5456 23.5329 7.66365 23.5565 7.78263C23.5802 7.9016 23.601 8.02082 23.6187 8.14073C23.6365 8.26064 23.6512 8.38103 23.6631 8.50164C23.6751 8.62226 23.6839 8.7431 23.69 8.86395C23.6959 8.98504 23.6989 9.10635 23.6989 9.22743C23.6989 9.34875 23.6959 9.46983 23.69 9.59092C23.6839 9.712 23.6751 9.83285 23.6631 9.95346C23.6512 10.0741 23.6365 10.1942 23.6187 10.3141C23.601 10.4341 23.5802 10.5535 23.5565 10.6722C23.5329 10.7912 23.5063 10.9093 23.4768 11.0268C23.4474 11.1444 23.4151 11.2613 23.3798 11.3772C23.3448 11.4932 23.3067 11.6084 23.266 11.7225C23.2251 11.8366 23.1814 11.9497 23.1351 12.0617C23.0888 12.1736 23.0395 12.2844 22.9878 12.3938C22.9359 12.5034 22.8815 12.6117 22.8244 12.7185C22.7672 12.8255 22.7076 12.931 22.6452 13.0348C22.583 13.1388 22.518 13.2412 22.4507 13.3419C22.3834 13.4426 22.3137 13.5418 22.2415 13.6392C22.1692 13.7365 22.0947 13.8321 22.0178 13.9258C21.9409 14.0193 21.8616 14.1112 21.7803 14.2009C21.6989 14.2907 21.6155 14.3786 21.5297 14.4641C21.4439 14.5499 21.3563 14.6334 21.2665 14.7149C21.1765 14.7963 21.0849 14.8755 20.9911 14.9522C20.8974 15.0291 20.802 15.1037 20.7046 15.1759C20.6073 15.2481 20.5082 15.318 20.4075 15.3853C20.3067 15.4527 20.2043 15.5174 20.1003 15.5798C19.9963 15.642 19.8909 15.7018 19.7841 15.7589C19.6772 15.8161 19.569 15.8706 19.4594 15.9223C19.3498 15.9742 19.239 16.0232 19.127 16.0695C19.015 16.116 18.9019 16.1595 18.7878 16.2004C18.6738 16.2413 18.5588 16.2792 18.4428 16.3145C18.3266 16.3496 18.21 16.3821 18.0924 16.4115C17.9748 16.441 17.8566 16.4674 17.7378 16.491C17.6188 16.5148 17.4994 16.5354 17.3795 16.5532C17.2598 16.5709 17.1394 16.5859 17.0188 16.5978C16.8982 16.6095 16.7773 16.6186 16.6563 16.6244C16.5352 16.6303 16.4141 16.6333 16.293 16.6333C16.1717 16.6333 16.0506 16.6301 15.9295 16.624C15.8087 16.6179 15.6878 16.609 15.5672 16.5969C15.4466 16.5849 15.3265 16.57 15.2066 16.5522C15.0869 16.5342 14.9674 16.5134 14.8487 16.4898C14.7299 16.466 14.6117 16.4393 14.4941 16.4099C14.3767 16.3802 14.2599 16.3479 14.1439 16.3126C14.028 16.2773 13.913 16.2392 13.7991 16.1983C13.6851 16.1574 13.5719 16.1139 13.46 16.0674C13.3482 16.0209 13.2375 15.9718 13.1281 15.9199C13.0184 15.868 12.9102 15.8136 12.8034 15.7565C12.6966 15.6993 12.5911 15.6397 12.4873 15.5772C12.3833 15.5148 12.2812 15.4501 12.1804 15.3828C12.0797 15.3154 11.9806 15.2456 11.8833 15.1733C11.7861 15.1011 11.6905 15.0268 11.5968 14.9499C11.5033 14.873 11.4114 14.7937 11.3216 14.7124C11.2319 14.631 11.1442 14.5476 11.0587 14.4618C10.9729 14.3762 10.8894 14.2884 10.8081 14.1986C10.7265 14.1088 10.6475 14.0172 10.5706 13.9235C10.4937 13.8297 10.4191 13.7344 10.3469 13.6371C10.2747 13.5397 10.205 13.4408 10.1377 13.34C10.0704 13.2393 10.0054 13.1369 9.94322 13.0331C9.88081 12.9291 9.82097 12.8237 9.76394 12.7169C9.70667 12.61 9.65221 12.502 9.60031 12.3924C9.54842 12.283 9.49933 12.1722 9.45305 12.0602C9.40654 11.9483 9.36282 11.8354 9.32192 11.7213C9.28101 11.6072 9.24291 11.4922 9.20785 11.3763C9.17255 11.2604 9.14006 11.1437 9.11061 11.0261C9.08092 10.9088 9.05451 10.7905 9.03067 10.6718C9.00682 10.5528 8.98602 10.4336 8.96826 10.3137C8.95026 10.1938 8.9353 10.0736 8.92338 9.95299C8.91145 9.83261 8.90234 9.71176 8.89626 9.59068C8.89018 9.4696 8.88714 9.34852 8.88691 9.22743Z"/>
</mask>
<path d="M16.293 33.2228H1.77743V29.3715C1.77743 29.1922 1.7821 29.013 1.79099 28.8339C1.8001 28.6549 1.81343 28.476 1.83119 28.2977C1.84896 28.1191 1.87093 27.9412 1.89758 27.7638C1.92399 27.5866 1.95484 27.4099 1.98991 27.2341C2.02497 27.0581 2.06447 26.8833 2.10818 26.7094C2.1519 26.5354 2.19981 26.3627 2.25194 26.1911C2.30407 26.0196 2.3604 25.8494 2.42094 25.6806C2.48148 25.5119 2.546 25.3445 2.61472 25.179C2.68344 25.0133 2.75637 24.8494 2.83304 24.6874C2.90971 24.5252 2.99035 24.3651 3.07497 24.2071C3.15959 24.049 3.24795 23.8929 3.34028 23.7391C3.43261 23.5855 3.52844 23.4341 3.62825 23.2849C3.72783 23.1358 3.83115 22.9892 3.93797 22.8452C4.0448 22.7012 4.15513 22.5598 4.26896 22.4212C4.3828 22.2828 4.49991 22.147 4.62029 22.014C4.74067 21.8813 4.86432 21.7515 4.99101 21.6246C5.11794 21.4979 5.24767 21.3742 5.38067 21.2536C5.51344 21.1333 5.64925 21.0161 5.78786 20.9023C5.92648 20.7887 6.06766 20.6784 6.21165 20.5716C6.35587 20.4645 6.50244 20.3614 6.65133 20.2616C6.80047 20.162 6.95193 20.0659 7.10574 19.9739C7.25955 19.8815 7.41546 19.7932 7.57347 19.7085C7.73172 19.6239 7.89184 19.5433 8.05383 19.4666C8.21582 19.3897 8.37967 19.317 8.5454 19.2483C8.71113 19.1796 8.87826 19.1151 9.04703 19.0545C9.2158 18.994 9.38597 18.9376 9.55754 18.8855C9.72911 18.8332 9.90208 18.7852 10.076 18.7415C10.2499 18.6978 10.4247 18.6585 10.6005 18.6235C10.7763 18.5882 10.953 18.5576 11.1304 18.5309C11.3079 18.5045 11.4857 18.4823 11.6641 18.4648C11.8424 18.447 12.0213 18.4334 12.2005 18.4246C12.3796 18.4157 12.5586 18.411 12.7382 18.4108H16.293C16.4744 18.4112 16.6558 18.4063 16.837 18.396C17.0181 18.3858 17.199 18.3701 17.3793 18.3491C17.5595 18.328 17.739 18.3018 17.9178 18.2703C18.0966 18.2385 18.2743 18.2018 18.4508 18.1597C18.6272 18.1174 18.8023 18.0702 18.9762 18.0178C19.1499 17.9652 19.3219 17.9077 19.4923 17.8451C19.6627 17.7824 19.831 17.7147 19.9975 17.6422C20.1637 17.5695 20.3278 17.4921 20.4895 17.4098C20.6513 17.3276 20.8105 17.2404 20.9671 17.1488C21.1239 17.0569 21.2775 16.9606 21.4285 16.8598C21.5795 16.7591 21.7272 16.6539 21.8719 16.5443C22.0166 16.4346 22.158 16.321 22.2959 16.203C22.4338 16.0852 22.5683 15.9632 22.6992 15.8372C22.8298 15.7114 22.9567 15.5817 23.0799 15.4485C23.2029 15.315 23.3221 15.178 23.4371 15.0378C23.5521 14.8973 23.6627 14.7535 23.7693 14.6065C23.8758 14.4595 23.9778 14.3096 24.0755 14.1565C24.1729 14.0034 24.266 13.8477 24.3546 13.6893C24.4429 13.5308 24.5266 13.3697 24.6054 13.2063C24.6844 13.0427 24.7582 12.8772 24.8274 12.7094C24.8964 12.5415 24.9604 12.3716 25.0196 12.2C25.0787 12.0285 25.1325 11.8553 25.1813 11.6804C25.2302 11.5056 25.2737 11.3293 25.3122 11.1521C25.3506 10.9747 25.3835 10.7961 25.4113 10.6168C25.4392 10.4376 25.4618 10.2576 25.4789 10.0769C25.4962 9.89619 25.5079 9.71504 25.5144 9.53365C25.521 9.35226 25.5219 9.17087 25.5177 8.98948C25.5135 8.80785 25.5039 8.6267 25.4889 8.44577C25.474 8.26509 25.4537 8.08463 25.4279 7.90511C25.4022 7.72536 25.3714 7.54654 25.3351 7.36865C25.2989 7.19077 25.2575 7.01429 25.2108 6.83874C25.1643 6.66343 25.1124 6.48952 25.0553 6.31725C24.9985 6.14474 24.9366 5.97434 24.8695 5.80557C24.8024 5.63703 24.7304 5.47037 24.6535 5.30605C24.5766 5.14149 24.495 4.9795 24.4086 4.82008C24.3221 4.66043 24.2309 4.50358 24.1353 4.34931C24.0395 4.19503 23.9392 4.0438 23.8345 3.8956C23.7297 3.7474 23.6208 3.60224 23.5075 3.46036C23.3943 3.3187 23.277 3.18032 23.1554 3.04545C23.0341 2.91058 22.9086 2.77944 22.7793 2.65181C22.6503 2.52442 22.5173 2.401 22.3808 2.28132C22.2443 2.16164 22.1043 2.04617 21.961 1.9349C21.8177 1.82364 21.6711 1.71658 21.5215 1.61397C21.3717 1.51135 21.219 1.41317 21.0636 1.31944C20.9082 1.22571 20.7501 1.13688 20.5893 1.0525C20.4285 0.968348 20.2654 0.888873 20.1001 0.814307C19.9346 0.739507 19.767 0.669849 19.5975 0.605101C19.4278 0.540352 19.2565 0.480746 19.0835 0.426282C18.9103 0.371584 18.7357 0.322263 18.5597 0.277851C18.3837 0.233672 18.2065 0.194636 18.0281 0.160976C17.8498 0.127082 17.6707 0.0985645 17.4908 0.0754232C17.3105 0.052282 17.1301 0.0342832 16.9489 0.0218945C16.768 0.00927198 16.5866 0.00225952 16.4052 0.000389519C16.2236 -0.00124669 16.0422 0.00225949 15.8611 0.011142C15.6797 0.0202583 15.4987 0.034517 15.3183 0.054152C15.1378 0.073787 14.9583 0.0987982 14.7793 0.128952C14.6002 0.159339 14.4223 0.194869 14.2456 0.235542C14.0687 0.276448 13.8931 0.322497 13.719 0.373688C13.5448 0.424879 13.3723 0.481213 13.2017 0.542456C13.0308 0.603932 12.8618 0.670317 12.6952 0.741611C12.5283 0.812904 12.3635 0.88934 12.2012 0.970452C12.0388 1.05156 11.8789 1.13735 11.7216 1.22781C11.5643 1.31851 11.4098 1.41364 11.2583 1.51322C11.1066 1.61303 10.9579 1.71705 10.8123 1.82551C10.6669 1.9342 10.5248 2.04687 10.3859 2.16374C10.2471 2.28062 10.1118 2.40147 9.98015 2.52652C9.84832 2.65135 9.72046 2.77991 9.59634 2.91245C9.47222 3.04498 9.35231 3.18102 9.23613 3.32057C9.12019 3.46012 9.00846 3.60294 8.9007 3.74927C8.79318 3.89536 8.69009 4.04473 8.59122 4.1969C8.49258 4.34931 8.39837 4.50428 8.30885 4.66206C8.21932 4.82008 8.13447 4.98043 8.0543 5.14335C7.97412 5.30605 7.89909 5.47131 7.82873 5.63867C7.75837 5.8058 7.69292 5.97527 7.63261 6.14638C7.57231 6.31748 7.51714 6.49046 7.46712 6.66483C7.41686 6.83921 7.37198 7.01499 7.33248 7.19217C7.29274 7.36936 7.25815 7.54747 7.22916 7.72653C7.19994 7.90581 7.1761 8.08557 7.15763 8.26625C7.13917 8.44671 7.12584 8.62763 7.11813 8.80902C7.11018 8.99041 7.10785 9.1718 7.11065 9.35319C7.11369 9.53481 7.12187 9.71597 7.13566 9.89689C7.14922 10.078 7.16815 10.2585 7.19246 10.4383C7.21677 10.6182 7.24646 10.7971 7.28129 10.9752C7.31612 11.1533 7.35632 11.3302 7.40167 11.506C7.44702 11.6818 7.49751 11.8562 7.55314 12.0289C7.60877 12.2017 7.66954 12.3725 7.73546 12.5418C7.80115 12.711 7.87197 12.8779 7.94747 13.0429C8.02321 13.208 8.10362 13.3707 8.18894 13.5308C8.27425 13.6909 8.36425 13.8487 8.45892 14.0034C8.55335 14.1584 8.65246 14.3103 8.75624 14.4595C8.8598 14.6084 8.96755 14.7542 9.07975 14.897C9.19219 15.0396 9.30836 15.1787 9.42898 15.3145C9.54936 15.4503 9.67371 15.5824 9.80204 15.711C9.93013 15.8393 10.0622 15.9639 10.1978 16.0845C10.3334 16.2051 10.4724 16.3215 10.615 16.4339C10.7576 16.5464 10.9032 16.6544 11.0524 16.7582C10.8633 16.7836 10.6749 16.8131 10.4874 16.847C10.2997 16.8806 10.1127 16.9187 9.92686 16.9611C9.7408 17.0031 9.5559 17.0494 9.37217 17.0999C9.18821 17.1504 9.00566 17.2051 8.82403 17.2638C8.64264 17.3224 8.46266 17.3851 8.28407 17.4519C8.10549 17.5188 7.92854 17.5894 7.75299 17.6642C7.57768 17.739 7.40401 17.8175 7.23197 17.9C7.06016 17.9825 6.88999 18.0688 6.72216 18.159C6.55409 18.249 6.38813 18.343 6.22427 18.4405C6.06042 18.5382 5.89889 18.6394 5.73971 18.7441C5.58029 18.849 5.42345 18.9573 5.26894 19.0692C5.11467 19.181 4.96273 19.2962 4.8136 19.415C4.66423 19.5337 4.5179 19.6557 4.37391 19.7808C4.23016 19.9061 4.08944 20.0346 3.9513 20.1662C3.81338 20.2976 3.67828 20.4322 3.54644 20.5699C3.41437 20.7076 3.28558 20.8481 3.15982 20.9916C3.0343 21.1349 2.91181 21.2812 2.79284 21.4301C2.67362 21.579 2.55792 21.7305 2.44572 21.8845C2.33328 22.0386 2.22459 22.1952 2.11917 22.3541C2.01398 22.5131 1.9123 22.6744 1.81413 22.838C1.71619 23.0014 1.62175 23.1671 1.53129 23.3349C1.4406 23.5028 1.35388 23.6725 1.27089 23.844C1.18791 24.0159 1.10867 24.1893 1.03341 24.3644C0.958372 24.5397 0.887078 24.7164 0.819758 24.895C0.752439 25.0733 0.689326 25.2531 0.629954 25.4345C0.570816 25.6156 0.515651 25.7982 0.464693 25.9819C0.413736 26.1657 0.366752 26.3505 0.323976 26.5364C0.281434 26.7222 0.242865 26.9087 0.208504 27.0964C0.174143 27.2839 0.14399 27.4721 0.118043 27.6612C0.0920972 27.8501 0.0705922 28.0394 0.0530611 28.2292C0.0357636 28.4192 0.0224399 28.6093 0.0137912 28.7998C0.0049087 28.9903 0.000233734 29.1808 0 29.3715V35H16.293V33.2228ZM8.88691 9.22743C8.88691 9.10635 8.88995 8.98504 8.89603 8.86395C8.90187 8.7431 8.91075 8.62226 8.92267 8.50164C8.9346 8.38103 8.94932 8.26064 8.96709 8.14073C8.98485 8.02082 9.00566 7.9016 9.02926 7.78263C9.05287 7.66365 9.07952 7.5456 9.10897 7.42803C9.13842 7.31045 9.17068 7.19358 9.20598 7.07764C9.24104 6.9617 9.27914 6.84669 9.31981 6.73239C9.36072 6.61832 9.40443 6.50518 9.45071 6.39322C9.49723 6.28125 9.54632 6.17045 9.59798 6.06106C9.64987 5.95143 9.70433 5.8432 9.76137 5.73638C9.81863 5.62932 9.87824 5.5239 9.94065 5.42011C10.0031 5.3161 10.0678 5.21371 10.1351 5.11297C10.2025 5.01222 10.2721 4.91311 10.3443 4.81564C10.4166 4.7184 10.4911 4.62279 10.568 4.52906C10.6449 4.43556 10.7242 4.3437 10.8055 4.25394C10.8869 4.16418 10.9703 4.07629 11.0561 3.99073C11.1419 3.90495 11.2295 3.8215 11.3193 3.73992C11.4093 3.65858 11.5009 3.57957 11.5947 3.50266C11.6884 3.42576 11.7838 3.35119 11.8812 3.27897C11.9785 3.20674 12.0776 3.13708 12.1783 3.06953C12.2791 3.00221 12.3815 2.93746 12.4855 2.87505C12.5895 2.81287 12.6949 2.75303 12.8017 2.69599C12.9086 2.63896 13.0168 2.58426 13.1264 2.5326C13.236 2.48071 13.3468 2.43162 13.4588 2.38534C13.5708 2.33882 13.6839 2.29535 13.798 2.25444C13.9121 2.21353 14.0271 2.17567 14.143 2.14037C14.2592 2.10531 14.3758 2.07282 14.4934 2.04336C14.611 2.01391 14.7292 1.9875 14.848 1.96389C14.967 1.94028 15.0864 1.91948 15.2063 1.90171C15.3262 1.88395 15.4464 1.86899 15.567 1.85707C15.6876 1.84538 15.8085 1.83626 15.9295 1.83042C16.0506 1.82457 16.1717 1.82154 16.293 1.82154C16.4141 1.82154 16.5352 1.82457 16.6563 1.83042C16.7773 1.83626 16.8982 1.84538 17.0188 1.85707C17.1394 1.86899 17.2598 1.88395 17.3795 1.90171C17.4994 1.91948 17.6188 1.94028 17.7378 1.96389C17.8566 1.9875 17.9748 2.01391 18.0924 2.04336C18.21 2.07282 18.3266 2.10531 18.4428 2.14037C18.5588 2.17567 18.6738 2.21353 18.7878 2.25444C18.9019 2.29535 19.015 2.33882 19.127 2.38534C19.239 2.43162 19.3498 2.48071 19.4594 2.5326C19.569 2.58426 19.6772 2.63896 19.7841 2.69599C19.8909 2.75303 19.9963 2.81287 20.1003 2.87505C20.2043 2.93746 20.3067 3.00221 20.4075 3.06953C20.5082 3.13708 20.6073 3.20674 20.7046 3.27897C20.802 3.35119 20.8974 3.42576 20.9911 3.50266C21.0849 3.57957 21.1765 3.65858 21.2665 3.73992C21.3563 3.8215 21.4439 3.90495 21.5297 3.99073C21.6155 4.07629 21.6989 4.16418 21.7803 4.25394C21.8616 4.3437 21.9409 4.43556 22.0178 4.52906C22.0947 4.62279 22.1692 4.7184 22.2415 4.81564C22.3137 4.91311 22.3834 5.01222 22.4507 5.11297C22.518 5.21371 22.583 5.3161 22.6452 5.42011C22.7076 5.5239 22.7672 5.62932 22.8244 5.73638C22.8815 5.8432 22.9359 5.95143 22.9878 6.06106C23.0395 6.17045 23.0888 6.28125 23.1351 6.39322C23.1814 6.50518 23.2251 6.61832 23.266 6.73239C23.3067 6.84669 23.3448 6.9617 23.3798 7.07764C23.4151 7.19358 23.4474 7.31045 23.4768 7.42803C23.5063 7.5456 23.5329 7.66365 23.5565 7.78263C23.5802 7.9016 23.601 8.02082 23.6187 8.14073C23.6365 8.26064 23.6512 8.38103 23.6631 8.50164C23.6751 8.62226 23.6839 8.7431 23.69 8.86395C23.6959 8.98504 23.6989 9.10635 23.6989 9.22743C23.6989 9.34875 23.6959 9.46983 23.69 9.59092C23.6839 9.712 23.6751 9.83285 23.6631 9.95346C23.6512 10.0741 23.6365 10.1942 23.6187 10.3141C23.601 10.4341 23.5802 10.5535 23.5565 10.6722C23.5329 10.7912 23.5063 10.9093 23.4768 11.0268C23.4474 11.1444 23.4151 11.2613 23.3798 11.3772C23.3448 11.4932 23.3067 11.6084 23.266 11.7225C23.2251 11.8366 23.1814 11.9497 23.1351 12.0617C23.0888 12.1736 23.0395 12.2844 22.9878 12.3938C22.9359 12.5034 22.8815 12.6117 22.8244 12.7185C22.7672 12.8255 22.7076 12.931 22.6452 13.0348C22.583 13.1388 22.518 13.2412 22.4507 13.3419C22.3834 13.4426 22.3137 13.5418 22.2415 13.6392C22.1692 13.7365 22.0947 13.8321 22.0178 13.9258C21.9409 14.0193 21.8616 14.1112 21.7803 14.2009C21.6989 14.2907 21.6155 14.3786 21.5297 14.4641C21.4439 14.5499 21.3563 14.6334 21.2665 14.7149C21.1765 14.7963 21.0849 14.8755 20.9911 14.9522C20.8974 15.0291 20.802 15.1037 20.7046 15.1759C20.6073 15.2481 20.5082 15.318 20.4075 15.3853C20.3067 15.4527 20.2043 15.5174 20.1003 15.5798C19.9963 15.642 19.8909 15.7018 19.7841 15.7589C19.6772 15.8161 19.569 15.8706 19.4594 15.9223C19.3498 15.9742 19.239 16.0232 19.127 16.0695C19.015 16.116 18.9019 16.1595 18.7878 16.2004C18.6738 16.2413 18.5588 16.2792 18.4428 16.3145C18.3266 16.3496 18.21 16.3821 18.0924 16.4115C17.9748 16.441 17.8566 16.4674 17.7378 16.491C17.6188 16.5148 17.4994 16.5354 17.3795 16.5532C17.2598 16.5709 17.1394 16.5859 17.0188 16.5978C16.8982 16.6095 16.7773 16.6186 16.6563 16.6244C16.5352 16.6303 16.4141 16.6333 16.293 16.6333C16.1717 16.6333 16.0506 16.6301 15.9295 16.624C15.8087 16.6179 15.6878 16.609 15.5672 16.5969C15.4466 16.5849 15.3265 16.57 15.2066 16.5522C15.0869 16.5342 14.9674 16.5134 14.8487 16.4898C14.7299 16.466 14.6117 16.4393 14.4941 16.4099C14.3767 16.3802 14.2599 16.3479 14.1439 16.3126C14.028 16.2773 13.913 16.2392 13.7991 16.1983C13.6851 16.1574 13.5719 16.1139 13.46 16.0674C13.3482 16.0209 13.2375 15.9718 13.1281 15.9199C13.0184 15.868 12.9102 15.8136 12.8034 15.7565C12.6966 15.6993 12.5911 15.6397 12.4873 15.5772C12.3833 15.5148 12.2812 15.4501 12.1804 15.3828C12.0797 15.3154 11.9806 15.2456 11.8833 15.1733C11.7861 15.1011 11.6905 15.0268 11.5968 14.9499C11.5033 14.873 11.4114 14.7937 11.3216 14.7124C11.2319 14.631 11.1442 14.5476 11.0587 14.4618C10.9729 14.3762 10.8894 14.2884 10.8081 14.1986C10.7265 14.1088 10.6475 14.0172 10.5706 13.9235C10.4937 13.8297 10.4191 13.7344 10.3469 13.6371C10.2747 13.5397 10.205 13.4408 10.1377 13.34C10.0704 13.2393 10.0054 13.1369 9.94322 13.0331C9.88081 12.9291 9.82097 12.8237 9.76394 12.7169C9.70667 12.61 9.65221 12.502 9.60031 12.3924C9.54842 12.283 9.49933 12.1722 9.45305 12.0602C9.40654 11.9483 9.36282 11.8354 9.32192 11.7213C9.28101 11.6072 9.24291 11.4922 9.20785 11.3763C9.17255 11.2604 9.14006 11.1437 9.11061 11.0261C9.08092 10.9088 9.05451 10.7905 9.03067 10.6718C9.00682 10.5528 8.98602 10.4336 8.96826 10.3137C8.95026 10.1938 8.9353 10.0736 8.92338 9.95299C8.91145 9.83261 8.90234 9.71176 8.89626 9.59068C8.89018 9.4696 8.88714 9.34852 8.88691 9.22743Z" fill="#663366" stroke="#663366" stroke-width="0.6" mask="url(#path-1-inside-1_754_4005)"/>
<circle cx="25.5" cy="27.2772" r="6.5" fill="#5DC4FE"/>
<path d="M17.5898 27.0017C17.5898 27.1326 17.5931 27.2633 17.5994 27.3942C17.606 27.5249 17.6156 27.6553 17.6284 27.7857C17.6413 27.9159 17.6572 28.0459 17.6763 28.1752C17.6955 28.3047 17.7179 28.4337 17.7434 28.562C17.7691 28.6903 17.7976 28.8182 17.8294 28.9451C17.8612 29.0721 17.8963 29.1983 17.9342 29.3236C17.9723 29.4486 18.0132 29.573 18.0573 29.6962C18.1015 29.8196 18.1485 29.9416 18.1988 30.0625C18.2488 30.1835 18.3018 30.303 18.3577 30.4215C18.4138 30.5398 18.4725 30.6566 18.5342 30.7721C18.5959 30.8876 18.6604 31.0014 18.7277 31.1136C18.7951 31.2258 18.865 31.3364 18.9379 31.4453C19.0106 31.5542 19.0858 31.6611 19.1639 31.7663C19.2418 31.8714 19.3224 31.9745 19.4054 32.0757C19.4884 32.177 19.5739 32.2761 19.6618 32.3731C19.7497 32.4701 19.8399 32.5647 19.9325 32.6573C20.0251 32.7499 20.1197 32.8401 20.2167 32.928C20.3137 33.0159 20.4128 33.1014 20.5141 33.1844C20.6153 33.2676 20.7184 33.348 20.8235 33.4261C20.9287 33.504 21.0358 33.5795 21.1445 33.6522C21.2534 33.7248 21.364 33.7947 21.4762 33.8621C21.5886 33.9294 21.7024 33.9939 21.8177 34.0556C21.9332 34.1173 22.05 34.1762 22.1685 34.2321C22.2868 34.2882 22.4065 34.341 22.5273 34.3913C22.6482 34.4413 22.7704 34.4885 22.8936 34.5325C23.0168 34.5766 23.1412 34.6178 23.2665 34.6556C23.3918 34.6937 23.5177 34.7286 23.6447 34.7604C23.7718 34.7921 23.8995 34.8209 24.0278 34.8464C24.1561 34.8719 24.2851 34.8943 24.4146 34.9135C24.5441 34.9326 24.6739 34.9488 24.8043 34.9616C24.9345 34.9745 25.0649 34.9841 25.1958 34.9904C25.3265 34.9969 25.4574 35 25.5883 35C25.7192 35 25.8499 34.9969 25.9808 34.9904C26.1114 34.9841 26.2419 34.9745 26.3723 34.9616C26.5025 34.9488 26.6325 34.9326 26.7617 34.9135C26.8912 34.8943 27.0203 34.8719 27.1486 34.8464C27.2769 34.8209 27.4048 34.7921 27.5317 34.7604C27.6586 34.7286 27.7849 34.6937 27.9101 34.6556C28.0352 34.6178 28.1596 34.5766 28.2827 34.5325C28.4062 34.4885 28.5282 34.4413 28.649 34.3913C28.7701 34.341 28.8896 34.2882 29.0081 34.2321C29.1263 34.1762 29.2432 34.1173 29.3587 34.0556C29.4742 33.9939 29.588 33.9294 29.7002 33.8621C29.8124 33.7947 29.923 33.7248 30.0319 33.6522C30.1408 33.5795 30.2476 33.504 30.3528 33.4261C30.458 33.348 30.5611 33.2676 30.6623 33.1844C30.7635 33.1014 30.8626 33.0159 30.9596 32.928C31.0567 32.8401 31.1513 32.7499 31.2439 32.6573C31.3364 32.5647 31.4267 32.4701 31.5146 32.3731C31.6025 32.2761 31.688 32.177 31.771 32.0757C31.8542 31.9745 31.9346 31.8714 32.0127 31.7663C32.0905 31.6611 32.166 31.5542 32.2387 31.4453C32.3114 31.3364 32.3813 31.2258 32.4486 31.1136C32.516 31.0014 32.5805 30.8876 32.6422 30.7721C32.7039 30.6566 32.7628 30.5398 32.8187 30.4215C32.8748 30.303 32.9278 30.1835 32.9778 30.0625C33.0279 29.9416 33.0751 29.8196 33.119 29.6962C33.1632 29.573 33.2043 29.4486 33.2422 29.3236C33.2803 29.1983 33.3151 29.0721 33.3469 28.9451C33.3787 28.8182 33.4075 28.6903 33.433 28.562C33.4584 28.4337 33.4809 28.3047 33.5 28.1752C33.5192 28.0459 33.5353 27.9159 33.5482 27.7857C33.561 27.6553 33.5706 27.5249 33.5769 27.3942C33.5835 27.2633 33.5868 27.1326 33.5868 27.0017C33.5868 26.8708 33.5835 26.7399 33.5769 26.6093C33.5706 26.4784 33.561 26.3479 33.5482 26.2177C33.5353 26.0873 33.5192 25.9576 33.5 25.8281C33.4809 25.6986 33.4584 25.5696 33.433 25.4412C33.4075 25.3129 33.3787 25.1853 33.3469 25.0581C33.3151 24.9312 33.2803 24.8052 33.2422 24.6799C33.2043 24.5546 33.1632 24.4303 33.119 24.3071C33.0751 24.1839 33.0279 24.0616 32.9778 23.9408C32.9278 23.8199 32.8748 23.7003 32.8187 23.582C32.7628 23.4635 32.7039 23.3466 32.6422 23.2311C32.5805 23.1159 32.516 23.0018 32.4486 22.8896C32.3813 22.7774 32.3114 22.6669 32.2387 22.5579C32.166 22.4492 32.0905 22.3422 32.0127 22.237C31.9346 22.1318 31.8542 22.0287 31.771 21.9275C31.688 21.8263 31.6025 21.7272 31.5146 21.6302C31.4267 21.5332 31.3364 21.4385 31.2439 21.3459C31.1513 21.2534 31.0567 21.1631 30.9596 21.0753C30.8626 20.9874 30.7635 20.9018 30.6623 20.8188C30.5611 20.7358 30.458 20.6552 30.3528 20.5774C30.2476 20.4993 30.1408 20.424 30.0319 20.3513C29.923 20.2784 29.8124 20.2085 29.7002 20.1412C29.588 20.0739 29.4742 20.0094 29.3587 19.9476C29.2432 19.8859 29.1263 19.8273 29.0081 19.7712C28.8896 19.7153 28.7701 19.6622 28.649 19.612C28.5282 19.562 28.4062 19.515 28.2827 19.4708C28.1596 19.4266 28.0352 19.3857 27.9101 19.3476C27.7849 19.3097 27.6586 19.2747 27.5317 19.2429C27.4048 19.2111 27.2769 19.1826 27.1486 19.1569C27.0203 19.1314 26.8912 19.109 26.7617 19.0898C26.6325 19.0706 26.5025 19.0547 26.3723 19.0419C26.2419 19.029 26.1114 19.0194 25.9808 19.0129C25.8499 19.0066 25.7192 19.0033 25.5883 19.0033C25.4574 19.0033 25.3265 19.0068 25.1958 19.0133C25.0652 19.0199 24.9347 19.0297 24.8045 19.0426C24.6743 19.0554 24.5444 19.0716 24.4151 19.091C24.2856 19.1104 24.1568 19.1328 24.0285 19.1583C23.9002 19.184 23.7725 19.2127 23.6456 19.2448C23.5187 19.2765 23.3927 19.3116 23.2674 19.3497C23.1421 19.3876 23.018 19.4287 22.8948 19.4729C22.7716 19.5171 22.6496 19.5643 22.5287 19.6143C22.4079 19.6646 22.2882 19.7176 22.1699 19.7737C22.0517 19.8296 21.9348 19.8885 21.8196 19.9502C21.7041 20.0119 21.5902 20.0764 21.478 20.1438C21.3658 20.2111 21.2553 20.2812 21.1466 20.3539C21.0379 20.4266 20.9308 20.5019 20.8259 20.5799C20.7207 20.658 20.6176 20.7384 20.5164 20.8214C20.4152 20.9044 20.3163 20.9899 20.2193 21.0778C20.1223 21.1657 20.0276 21.2559 19.9351 21.3485C19.8425 21.4411 19.7523 21.5357 19.6644 21.6327C19.5765 21.7298 19.4909 21.8286 19.408 21.9298C19.325 22.0311 19.2446 22.1341 19.1665 22.2391C19.0884 22.3443 19.0131 22.4513 18.9405 22.56C18.8678 22.6687 18.7976 22.7793 18.7303 22.8915C18.663 23.0037 18.5985 23.1175 18.5368 23.233C18.4751 23.3482 18.4162 23.4651 18.3603 23.5834C18.3042 23.7017 18.2511 23.8213 18.2009 23.9422C18.1508 24.063 18.1036 24.1851 18.0594 24.3082C18.0153 24.4314 17.9741 24.5556 17.9363 24.6808C17.8982 24.8059 17.8631 24.9321 17.8313 25.059C17.7993 25.186 17.7705 25.3136 17.7448 25.4419C17.7193 25.5703 17.6969 25.6991 17.6775 25.8286C17.6581 25.9578 17.642 26.0878 17.6291 26.218C17.6163 26.3482 17.6064 26.4786 17.5999 26.6093C17.5934 26.7399 17.5898 26.8708 17.5898 27.0017ZM31.8093 27.0017C31.8093 27.1034 31.8068 27.2051 31.8016 27.307C31.7967 27.4087 31.7892 27.5101 31.7792 27.6114C31.7694 27.7128 31.7567 27.8138 31.7418 27.9145C31.727 28.0153 31.7095 28.1156 31.6896 28.2154C31.6698 28.3152 31.6476 28.4145 31.6228 28.5132C31.598 28.612 31.5709 28.71 31.5414 28.8075C31.5118 28.9049 31.48 29.0015 31.4456 29.0975C31.4113 29.1934 31.3746 29.2883 31.3357 29.3822C31.2967 29.4764 31.2556 29.5695 31.2119 29.6616C31.1684 29.7534 31.1226 29.8444 31.0746 29.9341C31.0267 30.0239 30.9765 30.1125 30.9241 30.1999C30.8718 30.2871 30.8173 30.3731 30.7607 30.4577C30.7042 30.5426 30.6457 30.6258 30.5849 30.7076C30.5244 30.7892 30.4618 30.8696 30.397 30.9481C30.3325 31.0269 30.2661 31.104 30.1976 31.1793C30.1294 31.2548 30.0592 31.3284 29.9872 31.4004C29.9152 31.4724 29.8414 31.5428 29.7659 31.611C29.6906 31.6795 29.6135 31.7459 29.5347 31.8104C29.4562 31.8752 29.3758 31.9378 29.2942 31.9984C29.2124 32.0591 29.1291 32.1176 29.0445 32.1742C28.9597 32.2307 28.8739 32.2852 28.7865 32.3375C28.699 32.3899 28.6107 32.4402 28.5207 32.4881C28.4309 32.536 28.34 32.5818 28.2481 32.6253C28.156 32.669 28.063 32.7101 27.9688 32.7492C27.8748 32.788 27.7799 32.8247 27.6841 32.859C27.5883 32.8932 27.4915 32.9252 27.394 32.9549C27.2965 32.9843 27.1986 33.0114 27.0997 33.0362C27.0011 33.061 26.9017 33.0832 26.8019 33.1031C26.7021 33.1229 26.6018 33.1405 26.5011 33.1552C26.4004 33.1702 26.2994 33.1828 26.1979 33.1926C26.0967 33.2027 25.9953 33.2101 25.8936 33.215C25.7919 33.2202 25.69 33.2228 25.5883 33.2228C25.4864 33.2228 25.3847 33.2202 25.283 33.215C25.1813 33.2101 25.0799 33.2027 24.9784 33.1926C24.8772 33.1828 24.776 33.1702 24.6755 33.1552C24.5748 33.1405 24.4745 33.1229 24.3747 33.1031C24.2746 33.0832 24.1755 33.061 24.0766 33.0362C23.978 33.0114 23.8798 32.9843 23.7824 32.9549C23.6849 32.9252 23.5883 32.8932 23.4925 32.859C23.3967 32.8247 23.3015 32.788 23.2076 32.7492C23.1136 32.7101 23.0206 32.669 22.9285 32.6253C22.8364 32.5818 22.7454 32.536 22.6557 32.4881C22.5659 32.4402 22.4773 32.3899 22.3899 32.3375C22.3027 32.2852 22.2167 32.2307 22.1321 32.1742C22.0475 32.1176 21.9642 32.0591 21.8824 31.9984C21.8006 31.9378 21.7204 31.8752 21.6417 31.8104C21.5629 31.7459 21.486 31.6795 21.4105 31.611C21.335 31.5428 21.2614 31.4724 21.1894 31.4004C21.1174 31.3284 21.0472 31.2548 20.9788 31.1793C20.9105 31.104 20.8439 31.0269 20.7794 30.9481C20.7148 30.8696 20.6522 30.7892 20.5914 30.7074C20.5309 30.6258 20.4722 30.5426 20.4156 30.4577C20.3591 30.3731 20.3046 30.2871 20.2523 30.1999C20.1999 30.1125 20.1499 30.0239 20.1017 29.9341C20.0538 29.8444 20.008 29.7534 19.9645 29.6616C19.921 29.5695 19.8797 29.4764 19.8409 29.3822C19.8018 29.2883 19.7651 29.1934 19.731 29.0975C19.6966 29.0015 19.6646 28.9049 19.6352 28.8075C19.6055 28.71 19.5784 28.612 19.5536 28.5132C19.529 28.4145 19.5066 28.3152 19.4867 28.2154C19.4669 28.1156 19.4496 28.0153 19.4346 27.9145C19.4196 27.8138 19.4073 27.7128 19.3972 27.6114C19.3871 27.5101 19.3797 27.4087 19.3748 27.307C19.3699 27.2051 19.3673 27.1034 19.3673 27.0017C19.3673 26.8998 19.3699 26.7981 19.3748 26.6965C19.3797 26.5948 19.3871 26.4931 19.3972 26.3919C19.4073 26.2907 19.4196 26.1895 19.4346 26.0889C19.4496 25.9882 19.4669 25.8879 19.4867 25.7881C19.5066 25.6881 19.529 25.5887 19.5536 25.4901C19.5784 25.3912 19.6055 25.2933 19.6352 25.1958C19.6646 25.0983 19.6966 25.0018 19.731 24.9059C19.7651 24.8101 19.8018 24.715 19.8409 24.621C19.8797 24.527 19.921 24.4338 19.9645 24.3419C20.008 24.2498 20.0538 24.1589 20.1017 24.0691C20.1499 23.9794 20.1999 23.8908 20.2523 23.8033C20.3046 23.7162 20.3591 23.6301 20.4156 23.5455C20.4722 23.4609 20.5309 23.3777 20.5914 23.2959C20.6522 23.2141 20.7148 23.1339 20.7794 23.0551C20.8439 22.9763 20.9105 22.8994 20.9788 22.8239C21.0472 22.7484 21.1174 22.6748 21.1894 22.6028C21.2614 22.5308 21.335 22.4607 21.4105 22.3922C21.486 22.3239 21.5629 22.2573 21.6417 22.1928C21.7204 22.1283 21.8006 22.0656 21.8824 22.0049C21.9642 21.9443 22.0475 21.8857 22.1321 21.8291C22.2167 21.7725 22.3027 21.7181 22.3899 21.6657C22.4773 21.6133 22.5659 21.5633 22.6557 21.5152C22.7454 21.4673 22.8364 21.4214 22.9285 21.378C23.0206 21.3345 23.1136 21.2931 23.2076 21.2543C23.3015 21.2153 23.3967 21.1786 23.4925 21.1444C23.5883 21.1101 23.6849 21.0781 23.7824 21.0486C23.8798 21.0189 23.978 20.9918 24.0766 20.967C24.1755 20.9425 24.2746 20.92 24.3747 20.9002C24.4745 20.8803 24.5748 20.863 24.6755 20.848C24.776 20.8331 24.8772 20.8207 24.9784 20.8106C25.0799 20.8006 25.1813 20.7931 25.283 20.7882C25.3847 20.7831 25.4864 20.7807 25.5883 20.7807C25.69 20.7807 25.7917 20.7833 25.8933 20.7884C25.995 20.7936 26.0965 20.8011 26.1977 20.8113C26.2991 20.8214 26.4001 20.8338 26.5006 20.849C26.6014 20.8639 26.7017 20.8815 26.8015 20.9013C26.9013 20.9212 27.0004 20.9437 27.0993 20.9684C27.1979 20.9932 27.2958 21.0206 27.3933 21.05C27.4908 21.0797 27.5873 21.1117 27.6832 21.1461C27.779 21.1804 27.8739 21.2171 27.9679 21.2559C28.0618 21.295 28.1549 21.3364 28.2467 21.3798C28.3388 21.4235 28.4298 21.4694 28.5195 21.5173C28.6091 21.5652 28.6976 21.6154 28.7851 21.6678C28.8723 21.7202 28.9583 21.7746 29.0429 21.8312C29.1275 21.8878 29.2105 21.9464 29.2923 22.007C29.3741 22.0678 29.4543 22.1304 29.5328 22.1949C29.6116 22.2594 29.6887 22.3258 29.764 22.3943C29.8395 22.4626 29.9131 22.5329 29.9851 22.6047C30.0571 22.6767 30.1273 22.7505 30.1955 22.8258C30.264 22.9013 30.3304 22.9782 30.3949 23.057C30.4597 23.1355 30.5223 23.2159 30.5828 23.2975C30.6436 23.3793 30.7021 23.4625 30.7586 23.5472C30.8152 23.6318 30.8697 23.7176 30.922 23.805C30.9744 23.8922 31.0246 23.9808 31.0725 24.0705C31.1207 24.1603 31.1665 24.251 31.21 24.3431C31.2535 24.4349 31.2948 24.528 31.3339 24.6222C31.3729 24.7161 31.4096 24.811 31.444 24.9069C31.4781 25.0025 31.5101 25.0993 31.5398 25.1965C31.5695 25.294 31.5966 25.3919 31.6214 25.4908C31.6462 25.5894 31.6686 25.6888 31.6885 25.7886C31.7086 25.8884 31.7259 25.9884 31.7411 26.0892C31.756 26.1899 31.7687 26.2909 31.7787 26.3921C31.7888 26.4933 31.7962 26.5948 31.8014 26.6965C31.8065 26.7981 31.8091 26.8998 31.8093 27.0017Z" fill="#5DC4FE"/>
<path d="M24.6993 23.4469V26.113H22.0332V27.8905H24.6993V30.5566H26.4768V27.8905H29.1429V26.113H26.4768V23.4469H24.6993Z" fill="white"/>
</svg>
