<svg width="21" height="23" viewBox="0 0 21 23" fill="none" xmlns="http://www.w3.org/2000/svg">
<path d="M17.0317 16.8374C16.6479 16.6383 16.2145 16.3314 16.1442 16.2143C15.5578 14.888 15.2492 10.3154 15.1791 8.6487C15.1747 5.54701 13.5211 3.02865 10.9271 2.10703C10.838 0.929948 9.8582 0 8.66641 0C7.47476 0 6.49497 0.929948 6.40624 2.10703C3.80861 3.02969 2.15429 5.5526 2.15429 8.64297C2.10424 10.2684 1.8546 14.776 1.31459 16.0897C1.23349 16.2333 0.744307 16.5927 0.289013 16.8443C0.0662818 16.9673 -0.0457307 17.2267 0.0175189 17.4746C0.0807685 17.7227 0.301948 17.8957 0.55624 17.8957H6.07939C6.33575 19.0964 7.39767 20 8.66641 20C9.93529 20 10.9976 19.0964 11.2538 17.8953H16.7767C17.0333 17.8953 17.2571 17.7186 17.3178 17.4673C17.3779 17.2156 17.2598 16.9553 17.0317 16.8374ZM8.66641 18.8799C8.01684 18.8799 7.46118 18.4707 7.23806 17.8953H10.0953C9.87178 18.4707 9.31611 18.8799 8.66641 18.8799ZM2.19232 16.775C2.25389 16.694 2.30356 16.6113 2.33745 16.529C3.07122 14.746 3.25864 8.925 3.26692 8.66068C3.26692 5.90729 4.77973 3.70664 7.12178 3.05404C7.38965 2.9793 7.56155 2.71706 7.52482 2.43971C7.51654 2.3763 7.51214 2.3263 7.51214 2.28229C7.51214 1.64167 8.03004 1.12031 8.66641 1.12031C9.30318 1.12031 9.82082 1.64167 9.82082 2.28229C9.82082 2.3263 9.81681 2.3763 9.80853 2.43971C9.77141 2.71706 9.94331 2.97969 10.2114 3.05404C12.5532 3.70664 14.0664 5.90729 14.0664 8.66068C14.0664 8.66836 14.0664 8.6763 14.0667 8.68398C14.0773 8.93594 14.3337 14.8743 15.128 16.6703C15.1439 16.7053 15.1621 16.7406 15.1827 16.775H2.19232Z" fill="white"/>
<path d="M21 17.5C21 20.5376 18.5376 23 15.5 23C12.4624 23 10 20.5376 10 17.5C10 14.4624 12.4624 12 15.5 12C18.5376 12 21 14.4624 21 17.5Z" fill="#FF0000"/>
</svg>
