<svg width="30" height="30" viewBox="0 0 30 30" fill="none" xmlns="http://www.w3.org/2000/svg">
<path d="M3.06143 18.3062V3.03004H18.3376V8.93219L21.3992 9.9423V1.51516C21.3992 0.662917 20.7362 0.000220108 19.8842 0.000220108L1.51494 0C0.694371 0 0 0.662922 0 1.51494V19.8527C0 20.7049 0.694371 21.3676 1.51494 21.3676H9.94208L8.93197 18.306L3.06143 18.3062Z" fill="white"/>
<path d="M29.2898 25.8811L23.6401 20.2314L27.4593 17.5485C28.4377 16.8856 28.2168 15.4024 27.0806 15.0235L11.867 10.0368C10.7622 9.65813 9.68913 10.7312 10.0678 11.836L15.0547 27.0806C15.4333 28.1854 16.9168 28.4062 17.5797 27.4593L20.2626 23.6401L25.9123 29.2898C26.8592 30.2367 28.3741 30.2367 29.2896 29.2898C30.205 28.3114 30.205 26.7965 29.2896 25.8812L29.2898 25.8811Z" fill="white"/>
</svg>
