<svg width="36" height="35" viewBox="0 0 36 35" fill="none" xmlns="http://www.w3.org/2000/svg">
<path d="M30.4729 12.394C30.6213 19.5409 24.1869 24.7286 17.8563 24.7286C10.7242 24.7286 5.33616 18.539 5.36584 12.342C5.40295 6.14506 10.6648 -0.0148163 17.9157 2.6771e-05C24.8325 0.0148698 30.4878 5.58102 30.4729 12.394Z" fill="black" fill-opacity="0.25"/>
<path d="M35.4972 35C23.7489 35 12.0526 35 0 35C0.452714 33.4489 0.719889 31.9868 1.29877 30.6584C2.85729 27.1406 5.72201 24.9735 9.18044 23.5189C9.45504 23.4075 9.91518 23.4669 10.1749 23.6302C15.3181 26.866 20.4463 26.8734 25.5895 23.6599C25.8418 23.504 26.2129 23.3853 26.4875 23.4446C30.9033 24.313 35.7273 30.4432 35.4972 35Z" fill="black" fill-opacity="0.25"/>
</svg>
