<svg width="38" height="35" viewBox="0 0 38 35" fill="none" xmlns="http://www.w3.org/2000/svg">
<circle cx="23.8605" cy="29.2789" r="4.81536" fill="#5DC4FE"/>
<path d="M18 29.0747C18 29.1717 18.0024 29.2685 18.0071 29.3655C18.0119 29.4623 18.019 29.5589 18.0286 29.6555C18.0381 29.752 18.0499 29.8483 18.0641 29.944C18.0783 30.04 18.0949 30.1356 18.1138 30.2306C18.1328 30.3257 18.1539 30.4204 18.1775 30.5144C18.201 30.6085 18.227 30.702 18.2551 30.7948C18.2833 30.8875 18.3136 30.9796 18.3463 31.0708C18.3791 31.1623 18.4139 31.2527 18.4511 31.3422C18.4882 31.4319 18.5275 31.5204 18.5689 31.6082C18.6104 31.6958 18.6539 31.7824 18.6996 31.8679C18.7453 31.9535 18.7931 32.0378 18.843 32.1209C18.8929 32.204 18.9446 32.286 18.9987 32.3666C19.0525 32.4473 19.1083 32.5265 19.1661 32.6044C19.2238 32.6823 19.2835 32.7587 19.345 32.8337C19.4065 32.9087 19.4698 32.9821 19.535 33.054C19.6001 33.1258 19.6669 33.1959 19.7355 33.2645C19.8041 33.3331 19.8742 33.3999 19.9461 33.465C20.0179 33.5302 20.0913 33.5935 20.1663 33.655C20.2413 33.7167 20.3177 33.7762 20.3956 33.8341C20.4735 33.8917 20.5528 33.9477 20.6334 34.0015C20.7141 34.0554 20.796 34.1072 20.8791 34.157C20.9624 34.2069 21.0467 34.2547 21.1321 34.3004C21.2176 34.3461 21.3042 34.3898 21.392 34.4312C21.4796 34.4727 21.5683 34.5118 21.6578 34.5491C21.7474 34.5861 21.8379 34.6211 21.9292 34.6537C22.0204 34.6864 22.1126 34.7169 22.2054 34.7449C22.2982 34.7732 22.3915 34.799 22.4856 34.8225C22.5798 34.8461 22.6743 34.8674 22.7694 34.8862C22.8645 34.9051 22.96 34.9217 23.056 34.9359C23.1519 34.9501 23.248 34.9621 23.3446 34.9716C23.4411 34.9811 23.5377 34.9882 23.6347 34.9929C23.7315 34.9978 23.8285 35 23.9255 35C24.0224 35 24.1192 34.9978 24.2162 34.9929C24.313 34.9882 24.4096 34.9811 24.5063 34.9716C24.6027 34.9621 24.699 34.9501 24.7948 34.9359C24.8907 34.9217 24.9863 34.9051 25.0813 34.8862C25.1764 34.8674 25.2711 34.8461 25.3652 34.8225C25.4592 34.799 25.5527 34.7732 25.6455 34.7449C25.7382 34.7169 25.8303 34.6864 25.9216 34.6537C26.013 34.6211 26.1034 34.5861 26.1929 34.5491C26.2826 34.5118 26.3711 34.4727 26.4589 34.4312C26.5465 34.3898 26.6331 34.3461 26.7187 34.3004C26.8042 34.2547 26.8885 34.2069 26.9716 34.157C27.0548 34.1072 27.1367 34.0554 27.2174 34.0015C27.2981 33.9477 27.3772 33.8917 27.4551 33.8341C27.5331 33.7762 27.6094 33.7167 27.6844 33.655C27.7594 33.5935 27.8328 33.5302 27.9047 33.465C27.9765 33.3999 28.0467 33.3331 28.1152 33.2645C28.1838 33.1959 28.2507 33.1258 28.3158 33.054C28.3809 32.9821 28.4443 32.9087 28.5057 32.8337C28.5674 32.7587 28.627 32.6823 28.6848 32.6044C28.7425 32.5265 28.7984 32.4473 28.8523 32.3666C28.9061 32.286 28.9579 32.204 29.0078 32.1209C29.0576 32.0378 29.1054 31.9535 29.1511 31.8679C29.1969 31.7824 29.2405 31.6958 29.2819 31.6082C29.3234 31.5204 29.3627 31.4319 29.3998 31.3422C29.4369 31.2527 29.4718 31.1623 29.5044 31.0708C29.5371 30.9796 29.5676 30.8875 29.5957 30.7948C29.6239 30.702 29.6497 30.6085 29.6732 30.5144C29.6968 30.4204 29.7181 30.3257 29.737 30.2306C29.7558 30.1356 29.7725 30.04 29.7867 29.944C29.8009 29.8483 29.8128 29.752 29.8223 29.6555C29.8319 29.5589 29.839 29.4623 29.8436 29.3655C29.8485 29.2685 29.8509 29.1717 29.8509 29.0747C29.8509 28.9778 29.8485 28.8808 29.8436 28.784C29.839 28.687 29.8319 28.5904 29.8223 28.4939C29.8128 28.3973 29.8009 28.3012 29.7867 28.2053C29.7725 28.1093 29.7558 28.0137 29.737 27.9187C29.7181 27.8236 29.6968 27.7291 29.6732 27.6348C29.6497 27.5408 29.6239 27.4475 29.5957 27.3547C29.5676 27.2618 29.5371 27.1697 29.5044 27.0785C29.4718 26.9872 29.4369 26.8966 29.3998 26.8071C29.3627 26.7176 29.3234 26.6289 29.2819 26.5413C29.2405 26.4535 29.1969 26.3669 29.1511 26.2814C29.1054 26.196 29.0576 26.1115 29.0078 26.0284C28.9579 25.9453 28.9061 25.8633 28.8523 25.7826C28.7984 25.7021 28.7425 25.6228 28.6848 25.5449C28.627 25.467 28.5674 25.3906 28.5057 25.3156C28.4443 25.2406 28.3809 25.1672 28.3158 25.0953C28.2507 25.0235 28.1838 24.9534 28.1152 24.8848C28.0467 24.8162 27.9765 24.7494 27.9047 24.6842C27.8328 24.6191 27.7594 24.5558 27.6844 24.4943C27.6094 24.4328 27.5331 24.3731 27.4551 24.3154C27.3772 24.2576 27.2981 24.2018 27.2174 24.1479C27.1367 24.0939 27.0548 24.0421 26.9716 23.9923C26.8885 23.9424 26.8042 23.8946 26.7187 23.8489C26.6331 23.8032 26.5465 23.7597 26.4589 23.7181C26.3711 23.6768 26.2826 23.6375 26.1929 23.6002C26.1034 23.5632 26.013 23.5284 25.9216 23.4956C25.8303 23.4629 25.7382 23.4326 25.6455 23.4044C25.5527 23.3763 25.4592 23.3503 25.3652 23.3268C25.2711 23.3032 25.1764 23.2821 25.0813 23.2631C24.9863 23.2442 24.8907 23.2276 24.7948 23.2134C24.699 23.1992 24.6027 23.1874 24.5063 23.1779C24.4096 23.1683 24.313 23.1612 24.2162 23.1564C24.1192 23.1517 24.0224 23.1493 23.9255 23.1493C23.8285 23.1493 23.7315 23.1519 23.6347 23.1567C23.5379 23.1616 23.4413 23.1689 23.3448 23.1784C23.2484 23.1879 23.1521 23.1999 23.0563 23.2142C22.9604 23.2286 22.865 23.2452 22.7699 23.2641C22.6748 23.2832 22.5803 23.3044 22.4863 23.3282C22.3922 23.3517 22.2989 23.3777 22.2061 23.4059C22.1133 23.434 22.0213 23.4645 21.93 23.4972C21.8388 23.5299 21.7484 23.5649 21.6589 23.602C21.5693 23.6392 21.4807 23.6785 21.393 23.7201C21.3054 23.7614 21.2188 23.8051 21.1335 23.8508C21.0479 23.8965 20.9636 23.9443 20.8805 23.9942C20.7974 24.044 20.7154 24.096 20.6349 24.1499C20.5544 24.2037 20.4751 24.2595 20.3973 24.3173C20.3194 24.3751 20.243 24.4347 20.1681 24.4962C20.0931 24.5577 20.0198 24.621 19.948 24.6862C19.8761 24.7513 19.806 24.8181 19.7374 24.8867C19.6688 24.9553 19.602 25.0254 19.5369 25.0973C19.4718 25.1691 19.4084 25.2424 19.3469 25.3173C19.2854 25.3923 19.2259 25.4687 19.168 25.5464C19.1102 25.6244 19.0544 25.7037 19.0006 25.7842C18.9467 25.8647 18.8948 25.9466 18.8449 26.0298C18.795 26.1129 18.7472 26.1972 18.7015 26.2828C18.6558 26.3681 18.6121 26.4547 18.5708 26.5423C18.5292 26.63 18.4899 26.7186 18.4527 26.8081C18.4156 26.8977 18.3806 26.9881 18.3479 27.0793C18.3152 27.1706 18.2847 27.2625 18.2566 27.3554C18.2284 27.448 18.2024 27.5415 18.1789 27.6355C18.1552 27.7296 18.1339 27.8241 18.1148 27.9192C18.0959 28.0143 18.0793 28.1097 18.0649 28.2056C18.0506 28.3014 18.0386 28.3977 18.0291 28.4941C18.0196 28.5906 18.0123 28.6872 18.0074 28.784C18.0026 28.8808 18 28.9778 18 29.0747ZM28.5341 29.0747C28.5341 29.1501 28.5322 29.2254 28.5284 29.3009C28.5248 29.3762 28.5192 29.4514 28.5118 29.5264C28.5045 29.6015 28.4952 29.6763 28.4841 29.751C28.4732 29.8256 28.4602 29.8999 28.4455 29.9738C28.4308 30.0478 28.4143 30.1214 28.396 30.1944C28.3776 30.2677 28.3575 30.3402 28.3357 30.4125C28.3137 30.4847 28.2901 30.5562 28.2647 30.6274C28.2392 30.6984 28.212 30.7687 28.1833 30.8383C28.1544 30.9081 28.1239 30.977 28.0915 31.0452C28.0593 31.1133 28.0254 31.1806 27.9899 31.2471C27.9544 31.3136 27.9171 31.3792 27.8784 31.444C27.8396 31.5086 27.7992 31.5723 27.7573 31.635C27.7154 31.6979 27.6721 31.7595 27.6271 31.8201C27.5822 31.8806 27.5358 31.9401 27.4879 31.9983C27.4401 32.0567 27.3909 32.1138 27.3401 32.1696C27.2896 32.2255 27.2376 32.2801 27.1843 32.3334C27.131 32.3867 27.0762 32.4389 27.0203 32.4894C26.9645 32.5402 26.9074 32.5893 26.849 32.6371C26.7909 32.6851 26.7313 32.7315 26.6709 32.7764C26.6102 32.8214 26.5486 32.8647 26.4859 32.9066C26.4231 32.9485 26.3595 32.9888 26.2947 33.0276C26.23 33.0664 26.1645 33.1036 26.0978 33.1391C26.0313 33.1746 25.964 33.2086 25.8959 33.2408C25.8277 33.2732 25.7588 33.3037 25.689 33.3326C25.6194 33.3613 25.5491 33.3885 25.4781 33.414C25.4071 33.4392 25.3354 33.463 25.2632 33.485C25.191 33.5068 25.1184 33.5269 25.0452 33.5452C24.9721 33.5636 24.8985 33.58 24.8245 33.5948C24.7506 33.6095 24.6763 33.6225 24.6017 33.6334C24.527 33.6445 24.4522 33.6538 24.3771 33.6611C24.3021 33.6685 24.2269 33.6741 24.1516 33.6777C24.0763 33.6815 24.0008 33.6834 23.9255 33.6834C23.85 33.6834 23.7746 33.6815 23.6993 33.6777C23.624 33.6741 23.5488 33.6685 23.4737 33.6611C23.3987 33.6538 23.3237 33.6445 23.2492 33.6334C23.1746 33.6225 23.1003 33.6095 23.0264 33.5948C22.9523 33.58 22.8788 33.5636 22.8056 33.5452C22.7325 33.5269 22.6598 33.5068 22.5876 33.485C22.5153 33.463 22.4438 33.4392 22.3728 33.414C22.3018 33.3885 22.2314 33.3613 22.1617 33.3326C22.0921 33.3037 22.0232 33.2732 21.955 33.2408C21.8868 33.2086 21.8194 33.1746 21.7529 33.1391C21.6864 33.1036 21.6208 33.0664 21.556 33.0276C21.4914 32.9888 21.4277 32.9485 21.365 32.9066C21.3023 32.8647 21.2407 32.8214 21.1801 32.7764C21.1194 32.7315 21.06 32.6851 21.0017 32.6371C20.9433 32.5893 20.8864 32.5402 20.8304 32.4894C20.7745 32.4389 20.7199 32.3867 20.6666 32.3334C20.6133 32.2801 20.5613 32.2255 20.5106 32.1696C20.46 32.1138 20.4107 32.0567 20.3629 31.9983C20.3151 31.9401 20.2687 31.8806 20.2236 31.82C20.1788 31.7595 20.1353 31.6979 20.0934 31.635C20.0515 31.5723 20.0112 31.5086 19.9724 31.444C19.9336 31.3792 19.8965 31.3136 19.8609 31.2471C19.8254 31.1806 19.7914 31.1133 19.7592 31.0452C19.727 30.977 19.6964 30.9081 19.6676 30.8383C19.6387 30.7687 19.6115 30.6984 19.5862 30.6274C19.5608 30.5562 19.537 30.4847 19.5152 30.4125C19.4932 30.3402 19.4731 30.2677 19.4548 30.1944C19.4366 30.1214 19.42 30.0478 19.4053 29.9738C19.3905 29.8999 19.3777 29.8256 19.3666 29.751C19.3556 29.6763 19.3464 29.6015 19.3389 29.5264C19.3315 29.4514 19.3259 29.3762 19.3223 29.3009C19.3187 29.2254 19.3168 29.1501 19.3168 29.0747C19.3168 28.9992 19.3187 28.9239 19.3223 28.8486C19.3259 28.7733 19.3315 28.6979 19.3389 28.6229C19.3464 28.548 19.3556 28.473 19.3666 28.3985C19.3777 28.3239 19.3905 28.2496 19.4053 28.1757C19.42 28.1015 19.4366 28.0279 19.4548 27.9549C19.4731 27.8816 19.4932 27.8091 19.5152 27.7368C19.537 27.6646 19.5608 27.5931 19.5862 27.5221C19.6115 27.4511 19.6387 27.3806 19.6676 27.311C19.6964 27.2414 19.727 27.1723 19.7592 27.1043C19.7914 27.036 19.8254 26.9687 19.8609 26.9022C19.8965 26.8357 19.9336 26.7701 19.9724 26.7053C20.0112 26.6407 20.0515 26.577 20.0934 26.5143C20.1353 26.4516 20.1788 26.3899 20.2236 26.3293C20.2687 26.2687 20.3151 26.2093 20.3629 26.151C20.4107 26.0926 20.46 26.0356 20.5106 25.9797C20.5613 25.9238 20.6133 25.8692 20.6666 25.8159C20.7199 25.7626 20.7745 25.7106 20.8304 25.6599C20.8864 25.6093 20.9433 25.56 21.0017 25.5122C21.06 25.4644 21.1194 25.418 21.1801 25.3729C21.2407 25.3281 21.3023 25.2846 21.365 25.2427C21.4277 25.2008 21.4914 25.1605 21.556 25.1217C21.6208 25.0829 21.6864 25.0458 21.7529 25.0101C21.8194 24.9747 21.8868 24.9407 21.955 24.9085C22.0232 24.8763 22.0921 24.8456 22.1617 24.8169C22.2314 24.788 22.3018 24.7608 22.3728 24.7355C22.4438 24.7101 22.5153 24.6863 22.5876 24.6645C22.6598 24.6425 22.7325 24.6224 22.8056 24.6041C22.8788 24.5859 22.9523 24.5693 23.0264 24.5545C23.1003 24.5398 23.1746 24.527 23.2492 24.5159C23.3237 24.5048 23.3987 24.4957 23.4737 24.4882C23.5488 24.4808 23.624 24.4752 23.6993 24.4716C23.7746 24.4678 23.85 24.4661 23.9255 24.4661C24.0008 24.4661 24.0761 24.468 24.1514 24.4718C24.2268 24.4756 24.3019 24.4811 24.3769 24.4887C24.4521 24.4962 24.5269 24.5054 24.6013 24.5166C24.676 24.5277 24.7503 24.5407 24.8242 24.5554C24.8981 24.5701 24.9716 24.5868 25.0448 24.6051C25.1179 24.6235 25.1904 24.6437 25.2627 24.6655C25.3349 24.6875 25.4064 24.7113 25.4774 24.7367C25.5484 24.7622 25.6187 24.7894 25.6883 24.8181C25.7579 24.847 25.8268 24.8777 25.8949 24.9099C25.9631 24.9423 26.0305 24.9762 26.097 25.0117C26.1633 25.0472 26.2289 25.0844 26.2937 25.1232C26.3583 25.162 26.422 25.2024 26.4847 25.2443C26.5474 25.2862 26.6089 25.3296 26.6695 25.3745C26.7301 25.4195 26.7895 25.4659 26.8477 25.5137C26.906 25.5615 26.9632 25.6107 27.0189 25.6614C27.0749 25.712 27.1294 25.7641 27.1827 25.8173C27.2361 25.8706 27.288 25.9253 27.3386 25.9811C27.3893 26.037 27.4385 26.094 27.4863 26.1524C27.5343 26.2105 27.5807 26.2701 27.6255 26.3306C27.6706 26.3912 27.7138 26.4528 27.7558 26.5155C27.7977 26.5782 27.838 26.6417 27.8768 26.7065C27.9156 26.7711 27.9528 26.8367 27.9883 26.9032C28.024 26.9697 28.0579 27.0369 28.0901 27.1051C28.1223 27.1732 28.153 27.2421 28.1819 27.3119C28.2108 27.3815 28.238 27.4518 28.2635 27.5228C28.2888 27.5936 28.3125 27.6653 28.3345 27.7374C28.3565 27.8096 28.3766 27.8821 28.3949 27.9554C28.4133 28.0285 28.4299 28.1021 28.4446 28.176C28.4595 28.2499 28.4723 28.3241 28.4836 28.3987C28.4947 28.4733 28.504 28.5481 28.5115 28.6231C28.5189 28.6981 28.5244 28.7733 28.5283 28.8486C28.5321 28.9239 28.534 28.9992 28.5341 29.0747Z" fill="#5DC4FE"/>
<ellipse cx="32.0095" cy="29.071" rx="4.81536" ry="5.18577" fill="#5DC4FE"/>
<path d="M26.1489 29.0723C26.1489 29.1693 26.1514 29.2661 26.156 29.363C26.1609 29.4598 26.168 29.5565 26.1775 29.6531C26.187 29.7496 26.1988 29.8458 26.213 29.9416C26.2272 30.0375 26.2438 30.1331 26.2627 30.2282C26.2817 30.3233 26.3029 30.418 26.3264 30.512C26.35 30.606 26.3759 30.6995 26.404 30.7924C26.4322 30.885 26.4625 30.9771 26.4953 31.0684C26.528 31.1598 26.5628 31.2502 26.6 31.3397C26.6371 31.4294 26.6764 31.5179 26.7178 31.6057C26.7593 31.6934 26.8028 31.7799 26.8485 31.8655C26.8942 31.951 26.942 32.0354 26.9919 32.1185C27.0418 32.2016 27.0936 32.2835 27.1476 32.3642C27.2014 32.4449 27.2572 32.524 27.315 32.602C27.3727 32.6799 27.4324 32.7563 27.4939 32.8312C27.5554 32.9062 27.6188 32.9796 27.6839 33.0515C27.749 33.1234 27.8158 33.1935 27.8844 33.2621C27.953 33.3307 28.0231 33.3975 28.095 33.4626C28.1668 33.5277 28.2403 33.5911 28.3153 33.6526C28.3902 33.7142 28.4666 33.7738 28.5445 33.8316C28.6225 33.8893 28.7018 33.9452 28.7823 33.9991C28.863 34.0529 28.9449 34.1047 29.028 34.1546C29.1113 34.2045 29.1956 34.2523 29.281 34.298C29.3666 34.3437 29.4531 34.3873 29.5409 34.4287C29.6286 34.4703 29.7172 34.5094 29.8067 34.5466C29.8963 34.5837 29.9868 34.6187 30.0781 34.6512C30.1694 34.684 30.2615 34.7144 30.3543 34.7425C30.4471 34.7707 30.5405 34.7965 30.6345 34.8201C30.7287 34.8436 30.8232 34.8649 30.9183 34.8838C31.0134 34.9027 31.109 34.9193 31.2049 34.9335C31.3008 34.9477 31.3969 34.9596 31.4936 34.9692C31.59 34.9787 31.6867 34.9858 31.7836 34.9905C31.8804 34.9953 31.9774 34.9976 32.0744 34.9976C32.1714 34.9976 32.2682 34.9953 32.3651 34.9905C32.4619 34.9858 32.5586 34.9787 32.6552 34.9692C32.7516 34.9596 32.8479 34.9477 32.9437 34.9335C33.0396 34.9193 33.1352 34.9027 33.2303 34.8838C33.3253 34.8649 33.4201 34.8436 33.5141 34.8201C33.6081 34.7965 33.7016 34.7707 33.7945 34.7425C33.8871 34.7144 33.9792 34.684 34.0705 34.6512C34.1619 34.6187 34.2523 34.5837 34.3418 34.5466C34.4315 34.5094 34.52 34.4703 34.6078 34.4287C34.6954 34.3873 34.782 34.3437 34.8676 34.298C34.9531 34.2523 35.0375 34.2045 35.1206 34.1546C35.2037 34.1047 35.2856 34.0529 35.3663 33.9991C35.447 33.9452 35.5261 33.8893 35.6041 33.8316C35.682 33.7738 35.7584 33.7142 35.8333 33.6526C35.9083 33.5911 35.9817 33.5277 36.0536 33.4626C36.1255 33.3975 36.1956 33.3307 36.2642 33.2621C36.3327 33.1935 36.3996 33.1234 36.4647 33.0515C36.5298 32.9796 36.5932 32.9062 36.6547 32.8312C36.7163 32.7563 36.7759 32.6799 36.8337 32.602C36.8914 32.524 36.9473 32.4449 37.0012 32.3642C37.055 32.2835 37.1068 32.2016 37.1567 32.1185C37.2066 32.0354 37.2543 31.951 37.3001 31.8655C37.3458 31.7799 37.3894 31.6934 37.4308 31.6057C37.4724 31.5179 37.5117 31.4294 37.5487 31.3397C37.5858 31.2502 37.6208 31.1598 37.6533 31.0684C37.6861 30.9771 37.7165 30.885 37.7446 30.7924C37.7728 30.6995 37.7986 30.606 37.8222 30.512C37.8457 30.418 37.867 30.3233 37.8859 30.2282C37.9048 30.1331 37.9214 30.0375 37.9356 29.9416C37.9498 29.8458 37.9617 29.7496 37.9713 29.6531C37.9808 29.5565 37.9879 29.4598 37.9926 29.363C37.9974 29.2661 37.9998 29.1693 37.9998 29.0723C37.9998 28.9753 37.9974 28.8783 37.9926 28.7815C37.9879 28.6846 37.9808 28.5879 37.9713 28.4915C37.9617 28.3949 37.9498 28.2988 37.9356 28.2028C37.9214 28.1069 37.9048 28.0113 37.8859 27.9162C37.867 27.8212 37.8457 27.7266 37.8222 27.6324C37.7986 27.5384 37.7728 27.445 37.7446 27.3522C37.7165 27.2594 37.6861 27.1673 37.6533 27.076C37.6208 26.9848 37.5858 26.8942 37.5487 26.8047C37.5117 26.7151 37.4724 26.6265 37.4308 26.5389C37.3894 26.4511 37.3458 26.3645 37.3001 26.2789C37.2543 26.1936 37.2066 26.1091 37.1567 26.0259C37.1068 25.9428 37.055 25.8609 37.0012 25.7802C36.9473 25.6997 36.8914 25.6204 36.8337 25.5424C36.7759 25.4645 36.7163 25.3882 36.6547 25.3132C36.5932 25.2382 36.5298 25.1648 36.4647 25.0929C36.3996 25.021 36.3327 24.9509 36.2642 24.8823C36.1956 24.8138 36.1255 24.7469 36.0536 24.6818C35.9817 24.6167 35.9083 24.5533 35.8333 24.4918C35.7584 24.4304 35.682 24.3706 35.6041 24.313C35.5261 24.2551 35.447 24.1994 35.3663 24.1455C35.2856 24.0915 35.2037 24.0397 35.1206 23.9898C35.0375 23.94 34.9531 23.8922 34.8676 23.8464C34.782 23.8007 34.6954 23.7573 34.6078 23.7157C34.52 23.6743 34.4315 23.635 34.3418 23.5978C34.2523 23.5607 34.1619 23.5259 34.0705 23.4932C33.9792 23.4605 33.8871 23.4302 33.7945 23.4019C33.7016 23.3739 33.6081 23.3479 33.5141 23.3243C33.4201 23.3008 33.3253 23.2797 33.2303 23.2606C33.1352 23.2417 33.0396 23.2251 32.9437 23.2109C32.8479 23.1967 32.7516 23.1849 32.6552 23.1754C32.5586 23.1659 32.4619 23.1588 32.3651 23.154C32.2682 23.1493 32.1714 23.1469 32.0744 23.1469C31.9774 23.1469 31.8804 23.1494 31.7836 23.1543C31.6868 23.1591 31.5902 23.1664 31.4937 23.1759C31.3973 23.1855 31.301 23.1974 31.2053 23.2118C31.1093 23.2262 31.0139 23.2428 30.9188 23.2617C30.8238 23.2807 30.7292 23.302 30.6352 23.3257C30.5412 23.3493 30.4478 23.3753 30.355 23.4035C30.2622 23.4315 30.1702 23.462 30.079 23.4947C29.9877 23.5275 29.8973 23.5625 29.8078 23.5995C29.7183 23.6367 29.6296 23.6761 29.542 23.7176C29.4544 23.759 29.3678 23.8026 29.2824 23.8484C29.1969 23.8941 29.1125 23.9419 29.0294 23.9917C28.9463 24.0416 28.8644 24.0936 28.7838 24.1474C28.7033 24.2013 28.624 24.257 28.5463 24.3149C28.4683 24.3727 28.392 24.4323 28.317 24.4937C28.242 24.5552 28.1688 24.6186 28.0969 24.6837C28.025 24.7488 27.9549 24.8157 27.8863 24.8842C27.8177 24.9528 27.7509 25.0229 27.6858 25.0948C27.6207 25.1667 27.5573 25.2399 27.4958 25.3149C27.4344 25.3899 27.3748 25.4663 27.3169 25.544C27.2591 25.6219 27.2033 25.7012 27.1495 25.7818C27.0956 25.8623 27.0437 25.9442 26.9938 26.0273C26.9439 26.1104 26.8961 26.1948 26.8504 26.2803C26.8047 26.3657 26.7611 26.4523 26.7197 26.5399C26.6781 26.6275 26.6388 26.7162 26.6016 26.8057C26.5645 26.8952 26.5295 26.9856 26.4968 27.0769C26.4641 27.1681 26.4336 27.2601 26.4056 27.3529C26.3773 27.4456 26.3514 27.5391 26.3278 27.6331C26.3041 27.7271 26.2828 27.8217 26.2637 27.9167C26.2449 28.0118 26.2282 28.1072 26.2139 28.2032C26.1995 28.2989 26.1875 28.3952 26.178 28.4917C26.1685 28.5881 26.1612 28.6847 26.1564 28.7815C26.1515 28.8783 26.1489 28.9753 26.1489 29.0723ZM36.6831 29.0723C36.6831 29.1476 36.6812 29.2229 36.6774 29.2985C36.6737 29.3738 36.6682 29.4489 36.6607 29.5239C36.6535 29.5991 36.6441 29.6739 36.633 29.7485C36.6221 29.8231 36.6091 29.8974 36.5944 29.9714C36.5797 30.0453 36.5632 30.1189 36.5449 30.192C36.5265 30.2652 36.5064 30.3378 36.4846 30.41C36.4626 30.4822 36.4391 30.5537 36.4136 30.6249C36.3882 30.6959 36.361 30.7662 36.3322 30.8358C36.3033 30.9056 36.2728 30.9745 36.2404 31.0428C36.2082 31.1108 36.1743 31.1782 36.1388 31.2447C36.1033 31.3112 36.0661 31.3768 36.0273 31.4416C35.9885 31.5062 35.9481 31.5699 35.9062 31.6326C35.8643 31.6954 35.821 31.7571 35.776 31.8177C35.7312 31.8781 35.6848 31.9377 35.6368 31.9959C35.589 32.0542 35.5398 32.1114 35.4891 32.1671C35.4385 32.2231 35.3866 32.2776 35.3332 32.331C35.2799 32.3843 35.2252 32.4364 35.1692 32.487C35.1135 32.5377 35.0563 32.5869 34.998 32.6347C34.9398 32.6827 34.8802 32.7291 34.8198 32.7739C34.7592 32.8189 34.6975 32.8622 34.6348 32.9041C34.572 32.946 34.5084 32.9864 34.4437 33.0252C34.3789 33.064 34.3134 33.1012 34.2468 33.1367C34.1803 33.1722 34.1129 33.2061 34.0449 33.2384C33.9766 33.2707 33.9077 33.3012 33.8379 33.3301C33.7683 33.3589 33.698 33.3861 33.627 33.4115C33.556 33.4368 33.4843 33.4605 33.4121 33.4825C33.3399 33.5043 33.2673 33.5244 33.1941 33.5428C33.121 33.5611 33.0474 33.5776 32.9735 33.5923C32.8995 33.607 32.8252 33.62 32.7506 33.6309C32.676 33.642 32.6012 33.6514 32.526 33.6586C32.451 33.6661 32.3759 33.6716 32.3005 33.6753C32.2252 33.6791 32.1497 33.681 32.0744 33.681C31.9989 33.681 31.9236 33.6791 31.8482 33.6753C31.7729 33.6716 31.6977 33.6661 31.6226 33.6586C31.5476 33.6514 31.4726 33.642 31.3982 33.6309C31.3235 33.62 31.2492 33.607 31.1753 33.5923C31.1012 33.5776 31.0278 33.5611 30.9545 33.5428C30.8814 33.5244 30.8087 33.5043 30.7365 33.4825C30.6643 33.4605 30.5928 33.4368 30.5218 33.4115C30.4508 33.3861 30.3803 33.3589 30.3107 33.3301C30.2411 33.3012 30.1721 33.2707 30.1039 33.2384C30.0357 33.2061 29.9683 33.1722 29.9018 33.1367C29.8353 33.1012 29.7697 33.064 29.7049 33.0252C29.6403 32.9864 29.5766 32.946 29.5139 32.9041C29.4512 32.8622 29.3896 32.8189 29.329 32.7739C29.2684 32.7291 29.209 32.6827 29.1506 32.6347C29.0923 32.5869 29.0353 32.5377 28.9794 32.487C28.9234 32.4364 28.8689 32.3843 28.8155 32.331C28.7622 32.2776 28.7103 32.2231 28.6595 32.1671C28.6089 32.1114 28.5596 32.0542 28.5118 31.9959C28.464 31.9377 28.4176 31.8781 28.3726 31.8175C28.3277 31.7571 28.2843 31.6954 28.2424 31.6326C28.2004 31.5699 28.1601 31.5062 28.1213 31.4416C28.0825 31.3768 28.0455 31.3112 28.0098 31.2447C27.9743 31.1782 27.9403 31.1108 27.9081 31.0428C27.8759 30.9745 27.8453 30.9056 27.8165 30.8358C27.7876 30.7662 27.7604 30.6959 27.7351 30.6249C27.7097 30.5537 27.686 30.4822 27.6641 30.41C27.6422 30.3378 27.6221 30.2652 27.6037 30.192C27.5855 30.1189 27.5689 30.0453 27.5542 29.9714C27.5395 29.8974 27.5266 29.8231 27.5156 29.7485C27.5045 29.6739 27.4953 29.5991 27.4879 29.5239C27.4804 29.4489 27.4749 29.3738 27.4712 29.2985C27.4676 29.2229 27.4657 29.1476 27.4657 29.0723C27.4657 28.9968 27.4676 28.9215 27.4712 28.8461C27.4749 28.7708 27.4804 28.6955 27.4879 28.6205C27.4953 28.5455 27.5045 28.4705 27.5156 28.3961C27.5266 28.3214 27.5395 28.2472 27.5542 28.1732C27.5689 28.0991 27.5855 28.0255 27.6037 27.9524C27.6221 27.8792 27.6422 27.8066 27.6641 27.7344C27.686 27.6622 27.7097 27.5907 27.7351 27.5197C27.7604 27.4487 27.7876 27.3782 27.8165 27.3086C27.8453 27.239 27.8759 27.1699 27.9081 27.1018C27.9403 27.0336 27.9743 26.9662 28.0098 26.8997C28.0455 26.8332 28.0825 26.7676 28.1213 26.7028C28.1601 26.6383 28.2004 26.5745 28.2424 26.5118C28.2843 26.4492 28.3277 26.3875 28.3726 26.3269C28.4176 26.2663 28.464 26.2069 28.5118 26.1485C28.5596 26.0902 28.6089 26.0332 28.6595 25.9773C28.7103 25.9213 28.7622 25.8668 28.8155 25.8135C28.8689 25.7601 28.9234 25.7082 28.9794 25.6574C29.0353 25.6069 29.0923 25.5575 29.1506 25.5097C29.209 25.4619 29.2684 25.4155 29.329 25.3705C29.3896 25.3256 29.4512 25.2822 29.5139 25.2403C29.5766 25.1984 29.6403 25.158 29.7049 25.1192C29.7697 25.0804 29.8353 25.0434 29.9018 25.0077C29.9683 24.9722 30.0357 24.9383 30.1039 24.9061C30.1721 24.8738 30.2411 24.8432 30.3107 24.8145C30.3803 24.7855 30.4508 24.7583 30.5218 24.7331C30.5928 24.7076 30.6643 24.6839 30.7365 24.6621C30.8087 24.6401 30.8814 24.62 30.9545 24.6016C31.0278 24.5834 31.1012 24.5668 31.1753 24.5521C31.2492 24.5374 31.3235 24.5246 31.3982 24.5135C31.4726 24.5024 31.5476 24.4932 31.6226 24.4858C31.6977 24.4783 31.7729 24.4728 31.8482 24.4692C31.9236 24.4653 31.9989 24.4636 32.0744 24.4636C32.1497 24.4636 32.225 24.4655 32.3004 24.4693C32.3757 24.4731 32.4508 24.4787 32.5258 24.4863C32.601 24.4937 32.6758 24.5029 32.7503 24.5142C32.8249 24.5253 32.8992 24.5383 32.9731 24.553C33.0471 24.5677 33.1205 24.5843 33.1937 24.6027C33.2668 24.621 33.3394 24.6413 33.4116 24.6631C33.4838 24.6851 33.5553 24.7088 33.6263 24.7343C33.6973 24.7597 33.7676 24.7869 33.8372 24.8157C33.9068 24.8446 33.9758 24.8752 34.0438 24.9074C34.112 24.9398 34.1794 24.9738 34.2459 25.0093C34.3122 25.0448 34.3779 25.082 34.4426 25.1208C34.5072 25.1596 34.5709 25.1999 34.6336 25.2418C34.6963 25.2837 34.7578 25.3272 34.8184 25.3721C34.879 25.4171 34.9384 25.4635 34.9966 25.5113C35.0549 25.5591 35.1121 25.6083 35.1678 25.659C35.2238 25.7096 35.2783 25.7617 35.3317 25.8148C35.385 25.8682 35.437 25.9229 35.4875 25.9787C35.5383 26.0346 35.5874 26.0916 35.6352 26.1499C35.6832 26.2081 35.7296 26.2677 35.7745 26.3281C35.8195 26.3887 35.8628 26.4504 35.9047 26.5131C35.9466 26.5757 35.9869 26.6393 36.0257 26.7041C36.0645 26.7686 36.1017 26.8343 36.1372 26.9008C36.1729 26.9673 36.2069 27.0345 36.2391 27.1027C36.2713 27.1707 36.3019 27.2397 36.3308 27.3094C36.3598 27.3791 36.387 27.4494 36.4124 27.5204C36.4377 27.5912 36.4614 27.6629 36.4834 27.7349C36.5054 27.8071 36.5255 27.8797 36.5438 27.9529C36.5622 28.026 36.5788 28.0996 36.5935 28.1736C36.6084 28.2475 36.6212 28.3216 36.6325 28.3962C36.6436 28.4709 36.6529 28.5457 36.6604 28.6207C36.6678 28.6957 36.6734 28.7708 36.6772 28.8461C36.681 28.9215 36.6829 28.9968 36.6831 29.0723Z" fill="#5DC4FE"/>
<ellipse cx="27.8691" cy="23.1444" rx="4.81536" ry="5.18577" fill="#5DC4FE"/>
<path d="M22.0085 23.1457C22.0085 23.2426 22.011 23.3394 22.0156 23.4364C22.0205 23.5332 22.0276 23.6298 22.0371 23.7265C22.0466 23.8229 22.0584 23.9192 22.0726 24.015C22.0868 24.1109 22.1034 24.2065 22.1223 24.3016C22.1414 24.3966 22.1625 24.4913 22.186 24.5854C22.2096 24.6794 22.2356 24.7729 22.2636 24.8657C22.2918 24.9584 22.3222 25.0505 22.3549 25.1418C22.3876 25.2332 22.4224 25.3236 22.4596 25.4131C22.4967 25.5028 22.536 25.5913 22.5774 25.6791C22.619 25.7667 22.6624 25.8533 22.7081 25.9388C22.7539 26.0244 22.8017 26.1087 22.8515 26.1918C22.9014 26.275 22.9532 26.3569 23.0072 26.4376C23.0611 26.5183 23.1168 26.5974 23.1747 26.6753C23.2323 26.7533 23.2921 26.8296 23.3535 26.9046C23.415 26.9796 23.4784 27.053 23.5435 27.1249C23.6086 27.1967 23.6755 27.2669 23.744 27.3354C23.8126 27.404 23.8827 27.4709 23.9546 27.536C24.0265 27.6011 24.0999 27.6645 24.1749 27.7259C24.2499 27.7876 24.3262 27.8472 24.4041 27.905C24.4821 27.9627 24.5614 28.0186 24.6419 28.0724C24.7226 28.1263 24.8045 28.1781 24.8876 28.228C24.9709 28.2778 25.0553 28.3256 25.1406 28.3713C25.2262 28.417 25.3128 28.4607 25.4006 28.5021C25.4882 28.5436 25.5768 28.5828 25.6664 28.62C25.7559 28.6571 25.8465 28.692 25.9377 28.7246C26.029 28.7573 26.1211 28.7878 26.2139 28.8159C26.3067 28.8441 26.4001 28.8699 26.4941 28.8934C26.5883 28.917 26.6829 28.9383 26.7779 28.9572C26.873 28.976 26.9686 28.9927 27.0645 29.0069C27.1605 29.0211 27.2566 29.033 27.3532 29.0425C27.4496 29.0521 27.5463 29.0592 27.6433 29.0638C27.7401 29.0687 27.837 29.0709 27.934 29.0709C28.031 29.0709 28.1278 29.0687 28.2247 29.0638C28.3215 29.0592 28.4182 29.0521 28.5148 29.0425C28.6113 29.033 28.7075 29.0211 28.8033 29.0069C28.8992 28.9927 28.9948 28.976 29.0899 28.9572C29.185 28.9383 29.2797 28.917 29.3737 28.8934C29.4677 28.8699 29.5613 28.8441 29.6541 28.8159C29.7467 28.7878 29.8388 28.7573 29.9301 28.7246C30.0215 28.692 30.1119 28.6571 30.2015 28.62C30.2912 28.5828 30.3796 28.5436 30.4674 28.5021C30.5551 28.4607 30.6417 28.417 30.7272 28.3713C30.8127 28.3256 30.8971 28.2778 30.9802 28.228C31.0633 28.1781 31.1452 28.1263 31.2259 28.0724C31.3066 28.0186 31.3858 27.9627 31.4637 27.905C31.5416 27.8472 31.618 27.7876 31.693 27.7259C31.7679 27.6645 31.8414 27.6011 31.9132 27.536C31.9851 27.4709 32.0552 27.404 32.1238 27.3354C32.1924 27.2669 32.2592 27.1967 32.3243 27.1249C32.3894 27.053 32.4528 26.9796 32.5143 26.9046C32.5759 26.8296 32.6355 26.7533 32.6933 26.6753C32.751 26.5974 32.8069 26.5183 32.8608 26.4376C32.9147 26.3569 32.9664 26.275 33.0163 26.1918C33.0662 26.1087 33.114 26.0244 33.1597 25.9388C33.2054 25.8533 33.249 25.7667 33.2904 25.6791C33.332 25.5913 33.3713 25.5028 33.4084 25.4131C33.4454 25.3236 33.4804 25.2332 33.5129 25.1418C33.5457 25.0505 33.5762 24.9584 33.6042 24.8657C33.6324 24.7729 33.6582 24.6794 33.6818 24.5854C33.7053 24.4913 33.7266 24.3966 33.7455 24.3016C33.7644 24.2065 33.781 24.1109 33.7952 24.015C33.8094 23.9192 33.8214 23.8229 33.8309 23.7265C33.8404 23.6298 33.8475 23.5332 33.8522 23.4364C33.857 23.3394 33.8595 23.2426 33.8595 23.1457C33.8595 23.0487 33.857 22.9517 33.8522 22.8549C33.8475 22.7579 33.8404 22.6613 33.8309 22.5649C33.8214 22.4682 33.8094 22.3721 33.7952 22.2762C33.781 22.1802 33.7644 22.0847 33.7455 21.9896C33.7266 21.8945 33.7053 21.8 33.6818 21.7058C33.6582 21.6117 33.6324 21.5184 33.6042 21.4256C33.5762 21.3328 33.5457 21.2406 33.5129 21.1494C33.4804 21.0581 33.4454 20.9676 33.4084 20.878C33.3713 20.7885 33.332 20.6998 33.2904 20.6122C33.249 20.5244 33.2054 20.4378 33.1597 20.3523C33.114 20.2669 33.0662 20.1824 33.0163 20.0993C32.9664 20.0162 32.9147 19.9343 32.8608 19.8536C32.8069 19.773 32.751 19.6937 32.6933 19.6158C32.6355 19.5379 32.5759 19.4615 32.5143 19.3865C32.4528 19.3116 32.3894 19.2381 32.3243 19.1663C32.2592 19.0944 32.1924 19.0243 32.1238 18.9557C32.0552 18.8871 31.9851 18.8203 31.9132 18.7552C31.8414 18.6901 31.7679 18.6267 31.693 18.5652C31.618 18.5037 31.5416 18.444 31.4637 18.3863C31.3858 18.3285 31.3066 18.2727 31.2259 18.2189C31.1452 18.1648 31.0633 18.1131 30.9802 18.0632C30.8971 18.0133 30.8127 17.9655 30.7272 17.9198C30.6417 17.8741 30.5551 17.8306 30.4674 17.7891C30.3796 17.7477 30.2912 17.7084 30.2015 17.6711C30.1119 17.6341 30.0215 17.5993 29.9301 17.5665C29.8388 17.5338 29.7467 17.5035 29.6541 17.4753C29.5613 17.4472 29.4677 17.4213 29.3737 17.3977C29.2797 17.3742 29.185 17.353 29.0899 17.334C28.9948 17.3151 28.8992 17.2985 28.8033 17.2843C28.7075 17.2701 28.6113 17.2583 28.5148 17.2488C28.4182 17.2393 28.3215 17.2322 28.2247 17.2273C28.1278 17.2226 28.031 17.2202 27.934 17.2202C27.837 17.2202 27.7401 17.2228 27.6433 17.2277C27.5465 17.2325 27.4498 17.2398 27.3534 17.2493C27.2569 17.2588 27.1606 17.2708 27.0649 17.2852C26.9689 17.2995 26.8735 17.3161 26.7785 17.335C26.6834 17.3541 26.5888 17.3754 26.4948 17.3991C26.4008 17.4226 26.3074 17.4486 26.2146 17.4768C26.1218 17.5049 26.0298 17.5354 25.9386 17.5681C25.8473 17.6008 25.7569 17.6358 25.6674 17.6729C25.5779 17.7101 25.4892 17.7494 25.4016 17.791C25.314 17.8324 25.2274 17.876 25.142 17.9217C25.0565 17.9674 24.9721 18.0152 24.889 18.0651C24.8059 18.115 24.724 18.1669 24.6435 18.2208C24.5629 18.2746 24.4836 18.3304 24.4059 18.3882C24.328 18.4461 24.2516 18.5056 24.1766 18.5671C24.1016 18.6286 24.0284 18.692 23.9565 18.7571C23.8846 18.8222 23.8145 18.889 23.7459 18.9576C23.6774 19.0262 23.6105 19.0963 23.5454 19.1682C23.4803 19.24 23.4169 19.3133 23.3554 19.3883C23.294 19.4633 23.2344 19.5396 23.1766 19.6174C23.1187 19.6953 23.063 19.7746 23.0091 19.8551C22.9553 19.9357 22.9033 20.0176 22.8534 20.1007C22.8036 20.1838 22.7558 20.2681 22.71 20.3537C22.6643 20.4391 22.6207 20.5256 22.5793 20.6133C22.5377 20.7009 22.4984 20.7895 22.4612 20.8791C22.4241 20.9686 22.3892 21.059 22.3564 21.1502C22.3237 21.2415 22.2932 21.3335 22.2652 21.4263C22.237 21.5189 22.211 21.6124 22.1874 21.7065C22.1637 21.8005 22.1424 21.895 22.1234 21.9901C22.1045 22.0852 22.0879 22.1806 22.0735 22.2765C22.0591 22.3723 22.0472 22.4686 22.0376 22.565C22.0281 22.6615 22.0208 22.7581 22.016 22.8549C22.0111 22.9517 22.0085 23.0487 22.0085 23.1457ZM32.5427 23.1457C32.5427 23.221 32.5408 23.2963 32.537 23.3718C32.5333 23.4471 32.5278 23.5223 32.5203 23.5973C32.5131 23.6724 32.5037 23.7472 32.4926 23.8219C32.4817 23.8965 32.4687 23.9708 32.454 24.0447C32.4393 24.1187 32.4229 24.1923 32.4045 24.2654C32.3861 24.3386 32.3661 24.4112 32.3442 24.4834C32.3222 24.5556 32.2987 24.6271 32.2732 24.6983C32.2478 24.7693 32.2206 24.8396 32.1918 24.9092C32.1629 24.979 32.1325 25.0479 32.1001 25.1161C32.0679 25.1842 32.0339 25.2515 31.9984 25.318C31.9629 25.3845 31.9257 25.4502 31.8869 25.5149C31.8481 25.5795 31.8078 25.6433 31.7659 25.7059C31.7239 25.7688 31.6807 25.8304 31.6356 25.8911C31.5908 25.9515 31.5444 26.0111 31.4964 26.0692C31.4486 26.1276 31.3994 26.1847 31.3487 26.2405C31.2981 26.2964 31.2462 26.351 31.1928 26.4043C31.1395 26.4577 31.0848 26.5098 31.0289 26.5603C30.9731 26.6111 30.9159 26.6603 30.8576 26.7081C30.7994 26.756 30.7398 26.8024 30.6794 26.8473C30.6188 26.8923 30.5571 26.9356 30.4945 26.9775C30.4316 27.0194 30.368 27.0598 30.3033 27.0986C30.2385 27.1373 30.1731 27.1746 30.1064 27.2101C30.0399 27.2456 29.9725 27.2795 29.9045 27.3117C29.8362 27.3441 29.7673 27.3746 29.6975 27.4035C29.6279 27.4322 29.5576 27.4594 29.4866 27.4849C29.4156 27.5102 29.3439 27.5339 29.2717 27.5559C29.1995 27.5777 29.127 27.5978 29.0537 27.6161C28.9806 27.6345 28.907 27.651 28.8331 27.6657C28.7591 27.6804 28.6849 27.6934 28.6102 27.7043C28.5356 27.7154 28.4608 27.7247 28.3856 27.732C28.3106 27.7394 28.2355 27.745 28.1602 27.7486C28.0848 27.7524 28.0093 27.7543 27.934 27.7543C27.8585 27.7543 27.7832 27.7524 27.7078 27.7486C27.6325 27.745 27.5574 27.7394 27.4822 27.732C27.4072 27.7247 27.3322 27.7154 27.2578 27.7043C27.1831 27.6934 27.1089 27.6804 27.0349 27.6657C26.9608 27.651 26.8874 27.6345 26.8141 27.6161C26.741 27.5978 26.6683 27.5777 26.5961 27.5559C26.5239 27.5339 26.4524 27.5102 26.3814 27.4849C26.3104 27.4594 26.2399 27.4322 26.1703 27.4035C26.1007 27.3746 26.0318 27.3441 25.9635 27.3117C25.8953 27.2795 25.8279 27.2456 25.7614 27.2101C25.6949 27.1746 25.6293 27.1373 25.5645 27.0986C25.5 27.0598 25.4362 27.0194 25.3735 26.9775C25.3109 26.9356 25.2492 26.8923 25.1886 26.8473C25.128 26.8024 25.0686 26.756 25.0102 26.7081C24.9519 26.6603 24.8949 26.6111 24.839 26.5603C24.783 26.5098 24.7285 26.4577 24.6752 26.4043C24.6218 26.351 24.5699 26.2964 24.5191 26.2405C24.4686 26.1847 24.4192 26.1276 24.3714 26.0692C24.3236 26.0111 24.2772 25.9515 24.2322 25.8909C24.1873 25.8304 24.1439 25.7688 24.102 25.7059C24.0601 25.6433 24.0197 25.5795 23.9809 25.5149C23.9421 25.4502 23.9051 25.3845 23.8694 25.318C23.8339 25.2515 23.8 25.1842 23.7678 25.1161C23.7355 25.0479 23.7049 24.979 23.6762 24.9092C23.6472 24.8396 23.62 24.7693 23.5948 24.6983C23.5693 24.6271 23.5456 24.5556 23.5238 24.4834C23.5018 24.4112 23.4817 24.3386 23.4633 24.2654C23.4451 24.1923 23.4285 24.1187 23.4138 24.0447C23.3991 23.9708 23.3863 23.8965 23.3752 23.8219C23.3641 23.7472 23.3549 23.6724 23.3475 23.5973C23.34 23.5223 23.3345 23.4471 23.3309 23.3718C23.3272 23.2963 23.3253 23.221 23.3253 23.1457C23.3253 23.0702 23.3272 22.9948 23.3309 22.9195C23.3345 22.8442 23.34 22.7688 23.3475 22.6939C23.3549 22.6189 23.3641 22.5439 23.3752 22.4694C23.3863 22.3948 23.3991 22.3205 23.4138 22.2466C23.4285 22.1725 23.4451 22.0989 23.4633 22.0258C23.4817 21.9525 23.5018 21.88 23.5238 21.8078C23.5456 21.7356 23.5693 21.664 23.5948 21.593C23.62 21.522 23.6472 21.4516 23.6762 21.3819C23.7049 21.3123 23.7355 21.2432 23.7678 21.1752C23.8 21.107 23.8339 21.0396 23.8694 20.9731C23.9051 20.9066 23.9421 20.841 23.9809 20.7762C24.0197 20.7116 24.0601 20.6479 24.102 20.5852C24.1439 20.5225 24.1873 20.4609 24.2322 20.4003C24.2772 20.3397 24.3236 20.2803 24.3714 20.2219C24.4192 20.1635 24.4686 20.1066 24.5191 20.0506C24.5699 19.9947 24.6218 19.9402 24.6752 19.8868C24.7285 19.8335 24.783 19.7815 24.839 19.7308C24.8949 19.6802 24.9519 19.6309 25.0102 19.5831C25.0686 19.5353 25.128 19.4889 25.1886 19.4439C25.2492 19.399 25.3109 19.3555 25.3735 19.3136C25.4362 19.2717 25.5 19.2314 25.5645 19.1926C25.6293 19.1538 25.6949 19.1167 25.7614 19.0811C25.8279 19.0456 25.8953 19.0116 25.9635 18.9794C26.0318 18.9472 26.1007 18.9166 26.1703 18.8878C26.2399 18.8589 26.3104 18.8317 26.3814 18.8064C26.4524 18.781 26.5239 18.7572 26.5961 18.7354C26.6683 18.7134 26.741 18.6934 26.8141 18.675C26.8874 18.6568 26.9608 18.6402 27.0349 18.6255C27.1089 18.6107 27.1831 18.5979 27.2578 18.5869C27.3322 18.5758 27.4072 18.5666 27.4822 18.5591C27.5574 18.5517 27.6325 18.5462 27.7078 18.5425C27.7832 18.5387 27.8585 18.537 27.934 18.537C28.0093 18.537 28.0847 18.5389 28.16 18.5427C28.2353 18.5465 28.3105 18.552 28.3854 18.5597C28.4606 18.5671 28.5354 18.5763 28.6099 18.5875C28.6845 18.5986 28.7588 18.6116 28.8327 18.6263C28.9067 18.6411 28.9801 18.6577 29.0534 18.676C29.1264 18.6944 29.199 18.7146 29.2712 18.7365C29.3434 18.7585 29.4149 18.7822 29.4859 18.8076C29.5569 18.8331 29.6272 18.8603 29.6968 18.889C29.7665 18.9179 29.8354 18.9486 29.9034 18.9808C29.9717 19.0132 30.039 19.0471 30.1055 19.0826C30.1718 19.1181 30.2375 19.1554 30.3022 19.1942C30.3668 19.2329 30.4306 19.2733 30.4932 19.3152C30.5559 19.3571 30.6174 19.4006 30.678 19.4454C30.7386 19.4904 30.798 19.5368 30.8562 19.5846C30.9146 19.6324 30.9717 19.6816 31.0275 19.7324C31.0834 19.7829 31.1379 19.835 31.1913 19.8882C31.2446 19.9415 31.2966 19.9963 31.3471 20.052C31.3979 20.108 31.4471 20.1649 31.4948 20.2233C31.5428 20.2815 31.5892 20.341 31.6341 20.4015C31.6791 20.4621 31.7224 20.5237 31.7643 20.5864C31.8062 20.6491 31.8466 20.7127 31.8853 20.7774C31.9241 20.842 31.9614 20.9076 31.9969 20.9741C32.0325 21.0406 32.0665 21.1078 32.0987 21.1761C32.1309 21.2441 32.1615 21.313 32.1905 21.3828C32.2194 21.4524 32.2466 21.5227 32.272 21.5937C32.2973 21.6646 32.321 21.7362 32.343 21.8083C32.365 21.8805 32.3851 21.9531 32.4035 22.0263C32.4218 22.0994 32.4384 22.173 32.4532 22.2469C32.4681 22.3209 32.4809 22.395 32.4921 22.4696C32.5032 22.5442 32.5126 22.6191 32.52 22.694C32.5274 22.769 32.533 22.8442 32.5368 22.9195C32.5406 22.9948 32.5425 23.0702 32.5427 23.1457Z" fill="#5DC4FE"/>
<mask id="path-7-inside-1_71_1721" fill="white">
<path d="M16.293 33.2228H1.77743V29.3715C1.77743 29.1922 1.7821 29.013 1.79099 28.8339C1.8001 28.6549 1.81343 28.476 1.83119 28.2977C1.84896 28.1191 1.87093 27.9412 1.89758 27.7638C1.92399 27.5866 1.95484 27.4099 1.98991 27.2341C2.02497 27.0581 2.06447 26.8833 2.10818 26.7094C2.1519 26.5354 2.19981 26.3627 2.25194 26.1911C2.30407 26.0196 2.3604 25.8494 2.42094 25.6806C2.48148 25.5119 2.546 25.3445 2.61472 25.179C2.68344 25.0133 2.75637 24.8494 2.83304 24.6874C2.90971 24.5252 2.99035 24.3651 3.07497 24.2071C3.15959 24.049 3.24795 23.8929 3.34028 23.7391C3.43261 23.5855 3.52844 23.4341 3.62825 23.2849C3.72783 23.1358 3.83115 22.9892 3.93797 22.8452C4.0448 22.7012 4.15513 22.5598 4.26896 22.4212C4.3828 22.2828 4.49991 22.147 4.62029 22.014C4.74067 21.8813 4.86432 21.7515 4.99101 21.6246C5.11794 21.4979 5.24767 21.3742 5.38067 21.2536C5.51344 21.1333 5.64925 21.0161 5.78786 20.9023C5.92648 20.7887 6.06766 20.6784 6.21165 20.5716C6.35587 20.4645 6.50244 20.3614 6.65133 20.2616C6.80047 20.162 6.95193 20.0659 7.10574 19.9739C7.25955 19.8815 7.41546 19.7932 7.57347 19.7085C7.73172 19.6239 7.89184 19.5433 8.05383 19.4666C8.21582 19.3897 8.37967 19.317 8.5454 19.2483C8.71113 19.1796 8.87826 19.1151 9.04703 19.0545C9.2158 18.994 9.38597 18.9376 9.55754 18.8855C9.72911 18.8332 9.90208 18.7852 10.076 18.7415C10.2499 18.6978 10.4247 18.6585 10.6005 18.6235C10.7763 18.5882 10.953 18.5576 11.1304 18.5309C11.3079 18.5045 11.4857 18.4823 11.6641 18.4648C11.8424 18.447 12.0213 18.4334 12.2005 18.4246C12.3796 18.4157 12.5586 18.411 12.7382 18.4108H16.293C16.4744 18.4112 16.6558 18.4063 16.837 18.396C17.0181 18.3858 17.199 18.3701 17.3793 18.3491C17.5595 18.328 17.739 18.3018 17.9178 18.2703C18.0966 18.2385 18.2743 18.2018 18.4508 18.1597C18.6272 18.1174 18.8023 18.0702 18.9762 18.0178C19.1499 17.9652 19.3219 17.9077 19.4923 17.8451C19.6627 17.7824 19.831 17.7147 19.9975 17.6422C20.1637 17.5695 20.3278 17.4921 20.4895 17.4098C20.6513 17.3276 20.8105 17.2404 20.9671 17.1488C21.1239 17.0569 21.2775 16.9606 21.4285 16.8598C21.5795 16.7591 21.7272 16.6539 21.8719 16.5443C22.0166 16.4346 22.158 16.321 22.2959 16.203C22.4338 16.0852 22.5683 15.9632 22.6992 15.8372C22.8298 15.7114 22.9567 15.5817 23.0799 15.4485C23.2029 15.315 23.3221 15.178 23.4371 15.0378C23.5521 14.8973 23.6627 14.7535 23.7693 14.6065C23.8758 14.4595 23.9778 14.3096 24.0755 14.1565C24.1729 14.0034 24.266 13.8477 24.3546 13.6893C24.4429 13.5308 24.5266 13.3697 24.6054 13.2063C24.6844 13.0427 24.7582 12.8772 24.8274 12.7094C24.8964 12.5415 24.9604 12.3716 25.0196 12.2C25.0787 12.0285 25.1325 11.8553 25.1813 11.6804C25.2302 11.5056 25.2737 11.3293 25.3122 11.1521C25.3506 10.9747 25.3835 10.7961 25.4113 10.6168C25.4392 10.4376 25.4618 10.2576 25.4789 10.0769C25.4962 9.89619 25.5079 9.71504 25.5144 9.53365C25.521 9.35226 25.5219 9.17087 25.5177 8.98948C25.5135 8.80785 25.5039 8.6267 25.4889 8.44577C25.474 8.26509 25.4537 8.08463 25.4279 7.90511C25.4022 7.72536 25.3714 7.54654 25.3351 7.36865C25.2989 7.19077 25.2575 7.01429 25.2108 6.83874C25.1643 6.66343 25.1124 6.48952 25.0553 6.31725C24.9985 6.14474 24.9366 5.97434 24.8695 5.80557C24.8024 5.63703 24.7304 5.47037 24.6535 5.30605C24.5766 5.14149 24.495 4.9795 24.4086 4.82008C24.3221 4.66043 24.2309 4.50358 24.1353 4.34931C24.0395 4.19503 23.9392 4.0438 23.8345 3.8956C23.7297 3.7474 23.6208 3.60224 23.5075 3.46036C23.3943 3.3187 23.277 3.18032 23.1554 3.04545C23.0341 2.91058 22.9086 2.77944 22.7793 2.65181C22.6503 2.52442 22.5173 2.401 22.3808 2.28132C22.2443 2.16164 22.1043 2.04617 21.961 1.9349C21.8177 1.82364 21.6711 1.71658 21.5215 1.61397C21.3717 1.51135 21.219 1.41317 21.0636 1.31944C20.9082 1.22571 20.7501 1.13688 20.5893 1.0525C20.4285 0.968348 20.2654 0.888873 20.1001 0.814307C19.9346 0.739507 19.767 0.669849 19.5975 0.605101C19.4278 0.540352 19.2565 0.480746 19.0835 0.426282C18.9103 0.371584 18.7357 0.322263 18.5597 0.277851C18.3837 0.233672 18.2065 0.194636 18.0281 0.160976C17.8498 0.127082 17.6707 0.0985645 17.4908 0.0754232C17.3105 0.052282 17.1301 0.0342832 16.9489 0.0218945C16.768 0.00927198 16.5866 0.00225952 16.4052 0.000389519C16.2236 -0.00124669 16.0422 0.00225949 15.8611 0.011142C15.6797 0.0202583 15.4987 0.034517 15.3183 0.054152C15.1378 0.073787 14.9583 0.0987982 14.7793 0.128952C14.6002 0.159339 14.4223 0.194869 14.2456 0.235542C14.0687 0.276448 13.8931 0.322497 13.719 0.373688C13.5448 0.424879 13.3723 0.481213 13.2017 0.542456C13.0308 0.603932 12.8618 0.670317 12.6952 0.741611C12.5283 0.812904 12.3635 0.88934 12.2012 0.970452C12.0388 1.05156 11.8789 1.13735 11.7216 1.22781C11.5643 1.31851 11.4098 1.41364 11.2583 1.51322C11.1066 1.61303 10.9579 1.71705 10.8123 1.82551C10.6669 1.9342 10.5248 2.04687 10.3859 2.16374C10.2471 2.28062 10.1118 2.40147 9.98015 2.52652C9.84832 2.65135 9.72046 2.77991 9.59634 2.91245C9.47222 3.04498 9.35231 3.18102 9.23613 3.32057C9.12019 3.46012 9.00846 3.60294 8.9007 3.74927C8.79318 3.89536 8.69009 4.04473 8.59122 4.1969C8.49258 4.34931 8.39837 4.50428 8.30885 4.66206C8.21932 4.82008 8.13447 4.98043 8.0543 5.14335C7.97412 5.30605 7.89909 5.47131 7.82873 5.63867C7.75837 5.8058 7.69292 5.97527 7.63261 6.14638C7.57231 6.31748 7.51714 6.49046 7.46712 6.66483C7.41686 6.83921 7.37198 7.01499 7.33248 7.19217C7.29274 7.36936 7.25815 7.54747 7.22916 7.72653C7.19994 7.90581 7.1761 8.08557 7.15763 8.26625C7.13917 8.44671 7.12584 8.62763 7.11813 8.80902C7.11018 8.99041 7.10785 9.1718 7.11065 9.35319C7.11369 9.53481 7.12187 9.71597 7.13566 9.89689C7.14922 10.078 7.16815 10.2585 7.19246 10.4383C7.21677 10.6182 7.24646 10.7971 7.28129 10.9752C7.31612 11.1533 7.35632 11.3302 7.40167 11.506C7.44702 11.6818 7.49751 11.8562 7.55314 12.0289C7.60877 12.2017 7.66954 12.3725 7.73546 12.5418C7.80115 12.711 7.87197 12.8779 7.94747 13.0429C8.02321 13.208 8.10362 13.3707 8.18894 13.5308C8.27425 13.6909 8.36425 13.8487 8.45892 14.0034C8.55335 14.1584 8.65246 14.3103 8.75624 14.4595C8.8598 14.6084 8.96755 14.7542 9.07975 14.897C9.19219 15.0396 9.30836 15.1787 9.42898 15.3145C9.54936 15.4503 9.67371 15.5824 9.80204 15.711C9.93013 15.8393 10.0622 15.9639 10.1978 16.0845C10.3334 16.2051 10.4724 16.3215 10.615 16.4339C10.7576 16.5464 10.9032 16.6544 11.0524 16.7582C10.8633 16.7836 10.6749 16.8131 10.4874 16.847C10.2997 16.8806 10.1127 16.9187 9.92686 16.9611C9.7408 17.0031 9.5559 17.0494 9.37217 17.0999C9.18821 17.1504 9.00566 17.2051 8.82403 17.2638C8.64264 17.3224 8.46266 17.3851 8.28407 17.4519C8.10549 17.5188 7.92854 17.5894 7.75299 17.6642C7.57768 17.739 7.40401 17.8175 7.23197 17.9C7.06016 17.9825 6.88999 18.0688 6.72216 18.159C6.55409 18.249 6.38813 18.343 6.22427 18.4405C6.06042 18.5382 5.89889 18.6394 5.73971 18.7441C5.58029 18.849 5.42345 18.9573 5.26894 19.0692C5.11467 19.181 4.96273 19.2962 4.8136 19.415C4.66423 19.5337 4.5179 19.6557 4.37391 19.7808C4.23016 19.9061 4.08944 20.0346 3.9513 20.1662C3.81338 20.2976 3.67828 20.4322 3.54644 20.5699C3.41437 20.7076 3.28558 20.8481 3.15982 20.9916C3.0343 21.1349 2.91181 21.2812 2.79284 21.4301C2.67362 21.579 2.55792 21.7305 2.44572 21.8845C2.33328 22.0386 2.22459 22.1952 2.11917 22.3541C2.01398 22.5131 1.9123 22.6744 1.81413 22.838C1.71619 23.0014 1.62175 23.1671 1.53129 23.3349C1.4406 23.5028 1.35388 23.6725 1.27089 23.844C1.18791 24.0159 1.10867 24.1893 1.03341 24.3644C0.958372 24.5397 0.887078 24.7164 0.819758 24.895C0.752439 25.0733 0.689326 25.2531 0.629954 25.4345C0.570816 25.6156 0.515651 25.7982 0.464693 25.9819C0.413736 26.1657 0.366752 26.3505 0.323976 26.5364C0.281434 26.7222 0.242865 26.9087 0.208504 27.0964C0.174143 27.2839 0.14399 27.4721 0.118043 27.6612C0.0920972 27.8501 0.0705922 28.0394 0.0530611 28.2292C0.0357636 28.4192 0.0224399 28.6093 0.0137912 28.7998C0.0049087 28.9903 0.000233734 29.1808 0 29.3715V35H16.293V33.2228ZM8.88691 9.22743C8.88691 9.10635 8.88995 8.98504 8.89603 8.86395C8.90187 8.7431 8.91075 8.62226 8.92267 8.50164C8.9346 8.38103 8.94932 8.26064 8.96709 8.14073C8.98485 8.02082 9.00566 7.9016 9.02926 7.78263C9.05287 7.66365 9.07952 7.5456 9.10897 7.42803C9.13842 7.31045 9.17068 7.19358 9.20598 7.07764C9.24104 6.9617 9.27914 6.84669 9.31981 6.73239C9.36072 6.61832 9.40443 6.50518 9.45071 6.39322C9.49723 6.28125 9.54632 6.17045 9.59798 6.06106C9.64987 5.95143 9.70433 5.8432 9.76137 5.73638C9.81863 5.62932 9.87824 5.5239 9.94065 5.42011C10.0031 5.3161 10.0678 5.21371 10.1351 5.11297C10.2025 5.01222 10.2721 4.91311 10.3443 4.81564C10.4166 4.7184 10.4911 4.62279 10.568 4.52906C10.6449 4.43556 10.7242 4.3437 10.8055 4.25394C10.8869 4.16418 10.9703 4.07629 11.0561 3.99073C11.1419 3.90495 11.2295 3.8215 11.3193 3.73992C11.4093 3.65858 11.5009 3.57957 11.5947 3.50266C11.6884 3.42576 11.7838 3.35119 11.8812 3.27897C11.9785 3.20674 12.0776 3.13708 12.1783 3.06953C12.2791 3.00221 12.3815 2.93746 12.4855 2.87505C12.5895 2.81287 12.6949 2.75303 12.8017 2.69599C12.9086 2.63896 13.0168 2.58426 13.1264 2.5326C13.236 2.48071 13.3468 2.43162 13.4588 2.38534C13.5708 2.33882 13.6839 2.29535 13.798 2.25444C13.9121 2.21353 14.0271 2.17567 14.143 2.14037C14.2592 2.10531 14.3758 2.07282 14.4934 2.04336C14.611 2.01391 14.7292 1.9875 14.848 1.96389C14.967 1.94028 15.0864 1.91948 15.2063 1.90171C15.3262 1.88395 15.4464 1.86899 15.567 1.85707C15.6876 1.84538 15.8085 1.83626 15.9295 1.83042C16.0506 1.82457 16.1717 1.82154 16.293 1.82154C16.4141 1.82154 16.5352 1.82457 16.6563 1.83042C16.7773 1.83626 16.8982 1.84538 17.0188 1.85707C17.1394 1.86899 17.2598 1.88395 17.3795 1.90171C17.4994 1.91948 17.6188 1.94028 17.7378 1.96389C17.8566 1.9875 17.9748 2.01391 18.0924 2.04336C18.21 2.07282 18.3266 2.10531 18.4428 2.14037C18.5588 2.17567 18.6738 2.21353 18.7878 2.25444C18.9019 2.29535 19.015 2.33882 19.127 2.38534C19.239 2.43162 19.3498 2.48071 19.4594 2.5326C19.569 2.58426 19.6772 2.63896 19.7841 2.69599C19.8909 2.75303 19.9963 2.81287 20.1003 2.87505C20.2043 2.93746 20.3067 3.00221 20.4075 3.06953C20.5082 3.13708 20.6073 3.20674 20.7046 3.27897C20.802 3.35119 20.8974 3.42576 20.9911 3.50266C21.0849 3.57957 21.1765 3.65858 21.2665 3.73992C21.3563 3.8215 21.4439 3.90495 21.5297 3.99073C21.6155 4.07629 21.6989 4.16418 21.7803 4.25394C21.8616 4.3437 21.9409 4.43556 22.0178 4.52906C22.0947 4.62279 22.1692 4.7184 22.2415 4.81564C22.3137 4.91311 22.3834 5.01222 22.4507 5.11297C22.518 5.21371 22.583 5.3161 22.6452 5.42011C22.7076 5.5239 22.7672 5.62932 22.8244 5.73638C22.8815 5.8432 22.9359 5.95143 22.9878 6.06106C23.0395 6.17045 23.0888 6.28125 23.1351 6.39322C23.1814 6.50518 23.2251 6.61832 23.266 6.73239C23.3067 6.84669 23.3448 6.9617 23.3798 7.07764C23.4151 7.19358 23.4474 7.31045 23.4768 7.42803C23.5063 7.5456 23.5329 7.66365 23.5565 7.78263C23.5802 7.9016 23.601 8.02082 23.6187 8.14073C23.6365 8.26064 23.6512 8.38103 23.6631 8.50164C23.6751 8.62226 23.6839 8.7431 23.69 8.86395C23.6959 8.98504 23.6989 9.10635 23.6989 9.22743C23.6989 9.34875 23.6959 9.46983 23.69 9.59092C23.6839 9.712 23.6751 9.83285 23.6631 9.95346C23.6512 10.0741 23.6365 10.1942 23.6187 10.3141C23.601 10.4341 23.5802 10.5535 23.5565 10.6722C23.5329 10.7912 23.5063 10.9093 23.4768 11.0268C23.4474 11.1444 23.4151 11.2613 23.3798 11.3772C23.3448 11.4932 23.3067 11.6084 23.266 11.7225C23.2251 11.8366 23.1814 11.9497 23.1351 12.0617C23.0888 12.1736 23.0395 12.2844 22.9878 12.3938C22.9359 12.5034 22.8815 12.6117 22.8244 12.7185C22.7672 12.8255 22.7076 12.931 22.6452 13.0348C22.583 13.1388 22.518 13.2412 22.4507 13.3419C22.3834 13.4426 22.3137 13.5418 22.2415 13.6392C22.1692 13.7365 22.0947 13.8321 22.0178 13.9258C21.9409 14.0193 21.8616 14.1112 21.7803 14.2009C21.6989 14.2907 21.6155 14.3786 21.5297 14.4641C21.4439 14.5499 21.3563 14.6334 21.2665 14.7149C21.1765 14.7963 21.0849 14.8755 20.9911 14.9522C20.8974 15.0291 20.802 15.1037 20.7046 15.1759C20.6073 15.2481 20.5082 15.318 20.4075 15.3853C20.3067 15.4527 20.2043 15.5174 20.1003 15.5798C19.9963 15.642 19.8909 15.7018 19.7841 15.7589C19.6772 15.8161 19.569 15.8706 19.4594 15.9223C19.3498 15.9742 19.239 16.0232 19.127 16.0695C19.015 16.116 18.9019 16.1595 18.7878 16.2004C18.6738 16.2413 18.5588 16.2792 18.4428 16.3145C18.3266 16.3496 18.21 16.3821 18.0924 16.4115C17.9748 16.441 17.8566 16.4674 17.7378 16.491C17.6188 16.5148 17.4994 16.5354 17.3795 16.5532C17.2598 16.5709 17.1394 16.5859 17.0188 16.5978C16.8982 16.6095 16.7773 16.6186 16.6563 16.6244C16.5352 16.6303 16.4141 16.6333 16.293 16.6333C16.1717 16.6333 16.0506 16.6301 15.9295 16.624C15.8087 16.6179 15.6878 16.609 15.5672 16.5969C15.4466 16.5849 15.3265 16.57 15.2066 16.5522C15.0869 16.5342 14.9674 16.5134 14.8487 16.4898C14.7299 16.466 14.6117 16.4393 14.4941 16.4099C14.3767 16.3802 14.2599 16.3479 14.1439 16.3126C14.028 16.2773 13.913 16.2392 13.7991 16.1983C13.6851 16.1574 13.5719 16.1139 13.46 16.0674C13.3482 16.0209 13.2375 15.9718 13.1281 15.9199C13.0184 15.868 12.9102 15.8136 12.8034 15.7565C12.6966 15.6993 12.5911 15.6397 12.4873 15.5772C12.3833 15.5148 12.2812 15.4501 12.1804 15.3828C12.0797 15.3154 11.9806 15.2456 11.8833 15.1733C11.7861 15.1011 11.6905 15.0268 11.5968 14.9499C11.5033 14.873 11.4114 14.7937 11.3216 14.7124C11.2319 14.631 11.1442 14.5476 11.0587 14.4618C10.9729 14.3762 10.8894 14.2884 10.8081 14.1986C10.7265 14.1088 10.6475 14.0172 10.5706 13.9235C10.4937 13.8297 10.4191 13.7344 10.3469 13.6371C10.2747 13.5397 10.205 13.4408 10.1377 13.34C10.0704 13.2393 10.0054 13.1369 9.94322 13.0331C9.88081 12.9291 9.82097 12.8237 9.76394 12.7169C9.70667 12.61 9.65221 12.502 9.60031 12.3924C9.54842 12.283 9.49933 12.1722 9.45305 12.0602C9.40654 11.9483 9.36282 11.8354 9.32192 11.7213C9.28101 11.6072 9.24291 11.4922 9.20785 11.3763C9.17255 11.2604 9.14006 11.1437 9.11061 11.0261C9.08092 10.9088 9.05451 10.7905 9.03067 10.6718C9.00682 10.5528 8.98602 10.4336 8.96826 10.3137C8.95026 10.1938 8.9353 10.0736 8.92338 9.95299C8.91145 9.83261 8.90234 9.71176 8.89626 9.59068C8.89018 9.4696 8.88714 9.34852 8.88691 9.22743Z"/>
</mask>
<path d="M16.293 33.2228H1.77743V29.3715C1.77743 29.1922 1.7821 29.013 1.79099 28.8339C1.8001 28.6549 1.81343 28.476 1.83119 28.2977C1.84896 28.1191 1.87093 27.9412 1.89758 27.7638C1.92399 27.5866 1.95484 27.4099 1.98991 27.2341C2.02497 27.0581 2.06447 26.8833 2.10818 26.7094C2.1519 26.5354 2.19981 26.3627 2.25194 26.1911C2.30407 26.0196 2.3604 25.8494 2.42094 25.6806C2.48148 25.5119 2.546 25.3445 2.61472 25.179C2.68344 25.0133 2.75637 24.8494 2.83304 24.6874C2.90971 24.5252 2.99035 24.3651 3.07497 24.2071C3.15959 24.049 3.24795 23.8929 3.34028 23.7391C3.43261 23.5855 3.52844 23.4341 3.62825 23.2849C3.72783 23.1358 3.83115 22.9892 3.93797 22.8452C4.0448 22.7012 4.15513 22.5598 4.26896 22.4212C4.3828 22.2828 4.49991 22.147 4.62029 22.014C4.74067 21.8813 4.86432 21.7515 4.99101 21.6246C5.11794 21.4979 5.24767 21.3742 5.38067 21.2536C5.51344 21.1333 5.64925 21.0161 5.78786 20.9023C5.92648 20.7887 6.06766 20.6784 6.21165 20.5716C6.35587 20.4645 6.50244 20.3614 6.65133 20.2616C6.80047 20.162 6.95193 20.0659 7.10574 19.9739C7.25955 19.8815 7.41546 19.7932 7.57347 19.7085C7.73172 19.6239 7.89184 19.5433 8.05383 19.4666C8.21582 19.3897 8.37967 19.317 8.5454 19.2483C8.71113 19.1796 8.87826 19.1151 9.04703 19.0545C9.2158 18.994 9.38597 18.9376 9.55754 18.8855C9.72911 18.8332 9.90208 18.7852 10.076 18.7415C10.2499 18.6978 10.4247 18.6585 10.6005 18.6235C10.7763 18.5882 10.953 18.5576 11.1304 18.5309C11.3079 18.5045 11.4857 18.4823 11.6641 18.4648C11.8424 18.447 12.0213 18.4334 12.2005 18.4246C12.3796 18.4157 12.5586 18.411 12.7382 18.4108H16.293C16.4744 18.4112 16.6558 18.4063 16.837 18.396C17.0181 18.3858 17.199 18.3701 17.3793 18.3491C17.5595 18.328 17.739 18.3018 17.9178 18.2703C18.0966 18.2385 18.2743 18.2018 18.4508 18.1597C18.6272 18.1174 18.8023 18.0702 18.9762 18.0178C19.1499 17.9652 19.3219 17.9077 19.4923 17.8451C19.6627 17.7824 19.831 17.7147 19.9975 17.6422C20.1637 17.5695 20.3278 17.4921 20.4895 17.4098C20.6513 17.3276 20.8105 17.2404 20.9671 17.1488C21.1239 17.0569 21.2775 16.9606 21.4285 16.8598C21.5795 16.7591 21.7272 16.6539 21.8719 16.5443C22.0166 16.4346 22.158 16.321 22.2959 16.203C22.4338 16.0852 22.5683 15.9632 22.6992 15.8372C22.8298 15.7114 22.9567 15.5817 23.0799 15.4485C23.2029 15.315 23.3221 15.178 23.4371 15.0378C23.5521 14.8973 23.6627 14.7535 23.7693 14.6065C23.8758 14.4595 23.9778 14.3096 24.0755 14.1565C24.1729 14.0034 24.266 13.8477 24.3546 13.6893C24.4429 13.5308 24.5266 13.3697 24.6054 13.2063C24.6844 13.0427 24.7582 12.8772 24.8274 12.7094C24.8964 12.5415 24.9604 12.3716 25.0196 12.2C25.0787 12.0285 25.1325 11.8553 25.1813 11.6804C25.2302 11.5056 25.2737 11.3293 25.3122 11.1521C25.3506 10.9747 25.3835 10.7961 25.4113 10.6168C25.4392 10.4376 25.4618 10.2576 25.4789 10.0769C25.4962 9.89619 25.5079 9.71504 25.5144 9.53365C25.521 9.35226 25.5219 9.17087 25.5177 8.98948C25.5135 8.80785 25.5039 8.6267 25.4889 8.44577C25.474 8.26509 25.4537 8.08463 25.4279 7.90511C25.4022 7.72536 25.3714 7.54654 25.3351 7.36865C25.2989 7.19077 25.2575 7.01429 25.2108 6.83874C25.1643 6.66343 25.1124 6.48952 25.0553 6.31725C24.9985 6.14474 24.9366 5.97434 24.8695 5.80557C24.8024 5.63703 24.7304 5.47037 24.6535 5.30605C24.5766 5.14149 24.495 4.9795 24.4086 4.82008C24.3221 4.66043 24.2309 4.50358 24.1353 4.34931C24.0395 4.19503 23.9392 4.0438 23.8345 3.8956C23.7297 3.7474 23.6208 3.60224 23.5075 3.46036C23.3943 3.3187 23.277 3.18032 23.1554 3.04545C23.0341 2.91058 22.9086 2.77944 22.7793 2.65181C22.6503 2.52442 22.5173 2.401 22.3808 2.28132C22.2443 2.16164 22.1043 2.04617 21.961 1.9349C21.8177 1.82364 21.6711 1.71658 21.5215 1.61397C21.3717 1.51135 21.219 1.41317 21.0636 1.31944C20.9082 1.22571 20.7501 1.13688 20.5893 1.0525C20.4285 0.968348 20.2654 0.888873 20.1001 0.814307C19.9346 0.739507 19.767 0.669849 19.5975 0.605101C19.4278 0.540352 19.2565 0.480746 19.0835 0.426282C18.9103 0.371584 18.7357 0.322263 18.5597 0.277851C18.3837 0.233672 18.2065 0.194636 18.0281 0.160976C17.8498 0.127082 17.6707 0.0985645 17.4908 0.0754232C17.3105 0.052282 17.1301 0.0342832 16.9489 0.0218945C16.768 0.00927198 16.5866 0.00225952 16.4052 0.000389519C16.2236 -0.00124669 16.0422 0.00225949 15.8611 0.011142C15.6797 0.0202583 15.4987 0.034517 15.3183 0.054152C15.1378 0.073787 14.9583 0.0987982 14.7793 0.128952C14.6002 0.159339 14.4223 0.194869 14.2456 0.235542C14.0687 0.276448 13.8931 0.322497 13.719 0.373688C13.5448 0.424879 13.3723 0.481213 13.2017 0.542456C13.0308 0.603932 12.8618 0.670317 12.6952 0.741611C12.5283 0.812904 12.3635 0.88934 12.2012 0.970452C12.0388 1.05156 11.8789 1.13735 11.7216 1.22781C11.5643 1.31851 11.4098 1.41364 11.2583 1.51322C11.1066 1.61303 10.9579 1.71705 10.8123 1.82551C10.6669 1.9342 10.5248 2.04687 10.3859 2.16374C10.2471 2.28062 10.1118 2.40147 9.98015 2.52652C9.84832 2.65135 9.72046 2.77991 9.59634 2.91245C9.47222 3.04498 9.35231 3.18102 9.23613 3.32057C9.12019 3.46012 9.00846 3.60294 8.9007 3.74927C8.79318 3.89536 8.69009 4.04473 8.59122 4.1969C8.49258 4.34931 8.39837 4.50428 8.30885 4.66206C8.21932 4.82008 8.13447 4.98043 8.0543 5.14335C7.97412 5.30605 7.89909 5.47131 7.82873 5.63867C7.75837 5.8058 7.69292 5.97527 7.63261 6.14638C7.57231 6.31748 7.51714 6.49046 7.46712 6.66483C7.41686 6.83921 7.37198 7.01499 7.33248 7.19217C7.29274 7.36936 7.25815 7.54747 7.22916 7.72653C7.19994 7.90581 7.1761 8.08557 7.15763 8.26625C7.13917 8.44671 7.12584 8.62763 7.11813 8.80902C7.11018 8.99041 7.10785 9.1718 7.11065 9.35319C7.11369 9.53481 7.12187 9.71597 7.13566 9.89689C7.14922 10.078 7.16815 10.2585 7.19246 10.4383C7.21677 10.6182 7.24646 10.7971 7.28129 10.9752C7.31612 11.1533 7.35632 11.3302 7.40167 11.506C7.44702 11.6818 7.49751 11.8562 7.55314 12.0289C7.60877 12.2017 7.66954 12.3725 7.73546 12.5418C7.80115 12.711 7.87197 12.8779 7.94747 13.0429C8.02321 13.208 8.10362 13.3707 8.18894 13.5308C8.27425 13.6909 8.36425 13.8487 8.45892 14.0034C8.55335 14.1584 8.65246 14.3103 8.75624 14.4595C8.8598 14.6084 8.96755 14.7542 9.07975 14.897C9.19219 15.0396 9.30836 15.1787 9.42898 15.3145C9.54936 15.4503 9.67371 15.5824 9.80204 15.711C9.93013 15.8393 10.0622 15.9639 10.1978 16.0845C10.3334 16.2051 10.4724 16.3215 10.615 16.4339C10.7576 16.5464 10.9032 16.6544 11.0524 16.7582C10.8633 16.7836 10.6749 16.8131 10.4874 16.847C10.2997 16.8806 10.1127 16.9187 9.92686 16.9611C9.7408 17.0031 9.5559 17.0494 9.37217 17.0999C9.18821 17.1504 9.00566 17.2051 8.82403 17.2638C8.64264 17.3224 8.46266 17.3851 8.28407 17.4519C8.10549 17.5188 7.92854 17.5894 7.75299 17.6642C7.57768 17.739 7.40401 17.8175 7.23197 17.9C7.06016 17.9825 6.88999 18.0688 6.72216 18.159C6.55409 18.249 6.38813 18.343 6.22427 18.4405C6.06042 18.5382 5.89889 18.6394 5.73971 18.7441C5.58029 18.849 5.42345 18.9573 5.26894 19.0692C5.11467 19.181 4.96273 19.2962 4.8136 19.415C4.66423 19.5337 4.5179 19.6557 4.37391 19.7808C4.23016 19.9061 4.08944 20.0346 3.9513 20.1662C3.81338 20.2976 3.67828 20.4322 3.54644 20.5699C3.41437 20.7076 3.28558 20.8481 3.15982 20.9916C3.0343 21.1349 2.91181 21.2812 2.79284 21.4301C2.67362 21.579 2.55792 21.7305 2.44572 21.8845C2.33328 22.0386 2.22459 22.1952 2.11917 22.3541C2.01398 22.5131 1.9123 22.6744 1.81413 22.838C1.71619 23.0014 1.62175 23.1671 1.53129 23.3349C1.4406 23.5028 1.35388 23.6725 1.27089 23.844C1.18791 24.0159 1.10867 24.1893 1.03341 24.3644C0.958372 24.5397 0.887078 24.7164 0.819758 24.895C0.752439 25.0733 0.689326 25.2531 0.629954 25.4345C0.570816 25.6156 0.515651 25.7982 0.464693 25.9819C0.413736 26.1657 0.366752 26.3505 0.323976 26.5364C0.281434 26.7222 0.242865 26.9087 0.208504 27.0964C0.174143 27.2839 0.14399 27.4721 0.118043 27.6612C0.0920972 27.8501 0.0705922 28.0394 0.0530611 28.2292C0.0357636 28.4192 0.0224399 28.6093 0.0137912 28.7998C0.0049087 28.9903 0.000233734 29.1808 0 29.3715V35H16.293V33.2228ZM8.88691 9.22743C8.88691 9.10635 8.88995 8.98504 8.89603 8.86395C8.90187 8.7431 8.91075 8.62226 8.92267 8.50164C8.9346 8.38103 8.94932 8.26064 8.96709 8.14073C8.98485 8.02082 9.00566 7.9016 9.02926 7.78263C9.05287 7.66365 9.07952 7.5456 9.10897 7.42803C9.13842 7.31045 9.17068 7.19358 9.20598 7.07764C9.24104 6.9617 9.27914 6.84669 9.31981 6.73239C9.36072 6.61832 9.40443 6.50518 9.45071 6.39322C9.49723 6.28125 9.54632 6.17045 9.59798 6.06106C9.64987 5.95143 9.70433 5.8432 9.76137 5.73638C9.81863 5.62932 9.87824 5.5239 9.94065 5.42011C10.0031 5.3161 10.0678 5.21371 10.1351 5.11297C10.2025 5.01222 10.2721 4.91311 10.3443 4.81564C10.4166 4.7184 10.4911 4.62279 10.568 4.52906C10.6449 4.43556 10.7242 4.3437 10.8055 4.25394C10.8869 4.16418 10.9703 4.07629 11.0561 3.99073C11.1419 3.90495 11.2295 3.8215 11.3193 3.73992C11.4093 3.65858 11.5009 3.57957 11.5947 3.50266C11.6884 3.42576 11.7838 3.35119 11.8812 3.27897C11.9785 3.20674 12.0776 3.13708 12.1783 3.06953C12.2791 3.00221 12.3815 2.93746 12.4855 2.87505C12.5895 2.81287 12.6949 2.75303 12.8017 2.69599C12.9086 2.63896 13.0168 2.58426 13.1264 2.5326C13.236 2.48071 13.3468 2.43162 13.4588 2.38534C13.5708 2.33882 13.6839 2.29535 13.798 2.25444C13.9121 2.21353 14.0271 2.17567 14.143 2.14037C14.2592 2.10531 14.3758 2.07282 14.4934 2.04336C14.611 2.01391 14.7292 1.9875 14.848 1.96389C14.967 1.94028 15.0864 1.91948 15.2063 1.90171C15.3262 1.88395 15.4464 1.86899 15.567 1.85707C15.6876 1.84538 15.8085 1.83626 15.9295 1.83042C16.0506 1.82457 16.1717 1.82154 16.293 1.82154C16.4141 1.82154 16.5352 1.82457 16.6563 1.83042C16.7773 1.83626 16.8982 1.84538 17.0188 1.85707C17.1394 1.86899 17.2598 1.88395 17.3795 1.90171C17.4994 1.91948 17.6188 1.94028 17.7378 1.96389C17.8566 1.9875 17.9748 2.01391 18.0924 2.04336C18.21 2.07282 18.3266 2.10531 18.4428 2.14037C18.5588 2.17567 18.6738 2.21353 18.7878 2.25444C18.9019 2.29535 19.015 2.33882 19.127 2.38534C19.239 2.43162 19.3498 2.48071 19.4594 2.5326C19.569 2.58426 19.6772 2.63896 19.7841 2.69599C19.8909 2.75303 19.9963 2.81287 20.1003 2.87505C20.2043 2.93746 20.3067 3.00221 20.4075 3.06953C20.5082 3.13708 20.6073 3.20674 20.7046 3.27897C20.802 3.35119 20.8974 3.42576 20.9911 3.50266C21.0849 3.57957 21.1765 3.65858 21.2665 3.73992C21.3563 3.8215 21.4439 3.90495 21.5297 3.99073C21.6155 4.07629 21.6989 4.16418 21.7803 4.25394C21.8616 4.3437 21.9409 4.43556 22.0178 4.52906C22.0947 4.62279 22.1692 4.7184 22.2415 4.81564C22.3137 4.91311 22.3834 5.01222 22.4507 5.11297C22.518 5.21371 22.583 5.3161 22.6452 5.42011C22.7076 5.5239 22.7672 5.62932 22.8244 5.73638C22.8815 5.8432 22.9359 5.95143 22.9878 6.06106C23.0395 6.17045 23.0888 6.28125 23.1351 6.39322C23.1814 6.50518 23.2251 6.61832 23.266 6.73239C23.3067 6.84669 23.3448 6.9617 23.3798 7.07764C23.4151 7.19358 23.4474 7.31045 23.4768 7.42803C23.5063 7.5456 23.5329 7.66365 23.5565 7.78263C23.5802 7.9016 23.601 8.02082 23.6187 8.14073C23.6365 8.26064 23.6512 8.38103 23.6631 8.50164C23.6751 8.62226 23.6839 8.7431 23.69 8.86395C23.6959 8.98504 23.6989 9.10635 23.6989 9.22743C23.6989 9.34875 23.6959 9.46983 23.69 9.59092C23.6839 9.712 23.6751 9.83285 23.6631 9.95346C23.6512 10.0741 23.6365 10.1942 23.6187 10.3141C23.601 10.4341 23.5802 10.5535 23.5565 10.6722C23.5329 10.7912 23.5063 10.9093 23.4768 11.0268C23.4474 11.1444 23.4151 11.2613 23.3798 11.3772C23.3448 11.4932 23.3067 11.6084 23.266 11.7225C23.2251 11.8366 23.1814 11.9497 23.1351 12.0617C23.0888 12.1736 23.0395 12.2844 22.9878 12.3938C22.9359 12.5034 22.8815 12.6117 22.8244 12.7185C22.7672 12.8255 22.7076 12.931 22.6452 13.0348C22.583 13.1388 22.518 13.2412 22.4507 13.3419C22.3834 13.4426 22.3137 13.5418 22.2415 13.6392C22.1692 13.7365 22.0947 13.8321 22.0178 13.9258C21.9409 14.0193 21.8616 14.1112 21.7803 14.2009C21.6989 14.2907 21.6155 14.3786 21.5297 14.4641C21.4439 14.5499 21.3563 14.6334 21.2665 14.7149C21.1765 14.7963 21.0849 14.8755 20.9911 14.9522C20.8974 15.0291 20.802 15.1037 20.7046 15.1759C20.6073 15.2481 20.5082 15.318 20.4075 15.3853C20.3067 15.4527 20.2043 15.5174 20.1003 15.5798C19.9963 15.642 19.8909 15.7018 19.7841 15.7589C19.6772 15.8161 19.569 15.8706 19.4594 15.9223C19.3498 15.9742 19.239 16.0232 19.127 16.0695C19.015 16.116 18.9019 16.1595 18.7878 16.2004C18.6738 16.2413 18.5588 16.2792 18.4428 16.3145C18.3266 16.3496 18.21 16.3821 18.0924 16.4115C17.9748 16.441 17.8566 16.4674 17.7378 16.491C17.6188 16.5148 17.4994 16.5354 17.3795 16.5532C17.2598 16.5709 17.1394 16.5859 17.0188 16.5978C16.8982 16.6095 16.7773 16.6186 16.6563 16.6244C16.5352 16.6303 16.4141 16.6333 16.293 16.6333C16.1717 16.6333 16.0506 16.6301 15.9295 16.624C15.8087 16.6179 15.6878 16.609 15.5672 16.5969C15.4466 16.5849 15.3265 16.57 15.2066 16.5522C15.0869 16.5342 14.9674 16.5134 14.8487 16.4898C14.7299 16.466 14.6117 16.4393 14.4941 16.4099C14.3767 16.3802 14.2599 16.3479 14.1439 16.3126C14.028 16.2773 13.913 16.2392 13.7991 16.1983C13.6851 16.1574 13.5719 16.1139 13.46 16.0674C13.3482 16.0209 13.2375 15.9718 13.1281 15.9199C13.0184 15.868 12.9102 15.8136 12.8034 15.7565C12.6966 15.6993 12.5911 15.6397 12.4873 15.5772C12.3833 15.5148 12.2812 15.4501 12.1804 15.3828C12.0797 15.3154 11.9806 15.2456 11.8833 15.1733C11.7861 15.1011 11.6905 15.0268 11.5968 14.9499C11.5033 14.873 11.4114 14.7937 11.3216 14.7124C11.2319 14.631 11.1442 14.5476 11.0587 14.4618C10.9729 14.3762 10.8894 14.2884 10.8081 14.1986C10.7265 14.1088 10.6475 14.0172 10.5706 13.9235C10.4937 13.8297 10.4191 13.7344 10.3469 13.6371C10.2747 13.5397 10.205 13.4408 10.1377 13.34C10.0704 13.2393 10.0054 13.1369 9.94322 13.0331C9.88081 12.9291 9.82097 12.8237 9.76394 12.7169C9.70667 12.61 9.65221 12.502 9.60031 12.3924C9.54842 12.283 9.49933 12.1722 9.45305 12.0602C9.40654 11.9483 9.36282 11.8354 9.32192 11.7213C9.28101 11.6072 9.24291 11.4922 9.20785 11.3763C9.17255 11.2604 9.14006 11.1437 9.11061 11.0261C9.08092 10.9088 9.05451 10.7905 9.03067 10.6718C9.00682 10.5528 8.98602 10.4336 8.96826 10.3137C8.95026 10.1938 8.9353 10.0736 8.92338 9.95299C8.91145 9.83261 8.90234 9.71176 8.89626 9.59068C8.89018 9.4696 8.88714 9.34852 8.88691 9.22743Z" fill="white" stroke="#663366" stroke-width="0.6" mask="url(#path-7-inside-1_71_1721)"/>
<path d="M26.6661 23V25.6661H24V27.4436H26.6661V30.1097H28.4436V27.4436H31.1097V25.6661H28.4436V23H26.6661Z" fill="#663366"/>
</svg>
