<svg width="34" height="30" viewBox="0 0 34 30" fill="none" xmlns="http://www.w3.org/2000/svg">
<circle cx="9.88666" cy="20.3466" r="8.12494" fill="#5DC4FE"/>
<path d="M0 20.0023C0 20.1659 0.00409058 20.3292 0.0119796 20.4928C0.0201608 20.6562 0.0321404 20.8192 0.0482106 20.9822C0.0642808 21.145 0.0841495 21.3074 0.108109 21.469C0.132068 21.6309 0.160118 21.7922 0.191966 21.9526C0.224106 22.113 0.259753 22.2728 0.29949 22.4315C0.339227 22.5901 0.383055 22.7479 0.430389 22.9045C0.478015 23.0609 0.529148 23.2163 0.584371 23.3703C0.639594 23.5245 0.698323 23.6771 0.761143 23.8281C0.823671 23.9795 0.889997 24.1288 0.959829 24.2769C1.02995 24.4248 1.10329 24.5709 1.18043 24.7152C1.25757 24.8595 1.33821 25.0018 1.42236 25.1421C1.50651 25.2823 1.59387 25.4205 1.68503 25.5567C1.7759 25.6929 1.86999 25.8264 1.96758 25.9579C2.06488 26.0893 2.16568 26.2182 2.2694 26.3447C2.37313 26.4712 2.48007 26.5951 2.58993 26.7164C2.69979 26.8376 2.81258 26.956 2.92828 27.0717C3.04399 27.1874 3.16232 27.3002 3.28358 27.41C3.40484 27.5199 3.52872 27.6268 3.65524 27.7306C3.78176 27.8346 3.91061 27.9351 4.04209 28.0327C4.17358 28.13 4.3074 28.2243 4.44326 28.3152C4.57942 28.4061 4.71763 28.4934 4.85788 28.5776C4.99842 28.6617 5.14071 28.7424 5.28476 28.8195C5.4291 28.8967 5.57519 28.9703 5.72333 29.0401C5.87118 29.1102 6.02077 29.1763 6.17183 29.2391C6.32289 29.3016 6.47571 29.3606 6.62969 29.4156C6.78367 29.4708 6.93911 29.5222 7.09573 29.5696C7.25234 29.6172 7.40982 29.6607 7.56848 29.7005C7.72743 29.7402 7.88696 29.7761 8.04737 29.808C8.20778 29.8398 8.36907 29.8679 8.53094 29.8918C8.69281 29.9158 8.85497 29.936 9.01801 29.952C9.18076 29.9681 9.3438 29.9801 9.50742 29.988C9.67076 29.9962 9.83438 30 9.998 30C10.1616 30 10.325 29.9962 10.4886 29.988C10.6519 29.9801 10.815 29.9681 10.978 29.952C11.1407 29.936 11.3032 29.9158 11.4648 29.8918C11.6266 29.8679 11.7879 29.8398 11.9483 29.808C12.1088 29.7761 12.2686 29.7402 12.4272 29.7005C12.5859 29.6607 12.7437 29.6172 12.9003 29.5696C13.0566 29.5222 13.212 29.4708 13.366 29.4156C13.5203 29.3606 13.6728 29.3016 13.8239 29.2391C13.9752 29.1763 14.1245 29.1102 14.2727 29.0401C14.4205 28.9703 14.5666 28.8967 14.711 28.8195C14.8553 28.7424 14.9976 28.6617 15.1378 28.5776C15.2781 28.4934 15.4163 28.4061 15.5525 28.3152C15.6886 28.2243 15.8221 28.13 15.9536 28.0327C16.0851 27.9351 16.214 27.8346 16.3405 27.7306C16.467 27.6268 16.5909 27.5199 16.7121 27.41C16.8334 27.3002 16.9517 27.1874 17.0674 27.0717C17.1831 26.956 17.2959 26.8376 17.4058 26.7164C17.5156 26.5951 17.6226 26.4712 17.7263 26.3447C17.8303 26.2182 17.9308 26.0893 18.0284 25.9579C18.1257 25.8264 18.2201 25.6929 18.311 25.5567C18.4018 25.4205 18.4892 25.2823 18.5734 25.1421C18.6575 25.0018 18.7381 24.8595 18.8153 24.7152C18.8924 24.5709 18.9661 24.4248 19.0359 24.2769C19.106 24.1288 19.1723 23.9795 19.2349 23.8281C19.2974 23.6771 19.3564 23.5245 19.4113 23.3703C19.4666 23.2163 19.518 23.0609 19.5653 22.9045C19.613 22.7479 19.6565 22.5901 19.6962 22.4315C19.736 22.2728 19.7719 22.113 19.8038 21.9526C19.8356 21.7922 19.8636 21.6309 19.8876 21.469C19.9116 21.3074 19.9317 21.145 19.9478 20.9822C19.9639 20.8192 19.9758 20.6562 19.9837 20.4928C19.9919 20.3292 19.996 20.1659 19.996 20.0023C19.996 19.8386 19.9919 19.675 19.9837 19.5117C19.9758 19.3481 19.9639 19.185 19.9478 19.0223C19.9317 18.8592 19.9116 18.6971 19.8876 18.5352C19.8636 18.3733 19.8356 18.212 19.8038 18.0516C19.7719 17.8912 19.736 17.7317 19.6962 17.5727C19.6565 17.4141 19.613 17.2566 19.5653 17.1C19.518 16.9434 19.4666 16.7879 19.4113 16.6339C19.3564 16.48 19.2974 16.3272 19.2349 16.1761C19.1723 16.025 19.106 15.8754 19.0359 15.7276C18.9661 15.5795 18.8924 15.4334 18.8153 15.289C18.7381 15.145 18.6575 15.0024 18.5734 14.8621C18.4892 14.7219 18.4018 14.5837 18.311 14.4475C18.2201 14.3117 18.1257 14.1778 18.0284 14.0464C17.9308 13.9149 17.8303 13.786 17.7263 13.6595C17.6226 13.533 17.5156 13.4091 17.4058 13.2878C17.2959 13.1666 17.1831 13.0483 17.0674 12.9326C16.9517 12.8168 16.8334 12.7041 16.7121 12.5942C16.5909 12.4843 16.467 12.3774 16.3405 12.2737C16.214 12.1699 16.0851 12.0691 15.9536 11.9718C15.8221 11.8743 15.6886 11.7802 15.5525 11.6893C15.4163 11.5981 15.2781 11.5108 15.1378 11.4266C14.9976 11.3425 14.8553 11.2618 14.711 11.1847C14.5666 11.1076 14.4205 11.0342 14.2727 10.9641C14.1245 10.8943 13.9752 10.8279 13.8239 10.7651C13.6728 10.7026 13.5203 10.6439 13.366 10.5886C13.212 10.5334 13.0566 10.4823 12.9003 10.4347C12.7437 10.3873 12.5859 10.3435 12.4272 10.3038C12.2686 10.264 12.1088 10.2284 11.9483 10.1962C11.7879 10.1644 11.6266 10.1363 11.4648 10.1124C11.3032 10.0884 11.1407 10.0686 10.978 10.0525C10.815 10.0364 10.6519 10.0244 10.4886 10.0163C10.325 10.0084 10.1616 10.0043 9.998 10.0043C9.83438 10.0043 9.67076 10.0087 9.50742 10.0168C9.34409 10.025 9.18105 10.0373 9.01831 10.0534C8.85556 10.0694 8.6931 10.0896 8.53152 10.1138C8.36965 10.1381 8.20866 10.1661 8.04825 10.198C7.88784 10.2301 7.72831 10.2661 7.56965 10.3061C7.41099 10.3458 7.25351 10.3897 7.09689 10.4373C6.94028 10.4846 6.78513 10.536 6.63115 10.5913C6.47717 10.6465 6.32465 10.7055 6.17359 10.768C6.02253 10.8309 5.87293 10.8972 5.72508 10.9673C5.57724 11.0371 5.43114 11.1108 5.2871 11.1879C5.14276 11.2651 5.00046 11.3457 4.86021 11.4298C4.71996 11.514 4.58176 11.6016 4.44589 11.6925C4.31003 11.7834 4.17621 11.8775 4.04502 11.9751C3.91353 12.0726 3.78468 12.1732 3.65816 12.2769C3.53165 12.3806 3.40805 12.4876 3.28679 12.5974C3.16554 12.7073 3.0472 12.8201 2.9315 12.9358C2.81579 13.0515 2.70301 13.1698 2.59315 13.2911C2.48328 13.4123 2.37634 13.5359 2.27262 13.6624C2.16889 13.7889 2.06838 13.9178 1.97079 14.049C1.8732 14.1805 1.77912 14.3143 1.68825 14.4502C1.59738 14.586 1.50972 14.7242 1.42557 14.8645C1.34142 15.0047 1.26078 15.147 1.18364 15.2914C1.10651 15.4354 1.03288 15.5815 0.963043 15.7293C0.892919 15.8772 0.826593 16.0268 0.763773 16.1778C0.701245 16.3289 0.642224 16.4814 0.587001 16.6354C0.531778 16.7894 0.480353 16.9445 0.433019 17.1012C0.385393 17.2575 0.341565 17.4153 0.301828 17.5739C0.261798 17.7326 0.225859 17.8921 0.193719 18.0525C0.161871 18.2129 0.133821 18.3739 0.10957 18.5358C0.0853182 18.6974 0.0651573 18.8598 0.0490872 19.0226C0.0330169 19.1853 0.0207452 19.3483 0.012564 19.5117C0.00438278 19.675 0 19.8386 0 20.0023ZM17.7742 20.0023C17.7742 20.1294 17.771 20.2565 17.7646 20.3839C17.7585 20.511 17.7491 20.6378 17.7365 20.7643C17.7243 20.8911 17.7085 21.0173 17.6898 21.1432C17.6714 21.2692 17.6495 21.3945 17.6246 21.5193C17.5998 21.644 17.572 21.7682 17.5411 21.8915C17.5101 22.0151 17.4762 22.1375 17.4394 22.2594C17.4023 22.3812 17.3625 22.5019 17.3196 22.622C17.2766 22.7418 17.2308 22.8604 17.1823 22.9779C17.1335 23.0956 17.082 23.2119 17.0274 23.327C16.9731 23.4419 16.9158 23.5555 16.8559 23.6677C16.796 23.7799 16.7332 23.8907 16.6677 23.9999C16.6023 24.1089 16.5342 24.2164 16.4635 24.3222C16.3928 24.4283 16.3197 24.5323 16.2438 24.6346C16.1681 24.7365 16.0898 24.837 16.0088 24.9352C15.9282 25.0337 15.8452 25.1301 15.7596 25.2242C15.6743 25.3186 15.5866 25.4106 15.4966 25.5006C15.4067 25.5906 15.3143 25.6785 15.2199 25.7639C15.1259 25.8495 15.0294 25.9324 14.931 26.0131C14.8328 26.094 14.7323 26.1723 14.6303 26.248C14.528 26.324 14.424 26.397 14.3183 26.4677C14.2122 26.5384 14.105 26.6065 13.9957 26.672C13.8864 26.7374 13.776 26.8002 13.6635 26.8601C13.5513 26.92 13.4376 26.9773 13.3228 27.0316C13.2077 27.0863 13.0914 27.1377 12.9736 27.1865C12.8562 27.235 12.7375 27.2809 12.6177 27.3238C12.4979 27.3665 12.377 27.4065 12.2551 27.4436C12.1333 27.4804 12.0109 27.5143 11.8873 27.5453C11.764 27.5763 11.6398 27.604 11.515 27.6289C11.3903 27.6537 11.2649 27.6756 11.139 27.694C11.0131 27.7127 10.8868 27.7285 10.76 27.7408C10.6335 27.7533 10.5067 27.7627 10.3796 27.7688C10.2525 27.7753 10.1251 27.7785 9.998 27.7785C9.87061 27.7785 9.74351 27.7753 9.61641 27.7688C9.48931 27.7627 9.3625 27.7533 9.23569 27.7408C9.10918 27.7285 8.98266 27.7127 8.85702 27.694C8.73109 27.6756 8.60574 27.6537 8.48098 27.6289C8.35592 27.604 8.23203 27.5763 8.10844 27.5453C7.98514 27.5143 7.86242 27.4804 7.74058 27.4436C7.61874 27.4065 7.49806 27.3665 7.37827 27.3238C7.25847 27.2809 7.13955 27.235 7.02209 27.1865C6.90464 27.1377 6.78835 27.0863 6.67322 27.0316C6.5581 26.9773 6.44444 26.92 6.33224 26.8601C6.22005 26.8002 6.10931 26.7374 6.00003 26.672C5.89104 26.6065 5.78352 26.5384 5.67775 26.4677C5.57198 26.397 5.46796 26.324 5.36569 26.248C5.26343 26.1723 5.16321 26.094 5.06474 26.0131C4.96628 25.9324 4.87015 25.8495 4.77577 25.7639C4.6814 25.6785 4.58936 25.5906 4.49936 25.5006C4.40937 25.4106 4.32172 25.3186 4.23611 25.2242C4.15079 25.1301 4.06751 25.0337 3.98687 24.9352C3.90623 24.837 3.82792 24.7365 3.75195 24.6343C3.67628 24.5323 3.60294 24.4283 3.53223 24.3222C3.46152 24.2164 3.39344 24.1089 3.32799 23.9999C3.26254 23.8907 3.20002 23.7799 3.13983 23.6677C3.07993 23.5555 3.02266 23.4419 2.96831 23.327C2.91397 23.2119 2.86225 23.0956 2.81375 22.9779C2.76495 22.8604 2.71908 22.7418 2.67642 22.622C2.63347 22.5019 2.59344 22.3812 2.55662 22.2594C2.51952 22.1375 2.48562 22.0151 2.45465 21.8915C2.42397 21.7682 2.39592 21.644 2.37109 21.5193C2.34625 21.3945 2.32463 21.2692 2.30593 21.1432C2.28723 21.0173 2.27174 20.8911 2.25918 20.7643C2.24661 20.6378 2.23726 20.511 2.23113 20.3839C2.22499 20.2565 2.22178 20.1294 2.22178 20.0023C2.22178 19.8749 2.22499 19.7478 2.23113 19.6207C2.23726 19.4936 2.24661 19.3665 2.25918 19.2399C2.27174 19.1134 2.28723 18.9869 2.30593 18.8613C2.32463 18.7353 2.34625 18.61 2.37109 18.4852C2.39592 18.3602 2.42397 18.236 2.45465 18.1127C2.48562 17.9891 2.51952 17.8667 2.55662 17.7448C2.59344 17.623 2.63347 17.5023 2.67642 17.3825C2.71908 17.2627 2.76495 17.1438 2.81375 17.0264C2.86225 16.9089 2.91397 16.7923 2.96831 16.6775C3.02266 16.5624 3.07993 16.4487 3.13983 16.3365C3.20002 16.2243 3.26254 16.1136 3.32799 16.0043C3.39344 15.8953 3.46152 15.7878 3.53223 15.682C3.60294 15.5762 3.67628 15.4722 3.75195 15.37C3.82792 15.2677 3.90623 15.1675 3.98687 15.069C4.06751 14.9705 4.15079 14.8744 4.23611 14.78C4.32172 14.6857 4.40937 14.5936 4.49936 14.5036C4.58936 14.4136 4.6814 14.326 4.77577 14.2404C4.87015 14.1551 4.96628 14.0718 5.06474 13.9911C5.16321 13.9105 5.26343 13.8322 5.36569 13.7562C5.46796 13.6805 5.57198 13.6072 5.67775 13.5365C5.78352 13.4658 5.89104 13.3977 6.00003 13.3323C6.10931 13.2668 6.22005 13.2043 6.33224 13.1441C6.44444 13.0842 6.5581 13.0269 6.67322 12.9726C6.78835 12.9182 6.90464 12.8665 7.02209 12.818C7.13955 12.7692 7.25847 12.7233 7.37827 12.6807C7.49806 12.6377 7.61874 12.5977 7.74058 12.5609C7.86242 12.5238 7.98514 12.4899 8.10844 12.4589C8.23203 12.4282 8.35592 12.4002 8.48098 12.3754C8.60574 12.3505 8.73109 12.3289 8.85702 12.3102C8.98266 12.2915 9.10918 12.276 9.23569 12.2634C9.3625 12.2509 9.48931 12.2415 9.61641 12.2354C9.74351 12.229 9.87061 12.226 9.998 12.226C10.1251 12.226 10.2522 12.2293 10.3793 12.2357C10.5064 12.2421 10.6332 12.2515 10.7597 12.2643C10.8865 12.2769 11.0128 12.2924 11.1384 12.3114C11.2643 12.3301 11.3897 12.352 11.5144 12.3768C11.6392 12.4017 11.7631 12.4297 11.8867 12.4607C12.01 12.4916 12.1324 12.5258 12.2543 12.5626C12.3761 12.5998 12.4968 12.6398 12.6166 12.6827C12.7364 12.7257 12.855 12.7716 12.9725 12.8201C13.0899 12.8689 13.2062 12.9206 13.321 12.9749C13.4362 13.0296 13.5498 13.0868 13.662 13.1467C13.7739 13.2066 13.8847 13.2694 13.9939 13.3349C14.1029 13.4003 14.2104 13.4684 14.3162 13.5391C14.422 13.6098 14.5257 13.6832 14.628 13.7588C14.7302 13.8348 14.8305 13.9131 14.9286 13.9938C15.0271 14.0744 15.1235 14.1574 15.2176 14.243C15.312 14.3283 15.404 14.4163 15.494 14.506C15.584 14.596 15.6717 14.6883 15.757 14.7824C15.8426 14.8767 15.9256 14.9729 16.0062 15.0713C16.0872 15.1695 16.1655 15.27 16.2411 15.372C16.3171 15.4743 16.3901 15.5783 16.4609 15.6841C16.5316 15.7898 16.5996 15.8971 16.6651 16.0063C16.7305 16.1153 16.7934 16.2261 16.8533 16.3383C16.9135 16.4505 16.9707 16.5638 17.0251 16.6789C17.0794 16.7938 17.1311 16.9101 17.1799 17.0278C17.2287 17.1453 17.2746 17.2639 17.3175 17.3837C17.3602 17.5032 17.4002 17.6242 17.4373 17.7457C17.4744 17.8676 17.5083 17.99 17.5393 18.1136C17.5703 18.2369 17.5983 18.3611 17.6232 18.4858C17.6483 18.6106 17.6699 18.7356 17.6889 18.8616C17.7076 18.9875 17.7234 19.1137 17.736 19.2402C17.7485 19.3668 17.7579 19.4936 17.7643 19.6207C17.7707 19.7478 17.7739 19.8749 17.7742 20.0023Z" fill="#5DC4FE"/>
<ellipse cx="23.6367" cy="19.9959" rx="8.12494" ry="8.74994" fill="#5DC4FE"/>
<path d="M13.75 19.998C13.75 20.1617 13.7541 20.325 13.762 20.4886C13.7702 20.652 13.7821 20.815 13.7982 20.978C13.8143 21.1408 13.8341 21.3032 13.8581 21.4648C13.8821 21.6267 13.9101 21.788 13.942 21.9484C13.9741 22.1088 14.0098 22.2686 14.0495 22.4273C14.0892 22.5859 14.1331 22.7437 14.1804 22.9003C14.228 23.0566 14.2791 23.2121 14.3344 23.3661C14.3896 23.5203 14.4483 23.6729 14.5111 23.8239C14.5737 23.9753 14.64 24.1246 14.7098 24.2727C14.78 24.4206 14.8533 24.5667 14.9304 24.711C15.0076 24.8553 15.0882 24.9976 15.1724 25.1379C15.2565 25.2781 15.3439 25.4163 15.435 25.5525C15.5259 25.6886 15.62 25.8222 15.7176 25.9537C15.8149 26.0851 15.9157 26.214 16.0194 26.3405C16.1231 26.467 16.2301 26.5909 16.3399 26.7122C16.4498 26.8334 16.5626 26.9518 16.6783 27.0675C16.794 27.1832 16.9123 27.2959 17.0336 27.4058C17.1548 27.5157 17.2787 27.6226 17.4052 27.7263C17.5318 27.8304 17.6606 27.9309 17.7921 28.0285C17.9236 28.1258 18.0574 28.2201 18.1933 28.311C18.3294 28.4019 18.4676 28.4892 18.6079 28.5734C18.7484 28.6575 18.8907 28.7382 19.0348 28.8153C19.1791 28.8924 19.3252 28.9661 19.4733 29.0359C19.6212 29.106 19.7708 29.1721 19.9218 29.2349C20.0729 29.2974 20.2257 29.3564 20.3797 29.4114C20.5337 29.4666 20.6891 29.518 20.8457 29.5654C21.0023 29.613 21.1598 29.6565 21.3185 29.6962C21.4774 29.736 21.637 29.7719 21.7974 29.8038C21.9578 29.8356 22.1191 29.8637 22.2809 29.8876C22.4428 29.9116 22.605 29.9318 22.768 29.9478C22.9308 29.9639 23.0938 29.9759 23.2574 29.9838C23.4208 29.9919 23.5844 29.9957 23.748 29.9957C23.9116 29.9957 24.075 29.9919 24.2386 29.9838C24.4019 29.9759 24.565 29.9639 24.728 29.9478C24.8907 29.9318 25.0532 29.9116 25.2148 29.8876C25.3766 29.8637 25.5379 29.8356 25.6983 29.8038C25.8588 29.7719 26.0186 29.736 26.1772 29.6962C26.3359 29.6565 26.4937 29.613 26.6503 29.5654C26.8066 29.518 26.962 29.4666 27.116 29.4114C27.2703 29.3564 27.4228 29.2974 27.5739 29.2349C27.7252 29.1721 27.8745 29.106 28.0227 29.0359C28.1705 28.9661 28.3166 28.8924 28.461 28.8153C28.6053 28.7382 28.7476 28.6575 28.8878 28.5734C29.0281 28.4892 29.1663 28.4019 29.3025 28.311C29.4386 28.2201 29.5721 28.1258 29.7036 28.0285C29.8351 27.9309 29.964 27.8304 30.0905 27.7263C30.217 27.6226 30.3409 27.5157 30.4621 27.4058C30.5834 27.2959 30.7017 27.1832 30.8174 27.0675C30.9331 26.9518 31.0459 26.8334 31.1558 26.7122C31.2656 26.5909 31.3726 26.467 31.4763 26.3405C31.5803 26.214 31.6808 26.0851 31.7784 25.9537C31.8757 25.8222 31.9701 25.6886 32.061 25.5525C32.1518 25.4163 32.2392 25.2781 32.3234 25.1379C32.4075 24.9976 32.4881 24.8553 32.5653 24.711C32.6424 24.5667 32.7161 24.4206 32.7859 24.2727C32.856 24.1246 32.9223 23.9753 32.9849 23.8239C33.0474 23.6729 33.1064 23.5203 33.1613 23.3661C33.2166 23.2121 33.268 23.0566 33.3153 22.9003C33.363 22.7437 33.4065 22.5859 33.4462 22.4273C33.486 22.2686 33.5219 22.1088 33.5538 21.9484C33.5856 21.788 33.6136 21.6267 33.6376 21.4648C33.6616 21.3032 33.6817 21.1408 33.6978 20.978C33.7139 20.815 33.7258 20.652 33.7337 20.4886C33.7419 20.325 33.746 20.1617 33.746 19.998C33.746 19.8344 33.7419 19.6708 33.7337 19.5075C33.7258 19.3438 33.7139 19.1808 33.6978 19.0181C33.6817 18.855 33.6616 18.6929 33.6376 18.531C33.6136 18.3691 33.5856 18.2078 33.5538 18.0474C33.5219 17.887 33.486 17.7275 33.4462 17.5685C33.4065 17.4099 33.363 17.2524 33.3153 17.0958C33.268 16.9392 33.2166 16.7837 33.1613 16.6297C33.1064 16.4758 33.0474 16.3229 32.9849 16.1719C32.9223 16.0208 32.856 15.8712 32.7859 15.7234C32.7161 15.5752 32.6424 15.4292 32.5653 15.2848C32.4881 15.1408 32.4075 14.9982 32.3234 14.8579C32.2392 14.7177 32.1518 14.5795 32.061 14.4433C31.9701 14.3075 31.8757 14.1736 31.7784 14.0421C31.6808 13.9107 31.5803 13.7818 31.4763 13.6553C31.3726 13.5288 31.2656 13.4049 31.1558 13.2836C31.0459 13.1624 30.9331 13.044 30.8174 12.9283C30.7017 12.8126 30.5834 12.6999 30.4621 12.59C30.3409 12.4801 30.217 12.3732 30.0905 12.2695C29.964 12.1657 29.8351 12.0649 29.7036 11.9676C29.5721 11.87 29.4386 11.776 29.3025 11.6851C29.1663 11.5939 29.0281 11.5066 28.8878 11.4224C28.7476 11.3383 28.6053 11.2576 28.461 11.1805C28.3166 11.1034 28.1705 11.03 28.0227 10.9599C27.8745 10.8901 27.7252 10.8237 27.5739 10.7609C27.4228 10.6984 27.2703 10.6397 27.116 10.5844C26.962 10.5292 26.8066 10.4781 26.6503 10.4304C26.4937 10.3831 26.3359 10.3393 26.1772 10.2996C26.0186 10.2598 25.8588 10.2242 25.6983 10.192C25.5379 10.1602 25.3766 10.1321 25.2148 10.1082C25.0532 10.0842 24.8907 10.0643 24.728 10.0483C24.565 10.0322 24.4019 10.0202 24.2386 10.012C24.075 10.0042 23.9116 10.0001 23.748 10.0001C23.5844 10.0001 23.4208 10.0044 23.2574 10.0126C23.0941 10.0208 22.9311 10.0331 22.7683 10.0491C22.6056 10.0652 22.4431 10.0854 22.2815 10.1096C22.1197 10.1339 21.9587 10.1619 21.7983 10.1938C21.6378 10.2259 21.4783 10.2619 21.3197 10.3019C21.161 10.3416 21.0035 10.3855 20.8469 10.4331C20.6903 10.4804 20.5351 10.5318 20.3812 10.5871C20.2272 10.6423 20.0746 10.7013 19.9236 10.7638C19.7725 10.8267 19.6229 10.893 19.4751 10.9631C19.3272 11.0329 19.1811 11.1066 19.0371 11.1837C18.8928 11.2608 18.7505 11.3415 18.6102 11.4256C18.47 11.5098 18.3318 11.5974 18.1959 11.6883C18.06 11.7792 17.9262 11.8733 17.795 11.9708C17.6635 12.0684 17.5347 12.169 17.4082 12.2727C17.2816 12.3764 17.1581 12.4833 17.0368 12.5932C16.9155 12.7031 16.7972 12.8158 16.6815 12.9316C16.5658 13.0473 16.453 13.1656 16.3431 13.2868C16.2333 13.4081 16.1263 13.5317 16.0226 13.6582C15.9189 13.7847 15.8184 13.9136 15.7208 14.0448C15.6232 14.1763 15.5291 14.3101 15.4382 14.4459C15.3474 14.5818 15.2597 14.72 15.1756 14.8603C15.0914 15.0005 15.0108 15.1428 14.9336 15.2871C14.8565 15.4312 14.7829 15.5773 14.713 15.7251C14.6429 15.873 14.5766 16.0226 14.5138 16.1736C14.4512 16.3247 14.3922 16.4772 14.337 16.6312C14.2818 16.7852 14.2304 16.9403 14.183 17.0969C14.1354 17.2533 14.0916 17.411 14.0518 17.5697C14.0118 17.7284 13.9759 17.8879 13.9437 18.0483C13.9119 18.2087 13.8838 18.3697 13.8596 18.5316C13.8353 18.6931 13.8152 18.8556 13.7991 19.0183C13.783 19.1811 13.7707 19.3441 13.7626 19.5075C13.7544 19.6708 13.75 19.8344 13.75 19.998ZM31.5242 19.998C31.5242 20.1251 31.521 20.2522 31.5146 20.3796C31.5085 20.5067 31.4991 20.6335 31.4865 20.7601C31.4743 20.8869 31.4585 21.0131 31.4398 21.139C31.4214 21.265 31.3995 21.3903 31.3746 21.5151C31.3498 21.6398 31.322 21.764 31.2911 21.8873C31.2601 22.0109 31.2262 22.1333 31.1894 22.2552C31.1523 22.377 31.1125 22.4977 31.0696 22.6178C31.0266 22.7376 30.9808 22.8562 30.9323 22.9737C30.8835 23.0914 30.832 23.2077 30.7774 23.3228C30.7231 23.4376 30.6658 23.5513 30.6059 23.6635C30.546 23.7757 30.4832 23.8864 30.4177 23.9957C30.3523 24.1047 30.2842 24.2122 30.2135 24.318C30.1428 24.4241 30.0697 24.5281 29.9938 24.6303C29.9181 24.7323 29.8398 24.8328 29.7588 24.931C29.6782 25.0295 29.5952 25.1259 29.5096 25.22C29.4243 25.3144 29.3366 25.4064 29.2466 25.4964C29.1567 25.5864 29.0643 25.6743 28.9699 25.7596C28.8759 25.8453 28.7794 25.9282 28.681 26.0089C28.5828 26.0898 28.4823 26.1681 28.3803 26.2438C28.278 26.3198 28.174 26.3928 28.0683 26.4635C27.9622 26.5342 27.855 26.6023 27.7457 26.6678C27.6364 26.7332 27.526 26.796 27.4135 26.8559C27.3013 26.9158 27.1876 26.9731 27.0728 27.0274C26.9577 27.0821 26.8414 27.1335 26.7236 27.1823C26.6062 27.2308 26.4875 27.2767 26.3677 27.3196C26.2479 27.3623 26.127 27.4023 26.0051 27.4394C25.8833 27.4762 25.7609 27.5101 25.6373 27.5411C25.514 27.5721 25.3898 27.5998 25.265 27.6247C25.1403 27.6495 25.0149 27.6714 24.889 27.6898C24.7631 27.7085 24.6368 27.7243 24.51 27.7366C24.3835 27.7491 24.2567 27.7585 24.1296 27.7646C24.0025 27.771 23.8751 27.7743 23.748 27.7743C23.6206 27.7743 23.4935 27.771 23.3664 27.7646C23.2393 27.7585 23.1125 27.7491 22.9857 27.7366C22.8592 27.7243 22.7327 27.7085 22.607 27.6898C22.4811 27.6714 22.3557 27.6495 22.231 27.6247C22.1059 27.5998 21.982 27.5721 21.8584 27.5411C21.7351 27.5101 21.6124 27.4762 21.4906 27.4394C21.3687 27.4023 21.2481 27.3623 21.1283 27.3196C21.0085 27.2767 20.8896 27.2308 20.7721 27.1823C20.6546 27.1335 20.5383 27.0821 20.4232 27.0274C20.3081 26.9731 20.1944 26.9158 20.0822 26.8559C19.97 26.796 19.8593 26.7332 19.75 26.6678C19.641 26.6023 19.5335 26.5342 19.4277 26.4635C19.322 26.3928 19.218 26.3198 19.1157 26.2438C19.0134 26.1681 18.9132 26.0898 18.8147 26.0089C18.7163 25.9282 18.6201 25.8453 18.5258 25.7596C18.4314 25.6743 18.3394 25.5864 18.2494 25.4964C18.1594 25.4064 18.0717 25.3144 17.9861 25.22C17.9008 25.1259 17.8175 25.0295 17.7369 24.931C17.6562 24.8328 17.5779 24.7323 17.502 24.6301C17.4263 24.5281 17.3529 24.4241 17.2822 24.318C17.2115 24.2122 17.1434 24.1047 17.078 23.9957C17.0125 23.8864 16.95 23.7757 16.8898 23.6635C16.8299 23.5513 16.7727 23.4376 16.7183 23.3228C16.664 23.2077 16.6122 23.0914 16.5637 22.9737C16.515 22.8562 16.4691 22.7376 16.4264 22.6178C16.3835 22.4977 16.3434 22.377 16.3066 22.2552C16.2695 22.1333 16.2356 22.0109 16.2047 21.8873C16.174 21.764 16.1459 21.6398 16.1211 21.5151C16.0962 21.3903 16.0746 21.265 16.0559 21.139C16.0372 21.0131 16.0217 20.8869 16.0092 20.7601C15.9966 20.6335 15.9873 20.5067 15.9811 20.3796C15.975 20.2522 15.9718 20.1251 15.9718 19.998C15.9718 19.8707 15.975 19.7436 15.9811 19.6165C15.9873 19.4894 15.9966 19.3623 16.0092 19.2357C16.0217 19.1092 16.0372 18.9827 16.0559 18.8571C16.0746 18.7311 16.0962 18.6058 16.1211 18.481C16.1459 18.356 16.174 18.2318 16.2047 18.1085C16.2356 17.9849 16.2695 17.8625 16.3066 17.7406C16.3434 17.6188 16.3835 17.4981 16.4264 17.3783C16.4691 17.2585 16.515 17.1396 16.5637 17.0221C16.6122 16.9047 16.664 16.7881 16.7183 16.6733C16.7727 16.5582 16.8299 16.4445 16.8898 16.3323C16.95 16.2201 17.0125 16.1094 17.078 16.0001C17.1434 15.8911 17.2115 15.7836 17.2822 15.6778C17.3529 15.572 17.4263 15.468 17.502 15.3657C17.5779 15.2635 17.6562 15.1633 17.7369 15.0648C17.8175 14.9663 17.9008 14.8702 17.9861 14.7758C18.0717 14.6814 18.1594 14.5894 18.2494 14.4994C18.3394 14.4094 18.4314 14.3218 18.5258 14.2362C18.6201 14.1508 18.7163 14.0676 18.8147 13.9869C18.9132 13.9063 19.0134 13.828 19.1157 13.752C19.218 13.6763 19.322 13.603 19.4277 13.5323C19.5335 13.4616 19.641 13.3935 19.75 13.328C19.8593 13.2626 19.97 13.2001 20.0822 13.1399C20.1944 13.08 20.3081 13.0227 20.4232 12.9684C20.5383 12.914 20.6546 12.8623 20.7721 12.8138C20.8896 12.765 21.0085 12.7191 21.1283 12.6765C21.2481 12.6335 21.3687 12.5935 21.4906 12.5567C21.6124 12.5196 21.7351 12.4857 21.8584 12.4547C21.982 12.424 22.1059 12.396 22.231 12.3711C22.3557 12.3463 22.4811 12.3247 22.607 12.306C22.7327 12.2873 22.8592 12.2718 22.9857 12.2592C23.1125 12.2467 23.2393 12.2373 23.3664 12.2312C23.4935 12.2248 23.6206 12.2218 23.748 12.2218C23.8751 12.2218 24.0022 12.225 24.1293 12.2315C24.2564 12.2379 24.3832 12.2473 24.5097 12.2601C24.6365 12.2727 24.7628 12.2882 24.8884 12.3072C25.0143 12.3259 25.1397 12.3478 25.2644 12.3726C25.3892 12.3974 25.5131 12.4255 25.6367 12.4565C25.76 12.4874 25.8824 12.5216 26.0043 12.5584C26.1261 12.5955 26.2468 12.6356 26.3666 12.6785C26.4864 12.7215 26.605 12.7673 26.7225 12.8158C26.8399 12.8646 26.9562 12.9164 27.071 12.9707C27.1862 13.0253 27.2998 13.0826 27.412 13.1425C27.5239 13.2024 27.6347 13.2652 27.7439 13.3307C27.8529 13.3961 27.9604 13.4642 28.0662 13.5349C28.172 13.6056 28.2757 13.679 28.378 13.7546C28.4802 13.8306 28.5805 13.9089 28.6786 13.9896C28.7771 14.0702 28.8735 14.1532 28.9676 14.2388C29.062 14.3241 29.154 14.4121 29.244 14.5018C29.334 14.5917 29.4217 14.6841 29.507 14.7782C29.5926 14.8725 29.6756 14.9687 29.7562 15.0671C29.8372 15.1653 29.9155 15.2658 29.9911 15.3678C30.0671 15.4701 30.1401 15.5741 30.2109 15.6798C30.2816 15.7856 30.3496 15.8928 30.4151 16.0021C30.4805 16.1111 30.5434 16.2218 30.6033 16.334C30.6635 16.4462 30.7207 16.5596 30.7751 16.6747C30.8294 16.7896 30.8811 16.9059 30.9299 17.0236C30.9787 17.1411 31.0246 17.2597 31.0675 17.3795C31.1102 17.499 31.1502 17.62 31.1873 17.7415C31.2244 17.8633 31.2583 17.9858 31.2893 18.1094C31.3203 18.2327 31.3483 18.3568 31.3732 18.4816C31.3983 18.6064 31.4199 18.7314 31.4389 18.8574C31.4576 18.9833 31.4734 19.1095 31.486 19.236C31.4985 19.3625 31.5079 19.4894 31.5143 19.6165C31.5207 19.7436 31.5239 19.8707 31.5242 19.998Z" fill="#5DC4FE"/>
<ellipse cx="16.6445" cy="9.99554" rx="8.12494" ry="8.74994" fill="#5DC4FE"/>
<path d="M6.75781 9.99798C6.75781 10.1616 6.7619 10.3249 6.76979 10.4886C6.77797 10.6519 6.78995 10.8149 6.80602 10.978C6.82209 11.1407 6.84196 11.3032 6.86592 11.4648C6.88988 11.6266 6.91793 11.7879 6.94978 11.9483C6.98192 12.1087 7.01757 12.2686 7.0573 12.4272C7.09704 12.5859 7.14087 12.7436 7.1882 12.9003C7.23583 13.0566 7.28696 13.212 7.34218 13.366C7.39741 13.5203 7.45614 13.6728 7.51896 13.8239C7.58148 13.9752 7.64781 14.1245 7.71764 14.2727C7.78777 14.4205 7.8611 14.5666 7.93824 14.7109C8.01538 14.8553 8.09602 14.9976 8.18017 15.1378C8.26432 15.2781 8.35168 15.4163 8.44285 15.5524C8.53372 15.6886 8.6278 15.8221 8.72539 15.9536C8.82269 16.0851 8.92349 16.2139 9.02722 16.3404C9.13094 16.467 9.23788 16.5908 9.34774 16.7121C9.45761 16.8334 9.57039 16.9517 9.6861 17.0674C9.8018 17.1831 9.92014 17.2959 10.0414 17.4058C10.1627 17.5156 10.2865 17.6226 10.4131 17.7263C10.5396 17.8303 10.6684 17.9308 10.7999 18.0284C10.9314 18.1257 11.0652 18.2201 11.2011 18.3109C11.3372 18.4018 11.4754 18.4892 11.6157 18.5733C11.7562 18.6575 11.8985 18.7381 12.0426 18.8153C12.1869 18.8924 12.333 18.966 12.4811 19.0359C12.629 19.106 12.7786 19.172 12.9296 19.2348C13.0807 19.2974 13.2335 19.3564 13.3875 19.4113C13.5415 19.4665 13.6969 19.518 13.8535 19.5653C14.0101 19.6129 14.1676 19.6565 14.3263 19.6962C14.4852 19.7359 14.6448 19.7719 14.8052 19.8037C14.9656 19.8356 15.1269 19.8636 15.2888 19.8876C15.4506 19.9115 15.6128 19.9317 15.7758 19.9478C15.9386 19.9638 16.1016 19.9758 16.2652 19.9837C16.4286 19.9919 16.5922 19.9957 16.7558 19.9957C16.9194 19.9957 17.0828 19.9919 17.2464 19.9837C17.4097 19.9758 17.5728 19.9638 17.7358 19.9478C17.8986 19.9317 18.061 19.9115 18.2226 19.8876C18.3845 19.8636 18.5457 19.8356 18.7062 19.8037C18.8666 19.7719 19.0264 19.7359 19.185 19.6962C19.3437 19.6565 19.5015 19.6129 19.6581 19.5653C19.8144 19.518 19.9699 19.4665 20.1238 19.4113C20.2781 19.3564 20.4306 19.2974 20.5817 19.2348C20.733 19.172 20.8824 19.106 21.0305 19.0359C21.1783 18.966 21.3244 18.8924 21.4688 18.8153C21.6131 18.7381 21.7554 18.6575 21.8957 18.5733C22.0359 18.4892 22.1741 18.4018 22.3103 18.3109C22.4464 18.2201 22.58 18.1257 22.7114 18.0284C22.8429 17.9308 22.9718 17.8303 23.0983 17.7263C23.2248 17.6226 23.3487 17.5156 23.4699 17.4058C23.5912 17.2959 23.7095 17.1831 23.8252 17.0674C23.941 16.9517 24.0537 16.8334 24.1636 16.7121C24.2735 16.5908 24.3804 16.467 24.4841 16.3404C24.5881 16.2139 24.6887 16.0851 24.7862 15.9536C24.8835 15.8221 24.9779 15.6886 25.0688 15.5524C25.1597 15.4163 25.247 15.2781 25.3312 15.1378C25.4153 14.9976 25.496 14.8553 25.5731 14.7109C25.6502 14.5666 25.7239 14.4205 25.7937 14.2727C25.8638 14.1245 25.9301 13.9752 25.9927 13.8239C26.0552 13.6728 26.1142 13.5203 26.1692 13.366C26.2244 13.212 26.2758 13.0566 26.3231 12.9003C26.3708 12.7436 26.4143 12.5859 26.454 12.4272C26.4938 12.2686 26.5297 12.1087 26.5616 11.9483C26.5934 11.7879 26.6215 11.6266 26.6454 11.4648C26.6694 11.3032 26.6895 11.1407 26.7056 10.978C26.7217 10.8149 26.7337 10.6519 26.7415 10.4886C26.7497 10.3249 26.7538 10.1616 26.7538 9.99798C26.7538 9.83436 26.7497 9.67074 26.7415 9.50741C26.7337 9.34378 26.7217 9.18074 26.7056 9.018C26.6895 8.85496 26.6694 8.69279 26.6454 8.53092C26.6215 8.36905 26.5934 8.20777 26.5616 8.04736C26.5297 7.88695 26.4938 7.72742 26.454 7.56847C26.4143 7.40981 26.3708 7.25232 26.3231 7.09571C26.2758 6.9391 26.2244 6.78366 26.1692 6.62968C26.1142 6.4757 26.0552 6.32288 25.9927 6.17182C25.9301 6.02076 25.8638 5.87116 25.7937 5.72332C25.7239 5.57518 25.6502 5.42909 25.5731 5.28475C25.496 5.1407 25.4153 4.99812 25.3312 4.85787C25.247 4.71762 25.1597 4.57941 25.0688 4.44326C24.9779 4.30739 24.8835 4.17357 24.7862 4.04209C24.6887 3.9106 24.5881 3.78175 24.4841 3.65523C24.3804 3.52872 24.2735 3.40483 24.1636 3.28357C24.0537 3.16232 23.941 3.04398 23.8252 2.92828C23.7095 2.81257 23.5912 2.69979 23.4699 2.58993C23.3487 2.48007 23.2248 2.37313 23.0983 2.2694C22.9718 2.16567 22.8429 2.06487 22.7114 1.96757C22.58 1.86998 22.4464 1.7759 22.3103 1.68503C22.1741 1.59387 22.0359 1.50651 21.8957 1.42236C21.7554 1.33821 21.6131 1.25756 21.4688 1.18043C21.3244 1.10329 21.1783 1.02995 21.0305 0.959828C20.8824 0.889995 20.733 0.823669 20.5817 0.76085C20.4306 0.698322 20.2781 0.639593 20.1238 0.58437C19.9699 0.529147 19.8144 0.478015 19.6581 0.430388C19.5015 0.383054 19.3437 0.339227 19.185 0.29949C19.0264 0.259752 18.8666 0.224106 18.7062 0.191966C18.5457 0.160117 18.3845 0.132068 18.2226 0.108108C18.061 0.0841492 17.8986 0.0642807 17.7358 0.0482105C17.5728 0.0321403 17.4097 0.0201608 17.2464 0.0119796C17.0828 0.00409057 16.9194 0 16.7558 0C16.5922 0 16.4286 0.00438277 16.2652 0.012564C16.1019 0.0207451 15.9389 0.033017 15.7761 0.0490871C15.6134 0.0651573 15.4509 0.0853181 15.2893 0.109569C15.1275 0.133821 14.9665 0.16187 14.8061 0.193719C14.6457 0.225859 14.4861 0.261798 14.3275 0.301827C14.1688 0.341564 14.0113 0.385392 13.8547 0.433018C13.6981 0.480352 13.5429 0.531777 13.389 0.587C13.235 0.642223 13.0825 0.701244 12.9314 0.763771C12.7803 0.826591 12.6307 0.892917 12.4829 0.963042C12.335 1.03287 12.189 1.1065 12.0449 1.18364C11.9006 1.26078 11.7583 1.34142 11.618 1.42557C11.4778 1.50972 11.3396 1.59738 11.2037 1.68824C11.0678 1.77911 10.934 1.8732 10.8028 1.97079C10.6713 2.06838 10.5425 2.16889 10.416 2.27261C10.2895 2.37634 10.1659 2.48328 10.0446 2.59314C9.92335 2.703 9.80502 2.81579 9.68931 2.93149C9.5736 3.0472 9.46082 3.16553 9.35096 3.28679C9.2411 3.40805 9.13416 3.53164 9.03043 3.65816C8.92671 3.78467 8.82619 3.91353 8.7286 4.04472C8.63101 4.1762 8.53693 4.31002 8.44606 4.44589C8.35519 4.58175 8.26754 4.71996 8.18339 4.8602C8.09924 5.00045 8.01859 5.14275 7.94146 5.28709C7.86432 5.43113 7.79069 5.57723 7.72086 5.72507C7.65073 5.87292 7.58441 6.02252 7.52159 6.17358C7.45906 6.32464 7.40004 6.47716 7.34481 6.63114C7.28959 6.78512 7.23817 6.94027 7.19083 7.09688C7.14321 7.2532 7.09938 7.41098 7.05964 7.56964C7.01961 7.72829 6.98367 7.88783 6.95153 8.04823C6.91968 8.20864 6.89163 8.36964 6.86738 8.53151C6.84313 8.69309 6.82297 8.85554 6.8069 9.01829C6.79083 9.18104 6.77856 9.34408 6.77038 9.50741C6.7622 9.67074 6.75781 9.83436 6.75781 9.99798ZM24.532 9.99798C24.532 10.1251 24.5288 10.2522 24.5224 10.3796C24.5163 10.5067 24.5069 10.6335 24.4944 10.76C24.4821 10.8868 24.4663 11.013 24.4476 11.139C24.4292 11.2649 24.4073 11.3902 24.3824 11.515C24.3576 11.6398 24.3298 11.764 24.2989 11.8873C24.2679 12.0108 24.234 12.1333 24.1972 12.2551C24.1601 12.377 24.1204 12.4976 24.0774 12.6177C24.0345 12.7375 23.9886 12.8561 23.9401 12.9736C23.8913 13.0913 23.8399 13.2076 23.7852 13.3228C23.7309 13.4376 23.6736 13.5512 23.6137 13.6634C23.5538 13.7756 23.491 13.8864 23.4255 13.9957C23.3601 14.1046 23.292 14.2122 23.2213 14.3179C23.1506 14.424 23.0775 14.528 23.0016 14.6303C22.9259 14.7323 22.8476 14.8328 22.7667 14.9309C22.686 15.0294 22.603 15.1258 22.5174 15.2199C22.4321 15.3143 22.3444 15.4063 22.2545 15.4963C22.1645 15.5863 22.0721 15.6743 21.9778 15.7596C21.8837 15.8452 21.7873 15.9282 21.6888 16.0088C21.5906 16.0898 21.4901 16.1681 21.3881 16.2437C21.2859 16.3197 21.1818 16.3927 21.0761 16.4635C20.97 16.5342 20.8628 16.6022 20.7535 16.6677C20.6442 16.7331 20.5338 16.796 20.4213 16.8559C20.3091 16.9158 20.1954 16.973 20.0806 17.0274C19.9655 17.082 19.8492 17.1334 19.7314 17.1822C19.614 17.2307 19.4953 17.2766 19.3756 17.3196C19.2558 17.3622 19.1348 17.4022 19.0129 17.4394C18.8911 17.4762 18.7687 17.5101 18.6451 17.541C18.5218 17.572 18.3976 17.5998 18.2728 17.6246C18.1481 17.6494 18.0227 17.6713 17.8968 17.6898C17.7709 17.7085 17.6446 17.7242 17.5178 17.7365C17.3913 17.7491 17.2645 17.7584 17.1374 17.7646C17.0103 17.771 16.8829 17.7742 16.7558 17.7742C16.6284 17.7742 16.5013 17.771 16.3742 17.7646C16.2471 17.7584 16.1203 17.7491 15.9935 17.7365C15.867 17.7242 15.7405 17.7085 15.6148 17.6898C15.4889 17.6713 15.3636 17.6494 15.2388 17.6246C15.1137 17.5998 14.9898 17.572 14.8663 17.541C14.743 17.5101 14.6202 17.4762 14.4984 17.4394C14.3765 17.4022 14.2559 17.3622 14.1361 17.3196C14.0163 17.2766 13.8974 17.2307 13.7799 17.1822C13.6624 17.1334 13.5462 17.082 13.431 17.0274C13.3159 16.973 13.2023 16.9158 13.0901 16.8559C12.9779 16.796 12.8671 16.7331 12.7578 16.6677C12.6489 16.6022 12.5413 16.5342 12.4356 16.4635C12.3298 16.3927 12.2258 16.3197 12.1235 16.2437C12.0212 16.1681 11.921 16.0898 11.8226 16.0088C11.7241 15.9282 11.628 15.8452 11.5336 15.7596C11.4392 15.6743 11.3472 15.5863 11.2572 15.4963C11.1672 15.4063 11.0795 15.3143 10.9939 15.2199C10.9086 15.1258 10.8253 15.0294 10.7447 14.9309C10.664 14.8328 10.5857 14.7323 10.5098 14.63C10.4341 14.528 10.3608 14.424 10.29 14.3179C10.2193 14.2122 10.1513 14.1046 10.0858 13.9957C10.0204 13.8864 9.95783 13.7756 9.89764 13.6634C9.83774 13.5512 9.78047 13.4376 9.72613 13.3228C9.67178 13.2076 9.62006 13.0913 9.57156 12.9736C9.52276 12.8561 9.47689 12.7375 9.43423 12.6177C9.39128 12.4976 9.35125 12.377 9.31444 12.2551C9.27733 12.1333 9.24343 12.0108 9.21246 11.8873C9.18178 11.764 9.15373 11.6398 9.1289 11.515C9.10406 11.3902 9.08244 11.2649 9.06374 11.139C9.04504 11.013 9.02955 10.8868 9.01699 10.76C9.00443 10.6335 8.99508 10.5067 8.98894 10.3796C8.98281 10.2522 8.97959 10.1251 8.97959 9.99798C8.97959 9.87059 8.98281 9.74349 8.98894 9.61639C8.99508 9.48929 9.00443 9.36219 9.01699 9.23567C9.02955 9.10916 9.04504 8.98264 9.06374 8.857C9.08244 8.73107 9.10406 8.60572 9.1289 8.48096C9.15373 8.35591 9.18178 8.23173 9.21246 8.10843C9.24343 7.98483 9.27733 7.86241 9.31444 7.74056C9.35125 7.61872 9.39128 7.49805 9.43423 7.37825C9.47689 7.25846 9.52276 7.13954 9.57156 7.02208C9.62006 6.90462 9.67178 6.78804 9.72613 6.67321C9.78047 6.55809 9.83774 6.44443 9.89764 6.33223C9.95783 6.22003 10.0204 6.1093 10.0858 6.00002C10.1513 5.89103 10.2193 5.78351 10.29 5.67774C10.3608 5.57197 10.4341 5.46795 10.5098 5.36568C10.5857 5.26342 10.664 5.1632 10.7447 5.06473C10.8253 4.96627 10.9086 4.87014 10.9939 4.77576C11.0795 4.68139 11.1672 4.58935 11.2572 4.49936C11.3472 4.40936 11.4392 4.32171 11.5336 4.2361C11.628 4.15078 11.7241 4.06751 11.8226 3.98686C11.921 3.90622 12.0212 3.82792 12.1235 3.75195C12.2258 3.67627 12.3298 3.60293 12.4356 3.53222C12.5413 3.46152 12.6489 3.39344 12.7578 3.32799C12.8671 3.26254 12.9779 3.20001 13.0901 3.13982C13.2023 3.07992 13.3159 3.02265 13.431 2.96831C13.5462 2.91396 13.6624 2.86224 13.7799 2.81374C13.8974 2.76495 14.0163 2.71907 14.1361 2.67641C14.2559 2.63346 14.3765 2.59343 14.4984 2.55662C14.6202 2.51951 14.743 2.48562 14.8663 2.45465C14.9898 2.42397 15.1137 2.39592 15.2388 2.37108C15.3636 2.34625 15.4889 2.32462 15.6148 2.30592C15.7405 2.28722 15.867 2.27174 15.9935 2.25917C16.1203 2.24661 16.2471 2.23726 16.3742 2.23112C16.5013 2.2247 16.6284 2.22177 16.7558 2.22177C16.8829 2.22177 17.01 2.22499 17.1371 2.23142C17.2642 2.23784 17.391 2.24719 17.5175 2.26005C17.6444 2.27261 17.7706 2.2881 17.8962 2.30709C18.0221 2.32579 18.1475 2.34771 18.2723 2.37254C18.397 2.39738 18.5209 2.42543 18.6445 2.4564C18.7678 2.48737 18.8902 2.52156 19.0121 2.55837C19.1339 2.59548 19.2546 2.63551 19.3744 2.67846C19.4942 2.72141 19.6128 2.76728 19.7303 2.81579C19.8477 2.86458 19.964 2.9163 20.0788 2.97064C20.194 3.02528 20.3076 3.08255 20.4198 3.14245C20.5317 3.20235 20.6425 3.26517 20.7517 3.33062C20.8607 3.39607 20.9683 3.46414 21.074 3.53485C21.1798 3.60556 21.2835 3.6789 21.3858 3.75458C21.4881 3.83054 21.5883 3.90885 21.6864 3.98949C21.7849 4.07014 21.8813 4.15312 21.9754 4.23873C22.0698 4.32405 22.1618 4.41199 22.2518 4.50169C22.3418 4.59169 22.4295 4.68402 22.5148 4.7781C22.6004 4.87248 22.6834 4.96861 22.764 5.06707C22.845 5.16525 22.9233 5.26576 22.9989 5.36773C23.0749 5.47 23.148 5.57401 23.2187 5.67978C23.2894 5.78555 23.3575 5.89279 23.4229 6.00206C23.4884 6.11105 23.5512 6.22179 23.6111 6.33399C23.6713 6.44618 23.7285 6.55955 23.7829 6.67467C23.8372 6.7895 23.8889 6.90579 23.9377 7.02354C23.9865 7.141 24.0324 7.25963 24.0754 7.37942C24.118 7.49893 24.158 7.61989 24.1952 7.74144C24.2323 7.86328 24.2662 7.98571 24.2971 8.1093C24.3281 8.2326 24.3561 8.35678 24.381 8.48155C24.4061 8.60631 24.4277 8.73136 24.4467 8.8573C24.4654 8.98323 24.4812 9.10945 24.4938 9.23597C24.5063 9.36248 24.5157 9.48929 24.5221 9.61639C24.5285 9.74349 24.5317 9.87059 24.532 9.99798Z" fill="#5DC4FE"/>
<path d="M14.6236 9.75214V14.2507H10.125V17.2498H14.6236V21.7483H17.6226V17.2498H22.1212V14.2507H17.6226V9.75214H14.6236Z" fill="white"/>
</svg>
