<svg width="36" height="35" viewBox="0 0 36 35" fill="none" xmlns="http://www.w3.org/2000/svg">
<mask id="path-1-inside-1_161_115" fill="white">
<path d="M16.293 33.2228H1.77743V29.3715C1.77743 29.1922 1.7821 29.013 1.79099 28.8339C1.8001 28.6549 1.81343 28.476 1.83119 28.2977C1.84896 28.1191 1.87093 27.9412 1.89758 27.7638C1.92399 27.5866 1.95484 27.4099 1.98991 27.2341C2.02497 27.0581 2.06447 26.8833 2.10818 26.7094C2.1519 26.5354 2.19981 26.3627 2.25194 26.1911C2.30407 26.0196 2.3604 25.8494 2.42094 25.6806C2.48148 25.5119 2.546 25.3445 2.61472 25.179C2.68344 25.0133 2.75637 24.8494 2.83304 24.6874C2.90971 24.5252 2.99035 24.3651 3.07497 24.2071C3.15959 24.049 3.24795 23.8929 3.34028 23.7391C3.43261 23.5855 3.52844 23.4341 3.62825 23.2849C3.72783 23.1358 3.83115 22.9892 3.93797 22.8452C4.0448 22.7012 4.15513 22.5598 4.26896 22.4212C4.3828 22.2828 4.49991 22.147 4.62029 22.014C4.74067 21.8813 4.86432 21.7515 4.99101 21.6246C5.11794 21.4979 5.24767 21.3742 5.38067 21.2536C5.51344 21.1333 5.64925 21.0161 5.78786 20.9023C5.92648 20.7887 6.06766 20.6784 6.21165 20.5716C6.35587 20.4645 6.50244 20.3614 6.65133 20.2616C6.80047 20.162 6.95193 20.0659 7.10574 19.9739C7.25955 19.8815 7.41546 19.7932 7.57347 19.7085C7.73172 19.6239 7.89184 19.5433 8.05383 19.4666C8.21582 19.3897 8.37967 19.317 8.5454 19.2483C8.71113 19.1796 8.87826 19.1151 9.04703 19.0545C9.2158 18.994 9.38597 18.9376 9.55754 18.8855C9.72911 18.8332 9.90208 18.7852 10.076 18.7415C10.2499 18.6978 10.4247 18.6585 10.6005 18.6235C10.7763 18.5882 10.953 18.5576 11.1304 18.5309C11.3079 18.5045 11.4857 18.4823 11.6641 18.4648C11.8424 18.447 12.0213 18.4334 12.2005 18.4246C12.3796 18.4157 12.5586 18.411 12.7382 18.4108H16.293C16.4744 18.4112 16.6558 18.4063 16.837 18.396C17.0181 18.3858 17.199 18.3701 17.3793 18.3491C17.5595 18.328 17.739 18.3018 17.9178 18.2703C18.0966 18.2385 18.2743 18.2018 18.4508 18.1597C18.6272 18.1174 18.8023 18.0702 18.9762 18.0178C19.1499 17.9652 19.3219 17.9077 19.4923 17.8451C19.6627 17.7824 19.831 17.7147 19.9975 17.6422C20.1637 17.5695 20.3278 17.4921 20.4895 17.4098C20.6513 17.3276 20.8105 17.2404 20.9671 17.1488C21.1239 17.0569 21.2775 16.9606 21.4285 16.8598C21.5795 16.7591 21.7272 16.6539 21.8719 16.5443C22.0166 16.4346 22.158 16.321 22.2959 16.203C22.4338 16.0852 22.5683 15.9632 22.6992 15.8372C22.8298 15.7114 22.9567 15.5817 23.0799 15.4485C23.2029 15.315 23.3221 15.178 23.4371 15.0378C23.5521 14.8973 23.6627 14.7535 23.7693 14.6065C23.8758 14.4595 23.9778 14.3096 24.0755 14.1565C24.1729 14.0034 24.266 13.8477 24.3546 13.6893C24.4429 13.5308 24.5266 13.3697 24.6054 13.2063C24.6844 13.0427 24.7582 12.8772 24.8274 12.7094C24.8964 12.5415 24.9604 12.3716 25.0196 12.2C25.0787 12.0285 25.1325 11.8553 25.1813 11.6804C25.2302 11.5056 25.2737 11.3293 25.3122 11.1521C25.3506 10.9747 25.3835 10.7961 25.4113 10.6168C25.4392 10.4376 25.4618 10.2576 25.4789 10.0769C25.4962 9.89619 25.5079 9.71504 25.5144 9.53365C25.521 9.35226 25.5219 9.17087 25.5177 8.98948C25.5135 8.80785 25.5039 8.6267 25.4889 8.44577C25.474 8.26509 25.4537 8.08463 25.4279 7.90511C25.4022 7.72536 25.3714 7.54654 25.3351 7.36865C25.2989 7.19077 25.2575 7.01429 25.2108 6.83874C25.1643 6.66343 25.1124 6.48952 25.0553 6.31725C24.9985 6.14474 24.9366 5.97434 24.8695 5.80557C24.8024 5.63703 24.7304 5.47037 24.6535 5.30605C24.5766 5.14149 24.495 4.9795 24.4086 4.82008C24.3221 4.66043 24.2309 4.50358 24.1353 4.34931C24.0395 4.19503 23.9392 4.0438 23.8345 3.8956C23.7297 3.7474 23.6208 3.60224 23.5075 3.46036C23.3943 3.3187 23.277 3.18032 23.1554 3.04545C23.0341 2.91058 22.9086 2.77944 22.7793 2.65181C22.6503 2.52442 22.5173 2.401 22.3808 2.28132C22.2443 2.16164 22.1043 2.04617 21.961 1.9349C21.8177 1.82364 21.6711 1.71658 21.5215 1.61397C21.3717 1.51135 21.219 1.41317 21.0636 1.31944C20.9082 1.22571 20.7501 1.13688 20.5893 1.0525C20.4285 0.968348 20.2654 0.888873 20.1001 0.814307C19.9346 0.739507 19.767 0.669849 19.5975 0.605101C19.4278 0.540352 19.2565 0.480746 19.0835 0.426282C18.9103 0.371584 18.7357 0.322263 18.5597 0.277851C18.3837 0.233672 18.2065 0.194636 18.0281 0.160976C17.8498 0.127082 17.6707 0.0985645 17.4908 0.0754232C17.3105 0.052282 17.1301 0.0342832 16.9489 0.0218945C16.768 0.00927198 16.5866 0.00225952 16.4052 0.000389519C16.2236 -0.00124669 16.0422 0.00225949 15.8611 0.011142C15.6797 0.0202583 15.4987 0.034517 15.3183 0.054152C15.1378 0.073787 14.9583 0.0987982 14.7793 0.128952C14.6002 0.159339 14.4223 0.194869 14.2456 0.235542C14.0687 0.276448 13.8931 0.322497 13.719 0.373688C13.5448 0.424879 13.3723 0.481213 13.2017 0.542456C13.0308 0.603932 12.8618 0.670317 12.6952 0.741611C12.5283 0.812904 12.3635 0.88934 12.2012 0.970452C12.0388 1.05156 11.8789 1.13735 11.7216 1.22781C11.5643 1.31851 11.4098 1.41364 11.2583 1.51322C11.1066 1.61303 10.9579 1.71705 10.8123 1.82551C10.6669 1.9342 10.5248 2.04687 10.3859 2.16374C10.2471 2.28062 10.1118 2.40147 9.98015 2.52652C9.84832 2.65135 9.72046 2.77991 9.59634 2.91245C9.47222 3.04498 9.35231 3.18102 9.23613 3.32057C9.12019 3.46012 9.00846 3.60294 8.9007 3.74927C8.79318 3.89536 8.69009 4.04473 8.59122 4.1969C8.49258 4.34931 8.39837 4.50428 8.30885 4.66206C8.21932 4.82008 8.13447 4.98043 8.0543 5.14335C7.97412 5.30605 7.89909 5.47131 7.82873 5.63867C7.75837 5.8058 7.69292 5.97527 7.63261 6.14638C7.57231 6.31748 7.51714 6.49046 7.46712 6.66483C7.41686 6.83921 7.37198 7.01499 7.33248 7.19217C7.29274 7.36936 7.25815 7.54747 7.22916 7.72653C7.19994 7.90581 7.1761 8.08557 7.15763 8.26625C7.13917 8.44671 7.12584 8.62763 7.11813 8.80902C7.11018 8.99041 7.10785 9.1718 7.11065 9.35319C7.11369 9.53481 7.12187 9.71597 7.13566 9.89689C7.14922 10.078 7.16815 10.2585 7.19246 10.4383C7.21677 10.6182 7.24646 10.7971 7.28129 10.9752C7.31612 11.1533 7.35632 11.3302 7.40167 11.506C7.44702 11.6818 7.49751 11.8562 7.55314 12.0289C7.60877 12.2017 7.66954 12.3725 7.73546 12.5418C7.80115 12.711 7.87197 12.8779 7.94747 13.0429C8.02321 13.208 8.10362 13.3707 8.18894 13.5308C8.27425 13.6909 8.36425 13.8487 8.45892 14.0034C8.55335 14.1584 8.65246 14.3103 8.75624 14.4595C8.8598 14.6084 8.96755 14.7542 9.07975 14.897C9.19219 15.0396 9.30836 15.1787 9.42898 15.3145C9.54936 15.4503 9.67371 15.5824 9.80204 15.711C9.93013 15.8393 10.0622 15.9639 10.1978 16.0845C10.3334 16.2051 10.4724 16.3215 10.615 16.4339C10.7576 16.5464 10.9032 16.6544 11.0524 16.7582C10.8633 16.7836 10.6749 16.8131 10.4874 16.847C10.2997 16.8806 10.1127 16.9187 9.92686 16.9611C9.7408 17.0031 9.5559 17.0494 9.37217 17.0999C9.18821 17.1504 9.00566 17.2051 8.82403 17.2638C8.64264 17.3224 8.46266 17.3851 8.28407 17.4519C8.10549 17.5188 7.92854 17.5894 7.75299 17.6642C7.57768 17.739 7.40401 17.8175 7.23197 17.9C7.06016 17.9825 6.88999 18.0688 6.72216 18.159C6.55409 18.249 6.38813 18.343 6.22427 18.4405C6.06042 18.5382 5.89889 18.6394 5.73971 18.7441C5.58029 18.849 5.42345 18.9573 5.26894 19.0692C5.11467 19.181 4.96273 19.2962 4.8136 19.415C4.66423 19.5337 4.5179 19.6557 4.37391 19.7808C4.23016 19.9061 4.08944 20.0346 3.9513 20.1662C3.81338 20.2976 3.67828 20.4322 3.54644 20.5699C3.41437 20.7076 3.28558 20.8481 3.15982 20.9916C3.0343 21.1349 2.91181 21.2812 2.79284 21.4301C2.67362 21.579 2.55792 21.7305 2.44572 21.8845C2.33328 22.0386 2.22459 22.1952 2.11917 22.3541C2.01398 22.5131 1.9123 22.6744 1.81413 22.838C1.71619 23.0014 1.62175 23.1671 1.53129 23.3349C1.4406 23.5028 1.35388 23.6725 1.27089 23.844C1.18791 24.0159 1.10867 24.1893 1.03341 24.3644C0.958372 24.5397 0.887078 24.7164 0.819758 24.895C0.752439 25.0733 0.689326 25.2531 0.629954 25.4345C0.570816 25.6156 0.515651 25.7982 0.464693 25.9819C0.413736 26.1657 0.366752 26.3505 0.323976 26.5364C0.281434 26.7222 0.242865 26.9087 0.208504 27.0964C0.174143 27.2839 0.14399 27.4721 0.118043 27.6612C0.0920972 27.8501 0.0705922 28.0394 0.0530611 28.2292C0.0357636 28.4192 0.0224399 28.6093 0.0137912 28.7998C0.0049087 28.9903 0.000233734 29.1808 0 29.3715V35H16.293V33.2228ZM8.88691 9.22743C8.88691 9.10635 8.88995 8.98504 8.89603 8.86395C8.90187 8.7431 8.91075 8.62226 8.92267 8.50164C8.9346 8.38103 8.94932 8.26064 8.96709 8.14073C8.98485 8.02082 9.00566 7.9016 9.02926 7.78263C9.05287 7.66365 9.07952 7.5456 9.10897 7.42803C9.13842 7.31045 9.17068 7.19358 9.20598 7.07764C9.24104 6.9617 9.27914 6.84669 9.31981 6.73239C9.36072 6.61832 9.40443 6.50518 9.45071 6.39322C9.49723 6.28125 9.54632 6.17045 9.59798 6.06106C9.64987 5.95143 9.70433 5.8432 9.76137 5.73638C9.81863 5.62932 9.87824 5.5239 9.94065 5.42011C10.0031 5.3161 10.0678 5.21371 10.1351 5.11297C10.2025 5.01222 10.2721 4.91311 10.3443 4.81564C10.4166 4.7184 10.4911 4.62279 10.568 4.52906C10.6449 4.43556 10.7242 4.3437 10.8055 4.25394C10.8869 4.16418 10.9703 4.07629 11.0561 3.99073C11.1419 3.90495 11.2295 3.8215 11.3193 3.73992C11.4093 3.65858 11.5009 3.57957 11.5947 3.50266C11.6884 3.42576 11.7838 3.35119 11.8812 3.27897C11.9785 3.20674 12.0776 3.13708 12.1783 3.06953C12.2791 3.00221 12.3815 2.93746 12.4855 2.87505C12.5895 2.81287 12.6949 2.75303 12.8017 2.69599C12.9086 2.63896 13.0168 2.58426 13.1264 2.5326C13.236 2.48071 13.3468 2.43162 13.4588 2.38534C13.5708 2.33882 13.6839 2.29535 13.798 2.25444C13.9121 2.21353 14.0271 2.17567 14.143 2.14037C14.2592 2.10531 14.3758 2.07282 14.4934 2.04336C14.611 2.01391 14.7292 1.9875 14.848 1.96389C14.967 1.94028 15.0864 1.91948 15.2063 1.90171C15.3262 1.88395 15.4464 1.86899 15.567 1.85707C15.6876 1.84538 15.8085 1.83626 15.9295 1.83042C16.0506 1.82457 16.1717 1.82154 16.293 1.82154C16.4141 1.82154 16.5352 1.82457 16.6563 1.83042C16.7773 1.83626 16.8982 1.84538 17.0188 1.85707C17.1394 1.86899 17.2598 1.88395 17.3795 1.90171C17.4994 1.91948 17.6188 1.94028 17.7378 1.96389C17.8566 1.9875 17.9748 2.01391 18.0924 2.04336C18.21 2.07282 18.3266 2.10531 18.4428 2.14037C18.5588 2.17567 18.6738 2.21353 18.7878 2.25444C18.9019 2.29535 19.015 2.33882 19.127 2.38534C19.239 2.43162 19.3498 2.48071 19.4594 2.5326C19.569 2.58426 19.6772 2.63896 19.7841 2.69599C19.8909 2.75303 19.9963 2.81287 20.1003 2.87505C20.2043 2.93746 20.3067 3.00221 20.4075 3.06953C20.5082 3.13708 20.6073 3.20674 20.7046 3.27897C20.802 3.35119 20.8974 3.42576 20.9911 3.50266C21.0849 3.57957 21.1765 3.65858 21.2665 3.73992C21.3563 3.8215 21.4439 3.90495 21.5297 3.99073C21.6155 4.07629 21.6989 4.16418 21.7803 4.25394C21.8616 4.3437 21.9409 4.43556 22.0178 4.52906C22.0947 4.62279 22.1692 4.7184 22.2415 4.81564C22.3137 4.91311 22.3834 5.01222 22.4507 5.11297C22.518 5.21371 22.583 5.3161 22.6452 5.42011C22.7076 5.5239 22.7672 5.62932 22.8244 5.73638C22.8815 5.8432 22.9359 5.95143 22.9878 6.06106C23.0395 6.17045 23.0888 6.28125 23.1351 6.39322C23.1814 6.50518 23.2251 6.61832 23.266 6.73239C23.3067 6.84669 23.3448 6.9617 23.3798 7.07764C23.4151 7.19358 23.4474 7.31045 23.4768 7.42803C23.5063 7.5456 23.5329 7.66365 23.5565 7.78263C23.5802 7.9016 23.601 8.02082 23.6187 8.14073C23.6365 8.26064 23.6512 8.38103 23.6631 8.50164C23.6751 8.62226 23.6839 8.7431 23.69 8.86395C23.6959 8.98504 23.6989 9.10635 23.6989 9.22743C23.6989 9.34875 23.6959 9.46983 23.69 9.59092C23.6839 9.712 23.6751 9.83285 23.6631 9.95346C23.6512 10.0741 23.6365 10.1942 23.6187 10.3141C23.601 10.4341 23.5802 10.5535 23.5565 10.6722C23.5329 10.7912 23.5063 10.9093 23.4768 11.0268C23.4474 11.1444 23.4151 11.2613 23.3798 11.3772C23.3448 11.4932 23.3067 11.6084 23.266 11.7225C23.2251 11.8366 23.1814 11.9497 23.1351 12.0617C23.0888 12.1736 23.0395 12.2844 22.9878 12.3938C22.9359 12.5034 22.8815 12.6117 22.8244 12.7185C22.7672 12.8255 22.7076 12.931 22.6452 13.0348C22.583 13.1388 22.518 13.2412 22.4507 13.3419C22.3834 13.4426 22.3137 13.5418 22.2415 13.6392C22.1692 13.7365 22.0947 13.8321 22.0178 13.9258C21.9409 14.0193 21.8616 14.1112 21.7803 14.2009C21.6989 14.2907 21.6155 14.3786 21.5297 14.4641C21.4439 14.5499 21.3563 14.6334 21.2665 14.7149C21.1765 14.7963 21.0849 14.8755 20.9911 14.9522C20.8974 15.0291 20.802 15.1037 20.7046 15.1759C20.6073 15.2481 20.5082 15.318 20.4075 15.3853C20.3067 15.4527 20.2043 15.5174 20.1003 15.5798C19.9963 15.642 19.8909 15.7018 19.7841 15.7589C19.6772 15.8161 19.569 15.8706 19.4594 15.9223C19.3498 15.9742 19.239 16.0232 19.127 16.0695C19.015 16.116 18.9019 16.1595 18.7878 16.2004C18.6738 16.2413 18.5588 16.2792 18.4428 16.3145C18.3266 16.3496 18.21 16.3821 18.0924 16.4115C17.9748 16.441 17.8566 16.4674 17.7378 16.491C17.6188 16.5148 17.4994 16.5354 17.3795 16.5532C17.2598 16.5709 17.1394 16.5859 17.0188 16.5978C16.8982 16.6095 16.7773 16.6186 16.6563 16.6244C16.5352 16.6303 16.4141 16.6333 16.293 16.6333C16.1717 16.6333 16.0506 16.6301 15.9295 16.624C15.8087 16.6179 15.6878 16.609 15.5672 16.5969C15.4466 16.5849 15.3265 16.57 15.2066 16.5522C15.0869 16.5342 14.9674 16.5134 14.8487 16.4898C14.7299 16.466 14.6117 16.4393 14.4941 16.4099C14.3767 16.3802 14.2599 16.3479 14.1439 16.3126C14.028 16.2773 13.913 16.2392 13.7991 16.1983C13.6851 16.1574 13.5719 16.1139 13.46 16.0674C13.3482 16.0209 13.2375 15.9718 13.1281 15.9199C13.0184 15.868 12.9102 15.8136 12.8034 15.7565C12.6966 15.6993 12.5911 15.6397 12.4873 15.5772C12.3833 15.5148 12.2812 15.4501 12.1804 15.3828C12.0797 15.3154 11.9806 15.2456 11.8833 15.1733C11.7861 15.1011 11.6905 15.0268 11.5968 14.9499C11.5033 14.873 11.4114 14.7937 11.3216 14.7124C11.2319 14.631 11.1442 14.5476 11.0587 14.4618C10.9729 14.3762 10.8894 14.2884 10.8081 14.1986C10.7265 14.1088 10.6475 14.0172 10.5706 13.9235C10.4937 13.8297 10.4191 13.7344 10.3469 13.6371C10.2747 13.5397 10.205 13.4408 10.1377 13.34C10.0704 13.2393 10.0054 13.1369 9.94322 13.0331C9.88081 12.9291 9.82097 12.8237 9.76394 12.7169C9.70667 12.61 9.65221 12.502 9.60031 12.3924C9.54842 12.283 9.49933 12.1722 9.45305 12.0602C9.40654 11.9483 9.36282 11.8354 9.32192 11.7213C9.28101 11.6072 9.24291 11.4922 9.20785 11.3763C9.17255 11.2604 9.14006 11.1437 9.11061 11.0261C9.08092 10.9088 9.05451 10.7905 9.03067 10.6718C9.00682 10.5528 8.98602 10.4336 8.96826 10.3137C8.95026 10.1938 8.9353 10.0736 8.92338 9.95299C8.91145 9.83261 8.90234 9.71176 8.89626 9.59068C8.89018 9.4696 8.88714 9.34852 8.88691 9.22743Z"/>
</mask>
<path d="M16.293 33.2228H1.77743V29.3715C1.77743 29.1922 1.7821 29.013 1.79099 28.8339C1.8001 28.6549 1.81343 28.476 1.83119 28.2977C1.84896 28.1191 1.87093 27.9412 1.89758 27.7638C1.92399 27.5866 1.95484 27.4099 1.98991 27.2341C2.02497 27.0581 2.06447 26.8833 2.10818 26.7094C2.1519 26.5354 2.19981 26.3627 2.25194 26.1911C2.30407 26.0196 2.3604 25.8494 2.42094 25.6806C2.48148 25.5119 2.546 25.3445 2.61472 25.179C2.68344 25.0133 2.75637 24.8494 2.83304 24.6874C2.90971 24.5252 2.99035 24.3651 3.07497 24.2071C3.15959 24.049 3.24795 23.8929 3.34028 23.7391C3.43261 23.5855 3.52844 23.4341 3.62825 23.2849C3.72783 23.1358 3.83115 22.9892 3.93797 22.8452C4.0448 22.7012 4.15513 22.5598 4.26896 22.4212C4.3828 22.2828 4.49991 22.147 4.62029 22.014C4.74067 21.8813 4.86432 21.7515 4.99101 21.6246C5.11794 21.4979 5.24767 21.3742 5.38067 21.2536C5.51344 21.1333 5.64925 21.0161 5.78786 20.9023C5.92648 20.7887 6.06766 20.6784 6.21165 20.5716C6.35587 20.4645 6.50244 20.3614 6.65133 20.2616C6.80047 20.162 6.95193 20.0659 7.10574 19.9739C7.25955 19.8815 7.41546 19.7932 7.57347 19.7085C7.73172 19.6239 7.89184 19.5433 8.05383 19.4666C8.21582 19.3897 8.37967 19.317 8.5454 19.2483C8.71113 19.1796 8.87826 19.1151 9.04703 19.0545C9.2158 18.994 9.38597 18.9376 9.55754 18.8855C9.72911 18.8332 9.90208 18.7852 10.076 18.7415C10.2499 18.6978 10.4247 18.6585 10.6005 18.6235C10.7763 18.5882 10.953 18.5576 11.1304 18.5309C11.3079 18.5045 11.4857 18.4823 11.6641 18.4648C11.8424 18.447 12.0213 18.4334 12.2005 18.4246C12.3796 18.4157 12.5586 18.411 12.7382 18.4108H16.293C16.4744 18.4112 16.6558 18.4063 16.837 18.396C17.0181 18.3858 17.199 18.3701 17.3793 18.3491C17.5595 18.328 17.739 18.3018 17.9178 18.2703C18.0966 18.2385 18.2743 18.2018 18.4508 18.1597C18.6272 18.1174 18.8023 18.0702 18.9762 18.0178C19.1499 17.9652 19.3219 17.9077 19.4923 17.8451C19.6627 17.7824 19.831 17.7147 19.9975 17.6422C20.1637 17.5695 20.3278 17.4921 20.4895 17.4098C20.6513 17.3276 20.8105 17.2404 20.9671 17.1488C21.1239 17.0569 21.2775 16.9606 21.4285 16.8598C21.5795 16.7591 21.7272 16.6539 21.8719 16.5443C22.0166 16.4346 22.158 16.321 22.2959 16.203C22.4338 16.0852 22.5683 15.9632 22.6992 15.8372C22.8298 15.7114 22.9567 15.5817 23.0799 15.4485C23.2029 15.315 23.3221 15.178 23.4371 15.0378C23.5521 14.8973 23.6627 14.7535 23.7693 14.6065C23.8758 14.4595 23.9778 14.3096 24.0755 14.1565C24.1729 14.0034 24.266 13.8477 24.3546 13.6893C24.4429 13.5308 24.5266 13.3697 24.6054 13.2063C24.6844 13.0427 24.7582 12.8772 24.8274 12.7094C24.8964 12.5415 24.9604 12.3716 25.0196 12.2C25.0787 12.0285 25.1325 11.8553 25.1813 11.6804C25.2302 11.5056 25.2737 11.3293 25.3122 11.1521C25.3506 10.9747 25.3835 10.7961 25.4113 10.6168C25.4392 10.4376 25.4618 10.2576 25.4789 10.0769C25.4962 9.89619 25.5079 9.71504 25.5144 9.53365C25.521 9.35226 25.5219 9.17087 25.5177 8.98948C25.5135 8.80785 25.5039 8.6267 25.4889 8.44577C25.474 8.26509 25.4537 8.08463 25.4279 7.90511C25.4022 7.72536 25.3714 7.54654 25.3351 7.36865C25.2989 7.19077 25.2575 7.01429 25.2108 6.83874C25.1643 6.66343 25.1124 6.48952 25.0553 6.31725C24.9985 6.14474 24.9366 5.97434 24.8695 5.80557C24.8024 5.63703 24.7304 5.47037 24.6535 5.30605C24.5766 5.14149 24.495 4.9795 24.4086 4.82008C24.3221 4.66043 24.2309 4.50358 24.1353 4.34931C24.0395 4.19503 23.9392 4.0438 23.8345 3.8956C23.7297 3.7474 23.6208 3.60224 23.5075 3.46036C23.3943 3.3187 23.277 3.18032 23.1554 3.04545C23.0341 2.91058 22.9086 2.77944 22.7793 2.65181C22.6503 2.52442 22.5173 2.401 22.3808 2.28132C22.2443 2.16164 22.1043 2.04617 21.961 1.9349C21.8177 1.82364 21.6711 1.71658 21.5215 1.61397C21.3717 1.51135 21.219 1.41317 21.0636 1.31944C20.9082 1.22571 20.7501 1.13688 20.5893 1.0525C20.4285 0.968348 20.2654 0.888873 20.1001 0.814307C19.9346 0.739507 19.767 0.669849 19.5975 0.605101C19.4278 0.540352 19.2565 0.480746 19.0835 0.426282C18.9103 0.371584 18.7357 0.322263 18.5597 0.277851C18.3837 0.233672 18.2065 0.194636 18.0281 0.160976C17.8498 0.127082 17.6707 0.0985645 17.4908 0.0754232C17.3105 0.052282 17.1301 0.0342832 16.9489 0.0218945C16.768 0.00927198 16.5866 0.00225952 16.4052 0.000389519C16.2236 -0.00124669 16.0422 0.00225949 15.8611 0.011142C15.6797 0.0202583 15.4987 0.034517 15.3183 0.054152C15.1378 0.073787 14.9583 0.0987982 14.7793 0.128952C14.6002 0.159339 14.4223 0.194869 14.2456 0.235542C14.0687 0.276448 13.8931 0.322497 13.719 0.373688C13.5448 0.424879 13.3723 0.481213 13.2017 0.542456C13.0308 0.603932 12.8618 0.670317 12.6952 0.741611C12.5283 0.812904 12.3635 0.88934 12.2012 0.970452C12.0388 1.05156 11.8789 1.13735 11.7216 1.22781C11.5643 1.31851 11.4098 1.41364 11.2583 1.51322C11.1066 1.61303 10.9579 1.71705 10.8123 1.82551C10.6669 1.9342 10.5248 2.04687 10.3859 2.16374C10.2471 2.28062 10.1118 2.40147 9.98015 2.52652C9.84832 2.65135 9.72046 2.77991 9.59634 2.91245C9.47222 3.04498 9.35231 3.18102 9.23613 3.32057C9.12019 3.46012 9.00846 3.60294 8.9007 3.74927C8.79318 3.89536 8.69009 4.04473 8.59122 4.1969C8.49258 4.34931 8.39837 4.50428 8.30885 4.66206C8.21932 4.82008 8.13447 4.98043 8.0543 5.14335C7.97412 5.30605 7.89909 5.47131 7.82873 5.63867C7.75837 5.8058 7.69292 5.97527 7.63261 6.14638C7.57231 6.31748 7.51714 6.49046 7.46712 6.66483C7.41686 6.83921 7.37198 7.01499 7.33248 7.19217C7.29274 7.36936 7.25815 7.54747 7.22916 7.72653C7.19994 7.90581 7.1761 8.08557 7.15763 8.26625C7.13917 8.44671 7.12584 8.62763 7.11813 8.80902C7.11018 8.99041 7.10785 9.1718 7.11065 9.35319C7.11369 9.53481 7.12187 9.71597 7.13566 9.89689C7.14922 10.078 7.16815 10.2585 7.19246 10.4383C7.21677 10.6182 7.24646 10.7971 7.28129 10.9752C7.31612 11.1533 7.35632 11.3302 7.40167 11.506C7.44702 11.6818 7.49751 11.8562 7.55314 12.0289C7.60877 12.2017 7.66954 12.3725 7.73546 12.5418C7.80115 12.711 7.87197 12.8779 7.94747 13.0429C8.02321 13.208 8.10362 13.3707 8.18894 13.5308C8.27425 13.6909 8.36425 13.8487 8.45892 14.0034C8.55335 14.1584 8.65246 14.3103 8.75624 14.4595C8.8598 14.6084 8.96755 14.7542 9.07975 14.897C9.19219 15.0396 9.30836 15.1787 9.42898 15.3145C9.54936 15.4503 9.67371 15.5824 9.80204 15.711C9.93013 15.8393 10.0622 15.9639 10.1978 16.0845C10.3334 16.2051 10.4724 16.3215 10.615 16.4339C10.7576 16.5464 10.9032 16.6544 11.0524 16.7582C10.8633 16.7836 10.6749 16.8131 10.4874 16.847C10.2997 16.8806 10.1127 16.9187 9.92686 16.9611C9.7408 17.0031 9.5559 17.0494 9.37217 17.0999C9.18821 17.1504 9.00566 17.2051 8.82403 17.2638C8.64264 17.3224 8.46266 17.3851 8.28407 17.4519C8.10549 17.5188 7.92854 17.5894 7.75299 17.6642C7.57768 17.739 7.40401 17.8175 7.23197 17.9C7.06016 17.9825 6.88999 18.0688 6.72216 18.159C6.55409 18.249 6.38813 18.343 6.22427 18.4405C6.06042 18.5382 5.89889 18.6394 5.73971 18.7441C5.58029 18.849 5.42345 18.9573 5.26894 19.0692C5.11467 19.181 4.96273 19.2962 4.8136 19.415C4.66423 19.5337 4.5179 19.6557 4.37391 19.7808C4.23016 19.9061 4.08944 20.0346 3.9513 20.1662C3.81338 20.2976 3.67828 20.4322 3.54644 20.5699C3.41437 20.7076 3.28558 20.8481 3.15982 20.9916C3.0343 21.1349 2.91181 21.2812 2.79284 21.4301C2.67362 21.579 2.55792 21.7305 2.44572 21.8845C2.33328 22.0386 2.22459 22.1952 2.11917 22.3541C2.01398 22.5131 1.9123 22.6744 1.81413 22.838C1.71619 23.0014 1.62175 23.1671 1.53129 23.3349C1.4406 23.5028 1.35388 23.6725 1.27089 23.844C1.18791 24.0159 1.10867 24.1893 1.03341 24.3644C0.958372 24.5397 0.887078 24.7164 0.819758 24.895C0.752439 25.0733 0.689326 25.2531 0.629954 25.4345C0.570816 25.6156 0.515651 25.7982 0.464693 25.9819C0.413736 26.1657 0.366752 26.3505 0.323976 26.5364C0.281434 26.7222 0.242865 26.9087 0.208504 27.0964C0.174143 27.2839 0.14399 27.4721 0.118043 27.6612C0.0920972 27.8501 0.0705922 28.0394 0.0530611 28.2292C0.0357636 28.4192 0.0224399 28.6093 0.0137912 28.7998C0.0049087 28.9903 0.000233734 29.1808 0 29.3715V35H16.293V33.2228ZM8.88691 9.22743C8.88691 9.10635 8.88995 8.98504 8.89603 8.86395C8.90187 8.7431 8.91075 8.62226 8.92267 8.50164C8.9346 8.38103 8.94932 8.26064 8.96709 8.14073C8.98485 8.02082 9.00566 7.9016 9.02926 7.78263C9.05287 7.66365 9.07952 7.5456 9.10897 7.42803C9.13842 7.31045 9.17068 7.19358 9.20598 7.07764C9.24104 6.9617 9.27914 6.84669 9.31981 6.73239C9.36072 6.61832 9.40443 6.50518 9.45071 6.39322C9.49723 6.28125 9.54632 6.17045 9.59798 6.06106C9.64987 5.95143 9.70433 5.8432 9.76137 5.73638C9.81863 5.62932 9.87824 5.5239 9.94065 5.42011C10.0031 5.3161 10.0678 5.21371 10.1351 5.11297C10.2025 5.01222 10.2721 4.91311 10.3443 4.81564C10.4166 4.7184 10.4911 4.62279 10.568 4.52906C10.6449 4.43556 10.7242 4.3437 10.8055 4.25394C10.8869 4.16418 10.9703 4.07629 11.0561 3.99073C11.1419 3.90495 11.2295 3.8215 11.3193 3.73992C11.4093 3.65858 11.5009 3.57957 11.5947 3.50266C11.6884 3.42576 11.7838 3.35119 11.8812 3.27897C11.9785 3.20674 12.0776 3.13708 12.1783 3.06953C12.2791 3.00221 12.3815 2.93746 12.4855 2.87505C12.5895 2.81287 12.6949 2.75303 12.8017 2.69599C12.9086 2.63896 13.0168 2.58426 13.1264 2.5326C13.236 2.48071 13.3468 2.43162 13.4588 2.38534C13.5708 2.33882 13.6839 2.29535 13.798 2.25444C13.9121 2.21353 14.0271 2.17567 14.143 2.14037C14.2592 2.10531 14.3758 2.07282 14.4934 2.04336C14.611 2.01391 14.7292 1.9875 14.848 1.96389C14.967 1.94028 15.0864 1.91948 15.2063 1.90171C15.3262 1.88395 15.4464 1.86899 15.567 1.85707C15.6876 1.84538 15.8085 1.83626 15.9295 1.83042C16.0506 1.82457 16.1717 1.82154 16.293 1.82154C16.4141 1.82154 16.5352 1.82457 16.6563 1.83042C16.7773 1.83626 16.8982 1.84538 17.0188 1.85707C17.1394 1.86899 17.2598 1.88395 17.3795 1.90171C17.4994 1.91948 17.6188 1.94028 17.7378 1.96389C17.8566 1.9875 17.9748 2.01391 18.0924 2.04336C18.21 2.07282 18.3266 2.10531 18.4428 2.14037C18.5588 2.17567 18.6738 2.21353 18.7878 2.25444C18.9019 2.29535 19.015 2.33882 19.127 2.38534C19.239 2.43162 19.3498 2.48071 19.4594 2.5326C19.569 2.58426 19.6772 2.63896 19.7841 2.69599C19.8909 2.75303 19.9963 2.81287 20.1003 2.87505C20.2043 2.93746 20.3067 3.00221 20.4075 3.06953C20.5082 3.13708 20.6073 3.20674 20.7046 3.27897C20.802 3.35119 20.8974 3.42576 20.9911 3.50266C21.0849 3.57957 21.1765 3.65858 21.2665 3.73992C21.3563 3.8215 21.4439 3.90495 21.5297 3.99073C21.6155 4.07629 21.6989 4.16418 21.7803 4.25394C21.8616 4.3437 21.9409 4.43556 22.0178 4.52906C22.0947 4.62279 22.1692 4.7184 22.2415 4.81564C22.3137 4.91311 22.3834 5.01222 22.4507 5.11297C22.518 5.21371 22.583 5.3161 22.6452 5.42011C22.7076 5.5239 22.7672 5.62932 22.8244 5.73638C22.8815 5.8432 22.9359 5.95143 22.9878 6.06106C23.0395 6.17045 23.0888 6.28125 23.1351 6.39322C23.1814 6.50518 23.2251 6.61832 23.266 6.73239C23.3067 6.84669 23.3448 6.9617 23.3798 7.07764C23.4151 7.19358 23.4474 7.31045 23.4768 7.42803C23.5063 7.5456 23.5329 7.66365 23.5565 7.78263C23.5802 7.9016 23.601 8.02082 23.6187 8.14073C23.6365 8.26064 23.6512 8.38103 23.6631 8.50164C23.6751 8.62226 23.6839 8.7431 23.69 8.86395C23.6959 8.98504 23.6989 9.10635 23.6989 9.22743C23.6989 9.34875 23.6959 9.46983 23.69 9.59092C23.6839 9.712 23.6751 9.83285 23.6631 9.95346C23.6512 10.0741 23.6365 10.1942 23.6187 10.3141C23.601 10.4341 23.5802 10.5535 23.5565 10.6722C23.5329 10.7912 23.5063 10.9093 23.4768 11.0268C23.4474 11.1444 23.4151 11.2613 23.3798 11.3772C23.3448 11.4932 23.3067 11.6084 23.266 11.7225C23.2251 11.8366 23.1814 11.9497 23.1351 12.0617C23.0888 12.1736 23.0395 12.2844 22.9878 12.3938C22.9359 12.5034 22.8815 12.6117 22.8244 12.7185C22.7672 12.8255 22.7076 12.931 22.6452 13.0348C22.583 13.1388 22.518 13.2412 22.4507 13.3419C22.3834 13.4426 22.3137 13.5418 22.2415 13.6392C22.1692 13.7365 22.0947 13.8321 22.0178 13.9258C21.9409 14.0193 21.8616 14.1112 21.7803 14.2009C21.6989 14.2907 21.6155 14.3786 21.5297 14.4641C21.4439 14.5499 21.3563 14.6334 21.2665 14.7149C21.1765 14.7963 21.0849 14.8755 20.9911 14.9522C20.8974 15.0291 20.802 15.1037 20.7046 15.1759C20.6073 15.2481 20.5082 15.318 20.4075 15.3853C20.3067 15.4527 20.2043 15.5174 20.1003 15.5798C19.9963 15.642 19.8909 15.7018 19.7841 15.7589C19.6772 15.8161 19.569 15.8706 19.4594 15.9223C19.3498 15.9742 19.239 16.0232 19.127 16.0695C19.015 16.116 18.9019 16.1595 18.7878 16.2004C18.6738 16.2413 18.5588 16.2792 18.4428 16.3145C18.3266 16.3496 18.21 16.3821 18.0924 16.4115C17.9748 16.441 17.8566 16.4674 17.7378 16.491C17.6188 16.5148 17.4994 16.5354 17.3795 16.5532C17.2598 16.5709 17.1394 16.5859 17.0188 16.5978C16.8982 16.6095 16.7773 16.6186 16.6563 16.6244C16.5352 16.6303 16.4141 16.6333 16.293 16.6333C16.1717 16.6333 16.0506 16.6301 15.9295 16.624C15.8087 16.6179 15.6878 16.609 15.5672 16.5969C15.4466 16.5849 15.3265 16.57 15.2066 16.5522C15.0869 16.5342 14.9674 16.5134 14.8487 16.4898C14.7299 16.466 14.6117 16.4393 14.4941 16.4099C14.3767 16.3802 14.2599 16.3479 14.1439 16.3126C14.028 16.2773 13.913 16.2392 13.7991 16.1983C13.6851 16.1574 13.5719 16.1139 13.46 16.0674C13.3482 16.0209 13.2375 15.9718 13.1281 15.9199C13.0184 15.868 12.9102 15.8136 12.8034 15.7565C12.6966 15.6993 12.5911 15.6397 12.4873 15.5772C12.3833 15.5148 12.2812 15.4501 12.1804 15.3828C12.0797 15.3154 11.9806 15.2456 11.8833 15.1733C11.7861 15.1011 11.6905 15.0268 11.5968 14.9499C11.5033 14.873 11.4114 14.7937 11.3216 14.7124C11.2319 14.631 11.1442 14.5476 11.0587 14.4618C10.9729 14.3762 10.8894 14.2884 10.8081 14.1986C10.7265 14.1088 10.6475 14.0172 10.5706 13.9235C10.4937 13.8297 10.4191 13.7344 10.3469 13.6371C10.2747 13.5397 10.205 13.4408 10.1377 13.34C10.0704 13.2393 10.0054 13.1369 9.94322 13.0331C9.88081 12.9291 9.82097 12.8237 9.76394 12.7169C9.70667 12.61 9.65221 12.502 9.60031 12.3924C9.54842 12.283 9.49933 12.1722 9.45305 12.0602C9.40654 11.9483 9.36282 11.8354 9.32192 11.7213C9.28101 11.6072 9.24291 11.4922 9.20785 11.3763C9.17255 11.2604 9.14006 11.1437 9.11061 11.0261C9.08092 10.9088 9.05451 10.7905 9.03067 10.6718C9.00682 10.5528 8.98602 10.4336 8.96826 10.3137C8.95026 10.1938 8.9353 10.0736 8.92338 9.95299C8.91145 9.83261 8.90234 9.71176 8.89626 9.59068C8.89018 9.4696 8.88714 9.34852 8.88691 9.22743Z" fill="white" stroke="#663366" stroke-width="0.6" mask="url(#path-1-inside-1_161_115)"/>
<path d="M29.9903 18.9572C27.7624 18.9572 25.9562 20.7458 25.9562 22.9513C25.9562 25.1587 27.7624 26.9487 29.9903 26.9487C32.2182 26.9487 34.024 25.1591 34.024 22.9513C34.024 20.7458 32.2182 18.9572 29.9903 18.9572ZM29.9903 17C33.3037 17 36 19.6705 36 22.9514C36 26.2346 33.3037 28.9038 29.9903 28.9038C26.6765 28.9038 23.9812 26.2343 23.9812 22.9514C23.9812 19.6705 26.6765 17 29.9903 17Z" fill="#E28A05"/>
<path d="M20.6469 34C21.0691 34 21.4889 33.8412 21.8108 33.5224L24.7333 30.6271C25.3768 29.9907 25.3768 28.9599 24.7333 28.321C24.0898 27.6843 23.0486 27.6843 22.4051 28.321L19.4826 31.2167C18.8391 31.8537 18.8391 32.8853 19.4826 33.5223C19.8042 33.8412 20.2244 34 20.6469 34Z" fill="#E28A05"/>
<path d="M25.3415 26.3371L23.7356 27.9268L25.1326 29.3113L26.7385 27.7216L25.3415 26.3371Z" fill="#E28A05"/>
</svg>
