<svg width="50" height="30" viewBox="0 0 50 30" fill="none" xmlns="http://www.w3.org/2000/svg">
<circle cx="15.7695" cy="15" r="12.975" fill="#FA8072" stroke="white" stroke-width="0.3"/>
<path d="M0 15.0033C0 15.2488 0.00613592 15.4938 0.0179696 15.7392C0.0302414 15.9842 0.048211 16.2288 0.0723165 16.4733C0.0964219 16.7174 0.126225 16.9611 0.162164 17.2035C0.198103 17.4463 0.240178 17.6882 0.287951 17.9289C0.336162 18.1695 0.389633 18.4092 0.449239 18.6472C0.508845 18.8852 0.574587 19.1219 0.645589 19.3568C0.717029 19.5913 0.793728 19.8244 0.876564 20.0554C0.959399 20.2868 1.04749 20.5156 1.14172 20.7422C1.23552 20.9692 1.33501 21.1932 1.43976 21.4154C1.54494 21.6371 1.65495 21.8563 1.77066 22.0728C1.88637 22.2893 2.00733 22.5028 2.13356 22.7131C2.25978 22.9235 2.39083 23.1308 2.52757 23.335C2.66388 23.5393 2.805 23.7396 2.95139 23.9368C3.09734 24.134 3.24855 24.3273 3.40414 24.5171C3.55973 24.7069 3.72014 24.8927 3.88493 25.0746C4.04972 25.2565 4.2189 25.434 4.39246 25.6075C4.56602 25.7811 4.74352 25.9503 4.92541 26.1151C5.1073 26.2799 5.29313 26.4403 5.48291 26.5959C5.67268 26.7519 5.86596 26.9027 6.06319 27.049C6.26042 27.195 6.46115 27.3366 6.66495 27.4729C6.86919 27.6092 7.0765 27.7402 7.28687 27.8664C7.49769 27.9927 7.71113 28.1136 7.9272 28.2293C8.14371 28.345 8.36286 28.4555 8.58506 28.5602C8.80684 28.6654 9.03124 28.7645 9.25783 28.8587C9.48442 28.9525 9.71364 29.041 9.94462 29.1234C10.1756 29.2063 10.4088 29.2834 10.6437 29.3544C10.8786 29.4258 11.1148 29.4911 11.3528 29.5508C11.5912 29.6104 11.8305 29.6643 12.0712 29.712C12.3118 29.7598 12.5537 29.8019 12.7965 29.8378C13.0393 29.8738 13.2826 29.904 13.5271 29.9281C13.7713 29.9522 14.0158 29.9702 14.2613 29.982C14.5063 29.9943 14.7517 30 14.9971 30C15.2426 30 15.4876 29.9943 15.733 29.982C15.978 29.9702 16.2226 29.9522 16.4671 29.9281C16.7112 29.904 16.9549 29.8738 17.1973 29.8378C17.4401 29.8019 17.682 29.7598 17.9227 29.712C18.1633 29.6643 18.403 29.6104 18.641 29.5508C18.879 29.4911 19.1157 29.4258 19.3506 29.3544C19.5851 29.2834 19.8182 29.2063 20.0492 29.1234C20.2806 29.041 20.5094 28.9525 20.736 28.8587C20.963 28.7645 21.187 28.6654 21.4092 28.5602C21.631 28.4555 21.8501 28.345 22.0666 28.2293C22.2831 28.1136 22.4966 27.9927 22.7069 27.8664C22.9173 27.7402 23.1246 27.6092 23.3289 27.4729C23.5331 27.3366 23.7334 27.195 23.9306 27.049C24.1279 26.9027 24.3211 26.7519 24.5109 26.5959C24.7007 26.4403 24.8865 26.2799 25.0684 26.1151C25.2503 25.9503 25.4278 25.7811 25.6014 25.6075C25.7749 25.434 25.9441 25.2565 26.1089 25.0746C26.2737 24.8927 26.4341 24.7069 26.5897 24.5171C26.7457 24.3273 26.8965 24.134 27.0429 23.9368C27.1888 23.7396 27.3304 23.5393 27.4667 23.335C27.603 23.1308 27.734 22.9235 27.8603 22.7131C27.9865 22.5028 28.1075 22.2893 28.2232 22.0728C28.3389 21.8563 28.4493 21.6371 28.5541 21.4154C28.6593 21.1932 28.7587 20.9692 28.8525 20.7422C28.9463 20.5156 29.0349 20.2868 29.1173 20.0554C29.2001 19.8244 29.2772 19.5913 29.3482 19.3568C29.4197 19.1219 29.485 18.8852 29.5446 18.6472C29.6042 18.4092 29.6581 18.1695 29.7059 17.9289C29.7536 17.6882 29.7957 17.4463 29.8317 17.2035C29.8676 16.9611 29.8978 16.7174 29.9219 16.4733C29.946 16.2288 29.964 15.9842 29.9758 15.7392C29.9881 15.4938 29.9943 15.2488 29.9943 15.0033C29.9943 14.7579 29.9881 14.5125 29.9758 14.2675C29.964 14.022 29.946 13.7775 29.9219 13.5333C29.8978 13.2888 29.8676 13.0455 29.8317 12.8027C29.7957 12.5599 29.7536 12.318 29.7059 12.0774C29.6581 11.8367 29.6042 11.5974 29.5446 11.359C29.485 11.121 29.4197 10.8848 29.3482 10.6499C29.2772 10.415 29.2001 10.1818 29.1173 9.95082C29.0349 9.71985 28.9463 9.49063 28.8525 9.26404C28.7587 9.03745 28.6593 8.81304 28.5541 8.59127C28.4493 8.36907 28.3389 8.14993 28.2232 7.93341C28.1075 7.71734 27.9865 7.50346 27.8603 7.29309C27.734 7.08271 27.603 6.8754 27.4667 6.67117C27.3304 6.46736 27.1888 6.26663 27.0429 6.06941C26.8965 5.87218 26.7457 5.6789 26.5897 5.48912C26.4341 5.29935 26.2737 5.11351 26.1089 4.93163C25.9441 4.74974 25.7749 4.57224 25.6014 4.39868C25.4278 4.22512 25.2503 4.05594 25.0684 3.89115C24.8865 3.72636 24.7007 3.56594 24.5109 3.41035C24.3211 3.25476 24.1279 3.10356 23.9306 2.95761C23.7334 2.81122 23.5331 2.6701 23.3289 2.53379C23.1246 2.39705 22.9173 2.266 22.7069 2.13978C22.4966 2.01355 22.2831 1.89259 22.0666 1.77688C21.8501 1.66117 21.631 1.55117 21.4092 1.44598C21.187 1.34123 20.963 1.24174 20.736 1.14751C20.5094 1.05372 20.2806 0.965623 20.0492 0.882788C19.8182 0.799953 19.5851 0.723253 19.3506 0.651814C19.1157 0.580812 18.879 0.51507 18.641 0.455464C18.403 0.395857 18.1633 0.342387 17.9227 0.294176C17.682 0.246404 17.4401 0.204329 17.1973 0.16839C16.9549 0.13245 16.7112 0.102647 16.4671 0.078542C16.2226 0.0544365 15.978 0.036467 15.733 0.0241951C15.4876 0.0123615 15.2426 0.00622559 14.9971 0.00622559C14.7517 0.00622559 14.5063 0.0127998 14.2613 0.0250717C14.0163 0.0373435 13.7717 0.0557514 13.5276 0.0798568C13.2834 0.103962 13.0398 0.134204 12.7974 0.170581C12.5546 0.206958 12.3131 0.249033 12.0725 0.296806C11.8319 0.345017 11.5926 0.398925 11.3546 0.45897C11.1166 0.518576 10.8803 0.584318 10.6454 0.655758C10.4105 0.72676 10.1778 0.803897 9.94681 0.886732C9.71583 0.969567 9.48705 1.0581 9.26046 1.15189C9.03387 1.24612 8.80947 1.34561 8.5877 1.4508C8.36592 1.55555 8.14678 1.666 7.93071 1.7817C7.7142 1.89741 7.50076 2.01837 7.29038 2.1446C7.08001 2.27082 6.8727 2.40231 6.6689 2.53861C6.4651 2.67492 6.26436 2.81605 6.06757 2.96243C5.87035 3.10882 5.67706 3.25959 5.48729 3.41518C5.29751 3.57077 5.11212 3.73118 4.93023 3.89597C4.74835 4.06076 4.57084 4.22994 4.39728 4.4035C4.22372 4.57706 4.05455 4.75456 3.88975 4.93645C3.72496 5.11834 3.56455 5.30373 3.40896 5.4935C3.25337 5.68328 3.1026 5.87656 2.95621 6.07335C2.80982 6.27058 2.6687 6.47131 2.53239 6.67511C2.39609 6.87891 2.2646 7.08622 2.13838 7.29659C2.01215 7.50697 1.89119 7.72041 1.77548 7.93692C1.65977 8.15299 1.54933 8.37213 1.44458 8.5939C1.33939 8.81567 1.2399 9.04007 1.14567 9.26667C1.05188 9.49326 0.963344 9.72204 0.880508 9.95301C0.797673 10.184 0.720535 10.4167 0.649534 10.6516C0.578094 10.8861 0.512352 11.1228 0.452745 11.3608C0.392701 11.5988 0.338792 11.8381 0.290581 12.0787C0.242808 12.3193 0.200733 12.5608 0.164356 12.8036C0.127978 13.046 0.0977368 13.2896 0.0736314 13.5338C0.0495258 13.7779 0.031118 14.0225 0.0188461 14.2675C0.00657423 14.5125 0 14.7579 0 15.0033ZM26.6616 15.0033C26.6616 15.194 26.6567 15.3846 26.6471 15.5757C26.6379 15.7664 26.6239 15.9566 26.605 16.1464C26.5866 16.3366 26.5629 16.5259 26.5349 16.7148C26.5073 16.9037 26.4744 17.0917 26.4372 17.2789C26.3999 17.466 26.3583 17.6523 26.3118 17.8373C26.2654 18.0226 26.2145 18.2063 26.1593 18.389C26.1036 18.5718 26.044 18.7528 25.9796 18.933C25.9152 19.1126 25.8464 19.2906 25.7736 19.4668C25.7004 19.6434 25.6233 19.8178 25.5413 19.9905C25.4598 20.1628 25.3739 20.3333 25.284 20.5016C25.1942 20.6699 25.1 20.836 25.0018 20.9999C24.9036 21.1634 24.8015 21.3247 24.6954 21.4833C24.5894 21.6424 24.4798 21.7984 24.3658 21.9518C24.2523 22.1048 24.1349 22.2556 24.0135 22.4028C23.8925 22.5505 23.768 22.6952 23.6396 22.8363C23.5116 22.9778 23.3801 23.1159 23.2452 23.2509C23.1102 23.3859 22.9717 23.5178 22.8301 23.6458C22.689 23.7742 22.5443 23.8987 22.3966 24.0196C22.2494 24.141 22.0986 24.2585 21.9457 24.372C21.7922 24.486 21.6362 24.5955 21.4776 24.7016C21.3185 24.8077 21.1576 24.9098 20.9937 25.008C20.8298 25.1061 20.6641 25.2004 20.4954 25.2902C20.3271 25.3801 20.1566 25.466 19.9843 25.5475C19.8117 25.6294 19.6372 25.7066 19.4606 25.7798C19.2844 25.8525 19.1065 25.9213 18.9268 25.9858C18.7471 26.0498 18.5656 26.1098 18.3829 26.1655C18.2001 26.2207 18.0165 26.2715 17.8311 26.318C17.6461 26.3644 17.4598 26.4061 17.2727 26.4433C17.0855 26.4806 16.8975 26.5135 16.7086 26.5411C16.5197 26.5691 16.3304 26.5928 16.1402 26.6112C15.9504 26.63 15.7602 26.6441 15.5695 26.6533C15.3789 26.6629 15.1878 26.6677 14.9971 26.6677C14.806 26.6677 14.6154 26.6629 14.4247 26.6533C14.2341 26.6441 14.0439 26.63 13.8537 26.6112C13.6639 26.5928 13.4741 26.5691 13.2856 26.5411C13.0967 26.5135 12.9087 26.4806 12.7216 26.4433C12.534 26.4061 12.3482 26.3644 12.1628 26.318C11.9778 26.2715 11.7937 26.2207 11.611 26.1655C11.4282 26.1098 11.2472 26.0498 11.0675 25.9858C10.8878 25.9213 10.7094 25.8525 10.5332 25.7798C10.357 25.7066 10.1826 25.6294 10.0099 25.5475C9.83724 25.466 9.66674 25.3801 9.49844 25.2902C9.33014 25.2004 9.16404 25.1061 9.00012 25.008C8.83664 24.9098 8.67535 24.8077 8.51669 24.7016C8.35804 24.5955 8.20201 24.486 8.04861 24.372C7.89521 24.2585 7.74488 24.141 7.59718 24.0196C7.44948 23.8987 7.30528 23.7742 7.16372 23.6458C7.02215 23.5178 6.88409 23.3859 6.7491 23.2509C6.61411 23.1159 6.48263 22.9778 6.35421 22.8363C6.22623 22.6952 6.10132 22.5505 5.98036 22.4028C5.85939 22.2556 5.74193 22.1048 5.62798 21.9514C5.51446 21.7984 5.40445 21.6424 5.29839 21.4833C5.19233 21.3247 5.09021 21.1634 4.99203 20.9999C4.89386 20.836 4.80006 20.6699 4.70978 20.5016C4.61993 20.3333 4.53403 20.1628 4.45251 19.9905C4.37099 19.8178 4.29341 19.6434 4.22065 19.4668C4.14746 19.2906 4.07865 19.1126 4.01466 18.933C3.95023 18.7528 3.89019 18.5718 3.83497 18.389C3.7793 18.2063 3.72846 18.0226 3.68201 17.8373C3.63599 17.6523 3.59391 17.466 3.55666 17.2789C3.5194 17.0917 3.48697 16.9037 3.45892 16.7148C3.43087 16.5259 3.40764 16.3366 3.3888 16.1464C3.36995 15.9566 3.35592 15.7664 3.34672 15.5757C3.33752 15.3846 3.3327 15.194 3.3327 15.0033C3.3327 14.8122 3.33752 14.6216 3.34672 14.4309C3.35592 14.2403 3.36995 14.0496 3.3888 13.8599C3.40764 13.6701 3.43087 13.4803 3.45892 13.2918C3.48697 13.1029 3.5194 12.9149 3.55666 12.7278C3.59391 12.5402 3.63599 12.3539 3.68201 12.169C3.72846 11.9836 3.7793 11.7999 3.83497 11.6172C3.89019 11.4344 3.95023 11.2534 4.01466 11.0737C4.07865 10.894 4.14746 10.7156 4.22065 10.5394C4.29341 10.3632 4.37099 10.1884 4.45251 10.0161C4.53403 9.84344 4.61993 9.67295 4.70978 9.50465C4.80006 9.33635 4.89386 9.17024 4.99203 9.00633C5.09021 8.84285 5.19233 8.68156 5.29839 8.5229C5.40445 8.36425 5.51446 8.20822 5.62798 8.05482C5.74193 7.90142 5.85939 7.75109 5.98036 7.60339C6.10132 7.45569 6.22623 7.31149 6.35421 7.16993C6.48263 7.02836 6.61411 6.89031 6.7491 6.75532C6.88409 6.62032 7.02215 6.48884 7.16372 6.36042C7.30528 6.23245 7.44948 6.10754 7.59718 5.98657C7.74488 5.8656 7.89521 5.74815 8.04861 5.63419C8.20201 5.52068 8.35804 5.41067 8.51669 5.30461C8.67535 5.19854 8.83664 5.09642 9.00012 4.99825C9.16404 4.90007 9.33014 4.80628 9.49844 4.71599C9.66674 4.62615 9.83724 4.54024 10.0099 4.45872C10.1826 4.3772 10.357 4.29963 10.5332 4.22687C10.7094 4.15368 10.8878 4.08487 11.0675 4.02088C11.2472 3.95645 11.4282 3.89641 11.611 3.84118C11.7937 3.78552 11.9778 3.73468 12.1628 3.68822C12.3482 3.6422 12.534 3.60013 12.7216 3.56288C12.9087 3.52562 13.0967 3.49319 13.2856 3.46514C13.4741 3.43709 13.6639 3.41386 13.8537 3.39501C14.0439 3.37617 14.2341 3.36214 14.4247 3.35294C14.6154 3.3433 14.806 3.33891 14.9971 3.33891C15.1878 3.33891 15.3784 3.34374 15.5691 3.35338C15.7597 3.36302 15.95 3.37705 16.1397 3.39633C16.3299 3.41518 16.5193 3.4384 16.7077 3.46689C16.8966 3.49494 17.0847 3.52781 17.2718 3.56507C17.459 3.60232 17.6448 3.6444 17.8302 3.69085C18.0151 3.73731 18.1988 3.78859 18.3815 3.84381C18.5643 3.89948 18.7453 3.95952 18.925 4.02395C19.1047 4.08838 19.2826 4.15719 19.4588 4.22994C19.635 4.30313 19.8095 4.38071 19.9817 4.46223C20.1544 4.54419 20.3249 4.63009 20.4932 4.71994C20.661 4.80979 20.8272 4.90402 20.9911 5.00219C21.1546 5.10037 21.3158 5.20249 21.4745 5.30855C21.6332 5.41461 21.7887 5.52462 21.9421 5.63814C22.0955 5.75209 22.2459 5.86955 22.3931 5.99051C22.5408 6.11148 22.6855 6.23595 22.8266 6.36437C22.9682 6.49235 23.1062 6.62427 23.2412 6.75882C23.3762 6.89381 23.5077 7.03231 23.6357 7.17344C23.7641 7.315 23.8886 7.45919 24.0095 7.6069C24.1309 7.75416 24.2484 7.90493 24.3619 8.05789C24.4759 8.21128 24.5854 8.36731 24.6915 8.52597C24.7975 8.68463 24.8997 8.84548 24.9978 9.00939C25.096 9.17287 25.1903 9.33898 25.2801 9.50728C25.3704 9.67558 25.4563 9.84564 25.5378 10.0183C25.6193 10.1906 25.6969 10.365 25.7701 10.5416C25.8433 10.7178 25.9121 10.8958 25.9765 11.0755C26.0405 11.2547 26.1006 11.4362 26.1562 11.6185C26.2119 11.8012 26.2627 11.9849 26.3092 12.1703C26.3556 12.3552 26.3977 12.5415 26.435 12.7286C26.4727 12.9158 26.5051 13.1034 26.5336 13.2923C26.5616 13.4812 26.5853 13.6705 26.6041 13.8603C26.623 14.0501 26.637 14.2403 26.6467 14.4309C26.6563 14.6216 26.6611 14.8122 26.6616 15.0033Z" fill="#FA8072"/>
<ellipse cx="34.3496" cy="14.9938" rx="12.1875" ry="13.125" fill="#FA8072"/>
<path d="M19.5176 14.9971C19.5176 15.2425 19.5237 15.4875 19.5355 15.733C19.5478 15.978 19.5658 16.2225 19.5899 16.4671C19.614 16.7112 19.6438 16.9549 19.6797 17.1973C19.7157 17.4401 19.7578 17.682 19.8055 17.9226C19.8537 18.1632 19.9072 18.403 19.9668 18.641C20.0264 18.879 20.0922 19.1156 20.1632 19.3505C20.2346 19.585 20.3113 19.8182 20.3941 20.0492C20.477 20.2806 20.5651 20.5094 20.6593 20.736C20.7531 20.963 20.8526 21.1869 20.9573 21.4092C21.0625 21.6309 21.1725 21.8501 21.2882 22.0666C21.4039 22.2831 21.5249 22.4965 21.6511 22.7069C21.7774 22.9173 21.9084 23.1246 22.0451 23.3288C22.1815 23.5331 22.3226 23.7334 22.469 23.9306C22.6149 24.1278 22.7661 24.3211 22.9217 24.5109C23.0773 24.7006 23.2377 24.8865 23.4025 25.0684C23.5673 25.2502 23.7365 25.4278 23.91 25.6013C24.0836 25.7749 24.2611 25.944 24.443 26.1088C24.6249 26.2736 24.8107 26.434 25.0005 26.5896C25.1903 26.7457 25.3835 26.8964 25.5808 27.0428C25.778 27.1888 25.9787 27.3303 26.1825 27.4666C26.3868 27.6029 26.5941 27.734 26.8045 27.8602C27.0153 27.9864 27.2287 28.1074 27.4448 28.2231C27.6613 28.3388 27.8804 28.4493 28.1026 28.554C28.3244 28.6592 28.5488 28.7582 28.7754 28.8525C29.002 28.9463 29.2312 29.0348 29.4622 29.1172C29.6932 29.2 29.9263 29.2772 30.1613 29.3482C30.3962 29.4196 30.6324 29.4849 30.8704 29.5445C31.1088 29.6041 31.3481 29.658 31.5887 29.7058C31.8294 29.7536 32.0713 29.7957 32.3141 29.8316C32.5569 29.8675 32.8001 29.8978 33.0447 29.9219C33.2888 29.946 33.5334 29.964 33.7788 29.9758C34.0238 29.9881 34.2693 29.9938 34.5147 29.9938C34.7601 29.9938 35.0051 29.9881 35.2506 29.9758C35.4956 29.964 35.7401 29.946 35.9847 29.9219C36.2288 29.8978 36.4725 29.8675 36.7149 29.8316C36.9577 29.7957 37.1996 29.7536 37.4402 29.7058C37.6809 29.658 37.9206 29.6041 38.1586 29.5445C38.3966 29.4849 38.6332 29.4196 38.8682 29.3482C39.1026 29.2772 39.3358 29.2 39.5668 29.1172C39.7982 29.0348 40.027 28.9463 40.2536 28.8525C40.4806 28.7582 40.7046 28.6592 40.9268 28.554C41.1485 28.4493 41.3677 28.3388 41.5842 28.2231C41.8007 28.1074 42.0141 27.9864 42.2245 27.8602C42.4349 27.734 42.6422 27.6029 42.8464 27.4666C43.0507 27.3303 43.251 27.1888 43.4482 27.0428C43.6454 26.8964 43.8387 26.7457 44.0285 26.5896C44.2183 26.434 44.4041 26.2736 44.586 26.1088C44.7679 25.944 44.9454 25.7749 45.1189 25.6013C45.2925 25.4278 45.4617 25.2502 45.6265 25.0684C45.7913 24.8865 45.9517 24.7006 46.1073 24.5109C46.2633 24.3211 46.4141 24.1278 46.5604 23.9306C46.7064 23.7334 46.848 23.5331 46.9843 23.3288C47.1206 23.1246 47.2516 22.9173 47.3778 22.7069C47.5041 22.4965 47.625 22.2831 47.7407 22.0666C47.8564 21.8501 47.9669 21.6309 48.0716 21.4092C48.1768 21.1869 48.2763 20.963 48.3701 20.736C48.4639 20.5094 48.5524 20.2806 48.6348 20.0492C48.7177 19.8182 48.7948 19.585 48.8658 19.3505C48.9372 19.1156 49.0026 18.879 49.0622 18.641C49.1218 18.403 49.1757 18.1632 49.2234 17.9226C49.2712 17.682 49.3133 17.4401 49.3492 17.1973C49.3852 16.9549 49.4154 16.7112 49.4395 16.4671C49.4636 16.2225 49.4816 15.978 49.4934 15.733C49.5057 15.4875 49.5118 15.2425 49.5118 14.9971C49.5118 14.7517 49.5057 14.5062 49.4934 14.2612C49.4816 14.0158 49.4636 13.7712 49.4395 13.5271C49.4154 13.2825 49.3852 13.0393 49.3492 12.7965C49.3133 12.5537 49.2712 12.3118 49.2234 12.0711C49.1757 11.8305 49.1218 11.5912 49.0622 11.3528C49.0026 11.1148 48.9372 10.8786 48.8658 10.6437C48.7948 10.4087 48.7177 10.1756 48.6348 9.9446C48.5524 9.71362 48.4639 9.4844 48.3701 9.25781C48.2763 9.03122 48.1768 8.80682 48.0716 8.58505C47.9669 8.36284 47.8564 8.1437 47.7407 7.92719C47.625 7.71112 47.5041 7.49724 47.3778 7.28686C47.2516 7.07649 47.1206 6.86918 46.9843 6.66494C46.848 6.46114 46.7064 6.26041 46.5604 6.06318C46.4141 5.86595 46.2633 5.67267 46.1073 5.4829C45.9517 5.29312 45.7913 5.10729 45.6265 4.9254C45.4617 4.74352 45.2925 4.56601 45.1189 4.39245C44.9454 4.21889 44.7679 4.04972 44.586 3.88492C44.4041 3.72013 44.2183 3.55972 44.0285 3.40413C43.8387 3.24854 43.6454 3.09733 43.4482 2.95138C43.251 2.805 43.0507 2.66387 42.8464 2.52757C42.6422 2.39082 42.4349 2.25978 42.2245 2.13355C42.0141 2.00733 41.8007 1.88636 41.5842 1.77066C41.3677 1.65495 41.1485 1.54494 40.9268 1.43975C40.7046 1.335 40.4806 1.23551 40.2536 1.14128C40.027 1.04749 39.7982 0.959397 39.5668 0.876562C39.3358 0.793727 39.1026 0.717028 38.8682 0.645588C38.6332 0.574586 38.3966 0.508844 38.1586 0.449238C37.9206 0.389632 37.6809 0.336161 37.4402 0.287951C37.1996 0.240178 36.9577 0.198103 36.7149 0.162164C36.4725 0.126225 36.2288 0.0964219 35.9847 0.0723164C35.7401 0.0482109 35.4956 0.0302414 35.2506 0.0179695C35.0051 0.00613591 34.7601 0 34.5147 0C34.2693 0 34.0238 0.00657422 33.7788 0.0188461C33.5338 0.031118 33.2893 0.0495258 33.0451 0.0736312C32.801 0.0977367 32.5573 0.127978 32.315 0.164355C32.0722 0.200733 31.8307 0.242808 31.5901 0.29058C31.3494 0.338791 31.1101 0.3927 30.8721 0.452744C30.6342 0.512351 30.3979 0.578093 30.163 0.649532C29.9281 0.720534 29.6954 0.797671 29.4644 0.880507C29.2334 0.963342 29.0046 1.05187 28.778 1.14567C28.5514 1.2399 28.327 1.33939 28.1053 1.44457C27.8835 1.54932 27.6644 1.65977 27.4483 1.77548C27.2318 1.89118 27.0183 2.01215 26.808 2.13837C26.5976 2.2646 26.3903 2.39608 26.1865 2.53239C25.9827 2.66869 25.7819 2.80982 25.5852 2.95621C25.3879 3.10259 25.1946 3.25336 25.0049 3.40895C24.8151 3.56454 24.6297 3.72495 24.4478 3.88974C24.2659 4.05454 24.0884 4.22371 23.9149 4.39727C23.7413 4.57083 23.5721 4.74834 23.4073 4.93022C23.2425 5.11211 23.0821 5.2975 22.9265 5.48728C22.7709 5.67705 22.6202 5.87034 22.4738 6.06712C22.3274 6.26435 22.1863 6.46508 22.05 6.66888C21.9137 6.87268 21.7822 7.07999 21.656 7.29037C21.5297 7.50074 21.4088 7.71418 21.2931 7.9307C21.1774 8.14677 21.0669 8.36591 20.9622 8.58768C20.857 8.80945 20.7575 9.03385 20.6632 9.26044C20.5695 9.48703 20.4809 9.71581 20.3981 9.94679C20.3153 10.1778 20.2381 10.4105 20.1671 10.6454C20.0957 10.8799 20.0299 11.1166 19.9703 11.3545C19.9103 11.5925 19.8564 11.8318 19.8082 12.0725C19.7604 12.3131 19.7183 12.5546 19.6819 12.7974C19.6456 13.0397 19.6153 13.2834 19.5912 13.5275C19.5671 13.7717 19.5487 14.0162 19.5364 14.2612C19.5242 14.5062 19.5176 14.7517 19.5176 14.9971ZM46.1791 14.9971C46.1791 15.1878 46.1743 15.3784 46.1647 15.5695C46.1555 15.7601 46.1414 15.9504 46.1226 16.1401C46.1042 16.3304 46.0805 16.5197 46.0525 16.7086C46.0249 16.8975 45.992 17.0855 45.9547 17.2727C45.9175 17.4598 45.8758 17.6461 45.8294 17.831C45.7829 18.0164 45.7321 18.2001 45.6769 18.3828C45.6212 18.5656 45.5616 18.7466 45.4972 18.9267C45.4327 19.1064 45.3639 19.2844 45.2912 19.4606C45.218 19.6372 45.1409 19.8116 45.0589 19.9843C44.9774 20.1565 44.8915 20.327 44.8016 20.4953C44.7118 20.6636 44.6175 20.8297 44.5194 20.9937C44.4212 21.1571 44.3191 21.3184 44.213 21.4771C44.1069 21.6362 43.9974 21.7922 43.8834 21.9456C43.7699 22.0986 43.6524 22.2493 43.531 22.3966C43.4101 22.5443 43.2856 22.6889 43.1572 22.8301C43.0292 22.9716 42.8977 23.1097 42.7627 23.2447C42.6277 23.3797 42.4892 23.5116 42.3477 23.6396C42.2066 23.768 42.0619 23.8925 41.9142 24.0134C41.767 24.1348 41.6162 24.2523 41.4632 24.3658C41.3098 24.4797 41.1538 24.5893 40.9951 24.6954C40.836 24.8014 40.6752 24.9036 40.5113 25.0017C40.3474 25.0999 40.1817 25.1941 40.013 25.284C39.8447 25.3738 39.6742 25.4597 39.5019 25.5413C39.3292 25.6232 39.1548 25.7004 38.9782 25.7736C38.802 25.8463 38.624 25.9151 38.4443 25.9795C38.2646 26.0435 38.0832 26.1036 37.9004 26.1592C37.7177 26.2145 37.534 26.2653 37.3486 26.3118C37.1637 26.3582 36.9774 26.3999 36.7903 26.4371C36.6031 26.4744 36.4151 26.5072 36.2262 26.5348C36.0373 26.5629 35.848 26.5866 35.6577 26.605C35.468 26.6238 35.2778 26.6378 35.0871 26.647C34.8965 26.6567 34.7054 26.6615 34.5147 26.6615C34.3236 26.6615 34.133 26.6567 33.9423 26.647C33.7517 26.6378 33.5614 26.6238 33.3712 26.605C33.1815 26.5866 32.9917 26.5629 32.8032 26.5348C32.6143 26.5072 32.4263 26.4744 32.2391 26.4371C32.0516 26.3999 31.8657 26.3582 31.6803 26.3118C31.4954 26.2653 31.3113 26.2145 31.1285 26.1592C30.9458 26.1036 30.7648 26.0435 30.5851 25.9795C30.4054 25.9151 30.227 25.8463 30.0508 25.7736C29.8746 25.7004 29.7002 25.6232 29.5275 25.5413C29.3548 25.4597 29.1843 25.3738 29.016 25.284C28.8477 25.1941 28.6816 25.0999 28.5177 25.0017C28.3542 24.9036 28.1929 24.8014 28.0343 24.6954C27.8756 24.5893 27.7196 24.4797 27.5662 24.3658C27.4128 24.2523 27.2625 24.1348 27.1148 24.0134C26.9671 23.8925 26.8229 23.768 26.6813 23.6396C26.5397 23.5116 26.4017 23.3797 26.2667 23.2447C26.1317 23.1097 26.0002 22.9716 25.8718 22.8301C25.7438 22.6889 25.6189 22.5443 25.4979 22.3966C25.377 22.2493 25.2595 22.0986 25.1456 21.9452C25.032 21.7922 24.922 21.6362 24.816 21.4771C24.7099 21.3184 24.6078 21.1571 24.5096 20.9937C24.4114 20.8297 24.3176 20.6636 24.2274 20.4953C24.1375 20.327 24.0516 20.1565 23.9701 19.9843C23.8886 19.8116 23.811 19.6372 23.7382 19.4606C23.665 19.2844 23.5962 19.1064 23.5322 18.9267C23.4678 18.7466 23.4078 18.5656 23.3525 18.3828C23.2969 18.2001 23.246 18.0164 23.1996 17.831C23.1536 17.6461 23.1115 17.4598 23.0742 17.2727C23.037 17.0855 23.0045 16.8975 22.9765 16.7086C22.9484 16.5197 22.9252 16.3304 22.9064 16.1401C22.8875 15.9504 22.8735 15.7601 22.8643 15.5695C22.8551 15.3784 22.8503 15.1878 22.8503 14.9971C22.8503 14.806 22.8551 14.6154 22.8643 14.4247C22.8735 14.2341 22.8875 14.0434 22.9064 13.8536C22.9252 13.6638 22.9484 13.4741 22.9765 13.2856C23.0045 13.0967 23.037 12.9087 23.0742 12.7215C23.1115 12.534 23.1536 12.3477 23.1996 12.1627C23.246 11.9773 23.2969 11.7937 23.3525 11.6109C23.4078 11.4282 23.4678 11.2472 23.5322 11.0675C23.5962 10.8878 23.665 10.7094 23.7382 10.5332C23.811 10.357 23.8886 10.1821 23.9701 10.0099C24.0516 9.83722 24.1375 9.66673 24.2274 9.49843C24.3176 9.33013 24.4114 9.16402 24.5096 9.0001C24.6078 8.83662 24.7099 8.67533 24.816 8.51668C24.922 8.35802 25.032 8.20199 25.1456 8.04859C25.2595 7.89519 25.377 7.74486 25.4979 7.59716C25.6189 7.44946 25.7438 7.30527 25.8718 7.1637C26.0002 7.02214 26.1317 6.88408 26.2667 6.74909C26.4017 6.6141 26.5397 6.48261 26.6813 6.3542C26.8229 6.22622 26.9671 6.10131 27.1148 5.98034C27.2625 5.85938 27.4128 5.74192 27.5662 5.62797C27.7196 5.51445 27.8756 5.40444 28.0343 5.29838C28.1929 5.19232 28.3542 5.0902 28.5177 4.99202C28.6816 4.89385 28.8477 4.80005 29.016 4.70977C29.1843 4.61992 29.3548 4.53402 29.5275 4.4525C29.7002 4.37098 29.8746 4.2934 30.0508 4.22065C30.227 4.14745 30.4054 4.07864 30.5851 4.01465C30.7648 3.95023 30.9458 3.89018 31.1285 3.83496C31.3113 3.7793 31.4954 3.72846 31.6803 3.682C31.8657 3.63598 32.0516 3.5939 32.2391 3.55665C32.4263 3.5194 32.6143 3.48696 32.8032 3.45891C32.9917 3.43086 33.1815 3.40763 33.3712 3.38879C33.5614 3.36994 33.7517 3.35592 33.9423 3.34671C34.133 3.33707 34.3236 3.33269 34.5147 3.33269C34.7054 3.33269 34.896 3.33751 35.0867 3.34715C35.2773 3.35679 35.4675 3.37082 35.6573 3.3901C35.8475 3.40895 36.0369 3.43218 36.2253 3.46067C36.4142 3.48872 36.6022 3.52159 36.7894 3.55884C36.9765 3.5961 37.1624 3.63817 37.3478 3.68463C37.5327 3.73109 37.7164 3.78237 37.8991 3.83759C38.0819 3.89325 38.2629 3.95329 38.4426 4.01772C38.6223 4.08215 38.8002 4.15096 38.9764 4.22371C39.1526 4.29691 39.327 4.37448 39.4993 4.456C39.672 4.53796 39.8425 4.62387 40.0108 4.71371C40.1786 4.80356 40.3447 4.89779 40.5086 4.99597C40.6721 5.09414 40.8334 5.19626 40.9921 5.30232C41.1507 5.40839 41.3063 5.5184 41.4597 5.63191C41.6131 5.74586 41.7635 5.86332 41.9107 5.98429C42.0584 6.10526 42.203 6.22973 42.3442 6.35814C42.4857 6.48612 42.6238 6.61804 42.7588 6.7526C42.8938 6.88759 43.0253 7.02608 43.1532 7.16721C43.2817 7.30877 43.4061 7.45297 43.5271 7.60067C43.6485 7.74793 43.766 7.8987 43.8795 8.05166C43.9934 8.20506 44.103 8.36109 44.2091 8.51974C44.3151 8.6784 44.4172 8.83925 44.5154 9.00317C44.6136 9.16665 44.7078 9.33276 44.7977 9.50106C44.888 9.66936 44.9739 9.83941 45.0554 10.0121C45.1369 10.1843 45.2145 10.3588 45.2877 10.5354C45.3609 10.7116 45.4297 10.8895 45.4941 11.0692C45.5581 11.2485 45.6181 11.4299 45.6738 11.6123C45.7295 11.795 45.7803 11.9787 45.8268 12.1641C45.8732 12.349 45.9153 12.5353 45.9525 12.7224C45.9902 12.9096 46.0227 13.0972 46.0512 13.2861C46.0792 13.475 46.1029 13.6643 46.1217 13.8541C46.1406 14.0438 46.1546 14.2341 46.1642 14.4247C46.1739 14.6154 46.1787 14.806 46.1791 14.9971Z" fill="#FA8072"/>
<path d="M22.6436 7.5V12.499H17.6445V15.8317H22.6436V20.8307H25.9762V15.8317H30.9753V12.499H25.9762V7.5H22.6436Z" fill="white"/>
</svg>
