<svg width="38" height="35" viewBox="0 0 38 35" fill="none" xmlns="http://www.w3.org/2000/svg">
<path d="M30.0806 27.5282C30.0806 29.7715 30.0806 31.9804 30.0806 34.2143C30.0806 34.7783 29.869 35.0009 29.3097 35.0009C24.244 35.0009 19.1782 35.0009 14.1124 35.0009C12.1932 35.0009 10.274 35.0009 8.35471 35.0009C7.71705 35.0009 7.51729 34.8049 7.51651 34.1597C7.51651 31.9289 7.51651 29.7395 7.51651 27.5032C6.08609 27.5032 4.67211 27.5087 3.24325 27.5032C2.81561 27.505 2.39186 27.422 1.99661 27.2592C1.60136 27.0964 1.24247 26.857 0.940767 26.5547C0.639065 26.2525 0.400557 25.8936 0.239083 25.4988C0.0776096 25.1039 -0.00361437 24.681 0.000123377 24.2546C0.000123377 20.596 0.000123377 16.9379 0.000123377 13.2803C0.000123377 11.4236 1.44386 10.0059 3.30592 10.0067C13.6064 10.0067 23.9084 10.0262 34.2081 9.98952C36.1712 9.98327 37.6549 11.6611 37.6244 13.3857C37.5586 16.9897 37.6071 20.5968 37.6071 24.2023C37.6071 26.0964 36.1971 27.5032 34.2951 27.5063C32.885 27.5251 31.4851 27.4665 30.0806 27.5282ZM30.0853 26.2511C31.5345 26.2511 32.9304 26.2511 34.3256 26.2511C35.626 26.2511 36.3475 25.5481 36.3475 24.2601C36.3475 20.603 36.3475 16.9457 36.3475 13.2881C36.3475 11.9563 35.6573 11.2572 34.3233 11.2572C23.9202 11.2572 13.5168 11.2572 3.11321 11.2572C2.03765 11.2572 1.26369 11.9954 1.26134 13.0616C1.25246 16.8629 1.25403 20.6642 1.26604 24.4655C1.26604 25.4677 1.97734 26.216 2.97848 26.2386C4.47784 26.2175 6.06258 26.3511 7.52199 26.1824V22.3745C7.52199 21.3474 7.61208 21.2552 8.62497 21.2552H29.1053C29.9278 21.2552 30.0876 21.4114 30.0868 22.2292C30.086 23.5516 30.086 24.8795 30.086 26.2511H30.0853ZM8.79104 33.7215H28.8076V22.5284H8.79104V33.7215Z" fill="white"/>
<path d="M28.8234 6.2574C22.5846 6.09259 23.9665 7.53215 23.8137 1.28965H8.77312C8.77312 3.53607 8.77312 5.78224 8.77312 8.02814C8.77312 8.60537 8.28274 8.95217 7.84954 8.66082C7.76065 8.59286 7.68689 8.50722 7.63295 8.40933C7.57901 8.31144 7.54606 8.20345 7.53619 8.09219C7.51582 5.62003 7.52131 3.14787 7.52836 0.671808C7.52836 0.203152 7.78843 0.00241039 8.33914 0.00241039C13.6762 0.0117835 19.0141 -0.0147725 24.3511 0.0133468C24.591 0.0270804 24.8186 0.124067 24.9943 0.287506C26.6017 1.86766 28.1873 3.47046 29.7892 5.05217C29.8896 5.14267 29.9687 5.25415 30.0208 5.37864C30.0729 5.50313 30.0968 5.63757 30.0908 5.77234C29.9404 6.51126 30.5193 8.73503 29.4759 8.75222C28.4144 8.71941 28.944 7.00257 28.8234 6.2574ZM27.7901 4.99672L25.1016 2.26914V4.99672H27.7901Z" fill="white"/>
<path d="M8.79102 33.7214V22.5283H28.8076V33.7214H8.79102ZM18.8408 25.0028C16.5573 25.0028 14.273 24.9974 11.9887 25.0028C10.9453 25.0106 11.1356 26.376 12.078 26.2596C16.5808 26.251 21.0867 26.2596 25.5871 26.2526C26.0572 26.2526 26.3486 25.98 26.3188 25.5847C26.2898 25.2098 26.0149 25.0036 25.5354 25.0036L18.8408 25.0028ZM18.7625 28.756C21.0337 28.756 23.3055 28.756 25.5777 28.756C26.5546 28.8177 26.5734 27.4578 25.5973 27.5062C21.082 27.5062 16.5667 27.5062 12.0514 27.5062C11.5626 27.5062 11.279 27.7491 11.2837 28.1428C11.2884 28.5365 11.572 28.7575 12.071 28.7575C14.2994 28.7575 16.5294 28.757 18.7609 28.756H18.7625ZM18.8024 31.2555H25.4955C26.0258 31.2555 26.3165 31.0383 26.3235 30.6392C26.3306 30.24 26.0384 30.001 25.5182 30.001C21.0269 30.001 16.5375 30.001 12.0498 30.001C11.5618 30.001 11.2751 30.2424 11.2813 30.6353C11.2876 31.0282 11.5688 31.2523 12.0647 31.2523C14.313 31.2555 16.5583 31.2565 18.8009 31.2555H18.8024Z" fill="#E0D8CC"/>
<path d="M2.50684 15.0119C2.66978 11.7477 7.3449 11.7454 7.52037 15.0002C7.36135 18.2519 2.67369 18.2769 2.50684 15.0119ZM4.98383 16.2515C6.65162 16.3679 6.70019 13.7215 5.06217 13.7598C3.37715 13.62 3.31448 16.3077 4.98383 16.2515Z" fill="white"/>
<path d="M18.8408 25.0028H25.537C26.0148 25.0028 26.2898 25.209 26.3204 25.5839C26.3501 25.9792 26.0595 26.2502 25.5887 26.2518C21.0859 26.2604 16.58 26.2518 12.0796 26.2588C11.145 26.376 10.939 25.009 11.9903 25.002C14.273 24.9973 16.5573 25.0051 18.8408 25.0028Z" fill="#663366"/>
<path d="M18.761 28.756C16.5289 28.756 14.2974 28.756 12.0664 28.756C11.5674 28.756 11.283 28.5302 11.2791 28.1412C11.2752 27.7523 11.558 27.5054 12.0468 27.5046C16.5621 27.5046 21.0774 27.5046 25.5927 27.5046C26.5664 27.457 26.5516 28.8169 25.5731 28.7544C23.3019 28.7544 21.0301 28.7544 18.7579 28.7544L18.761 28.756Z" fill="#663366"/>
<path d="M18.8009 31.2555C16.5552 31.2555 14.3096 31.2555 12.0639 31.2555C11.5665 31.2555 11.2853 31.0305 11.2806 30.6384C11.2759 30.2463 11.561 30.0049 12.0491 30.0042C16.5403 30.0042 21.0298 30.0042 25.5174 30.0042C26.0376 30.0042 26.3298 30.2385 26.3227 30.6423C26.3157 31.0461 26.0251 31.2586 25.4947 31.2586H18.8009V31.2555Z" fill="#663366"/>
</svg>
