<svg width="20" height="20" viewBox="0 0 20 20" fill="none" xmlns="http://www.w3.org/2000/svg">
<g filter="url(#filter0_i_73_2943)">
<path d="M18.5273 8.90083C18.4179 8.90083 18.3218 8.82114 18.3046 8.70942C17.7445 5.07426 14.9257 2.25551 11.2898 1.69536C11.1671 1.67661 11.0827 1.56098 11.1015 1.43833C11.1202 1.31567 11.2351 1.23129 11.3585 1.25004C13.2241 1.53676 14.9195 2.3977 16.2601 3.73911C17.6015 5.08051 18.4624 6.77583 18.7499 8.64067C18.7687 8.76411 18.6843 8.87895 18.5616 8.8977C18.5499 8.90004 18.5382 8.90083 18.5273 8.90083Z" fill="#51A133"/>
<path d="M1.47254 8.90066C1.4616 8.90066 1.44988 8.89988 1.43816 8.89754C1.31472 8.87879 1.23035 8.76394 1.24988 8.64051C1.53738 6.77566 2.39832 5.08035 3.73972 3.73894C5.08035 2.39754 6.77566 1.5366 8.64129 1.24988C8.76473 1.23035 8.87957 1.31472 8.89832 1.43816C8.91707 1.56082 8.83269 1.67644 8.71004 1.69519C5.0741 2.25535 2.25535 5.0741 1.69519 8.70926C1.67801 8.82097 1.58191 8.90066 1.47254 8.90066Z" fill="#51A133"/>
<path d="M8.67566 18.753C8.66394 18.753 8.65223 18.7523 8.64051 18.7499C6.77566 18.4624 5.08035 17.6015 3.73894 16.2601C2.39754 14.9195 1.53738 13.2241 1.24988 11.3585C1.23035 11.2359 1.31472 11.1202 1.43816 11.1015C1.5616 11.0827 1.67644 11.1671 1.69519 11.2898C2.25535 14.9257 5.0741 17.7445 8.70926 18.3046C8.83269 18.3234 8.91707 18.439 8.89754 18.5616C8.88035 18.6734 8.78426 18.753 8.67566 18.753Z" fill="#51A133"/>
<path d="M11.3241 18.7531C11.2148 18.7531 11.1187 18.6734 11.1015 18.5617C11.0827 18.439 11.1671 18.3234 11.2898 18.3046C14.9257 17.7445 17.7445 14.9257 18.3046 11.2906C18.3234 11.1671 18.4382 11.0828 18.5616 11.1023C18.6843 11.121 18.7687 11.2359 18.7499 11.3593C18.4624 13.2242 17.6015 14.9195 16.2601 16.2609C14.9187 17.6023 13.2241 18.4632 11.3585 18.75C11.3468 18.7523 11.3351 18.7531 11.3241 18.7531Z" fill="#51A133"/>
<path d="M11.8773 8.12266L10 0L8.12266 8.12266L0 10L8.12266 11.8773L10 20L11.8773 11.8773L20 10L11.8773 8.12266Z" fill="#51A133"/>
<path d="M7.74668 7.74692L7.92559 6.97349L5.38965 5.38989L6.97324 7.92583L7.74668 7.74692Z" fill="#51A133"/>
<path d="M12.2531 7.74692L13.0266 7.92583L14.6102 5.38989L12.0742 6.97349L12.2531 7.74692Z" fill="#51A133"/>
<path d="M12.2531 12.2531L12.0742 13.0266L14.6102 14.6102L13.0266 12.0742L12.2531 12.2531Z" fill="#51A133"/>
<path d="M7.74668 12.2531L6.97324 12.0742L5.38965 14.6102L7.92559 13.0266L7.74668 12.2531Z" fill="#51A133"/>
</g>
<defs>
<filter id="filter0_i_73_2943" x="0" y="-4" width="20" height="24" filterUnits="userSpaceOnUse" color-interpolation-filters="sRGB">
<feFlood flood-opacity="0" result="BackgroundImageFix"/>
<feBlend mode="normal" in="SourceGraphic" in2="BackgroundImageFix" result="shape"/>
<feColorMatrix in="SourceAlpha" type="matrix" values="0 0 0 0 0 0 0 0 0 0 0 0 0 0 0 0 0 0 127 0" result="hardAlpha"/>
<feOffset dy="-4"/>
<feGaussianBlur stdDeviation="2"/>
<feComposite in2="hardAlpha" operator="arithmetic" k2="-1" k3="1"/>
<feColorMatrix type="matrix" values="0 0 0 0 0 0 0 0 0 0 0 0 0 0 0 0 0 0 0.25 0"/>
<feBlend mode="normal" in2="shape" result="effect1_innerShadow_73_2943"/>
</filter>
</defs>
</svg>
