<svg width="27" height="18" viewBox="0 0 27 18" fill="none" xmlns="http://www.w3.org/2000/svg">
<path d="M13.8215 2.41194L13.8107 2.42062C12.4624 1.43308 10.7993 0.85 9 0.85C4.4989 0.85 0.85 4.49901 0.85 9C0.85 13.5011 4.49901 17.15 9 17.15C10.8025 17.15 12.4683 16.5648 13.8179 15.5741L13.8215 15.5771L13.8249 15.5743C15.1745 16.5649 16.8402 17.15 18.6426 17.15C23.1437 17.15 26.7926 13.501 26.7926 9C26.7926 4.49875 23.1436 0.85 18.6426 0.85C16.8434 0.85 15.1803 1.43304 13.8321 2.42048L13.8215 2.41194ZM14.5663 14.9531C16.0704 13.546 17.041 11.5756 17.1414 9.37832C17.1473 9.25099 17.1503 9.12308 17.1503 8.99469C17.1503 6.70369 16.1989 4.56859 14.5699 3.04431C15.729 2.25027 17.1315 1.78574 18.6426 1.78574C22.6268 1.78574 25.8566 5.01537 25.8566 8.99982C25.8566 12.9843 22.6269 16.2143 18.6426 16.2143C17.1299 16.2143 15.726 15.7487 14.5663 14.9531ZM10.496 8.76152C10.4937 8.84073 10.4926 8.92023 10.4926 9C10.4926 11.3489 11.4863 13.4658 13.0763 14.9531C11.9166 15.7487 10.5127 16.2143 9 16.2143C5.01578 16.2143 1.78593 12.9841 1.78593 8.99982C1.78593 5.01558 5.01563 1.78574 9 1.78574C10.5112 1.78574 11.9139 2.25032 13.0729 3.04445C11.4995 4.51698 10.5582 6.5595 10.496 8.76152ZM13.3899 10.3077L11.9158 8.56592L12.0812 8.43189L13.283 9.85203L13.3945 9.98369L13.5094 9.85507L15.4592 7.67291L15.6207 7.81111L13.3899 10.3077Z" fill="#FA8072" stroke="#FA8072" stroke-width="0.3"/>
</svg>
