<svg width="19" height="18" viewBox="0 0 19 18" fill="none" xmlns="http://www.w3.org/2000/svg">
<g filter="url(#filter0_i_73_2933)">
<path d="M18.3907 2.94881L15.4935 0.134264C15.404 0.0481857 15.284 0 15.159 0C15.0339 0 14.9139 0.0481857 14.8244 0.134264L2.29973 12.3013C2.29166 12.3092 2.28475 12.3172 2.27725 12.3257C2.22435 12.3709 2.1824 12.4272 2.1545 12.4904L0.0370844 17.3618C0.000582592 17.446 -0.00926335 17.5391 0.00883634 17.6289C0.026936 17.7187 0.0721368 17.801 0.138517 17.865C0.205572 17.9299 0.290521 17.9739 0.382763 17.9914C0.475006 18.009 0.570458 17.9994 0.657208 17.9639L5.67123 15.9071C5.73601 15.88 5.79388 15.839 5.84066 15.7872C5.84952 15.7803 5.85799 15.7729 5.86602 15.7651L18.3907 3.59862C18.4346 3.5563 18.4695 3.50576 18.4933 3.44997C18.5171 3.39417 18.5294 3.33425 18.5294 3.27372C18.5294 3.21318 18.5171 3.15326 18.4933 3.09746C18.4695 3.04167 18.4346 2.99113 18.3907 2.94881ZM1.3609 16.6779L2.75215 13.4765L4.65401 15.326L1.3609 16.6779Z" fill="#0565D5"/>
</g>
<defs>
<filter id="filter0_i_73_2933" x="0" y="-4" width="18.5293" height="22" filterUnits="userSpaceOnUse" color-interpolation-filters="sRGB">
<feFlood flood-opacity="0" result="BackgroundImageFix"/>
<feBlend mode="normal" in="SourceGraphic" in2="BackgroundImageFix" result="shape"/>
<feColorMatrix in="SourceAlpha" type="matrix" values="0 0 0 0 0 0 0 0 0 0 0 0 0 0 0 0 0 0 127 0" result="hardAlpha"/>
<feOffset dy="-4"/>
<feGaussianBlur stdDeviation="2"/>
<feComposite in2="hardAlpha" operator="arithmetic" k2="-1" k3="1"/>
<feColorMatrix type="matrix" values="0 0 0 0 0 0 0 0 0 0 0 0 0 0 0 0 0 0 0.25 0"/>
<feBlend mode="normal" in2="shape" result="effect1_innerShadow_73_2933"/>
</filter>
</defs>
</svg>
