<svg width="21" height="20" viewBox="0 0 21 20" fill="none" xmlns="http://www.w3.org/2000/svg">
<g filter="url(#filter0_i_73_2953)">
<path d="M10.0164 15.0291C10.1583 15.0291 10.2877 14.9581 10.367 14.8372C10.5548 14.545 15.0246 7.63775 15.0246 5.00825C15.0246 2.24532 12.7792 0 10.0163 0C7.25342 0 5.00806 2.24536 5.00806 5.00825C5.00806 7.63767 9.47801 14.545 9.66558 14.8372C9.74491 14.9581 9.87434 15.0291 10.0162 15.0291H10.0164ZM7.11573 4.97504C7.11573 3.37657 8.41796 2.07434 10.0164 2.07434C11.6149 2.07434 12.9171 3.37657 12.9171 4.97504C12.9171 6.57351 11.6149 7.87559 10.0164 7.87559C8.41796 7.87559 7.11573 6.57351 7.11573 4.97504Z" fill="#E3AC5A"/>
<path d="M19.72 13.3348L14.4575 11.9615C14.4607 11.9979 14.4699 12.033 14.4699 12.0699V17.913C14.4699 18.17 14.3874 18.4115 14.249 18.6143L19.5115 19.9874C19.545 19.9957 19.5825 20 19.6158 20C19.7077 20 19.7994 19.9708 19.8704 19.9123C19.9747 19.833 20.0332 19.7121 20.0332 19.5826V13.7396C20.0332 13.5517 19.9039 13.3849 19.7201 13.3348L19.72 13.3348Z" fill="#E3AC5A"/>
<path d="M5.78454 13.0376L0.521671 11.6653C0.396475 11.636 0.262953 11.661 0.162738 11.7403C0.058434 11.8197 0 11.9408 0 12.0701V17.9131C0 18.105 0.129433 18.2678 0.313063 18.3179L5.57555 19.6911C5.57237 19.6546 5.56313 19.6193 5.56313 19.5824V13.7394C5.56313 13.482 5.64579 13.2404 5.78431 13.0376L5.78454 13.0376Z" fill="#E3AC5A"/>
<path d="M13.2466 11.663C12.3836 13.2123 11.5299 14.5727 11.0818 15.2694C10.8311 15.6517 10.4395 15.8641 10.0164 15.8641C9.59373 15.8641 9.20208 15.6517 8.96804 15.2955C8.66058 14.8182 8.16753 14.0368 7.61283 13.101L6.71101 13.3347C6.52738 13.3848 6.39795 13.5518 6.39795 13.7395V19.5825C6.39795 19.712 6.46047 19.8329 6.56069 19.9123C6.63578 19.9707 6.72767 19.9999 6.81532 19.9999C6.85286 19.9999 6.88632 19.9957 6.92386 19.9873L13.3219 18.3179C13.5055 18.2678 13.6349 18.105 13.6349 17.9131V12.0701C13.6349 11.9406 13.5724 11.8197 13.4722 11.7403C13.4053 11.6895 13.3264 11.6692 13.2465 11.663L13.2466 11.663Z" fill="#E3AC5A"/>
</g>
<defs>
<filter id="filter0_i_73_2953" x="0" y="-4" width="20.0332" height="24" filterUnits="userSpaceOnUse" color-interpolation-filters="sRGB">
<feFlood flood-opacity="0" result="BackgroundImageFix"/>
<feBlend mode="normal" in="SourceGraphic" in2="BackgroundImageFix" result="shape"/>
<feColorMatrix in="SourceAlpha" type="matrix" values="0 0 0 0 0 0 0 0 0 0 0 0 0 0 0 0 0 0 127 0" result="hardAlpha"/>
<feOffset dy="-4"/>
<feGaussianBlur stdDeviation="2"/>
<feComposite in2="hardAlpha" operator="arithmetic" k2="-1" k3="1"/>
<feColorMatrix type="matrix" values="0 0 0 0 0 0 0 0 0 0 0 0 0 0 0 0 0 0 0.25 0"/>
<feBlend mode="normal" in2="shape" result="effect1_innerShadow_73_2953"/>
</filter>
</defs>
</svg>
