<svg width="20" height="18" viewBox="0 0 20 18" fill="none" xmlns="http://www.w3.org/2000/svg">
<circle cx="5.86028" cy="12.0586" r="4.81536" fill="#663366"/>
<path d="M0 11.8545C0 11.9515 0.00242434 12.0483 0.00709988 12.1453C0.0119486 12.2421 0.0190484 12.3387 0.0285727 12.4353C0.0380969 12.5318 0.0498723 12.6281 0.0640721 12.7238C0.0782718 12.8198 0.0948959 12.9153 0.113771 13.0104C0.13282 13.1055 0.153946 13.2002 0.177497 13.2942C0.201048 13.3883 0.227023 13.4818 0.255076 13.5746C0.283302 13.6672 0.313607 13.7594 0.346336 13.8506C0.379064 13.9421 0.413871 14.0324 0.451102 14.122C0.48816 14.2117 0.527469 14.3002 0.568856 14.388C0.610416 14.4756 0.653881 14.5622 0.699598 14.6477C0.745314 14.7333 0.793108 14.8176 0.842981 14.9007C0.892853 14.9838 0.94463 15.0657 0.998658 15.1464C1.05251 15.2271 1.10827 15.3063 1.16611 15.3842C1.22378 15.4621 1.28352 15.5385 1.34499 15.6135C1.40647 15.6884 1.46985 15.7619 1.53496 15.8337C1.60007 15.9056 1.66691 15.9757 1.73549 16.0443C1.80406 16.1129 1.87419 16.1797 1.94606 16.2448C2.01792 16.3099 2.09135 16.3733 2.16633 16.4348C2.24131 16.4964 2.31768 16.556 2.3956 16.6139C2.47353 16.6715 2.55284 16.7275 2.63336 16.7813C2.71406 16.8352 2.79597 16.8869 2.87909 16.9368C2.96238 16.9867 3.04671 17.0345 3.13209 17.0802C3.21763 17.1259 3.30421 17.1695 3.39201 17.2109C3.47963 17.2525 3.5683 17.2916 3.65782 17.3289C3.74735 17.3659 3.83792 17.4009 3.92918 17.4335C4.02044 17.4662 4.11256 17.4967 4.20538 17.5247C4.2982 17.5529 4.39153 17.5787 4.48556 17.6023C4.57977 17.6258 4.67432 17.6471 4.76939 17.666C4.86446 17.6849 4.96004 17.7015 5.05598 17.7157C5.15191 17.7299 5.24802 17.7419 5.34465 17.7514C5.4411 17.7609 5.53773 17.768 5.63471 17.7727C5.73151 17.7775 5.82848 17.7798 5.92545 17.7798C6.02243 17.7798 6.11923 17.7775 6.2162 17.7727C6.313 17.768 6.40963 17.7609 6.50626 17.7514C6.60271 17.7419 6.699 17.7299 6.79476 17.7157C6.89069 17.7015 6.98628 17.6849 7.08135 17.666C7.17642 17.6471 7.27114 17.6258 7.36517 17.6023C7.4592 17.5787 7.55271 17.5529 7.64553 17.5247C7.73817 17.4967 7.8303 17.4662 7.92156 17.4335C8.01299 17.4009 8.10338 17.3659 8.19291 17.3289C8.28261 17.2916 8.3711 17.2525 8.4589 17.2109C8.54652 17.1695 8.63311 17.1259 8.71865 17.0802C8.8042 17.0345 8.88853 16.9867 8.97165 16.9368C9.05477 16.8869 9.13668 16.8352 9.21737 16.7813C9.29807 16.7275 9.37721 16.6715 9.45513 16.6139C9.53306 16.556 9.60943 16.4964 9.68441 16.4348C9.75939 16.3733 9.83281 16.3099 9.90468 16.2448C9.97654 16.1797 10.0467 16.1129 10.1152 16.0443C10.1838 15.9757 10.2507 15.9056 10.3158 15.8337C10.3809 15.7619 10.4443 15.6884 10.5057 15.6135C10.5674 15.5385 10.627 15.4621 10.6848 15.3842C10.7425 15.3063 10.7984 15.2271 10.8523 15.1464C10.9061 15.0657 10.9579 14.9838 11.0078 14.9007C11.0576 14.8176 11.1054 14.7333 11.1511 14.6477C11.1969 14.5622 11.2405 14.4756 11.2819 14.388C11.3234 14.3002 11.3627 14.2117 11.3998 14.122C11.4369 14.0324 11.4718 13.9421 11.5044 13.8506C11.5371 13.7594 11.5676 13.6672 11.5957 13.5746C11.6239 13.4818 11.6497 13.3883 11.6732 13.2942C11.6968 13.2002 11.7181 13.1055 11.737 13.0104C11.7558 12.9153 11.7725 12.8198 11.7867 12.7238C11.8009 12.6281 11.8128 12.5318 11.8223 12.4353C11.8319 12.3387 11.839 12.2421 11.8436 12.1453C11.8485 12.0483 11.8509 11.9515 11.8509 11.8545C11.8509 11.7575 11.8485 11.6606 11.8436 11.5638C11.839 11.4668 11.8319 11.3702 11.8223 11.2737C11.8128 11.1771 11.8009 11.081 11.7867 10.985C11.7725 10.8891 11.7558 10.7935 11.737 10.6985C11.7181 10.6034 11.6968 10.5088 11.6732 10.4146C11.6497 10.3206 11.6239 10.2273 11.5957 10.1344C11.5676 10.0416 11.5371 9.94951 11.5044 9.85825C11.4718 9.76699 11.4369 9.67642 11.3998 9.58689C11.3627 9.49737 11.3234 9.4087 11.2819 9.32108C11.2405 9.23329 11.1969 9.1467 11.1511 9.06116C11.1054 8.97579 11.0576 8.89128 11.0078 8.80816C10.9579 8.72504 10.9061 8.64313 10.8523 8.56243C10.7984 8.48191 10.7425 8.4026 10.6848 8.32468C10.627 8.24675 10.5674 8.17038 10.5057 8.0954C10.4443 8.02042 10.3809 7.947 10.3158 7.87513C10.2507 7.80327 10.1838 7.73314 10.1152 7.66456C10.0467 7.59599 9.97654 7.52914 9.90468 7.46403C9.83281 7.39892 9.75939 7.33554 9.68441 7.27407C9.60943 7.21259 9.53306 7.15285 9.45513 7.09519C9.37721 7.03735 9.29807 6.98159 9.21737 6.92773C9.13668 6.87371 9.05477 6.82193 8.97165 6.77206C8.88853 6.72218 8.8042 6.67439 8.71865 6.62867C8.63311 6.58296 8.54652 6.53949 8.4589 6.49793C8.3711 6.45655 8.28261 6.41724 8.19291 6.38001C8.10338 6.34295 8.01299 6.30814 7.92156 6.27541C7.8303 6.24268 7.73817 6.21238 7.64553 6.18415C7.55271 6.1561 7.4592 6.13012 7.36517 6.10657C7.27114 6.08302 7.17642 6.0619 7.08135 6.04285C6.98628 6.02397 6.89069 6.00735 6.79476 5.99315C6.699 5.97895 6.60271 5.96717 6.50626 5.95765C6.40963 5.94813 6.313 5.94103 6.2162 5.93618C6.11923 5.9315 6.02243 5.92908 5.92545 5.92908C5.82848 5.92908 5.73151 5.93167 5.63471 5.93652C5.53791 5.94137 5.44128 5.94865 5.34482 5.95817C5.24837 5.96769 5.15209 5.97964 5.05633 5.99401C4.96039 6.00839 4.86497 6.02501 4.76991 6.04389C4.67484 6.06294 4.58029 6.08424 4.48626 6.10796C4.39223 6.13151 4.29889 6.15748 4.20607 6.18571C4.11325 6.21376 4.0213 6.24424 3.93004 6.27697C3.83878 6.3097 3.74839 6.34468 3.65886 6.38174C3.56933 6.41897 3.48067 6.45828 3.39305 6.49984C3.30543 6.54122 3.21884 6.58486 3.13347 6.63058C3.04793 6.67629 2.96359 6.72409 2.88047 6.77396C2.79735 6.82383 2.71544 6.87578 2.63492 6.92964C2.5544 6.98349 2.47509 7.03925 2.39733 7.09709C2.31941 7.15493 2.24304 7.2145 2.16806 7.27597C2.09308 7.33745 2.01983 7.40083 1.94796 7.46594C1.8761 7.53105 1.80597 7.59789 1.73739 7.66647C1.66882 7.73504 1.60197 7.80517 1.53686 7.87704C1.47175 7.9489 1.40837 8.02215 1.3469 8.09713C1.28542 8.17212 1.22585 8.24848 1.16802 8.32623C1.11018 8.40416 1.05442 8.48347 1.00056 8.56399C0.946708 8.64452 0.894758 8.72642 0.844886 8.80954C0.795013 8.89266 0.747219 8.977 0.701503 9.06254C0.655786 9.14791 0.612148 9.2345 0.570761 9.32212C0.529201 9.40974 0.489892 9.4984 0.452661 9.58793C0.415603 9.67746 0.380623 9.76785 0.347894 9.85911C0.315165 9.95037 0.284688 10.0423 0.256635 10.1351C0.228408 10.2278 0.202433 10.3213 0.178882 10.4153C0.155158 10.5094 0.133859 10.6039 0.11481 10.699C0.0959349 10.794 0.0793108 10.8895 0.0649379 10.9854C0.050565 11.0812 0.0386164 11.1774 0.0290922 11.2739C0.0195679 11.3703 0.0122949 11.467 0.00744621 11.5638C0.00259752 11.6606 0 11.7575 0 11.8545ZM10.5341 11.8545C10.5341 11.9298 10.5322 12.0052 10.5284 12.0807C10.5248 12.156 10.5192 12.2312 10.5118 12.3061C10.5045 12.3813 10.4952 12.4561 10.4841 12.5307C10.4732 12.6054 10.4602 12.6797 10.4455 12.7536C10.4308 12.8275 10.4143 12.9011 10.396 12.9742C10.3776 13.0475 10.3575 13.12 10.3357 13.1922C10.3137 13.2645 10.2901 13.336 10.2647 13.4071C10.2392 13.4781 10.212 13.5484 10.1833 13.6181C10.1544 13.6878 10.1239 13.7568 10.0915 13.825C10.0593 13.893 10.0254 13.9604 9.98987 14.0269C9.95438 14.0934 9.91714 14.159 9.87836 14.2238C9.83957 14.2884 9.79922 14.3521 9.75731 14.4148C9.7154 14.4777 9.67211 14.5393 9.62709 14.5999C9.58224 14.6604 9.53583 14.7199 9.48786 14.7781C9.44007 14.8365 9.39089 14.8936 9.34015 14.9494C9.28958 15.0053 9.23763 15.0598 9.1843 15.1132C9.13096 15.1665 9.07624 15.2186 9.02031 15.2692C8.96455 15.3199 8.9074 15.3691 8.84905 15.4169C8.79086 15.4649 8.73129 15.5113 8.67086 15.5561C8.61025 15.6012 8.5486 15.6445 8.48591 15.6864C8.42305 15.7283 8.3595 15.7686 8.29474 15.8074C8.22997 15.8462 8.16451 15.8834 8.09784 15.9189C8.03135 15.9544 7.96399 15.9884 7.89593 16.0206C7.8277 16.053 7.75878 16.0834 7.68899 16.1124C7.61938 16.1411 7.54908 16.1683 7.47808 16.1938C7.40708 16.219 7.33539 16.2428 7.26318 16.2647C7.19096 16.2866 7.11841 16.3067 7.04516 16.325C6.97208 16.3434 6.89848 16.3598 6.82454 16.3745C6.7506 16.3893 6.67631 16.4022 6.60167 16.4132C6.52704 16.4242 6.45223 16.4336 6.37708 16.4409C6.30209 16.4483 6.22694 16.4538 6.15161 16.4575C6.07628 16.4613 6.00078 16.4632 5.92545 16.4632C5.84995 16.4632 5.77463 16.4613 5.6993 16.4575C5.62397 16.4538 5.54881 16.4483 5.47366 16.4409C5.39868 16.4336 5.3237 16.4242 5.24923 16.4132C5.1746 16.4022 5.10031 16.3893 5.02637 16.3745C4.95225 16.3598 4.87883 16.3434 4.80558 16.325C4.7325 16.3067 4.65977 16.2866 4.58756 16.2647C4.51535 16.2428 4.44383 16.219 4.37283 16.1938C4.30183 16.1683 4.23135 16.1411 4.16174 16.1124C4.09213 16.0834 4.02321 16.053 3.95498 16.0206C3.88675 15.9884 3.81939 15.9544 3.75289 15.9189C3.6864 15.8834 3.62076 15.8462 3.556 15.8074C3.49141 15.7686 3.42768 15.7283 3.365 15.6864C3.30231 15.6445 3.24066 15.6012 3.18005 15.5561C3.11944 15.5113 3.06005 15.4649 3.00169 15.4169C2.94333 15.3691 2.88636 15.3199 2.83043 15.2692C2.77449 15.2186 2.71995 15.1665 2.66661 15.1132C2.61327 15.0598 2.56132 15.0053 2.51059 14.9494C2.46002 14.8936 2.41067 14.8365 2.36287 14.7781C2.31508 14.7199 2.26867 14.6604 2.22365 14.5997C2.1788 14.5393 2.13533 14.4777 2.09343 14.4148C2.05152 14.3521 2.01117 14.2884 1.97238 14.2238C1.93359 14.159 1.89653 14.0934 1.86086 14.0269C1.82536 13.9604 1.79142 13.893 1.75921 13.825C1.727 13.7568 1.69635 13.6878 1.66761 13.6181C1.63869 13.5484 1.6115 13.4781 1.58622 13.4071C1.56076 13.336 1.53704 13.2645 1.51522 13.1922C1.49323 13.12 1.47314 13.0475 1.45478 12.9742C1.4366 12.9011 1.41998 12.8275 1.40526 12.7536C1.39054 12.6797 1.37772 12.6054 1.36664 12.5307C1.35556 12.4561 1.34638 12.3813 1.33893 12.3061C1.33149 12.2312 1.32595 12.156 1.32231 12.0807C1.31867 12.0052 1.31677 11.9298 1.31677 11.8545C1.31677 11.779 1.31867 11.7037 1.32231 11.6284C1.32595 11.553 1.33149 11.4777 1.33893 11.4027C1.34638 11.3277 1.35556 11.2528 1.36664 11.1783C1.37772 11.1037 1.39054 11.0294 1.40526 10.9554C1.41998 10.8813 1.4366 10.8077 1.45478 10.7346C1.47314 10.6614 1.49323 10.5888 1.51522 10.5166C1.53704 10.4444 1.56076 10.3729 1.58622 10.3019C1.6115 10.2309 1.63869 10.1604 1.66761 10.0908C1.69635 10.0212 1.727 9.9521 1.75921 9.88405C1.79142 9.81582 1.82536 9.74846 1.86086 9.68196C1.89653 9.61547 1.93359 9.54984 1.97238 9.48507C2.01117 9.42048 2.05152 9.35675 2.09343 9.29407C2.13533 9.23138 2.1788 9.16973 2.22365 9.10912C2.26867 9.04852 2.31508 8.98912 2.36287 8.93076C2.41067 8.8724 2.46002 8.81543 2.51059 8.7595C2.56132 8.70357 2.61327 8.64902 2.66661 8.59568C2.71995 8.54235 2.77449 8.4904 2.83043 8.43966C2.88636 8.38909 2.94333 8.33974 3.00169 8.29195C3.06005 8.24415 3.11944 8.19774 3.18005 8.15272C3.24066 8.10787 3.30231 8.0644 3.365 8.0225C3.42768 7.98059 3.49141 7.94024 3.556 7.90145C3.62076 7.86266 3.6864 7.82561 3.75289 7.78993C3.81939 7.75444 3.88675 7.72049 3.95498 7.68829C4.02321 7.65608 4.09213 7.62543 4.16174 7.59668C4.23135 7.56776 4.30183 7.54057 4.37283 7.51529C4.44383 7.48984 4.51535 7.46611 4.58756 7.44429C4.65977 7.4223 4.7325 7.40221 4.80558 7.38386C4.87883 7.36567 4.95225 7.34905 5.02637 7.33433C5.10031 7.31961 5.1746 7.3068 5.24923 7.29571C5.3237 7.28463 5.39868 7.27545 5.47366 7.26801C5.54881 7.26056 5.62397 7.25502 5.6993 7.25138C5.77463 7.24757 5.84995 7.24584 5.92545 7.24584C6.00078 7.24584 6.07611 7.24775 6.15144 7.25156C6.22677 7.25537 6.30192 7.26091 6.3769 7.26853C6.45206 7.27597 6.52687 7.28515 6.60133 7.29641C6.67596 7.30749 6.75025 7.32048 6.8242 7.3352C6.89814 7.34992 6.97156 7.36654 7.04481 7.3849C7.11789 7.40325 7.19044 7.42351 7.26266 7.44533C7.33487 7.46732 7.40639 7.49105 7.47738 7.5165C7.54838 7.54196 7.61869 7.56915 7.6883 7.59789C7.75792 7.62681 7.82684 7.65746 7.89489 7.68967C7.96312 7.72205 8.03048 7.75599 8.09698 7.79149C8.1633 7.82699 8.22893 7.86422 8.2937 7.90301C8.35829 7.9418 8.42201 7.98215 8.4847 8.02406C8.54739 8.06596 8.60886 8.10943 8.66947 8.15428C8.73008 8.1993 8.78948 8.24571 8.84766 8.29351C8.90602 8.3413 8.96316 8.39048 9.01892 8.44122C9.07486 8.49178 9.1294 8.54391 9.18274 8.59707C9.23608 8.6504 9.28803 8.70512 9.33859 8.76088C9.38933 8.81682 9.43851 8.87379 9.4863 8.93215C9.53427 8.99033 9.58068 9.0499 9.62553 9.11034C9.67055 9.17094 9.71385 9.23259 9.75575 9.29528C9.79766 9.35797 9.83801 9.42152 9.8768 9.48628C9.91559 9.55087 9.95282 9.6165 9.98832 9.683C10.024 9.7495 10.0579 9.81669 10.0901 9.88491C10.1223 9.95297 10.153 10.0219 10.1819 10.0917C10.2108 10.1613 10.238 10.2316 10.2635 10.3026C10.2888 10.3734 10.3125 10.4451 10.3345 10.5171C10.3565 10.5894 10.3766 10.6619 10.3949 10.7352C10.4133 10.8082 10.4299 10.8818 10.4446 10.9558C10.4595 11.0297 10.4723 11.1038 10.4836 11.1785C10.4947 11.2531 10.504 11.3279 10.5115 11.4029C10.5189 11.4779 10.5244 11.553 10.5283 11.6284C10.5321 11.7037 10.534 11.779 10.5341 11.8545Z" fill="#663366"/>
<ellipse cx="14.0087" cy="11.8508" rx="4.81536" ry="5.18577" fill="#663366"/>
<path d="M8.14844 11.8521C8.14844 11.9491 8.15086 12.0459 8.15554 12.1428C8.16039 12.2396 8.16749 12.3363 8.17701 12.4329C8.18653 12.5293 8.19831 12.6256 8.21251 12.7214C8.22671 12.8173 8.24333 12.9129 8.26221 13.008C8.28126 13.103 8.30238 13.1978 8.32593 13.2918C8.34949 13.3858 8.37546 13.4793 8.40351 13.5722C8.43174 13.6648 8.46204 13.7569 8.49477 13.8482C8.5275 13.9396 8.56231 14.03 8.59954 14.1195C8.6366 14.2092 8.67591 14.2977 8.71729 14.3855C8.75885 14.4731 8.80232 14.5597 8.84804 14.6453C8.89375 14.7308 8.94155 14.8151 8.99142 14.8983C9.04129 14.9814 9.09307 15.0633 9.1471 15.144C9.20095 15.2247 9.25671 15.3038 9.31455 15.3818C9.37221 15.4597 9.43196 15.536 9.49343 15.611C9.55491 15.686 9.61829 15.7594 9.6834 15.8313C9.74851 15.9032 9.81535 15.9733 9.88392 16.0419C9.9525 16.1104 10.0226 16.1773 10.0945 16.2424C10.1664 16.3075 10.2398 16.3709 10.3148 16.4324C10.3897 16.494 10.4661 16.5536 10.544 16.6114C10.622 16.6691 10.7013 16.725 10.7818 16.7789C10.8625 16.8327 10.9444 16.8845 11.0275 16.9344C11.1108 16.9842 11.1952 17.032 11.2805 17.0778C11.3661 17.1235 11.4527 17.1671 11.5404 17.2085C11.6281 17.2501 11.7167 17.2892 11.8063 17.3264C11.8958 17.3635 11.9864 17.3985 12.0776 17.431C12.1689 17.4637 12.261 17.4942 12.3538 17.5223C12.4466 17.5505 12.54 17.5763 12.634 17.5999C12.7282 17.6234 12.8228 17.6447 12.9178 17.6636C13.0129 17.6825 13.1085 17.6991 13.2044 17.7133C13.3004 17.7275 13.3965 17.7394 13.4931 17.749C13.5895 17.7585 13.6862 17.7656 13.7831 17.7702C13.8799 17.7751 13.9769 17.7773 14.0739 17.7773C14.1709 17.7773 14.2677 17.7751 14.3646 17.7702C14.4614 17.7656 14.5581 17.7585 14.6547 17.749C14.7512 17.7394 14.8474 17.7275 14.9432 17.7133C15.0391 17.6991 15.1347 17.6825 15.2298 17.6636C15.3249 17.6447 15.4196 17.6234 15.5136 17.5999C15.6076 17.5763 15.7011 17.5505 15.794 17.5223C15.8866 17.4942 15.9787 17.4637 16.07 17.431C16.1614 17.3985 16.2518 17.3635 16.3414 17.3264C16.4311 17.2892 16.5195 17.2501 16.6073 17.2085C16.695 17.1671 16.7815 17.1235 16.8671 17.0778C16.9526 17.032 17.037 16.9842 17.1201 16.9344C17.2032 16.8845 17.2851 16.8327 17.3658 16.7789C17.4465 16.725 17.5256 16.6691 17.6036 16.6114C17.6815 16.5536 17.7579 16.494 17.8328 16.4324C17.9078 16.3709 17.9812 16.3075 18.0531 16.2424C18.125 16.1773 18.1951 16.1104 18.2637 16.0419C18.3323 15.9733 18.3991 15.9032 18.4642 15.8313C18.5293 15.7594 18.5927 15.686 18.6542 15.611C18.7158 15.536 18.7754 15.4597 18.8332 15.3818C18.8909 15.3038 18.9468 15.2247 19.0007 15.144C19.0545 15.0633 19.1063 14.9814 19.1562 14.8983C19.2061 14.8151 19.2539 14.7308 19.2996 14.6453C19.3453 14.5597 19.3889 14.4731 19.4303 14.3855C19.4719 14.2977 19.5112 14.2092 19.5482 14.1195C19.5853 14.03 19.6203 13.9396 19.6528 13.8482C19.6856 13.7569 19.716 13.6648 19.7441 13.5722C19.7723 13.4793 19.7981 13.3858 19.8217 13.2918C19.8452 13.1978 19.8665 13.103 19.8854 13.008C19.9043 12.9129 19.9209 12.8173 19.9351 12.7214C19.9493 12.6256 19.9612 12.5293 19.9708 12.4329C19.9803 12.3363 19.9874 12.2396 19.9921 12.1428C19.9969 12.0459 19.9993 11.9491 19.9993 11.8521C19.9993 11.7551 19.9969 11.6581 19.9921 11.5613C19.9874 11.4644 19.9803 11.3677 19.9708 11.2713C19.9612 11.1746 19.9493 11.0785 19.9351 10.9826C19.9209 10.8867 19.9043 10.7911 19.8854 10.696C19.8665 10.6009 19.8452 10.5064 19.8217 10.4122C19.7981 10.3182 19.7723 10.2248 19.7441 10.132C19.716 10.0392 19.6856 9.94706 19.6528 9.8558C19.6203 9.76455 19.5853 9.67398 19.5482 9.58445C19.5112 9.49492 19.4719 9.40626 19.4303 9.31864C19.3889 9.23084 19.3453 9.14426 19.2996 9.05872C19.2539 8.97334 19.2061 8.88884 19.1562 8.80572C19.1063 8.7226 19.0545 8.64069 19.0007 8.55999C18.9468 8.47947 18.8909 8.40016 18.8332 8.32223C18.7754 8.24431 18.7158 8.16794 18.6542 8.09296C18.5927 8.01798 18.5293 7.94456 18.4642 7.87269C18.3991 7.80083 18.3323 7.73069 18.2637 7.66212C18.1951 7.59355 18.125 7.5267 18.0531 7.46159C17.9812 7.39648 17.9078 7.3331 17.8328 7.27163C17.7579 7.21015 17.6815 7.15041 17.6036 7.09275C17.5256 7.03491 17.4465 6.97915 17.3658 6.92529C17.2851 6.87126 17.2032 6.81949 17.1201 6.76961C17.037 6.71974 16.9526 6.67195 16.8671 6.62623C16.7815 6.58052 16.695 6.53705 16.6073 6.49549C16.5195 6.4541 16.4311 6.41479 16.3414 6.37756C16.2518 6.34051 16.1614 6.3057 16.07 6.27297C15.9787 6.24024 15.8866 6.20994 15.794 6.18171C15.7011 6.15366 15.6076 6.12768 15.5136 6.10413C15.4196 6.08058 15.3249 6.05946 15.2298 6.04041C15.1347 6.02153 15.0391 6.00491 14.9432 5.99071C14.8474 5.97651 14.7512 5.96473 14.6547 5.95521C14.5581 5.94568 14.4614 5.93858 14.3646 5.93374C14.2677 5.92906 14.1709 5.92664 14.0739 5.92664C13.9769 5.92664 13.8799 5.92923 13.7831 5.93408C13.6863 5.93893 13.5897 5.9462 13.4933 5.95573C13.3968 5.96525 13.3005 5.9772 13.2048 5.99157C13.1088 6.00595 13.0134 6.02257 12.9183 6.04145C12.8233 6.06049 12.7287 6.08179 12.6347 6.10552C12.5407 6.12907 12.4473 6.15504 12.3545 6.18327C12.2617 6.21132 12.1697 6.2418 12.0785 6.27453C11.9872 6.30726 11.8968 6.34224 11.8073 6.3793C11.7178 6.41653 11.6291 6.45584 11.5415 6.4974C11.4539 6.53878 11.3673 6.58242 11.2819 6.62814C11.1964 6.67385 11.112 6.72165 11.0289 6.77152C10.9458 6.82139 10.8639 6.87334 10.7834 6.9272C10.7028 6.98105 10.6235 7.03681 10.5458 7.09465C10.4678 7.15249 10.3915 7.21206 10.3165 7.27353C10.2415 7.33501 10.1683 7.39839 10.0964 7.4635C10.0245 7.52861 9.9544 7.59545 9.88583 7.66402C9.81726 7.7326 9.75041 7.80273 9.6853 7.8746C9.62019 7.94646 9.55681 8.01971 9.49534 8.09469C9.43386 8.16967 9.37429 8.24604 9.31645 8.32379C9.25862 8.40172 9.20286 8.48103 9.149 8.56155C9.09515 8.64207 9.0432 8.72398 8.99332 8.8071C8.94345 8.89022 8.89566 8.97456 8.84994 9.0601C8.80422 9.14547 8.76059 9.23206 8.7192 9.31968C8.67764 9.4073 8.63833 9.49596 8.6011 9.58549C8.56404 9.67502 8.52906 9.76541 8.49633 9.85667C8.4636 9.94793 8.43313 10.0399 8.40507 10.1327C8.37685 10.2253 8.35087 10.3189 8.32732 10.4129C8.3036 10.5069 8.2823 10.6015 8.26325 10.6965C8.24437 10.7916 8.22775 10.887 8.21338 10.983C8.199 11.0787 8.18705 11.175 8.17753 11.2714C8.16801 11.3679 8.16073 11.4645 8.15588 11.5613C8.15104 11.6581 8.14844 11.7551 8.14844 11.8521ZM18.6826 11.8521C18.6826 11.9274 18.6807 12.0027 18.6769 12.0782C18.6732 12.1536 18.6677 12.2287 18.6602 12.3037C18.653 12.3789 18.6436 12.4537 18.6325 12.5283C18.6216 12.6029 18.6086 12.6772 18.5939 12.7512C18.5792 12.8251 18.5627 12.8987 18.5444 12.9718C18.526 13.045 18.5059 13.1176 18.4841 13.1898C18.4621 13.262 18.4386 13.3335 18.4131 13.4047C18.3877 13.4757 18.3605 13.546 18.3317 13.6156C18.3028 13.6854 18.2723 13.7543 18.24 13.8226C18.2078 13.8906 18.1738 13.958 18.1383 14.0245C18.1028 14.091 18.0656 14.1566 18.0268 14.2214C17.988 14.2859 17.9477 14.3497 17.9057 14.4124C17.8638 14.4752 17.8205 14.5369 17.7755 14.5975C17.7307 14.6579 17.6843 14.7175 17.6363 14.7757C17.5885 14.834 17.5393 14.8912 17.4886 14.9469C17.438 15.0029 17.3861 15.0574 17.3327 15.1107C17.2794 15.1641 17.2247 15.2162 17.1687 15.2668C17.113 15.3175 17.0558 15.3667 16.9975 15.4145C16.9393 15.4624 16.8797 15.5089 16.8193 15.5537C16.7587 15.5987 16.697 15.642 16.6344 15.6839C16.5715 15.7258 16.5079 15.7662 16.4432 15.805C16.3784 15.8438 16.313 15.881 16.2463 15.9165C16.1798 15.952 16.1124 15.9859 16.0444 16.0181C15.9761 16.0505 15.9072 16.081 15.8374 16.1099C15.7678 16.1387 15.6975 16.1659 15.6265 16.1913C15.5555 16.2166 15.4838 16.2403 15.4116 16.2623C15.3394 16.2841 15.2668 16.3042 15.1936 16.3226C15.1205 16.3409 15.0469 16.3574 14.973 16.3721C14.899 16.3868 14.8247 16.3998 14.7501 16.4107C14.6755 16.4218 14.6007 16.4311 14.5255 16.4384C14.4505 16.4459 14.3754 16.4514 14.3 16.455C14.2247 16.4589 14.1492 16.4608 14.0739 16.4608C13.9984 16.4608 13.9231 16.4589 13.8477 16.455C13.7724 16.4514 13.6973 16.4459 13.6221 16.4384C13.5471 16.4311 13.4721 16.4218 13.3977 16.4107C13.323 16.3998 13.2487 16.3868 13.1748 16.3721C13.1007 16.3574 13.0273 16.3409 12.954 16.3226C12.8809 16.3042 12.8082 16.2841 12.736 16.2623C12.6638 16.2403 12.5923 16.2166 12.5213 16.1913C12.4503 16.1659 12.3798 16.1387 12.3102 16.1099C12.2406 16.081 12.1716 16.0505 12.1034 16.0181C12.0352 15.9859 11.9678 15.952 11.9013 15.9165C11.8348 15.881 11.7692 15.8438 11.7044 15.805C11.6398 15.7662 11.5761 15.7258 11.5134 15.6839C11.4507 15.642 11.3891 15.5987 11.3285 15.5537C11.2679 15.5089 11.2085 15.4624 11.1501 15.4145C11.0918 15.3667 11.0348 15.3175 10.9789 15.2668C10.9229 15.2162 10.8684 15.1641 10.815 15.1107C10.7617 15.0574 10.7098 15.0029 10.659 14.9469C10.6085 14.8912 10.5591 14.834 10.5113 14.7757C10.4635 14.7175 10.4171 14.6579 10.3721 14.5973C10.3272 14.5369 10.2838 14.4752 10.2419 14.4124C10.2 14.3497 10.1596 14.2859 10.1208 14.2214C10.082 14.1566 10.045 14.091 10.0093 14.0245C9.9738 13.958 9.93986 13.8906 9.90765 13.8226C9.87544 13.7543 9.84479 13.6854 9.81604 13.6156C9.78712 13.546 9.75994 13.4757 9.73465 13.4047C9.7092 13.3335 9.68547 13.262 9.66366 13.1898C9.64166 13.1176 9.62158 13.045 9.60322 12.9718C9.58504 12.8987 9.56841 12.8251 9.55369 12.7512C9.53897 12.6772 9.52616 12.6029 9.51508 12.5283C9.50399 12.4537 9.49482 12.3789 9.48737 12.3037C9.47992 12.2287 9.47438 12.1536 9.47075 12.0782C9.46711 12.0027 9.46521 11.9274 9.46521 11.8521C9.46521 11.7766 9.46711 11.7013 9.47075 11.6259C9.47438 11.5506 9.47992 11.4753 9.48737 11.4003C9.49482 11.3253 9.50399 11.2503 9.51508 11.1759C9.52616 11.1012 9.53897 11.0269 9.55369 10.953C9.56841 10.8789 9.58504 10.8053 9.60322 10.7322C9.62158 10.659 9.64166 10.5864 9.66366 10.5142C9.68547 10.442 9.7092 10.3705 9.73465 10.2995C9.75994 10.2285 9.78712 10.158 9.81604 10.0884C9.84479 10.0188 9.87544 9.94966 9.90765 9.88161C9.93986 9.81338 9.9738 9.74602 10.0093 9.67952C10.045 9.61302 10.082 9.54739 10.1208 9.48263C10.1596 9.41804 10.2 9.35431 10.2419 9.29163C10.2838 9.22894 10.3272 9.16729 10.3721 9.10668C10.4171 9.04607 10.4635 8.98668 10.5113 8.92832C10.5591 8.86996 10.6085 8.81299 10.659 8.75706C10.7098 8.70112 10.7617 8.64658 10.815 8.59324C10.8684 8.53991 10.9229 8.48796 10.9789 8.43722C11.0348 8.38665 11.0918 8.3373 11.1501 8.28951C11.2085 8.24171 11.2679 8.1953 11.3285 8.15028C11.3891 8.10543 11.4507 8.06196 11.5134 8.02006C11.5761 7.97815 11.6398 7.9378 11.7044 7.89901C11.7692 7.86022 11.8348 7.82317 11.9013 7.78749C11.9678 7.75199 12.0352 7.71805 12.1034 7.68584C12.1716 7.65363 12.2406 7.62298 12.3102 7.59424C12.3798 7.56532 12.4503 7.53813 12.5213 7.51285C12.5923 7.48739 12.6638 7.46367 12.736 7.44185C12.8082 7.41986 12.8809 7.39977 12.954 7.38142C13.0273 7.36323 13.1007 7.34661 13.1748 7.33189C13.2487 7.31717 13.323 7.30436 13.3977 7.29327C13.4721 7.28219 13.5471 7.27301 13.6221 7.26557C13.6973 7.25812 13.7724 7.25258 13.8477 7.24894C13.9231 7.24513 13.9984 7.2434 14.0739 7.2434C14.1492 7.2434 14.2245 7.24531 14.2999 7.24912C14.3752 7.25293 14.4504 7.25847 14.5253 7.26609C14.6005 7.27353 14.6753 7.28271 14.7498 7.29397C14.8244 7.30505 14.8987 7.31804 14.9726 7.33276C15.0466 7.34747 15.12 7.3641 15.1932 7.38245C15.2663 7.40081 15.3389 7.42107 15.4111 7.44289C15.4833 7.46488 15.5548 7.48861 15.6258 7.51406C15.6968 7.53952 15.7671 7.5667 15.8367 7.59545C15.9064 7.62437 15.9753 7.65502 16.0433 7.68723C16.1116 7.71961 16.1789 7.75355 16.2454 7.78905C16.3117 7.82455 16.3774 7.86178 16.4421 7.90057C16.5067 7.93936 16.5705 7.97971 16.6331 8.02162C16.6958 8.06352 16.7573 8.10699 16.8179 8.15184C16.8785 8.19686 16.9379 8.24327 16.9961 8.29106C17.0545 8.33886 17.1116 8.38804 17.1674 8.43878C17.2233 8.48934 17.2778 8.54146 17.3312 8.59463C17.3845 8.64796 17.4365 8.70268 17.487 8.75844C17.5378 8.81438 17.5869 8.87135 17.6347 8.92971C17.6827 8.98789 17.7291 9.04746 17.774 9.10789C17.819 9.1685 17.8623 9.23015 17.9042 9.29284C17.9461 9.35552 17.9864 9.41908 18.0252 9.48384C18.064 9.54843 18.1013 9.61406 18.1368 9.68056C18.1724 9.74706 18.2064 9.81424 18.2386 9.88247C18.2708 9.95053 18.3014 10.0194 18.3304 10.0892C18.3593 10.1588 18.3865 10.2292 18.4119 10.3002C18.4372 10.371 18.4609 10.4427 18.4829 10.5147C18.5049 10.5869 18.525 10.6595 18.5434 10.7327C18.5617 10.8058 18.5783 10.8794 18.5931 10.9533C18.6079 11.0273 18.6208 11.1014 18.632 11.176C18.6431 11.2507 18.6524 11.3255 18.6599 11.4005C18.6673 11.4754 18.6729 11.5506 18.6767 11.6259C18.6805 11.7013 18.6824 11.7766 18.6826 11.8521Z" fill="#663366"/>
<ellipse cx="9.86809" cy="5.92417" rx="4.81536" ry="5.18577" fill="#663366"/>
<path d="M4.00781 5.92544C4.00781 6.02242 4.01024 6.11922 4.01491 6.21619C4.01976 6.31299 4.02686 6.40962 4.03639 6.50625C4.04591 6.6027 4.05768 6.69898 4.07188 6.79474C4.08608 6.89068 4.10271 6.98627 4.12158 7.08134C4.14063 7.1764 4.16176 7.27113 4.18531 7.36516C4.20886 7.45919 4.23484 7.5527 4.26289 7.64552C4.29111 7.73816 4.32142 7.83029 4.35415 7.92154C4.38688 8.01298 4.42168 8.10337 4.45891 8.1929C4.49597 8.2826 4.53528 8.37109 4.57667 8.45888C4.61823 8.54651 4.66169 8.63309 4.70741 8.71863C4.75313 8.80418 4.80092 8.88851 4.85079 8.97163C4.90067 9.05475 4.95244 9.13666 5.00647 9.21736C5.06033 9.29805 5.11609 9.37719 5.17392 9.45512C5.23159 9.53304 5.29133 9.60941 5.35281 9.68439C5.41428 9.75937 5.47766 9.83279 5.54277 9.90466C5.60788 9.97652 5.67473 10.0467 5.7433 10.1152C5.81187 10.1838 5.88201 10.2506 5.95387 10.3158C6.02574 10.3809 6.09916 10.4442 6.17414 10.5057C6.24912 10.5674 6.32549 10.6269 6.40342 10.6848C6.48134 10.7424 6.56065 10.7984 6.64117 10.8522C6.72187 10.9061 6.80378 10.9579 6.8869 11.0077C6.97019 11.0576 7.05453 11.1054 7.1399 11.1511C7.22544 11.1968 7.31203 11.2405 7.39982 11.2819C7.48745 11.3234 7.57611 11.3626 7.66564 11.3998C7.75516 11.4368 7.84573 11.4718 7.93699 11.5044C8.02825 11.5371 8.12037 11.5676 8.21319 11.5956C8.30601 11.6239 8.39935 11.6497 8.49338 11.6732C8.58758 11.6968 8.68213 11.7181 8.7772 11.7369C8.87227 11.7558 8.96786 11.7724 9.06379 11.7866C9.15973 11.8008 9.25583 11.8128 9.35246 11.8223C9.44892 11.8318 9.54554 11.8389 9.64252 11.8436C9.73932 11.8485 9.83629 11.8507 9.93327 11.8507C10.0302 11.8507 10.127 11.8485 10.224 11.8436C10.3208 11.8389 10.4174 11.8318 10.5141 11.8223C10.6105 11.8128 10.7068 11.8008 10.8026 11.7866C10.8985 11.7724 10.9941 11.7558 11.0892 11.7369C11.1842 11.7181 11.279 11.6968 11.373 11.6732C11.467 11.6497 11.5605 11.6239 11.6533 11.5956C11.746 11.5676 11.8381 11.5371 11.9294 11.5044C12.0208 11.4718 12.1112 11.4368 12.2007 11.3998C12.2904 11.3626 12.3789 11.3234 12.4667 11.2819C12.5543 11.2405 12.6409 11.1968 12.7265 11.1511C12.812 11.1054 12.8963 11.0576 12.9795 11.0077C13.0626 10.9579 13.1445 10.9061 13.2252 10.8522C13.3059 10.7984 13.385 10.7424 13.4629 10.6848C13.5409 10.6269 13.6172 10.5674 13.6922 10.5057C13.7672 10.4442 13.8406 10.3809 13.9125 10.3158C13.9844 10.2506 14.0545 10.1838 14.1231 10.1152C14.1916 10.0467 14.2585 9.97652 14.3236 9.90466C14.3887 9.83279 14.4521 9.75937 14.5136 9.68439C14.5752 9.60941 14.6348 9.53304 14.6926 9.45512C14.7503 9.37719 14.8062 9.29805 14.8601 9.21736C14.9139 9.13666 14.9657 9.05475 15.0156 8.97163C15.0654 8.88851 15.1132 8.80418 15.159 8.71863C15.2047 8.63309 15.2483 8.54651 15.2897 8.45888C15.3313 8.37109 15.3706 8.2826 15.4076 8.1929C15.4447 8.10337 15.4797 8.01298 15.5122 7.92154C15.5449 7.83029 15.5754 7.73816 15.6035 7.64552C15.6317 7.5527 15.6575 7.45919 15.6811 7.36516C15.7046 7.27113 15.7259 7.1764 15.7448 7.08134C15.7637 6.98627 15.7803 6.89068 15.7945 6.79474C15.8087 6.69898 15.8206 6.6027 15.8301 6.50625C15.8397 6.40962 15.8468 6.31299 15.8514 6.21619C15.8563 6.11922 15.8587 6.02242 15.8587 5.92544C15.8587 5.82847 15.8563 5.7315 15.8514 5.6347C15.8468 5.53772 15.8397 5.44109 15.8301 5.34464C15.8206 5.24801 15.8087 5.1519 15.7945 5.05597C15.7803 4.96003 15.7637 4.86445 15.7448 4.76938C15.7259 4.67431 15.7046 4.57976 15.6811 4.48556C15.6575 4.39153 15.6317 4.29819 15.6035 4.20537C15.5754 4.11255 15.5449 4.02043 15.5122 3.92917C15.4797 3.83791 15.4447 3.74734 15.4076 3.65782C15.3706 3.56829 15.3313 3.47963 15.2897 3.392C15.2483 3.30421 15.2047 3.21762 15.159 3.13208C15.1132 3.04671 15.0654 2.9622 15.0156 2.87908C14.9657 2.79596 14.9139 2.71405 14.8601 2.63336C14.8062 2.55283 14.7503 2.47352 14.6926 2.3956C14.6348 2.31767 14.5752 2.24131 14.5136 2.16632C14.4521 2.09134 14.3887 2.01792 14.3236 1.94606C14.2585 1.87419 14.1916 1.80406 14.1231 1.73548C14.0545 1.66691 13.9844 1.60007 13.9125 1.53496C13.8406 1.46985 13.7672 1.40647 13.6922 1.34499C13.6172 1.28352 13.5409 1.22377 13.4629 1.16611C13.385 1.10827 13.3059 1.05251 13.2252 0.998657C13.1445 0.944628 13.0626 0.892851 12.9795 0.842979C12.8963 0.793107 12.812 0.745313 12.7265 0.699596C12.6409 0.65388 12.5543 0.610415 12.4667 0.568855C12.3789 0.527468 12.2904 0.488159 12.2007 0.450928C12.1112 0.41387 12.0208 0.379064 11.9294 0.346335C11.8381 0.313606 11.746 0.283302 11.6533 0.255076C11.5605 0.227022 11.467 0.201047 11.373 0.177497C11.279 0.153946 11.1842 0.132819 11.0892 0.113771C10.9941 0.0948958 10.8985 0.0782717 10.8026 0.064072C10.7068 0.0498722 10.6105 0.0380968 10.5141 0.0285726C10.4174 0.0190484 10.3208 0.0119486 10.224 0.00709987C10.127 0.00242433 10.0302 0 9.93327 0C9.83629 0 9.73932 0.00259751 9.64252 0.0074462C9.54572 0.0122949 9.44909 0.019568 9.35264 0.0290921C9.25618 0.0386164 9.1599 0.0505649 9.06414 0.0649378C8.9682 0.0793107 8.87279 0.0959348 8.77772 0.11481C8.68265 0.133858 8.5881 0.155158 8.49407 0.178882C8.40004 0.202433 8.3067 0.228408 8.21388 0.256634C8.12107 0.284687 8.02911 0.315165 7.93785 0.347893C7.8466 0.380622 7.7562 0.415602 7.66667 0.45266C7.57715 0.489891 7.48848 0.5292 7.40086 0.57076C7.31324 0.612147 7.22665 0.655785 7.14128 0.701501C7.05574 0.747218 6.97141 0.795012 6.88829 0.844884C6.80516 0.894756 6.72326 0.946706 6.64273 1.00056C6.56221 1.05442 6.4829 1.11018 6.40515 1.16801C6.32722 1.22585 6.25085 1.28542 6.17587 1.3469C6.10089 1.40837 6.02764 1.47175 5.95578 1.53686C5.88391 1.60197 5.81378 1.66881 5.7452 1.73739C5.67663 1.80596 5.60979 1.8761 5.54468 1.94796C5.47957 2.01982 5.41619 2.09307 5.35471 2.16806C5.29324 2.24304 5.23367 2.3194 5.17583 2.39716C5.11799 2.47508 5.06223 2.55439 5.00838 2.63492C4.95452 2.71544 4.90257 2.79735 4.8527 2.88047C4.80283 2.96359 4.75503 3.04792 4.70932 3.13346C4.6636 3.21884 4.61996 3.30542 4.57857 3.39304C4.53701 3.48067 4.4977 3.56933 4.46047 3.65885C4.42342 3.74838 4.38844 3.83878 4.35571 3.93004C4.32298 4.02129 4.2925 4.11325 4.26445 4.20606C4.23622 4.29871 4.21025 4.39222 4.18669 4.48625C4.16297 4.58028 4.14167 4.67483 4.12262 4.7699C4.10375 4.86497 4.08712 4.96038 4.07275 5.05632C4.05838 5.15208 4.04643 5.24836 4.0369 5.34481C4.02738 5.44127 4.02011 5.53789 4.01526 5.6347C4.01041 5.7315 4.00781 5.82847 4.00781 5.92544ZM14.542 5.92544C14.542 6.00077 14.54 6.0761 14.5362 6.1516C14.5326 6.22693 14.5271 6.30208 14.5196 6.37706C14.5123 6.45222 14.503 6.52703 14.4919 6.60166C14.481 6.6763 14.468 6.75059 14.4533 6.82453C14.4386 6.89847 14.4221 6.97207 14.4038 7.04514C14.3854 7.11839 14.3653 7.19095 14.3435 7.26316C14.3215 7.33537 14.298 7.40689 14.2725 7.47806C14.247 7.54906 14.2199 7.61937 14.1911 7.68898C14.1622 7.75877 14.1317 7.82769 14.0993 7.89592C14.0671 7.96397 14.0332 8.03133 13.9977 8.09783C13.9622 8.16433 13.925 8.22996 13.8862 8.29472C13.8474 8.35931 13.807 8.42304 13.7651 8.48572C13.7232 8.54858 13.6799 8.61023 13.6349 8.67084C13.5901 8.73128 13.5436 8.79084 13.4957 8.84903C13.4479 8.90739 13.3987 8.96453 13.348 9.02029C13.2974 9.07623 13.2454 9.13077 13.1921 9.18411C13.1388 9.23744 13.0841 9.28957 13.0281 9.34013C12.9724 9.39087 12.9152 9.44005 12.8569 9.48784C12.7987 9.53581 12.7391 9.58222 12.6787 9.62707C12.6181 9.67209 12.5564 9.71539 12.4937 9.75729C12.4309 9.7992 12.3673 9.83955 12.3025 9.87834C12.2378 9.91713 12.1723 9.95436 12.1057 9.98986C12.0392 10.0254 11.9718 10.0593 11.9037 10.0915C11.8355 10.1239 11.7666 10.1544 11.6968 10.1833C11.6272 10.212 11.5569 10.2392 11.4859 10.2647C11.4149 10.29 11.3432 10.3137 11.271 10.3357C11.1988 10.3575 11.1262 10.3776 11.053 10.3959C10.9799 10.4143 10.9063 10.4307 10.8324 10.4455C10.7584 10.4602 10.6841 10.4732 10.6095 10.4841C10.5349 10.4952 10.46 10.5045 10.3849 10.5118C10.3099 10.5192 10.2348 10.5248 10.1594 10.5284C10.0841 10.5322 10.0086 10.5341 9.93327 10.5341C9.85777 10.5341 9.78244 10.5322 9.70711 10.5284C9.63178 10.5248 9.55663 10.5192 9.48147 10.5118C9.40649 10.5045 9.33151 10.4952 9.25705 10.4841C9.18241 10.4732 9.10812 10.4602 9.03418 10.4455C8.96006 10.4307 8.88664 10.4143 8.81339 10.3959C8.74031 10.3776 8.66758 10.3575 8.59537 10.3357C8.52316 10.3137 8.45164 10.29 8.38064 10.2647C8.30965 10.2392 8.23917 10.212 8.16955 10.1833C8.09994 10.1544 8.03102 10.1239 7.96279 10.0915C7.89456 10.0593 7.8272 10.0254 7.7607 9.98986C7.69421 9.95436 7.62858 9.91713 7.56381 9.87834C7.49922 9.83955 7.4355 9.7992 7.37281 9.75729C7.31012 9.71539 7.24847 9.67209 7.18787 9.62707C7.12726 9.58222 7.06786 9.53581 7.0095 9.48784C6.95114 9.44005 6.89417 9.39087 6.83824 9.34013C6.78231 9.28957 6.72776 9.23744 6.67442 9.18411C6.62109 9.13077 6.56914 9.07623 6.5184 9.02029C6.46783 8.96453 6.41848 8.90739 6.37069 8.84903C6.32289 8.79084 6.27648 8.73128 6.23146 8.67067C6.18661 8.61023 6.14314 8.54858 6.10124 8.48572C6.05933 8.42304 6.01898 8.35931 5.98019 8.29472C5.9414 8.22996 5.90435 8.16433 5.86867 8.09783C5.83317 8.03133 5.79923 7.96397 5.76702 7.89592C5.73481 7.82769 5.70416 7.75877 5.67542 7.68898C5.6465 7.61937 5.61931 7.54906 5.59403 7.47806C5.56857 7.40689 5.54485 7.33537 5.52303 7.26316C5.50104 7.19095 5.48095 7.11839 5.46259 7.04514C5.44441 6.97207 5.42779 6.89847 5.41307 6.82453C5.39835 6.75059 5.38554 6.6763 5.37445 6.60166C5.36337 6.52703 5.35419 6.45222 5.34675 6.37706C5.3393 6.30208 5.33376 6.22693 5.33012 6.1516C5.32649 6.0761 5.32458 6.00077 5.32458 5.92544C5.32458 5.84994 5.32649 5.77461 5.33012 5.69929C5.33376 5.62396 5.3393 5.54863 5.34675 5.47365C5.35419 5.39867 5.36337 5.32369 5.37445 5.24922C5.38554 5.17459 5.39835 5.1003 5.41307 5.02636C5.42779 4.95224 5.44441 4.87865 5.46259 4.80557C5.48095 4.73232 5.50104 4.65976 5.52303 4.58755C5.54485 4.51534 5.56857 4.44382 5.59403 4.37282C5.61931 4.30183 5.6465 4.23135 5.67542 4.16173C5.70416 4.09212 5.73481 4.02303 5.76702 3.95497C5.79923 3.88674 5.83317 3.81938 5.86867 3.75288C5.90435 3.68639 5.9414 3.62076 5.98019 3.55599C6.01898 3.4914 6.05933 3.42768 6.10124 3.36499C6.14314 3.3023 6.18661 3.24066 6.23146 3.18005C6.27648 3.11944 6.32289 3.06004 6.37069 3.00168C6.41848 2.94333 6.46783 2.88635 6.5184 2.83042C6.56914 2.77449 6.62109 2.71994 6.67442 2.66661C6.72776 2.61327 6.78231 2.56132 6.83824 2.51058C6.89417 2.46002 6.95114 2.41066 7.0095 2.36287C7.06786 2.31508 7.12726 2.26867 7.18787 2.22364C7.24847 2.17879 7.31012 2.13533 7.37281 2.09342C7.4355 2.05151 7.49922 2.01117 7.56381 1.97238C7.62858 1.93359 7.69421 1.89653 7.7607 1.86086C7.8272 1.82536 7.89456 1.79142 7.96279 1.75921C8.03102 1.727 8.09994 1.69635 8.16955 1.6676C8.23917 1.63868 8.30965 1.6115 8.38064 1.58621C8.45164 1.56076 8.52316 1.53703 8.59537 1.51522C8.66758 1.49322 8.74031 1.47314 8.81339 1.45478C8.88664 1.4366 8.96006 1.41997 9.03418 1.40525C9.10812 1.39053 9.18241 1.37772 9.25705 1.36664C9.33151 1.35555 9.40649 1.34638 9.48147 1.33893C9.55663 1.33148 9.63178 1.32594 9.70711 1.32231C9.78244 1.3185 9.85777 1.31677 9.93327 1.31677C10.0086 1.31677 10.0839 1.31867 10.1593 1.32248C10.2346 1.32629 10.3097 1.33183 10.3847 1.33945C10.4599 1.3469 10.5347 1.35607 10.6091 1.36733C10.6838 1.37841 10.7581 1.3914 10.832 1.40612C10.906 1.42084 10.9794 1.43746 11.0526 1.45582C11.1257 1.47417 11.1983 1.49443 11.2705 1.51625C11.3427 1.53825 11.4142 1.56197 11.4852 1.58743C11.5562 1.61288 11.6265 1.64007 11.6961 1.66881C11.7657 1.69773 11.8346 1.72838 11.9027 1.76059C11.9709 1.79298 12.0383 1.82692 12.1048 1.86242C12.1711 1.89792 12.2367 1.93515 12.3015 1.97394C12.3661 2.01273 12.4298 2.05307 12.4925 2.09498C12.5552 2.13689 12.6167 2.18035 12.6773 2.2252C12.7379 2.27023 12.7973 2.31663 12.8555 2.36443C12.9138 2.41222 12.971 2.4614 13.0267 2.51214C13.0827 2.56271 13.1372 2.61483 13.1906 2.66799C13.2439 2.72133 13.2958 2.77605 13.3464 2.83181C13.3971 2.88774 13.4463 2.94471 13.4941 3.00307C13.5421 3.06125 13.5885 3.12082 13.6333 3.18126C13.6784 3.24187 13.7217 3.30352 13.7636 3.3662C13.8055 3.42889 13.8458 3.49244 13.8846 3.55721C13.9234 3.6218 13.9606 3.68743 13.9961 3.75392C14.0318 3.82042 14.0657 3.88761 14.098 3.95584C14.1302 4.02389 14.1608 4.09281 14.1897 4.1626C14.2186 4.23221 14.2458 4.30252 14.2713 4.37352C14.2966 4.44434 14.3203 4.51603 14.3423 4.58807C14.3643 4.66028 14.3844 4.73284 14.4027 4.80609C14.4211 4.87917 14.4377 4.95276 14.4524 5.0267C14.4673 5.10065 14.4801 5.17476 14.4914 5.2494C14.5025 5.32403 14.5118 5.39884 14.5193 5.47382C14.5267 5.5488 14.5323 5.62396 14.5361 5.69929C14.5399 5.77461 14.5418 5.84994 14.542 5.92544Z" fill="#663366"/>
<path d="M8.66614 5.77979V8.44593H6V10.2234H8.66614V12.8895H10.4436V10.2234H13.1097V8.44593H10.4436V5.77979H8.66614Z" fill="white"/>
</svg>
