<svg width="25" height="16" viewBox="0 0 25 16" fill="none" xmlns="http://www.w3.org/2000/svg">
<g filter="url(#filter0_i_73_2926)">
<path d="M22.4058 0H2.5479C1.15575 0 0 1.15415 0 2.54426V13.4557C0 14.8459 1.1558 16 2.5479 16H22.4058C23.7979 16 24.9537 14.8459 24.9537 13.4557V2.54426C24.9537 1.12796 23.7979 0 22.4058 0ZM7.22344 3.33119C8.45799 3.33119 9.4824 4.32796 9.4824 5.58693C9.4824 6.81972 8.48421 7.84267 7.22344 7.84267C5.96266 7.84267 4.96447 6.8459 4.96447 5.58693C4.96447 4.35415 5.96266 3.33119 7.22344 3.33119ZM3.7037 11.6459C3.7037 10.0985 4.28157 8.73447 5.17461 7.89522C5.72631 8.36726 6.43538 8.68215 7.22344 8.68215C8.01149 8.68215 8.72075 8.39362 9.27226 7.89522C10.1653 8.73466 10.7432 10.0985 10.7432 11.6459C10.717 13.0099 3.70361 13.0099 3.70361 11.6459H3.7037ZM20.8035 12.4854H13.9216C13.58 12.4854 13.2911 12.1969 13.2911 11.8558C13.2911 11.5148 13.5801 11.2263 13.9216 11.2263H20.8035C21.1451 11.2263 21.434 11.5148 21.434 11.8558C21.434 12.1969 21.1713 12.4854 20.8035 12.4854ZM20.8035 8.62965H13.9216C13.58 8.62965 13.2911 8.34112 13.2911 8.0001C13.2911 7.65907 13.5801 7.37054 13.9216 7.37054H20.8035C21.1451 7.37054 21.434 7.65907 21.434 8.0001C21.434 8.34112 21.1713 8.62965 20.8035 8.62965ZM20.8035 4.80005H13.9216C13.58 4.80005 13.2911 4.51151 13.2911 4.17049C13.2911 3.82947 13.5801 3.54094 13.9216 3.54094H20.8035C21.1451 3.54094 21.434 3.82947 21.434 4.17049C21.434 4.51151 21.1713 4.80005 20.8035 4.80005Z" fill="#056BE2"/>
</g>
<defs>
<filter id="filter0_i_73_2926" x="0" y="-4" width="24.9536" height="20" filterUnits="userSpaceOnUse" color-interpolation-filters="sRGB">
<feFlood flood-opacity="0" result="BackgroundImageFix"/>
<feBlend mode="normal" in="SourceGraphic" in2="BackgroundImageFix" result="shape"/>
<feColorMatrix in="SourceAlpha" type="matrix" values="0 0 0 0 0 0 0 0 0 0 0 0 0 0 0 0 0 0 127 0" result="hardAlpha"/>
<feOffset dy="-4"/>
<feGaussianBlur stdDeviation="2"/>
<feComposite in2="hardAlpha" operator="arithmetic" k2="-1" k3="1"/>
<feColorMatrix type="matrix" values="0 0 0 0 0 0 0 0 0 0 0 0 0 0 0 0 0 0 0.25 0"/>
<feBlend mode="normal" in2="shape" result="effect1_innerShadow_73_2926"/>
</filter>
</defs>
</svg>
