<svg width="18" height="18" viewBox="0 0 18 18" fill="none" xmlns="http://www.w3.org/2000/svg">
<path d="M11.6368 2.07229C9.27782 2.07229 7.36544 3.9661 7.36544 6.30138C7.36544 8.63866 9.27782 10.5339 11.6368 10.5339C13.9957 10.5339 15.9078 8.63902 15.9078 6.30138C15.9078 3.9661 13.9957 2.07229 11.6368 2.07229ZM11.6368 0C15.1451 0 18 2.82764 18 6.3015C18 9.77783 15.1451 12.6041 11.6368 12.6041C8.12805 12.6041 5.27426 9.77748 5.27426 6.3015C5.27426 2.82764 8.12805 0 11.6368 0Z" fill="#949494"/>
<path d="M1.74375 18.0001C2.19078 18.0001 2.63522 17.8319 2.97611 17.4943L6.07046 14.4287C6.7519 13.7549 6.7519 12.6634 6.07046 11.987C5.38914 11.3129 4.2867 11.3129 3.60537 11.987L0.510906 15.053C-0.170416 15.7275 -0.170416 16.8198 0.510906 17.4942C0.851449 17.8319 1.29636 18.0001 1.74375 18.0001Z" fill="#949494"/>
<path d="M6.71453 9.88635L5.01418 11.5695L6.49338 13.0355L8.19373 11.3523L6.71453 9.88635Z" fill="#949494"/>
</svg>
