<svg width="30" height="30" viewBox="0 0 30 30" fill="none" xmlns="http://www.w3.org/2000/svg">
<circle cx="15" cy="15" r="15" fill="#E28A05"/>
<path d="M18.0609 9.13409C15.8592 9.13409 14.0743 10.9016 14.0743 13.0812C14.0743 15.2627 15.8592 17.0316 18.0609 17.0316C20.2626 17.0316 22.0471 15.263 22.0471 13.0812C22.0471 10.9016 20.2626 9.13409 18.0609 9.13409ZM18.0609 7.19995C21.3353 7.19995 23.9999 9.83908 23.9999 13.0814C23.9999 16.3259 21.3353 18.9637 18.0609 18.9637C14.7861 18.9637 12.1225 16.3256 12.1225 13.0814C12.1225 9.83908 14.7861 7.19995 18.0609 7.19995Z" fill="#663366"/>
<path d="M8.8275 24C9.24473 24 9.65954 23.843 9.97771 23.528L12.8658 20.6667C13.5018 20.0378 13.5018 19.0191 12.8658 18.3878C12.2299 17.7586 11.2009 17.7586 10.565 18.3878L7.67685 21.2494C7.04095 21.8789 7.04095 22.8984 7.67685 23.5279C7.99469 23.843 8.40993 24 8.8275 24Z" fill="#663366"/>
<path d="M13.4668 16.4272L11.8798 17.9982L13.2604 19.3664L14.8474 17.7954L13.4668 16.4272Z" fill="#663366"/>
</svg>
