<svg width="36" height="35" viewBox="0 0 36 35" fill="none" xmlns="http://www.w3.org/2000/svg">
<path d="M0 17.9194C0.0445281 13.6001 1.17999 10.0527 3.56967 6.96546C5.09847 4.98396 6.95381 3.329 9.18763 2.149C12.7499 0.271401 16.5199 -0.396521 20.5126 0.226873C22.4941 0.53857 24.342 1.19907 26.1157 2.11932C28.3199 3.26963 30.1158 4.88748 31.6817 6.80219C33.7078 9.28834 34.8581 12.1381 35.2514 15.2922C35.8154 19.7896 34.7987 23.9381 32.1493 27.6191C30.6799 29.6599 28.8616 31.3669 26.6501 32.6136C23.5405 34.3651 20.2083 35.1814 16.6312 34.9662C14.1674 34.8178 11.8519 34.1647 9.64034 33.0663C7.4733 31.9903 5.67733 30.4689 4.09659 28.6506C1.96666 26.209 0.742135 23.3666 0.222641 20.1977C0.0816349 19.3072 0.0445281 18.4018 0 17.9194ZM6.37494 28.5393C6.13746 28.9994 6.29331 29.2963 6.61985 29.5709C7.56236 30.3798 8.54198 31.1145 9.63291 31.7157C12.5272 33.3113 15.6071 33.9866 18.8948 33.764C22.0414 33.5487 24.8615 32.4504 27.4516 30.6767C28.0601 30.2611 28.4164 29.8084 28.2679 29.0588C28.2234 28.8362 28.3496 28.7174 28.5128 28.6061C28.7355 28.4503 28.9804 28.3018 29.1288 28.094C29.5963 27.4261 30.0491 26.7434 30.4424 26.0309C30.5611 25.8231 30.5463 25.452 30.435 25.2294C30.3311 25.0142 30.3385 24.9326 30.5018 24.7915C30.7541 24.5689 31.0212 24.3537 31.2142 24.0939C31.3923 23.849 31.6075 23.708 31.8599 23.5744C32.1122 23.4409 32.3571 23.2702 32.5797 23.0921C32.8321 22.8843 33.0695 22.6616 33.2922 22.4241C33.4109 22.298 33.5297 22.1495 33.5668 21.9863C33.7671 21.0215 33.9749 20.0567 34.1234 19.0845C34.2124 18.4908 34.1976 17.8823 34.2273 17.2811C34.1827 17.2737 34.1382 17.2663 34.0863 17.2589C33.8859 17.9936 33.6855 18.7357 33.4777 19.5001C33.0695 19.2701 32.7356 19.6485 32.3051 19.6782C32.4313 19.515 32.55 19.3517 32.6836 19.181C32.6317 19.1291 32.5872 19.0845 32.5352 19.0548C32.1716 18.847 32.0602 18.5428 32.1122 18.1346C32.2161 17.2663 31.8895 16.5167 31.422 15.8191C31.2142 15.5074 30.9322 15.411 30.576 15.552C30.3162 15.6559 30.0787 15.8117 29.819 15.9304C29.5963 16.0343 29.5147 16.1976 29.5518 16.4351C29.6335 16.9323 29.3811 17.2737 29.0026 17.5483C28.8765 17.6374 28.7577 17.7487 28.6613 17.8674C28.3718 18.2385 27.9785 18.2979 27.5406 18.2756C27.2067 18.2608 26.9915 18.1346 26.8653 17.8303C26.7911 17.6596 26.6872 17.4964 26.5833 17.3405C26.4571 17.155 26.3087 17.014 26.138 17.1995C25.7966 16.8581 25.4552 16.5464 25.151 16.205C24.8393 15.8562 24.5647 15.4777 24.2827 15.0993C24.0971 14.8618 23.9858 14.5204 23.7483 14.3794C23.4069 14.1716 23.444 13.9118 23.4663 13.615C23.4737 13.4888 23.5628 13.333 23.5183 13.2513C23.3847 13.0139 23.2437 12.7022 23.0285 12.6131C22.8281 12.5315 22.6648 12.4721 22.5535 12.2866C22.4347 12.0936 22.2789 11.9155 22.1676 11.7151C22.0414 11.4776 21.8559 11.3663 21.611 11.4405C21.4032 11.5073 21.2102 11.6335 20.9431 11.7671C20.431 11.4628 19.7334 11.2476 19.2584 10.6836C19.2065 10.6168 19.0951 10.5945 19.0135 10.5574C18.5682 10.3793 18.1081 10.216 17.6702 10.0231C17.4847 9.94142 17.3808 10.0008 17.2398 10.1195C17.0172 10.2976 16.7723 10.4609 16.5051 10.5648C16.0598 10.7503 15.5255 10.7503 15.1544 11.0992C15.0431 11.203 14.9392 11.3812 14.9318 11.5296C14.9243 11.73 15.0728 11.871 15.3028 11.8636C15.711 11.8413 16.045 12.0342 16.3789 12.242C17.0988 12.6873 17.7816 13.192 18.6127 13.422C18.7686 13.4666 18.9096 13.5779 19.0506 13.6595C19.251 13.7783 19.4291 14.038 19.6814 13.7189C19.7037 13.6892 19.8002 13.7115 19.867 13.7115C20.431 13.7115 21.0024 13.704 21.5664 13.7189C21.6852 13.7189 21.841 13.7783 21.9153 13.8673C22.3902 14.3942 22.8503 14.9434 23.3179 15.4703C23.3995 15.5668 23.5257 15.641 23.6444 15.6781C24.0674 15.8117 24.2233 16.1234 23.9784 16.4351C24.0897 16.6429 24.201 16.8581 24.3198 17.0659C24.4162 17.2292 24.4905 17.4296 24.6315 17.526C25.1584 17.9045 25.715 18.2385 26.2567 18.5947C26.4497 18.3795 26.6426 18.5279 26.7911 18.6689C27.1176 18.988 27.5184 19.0623 27.9414 19.0771C28.1269 19.0845 28.305 19.0771 28.4906 19.0771C28.5203 19.6857 28.6687 20.2794 27.9711 20.5762C27.6742 20.7024 27.6148 20.9844 27.6742 21.2367C27.8004 21.7562 27.4961 22.0382 27.177 22.3351C26.8504 22.6319 26.4645 22.8768 26.2122 23.2256C25.7595 23.8416 25.4033 24.517 24.9877 25.1626C24.7725 25.504 24.5201 25.8157 24.2901 26.1497C24.1788 26.3129 24.0229 26.491 24.0007 26.6691C23.8968 27.53 23.5628 28.2722 23.0285 28.9401C22.8949 29.1033 22.7984 29.2889 22.6722 29.4596C22.6277 29.5264 22.5683 29.608 22.5015 29.6377C22.0637 29.8158 21.6184 29.9642 21.188 30.1572C20.9727 30.2537 20.7427 30.3724 20.5868 30.5431C20.2603 30.8919 19.9783 31.2852 19.6666 31.6563C19.533 31.8196 19.392 31.7899 19.2732 31.6415C19.199 31.545 19.1322 31.4337 19.0729 31.3223C18.8502 30.8548 18.6127 30.3872 18.4124 29.9049C18.3382 29.7119 18.3085 29.4893 18.3307 29.2815C18.3678 28.7991 18.4569 28.3241 18.0784 27.9159C17.9968 27.8269 17.9448 27.6933 17.8632 27.6117C17.4624 27.1961 17.4847 26.7359 17.6777 26.2461C17.7222 26.1422 17.789 26.0309 17.7964 25.9196C17.8112 25.7192 17.8632 25.4001 17.7667 25.3259C17.3214 25.0142 17.1507 24.5095 16.8019 24.1385C16.327 23.6338 15.9856 23.0549 15.7184 22.4241C15.6145 22.1866 15.4587 21.9714 15.288 21.7785C15.0357 21.489 14.7388 21.2367 14.4791 20.9547C14.3455 20.8063 14.2045 20.7692 14.0115 20.7692C13.1284 20.7766 12.2527 20.7543 11.3695 20.7617C10.9539 20.7617 10.6125 20.6356 10.2934 20.3536C10.0188 20.1012 9.67744 19.9231 9.38059 19.7005C9.23958 19.5966 9.11342 19.4556 8.95015 19.3072C9.11342 19.2255 9.21732 19.181 9.3138 19.1365C9.3138 18.6615 9.29895 18.2014 9.32122 17.7413C9.32864 17.5409 9.39543 17.3331 9.46964 17.1401C9.54386 16.9546 9.69971 16.7913 9.75166 16.5984C9.86298 16.1976 9.95203 15.782 10.004 15.3664C10.1079 14.4684 10.4641 13.7486 11.3176 13.3256C11.7257 13.1252 12.0968 12.8432 12.5347 12.5612C12.1488 12.1604 11.7925 11.7968 11.4289 11.4331C11.1691 11.1734 11.1914 10.6613 11.5105 10.4832C11.8222 10.3125 12.1413 10.1492 12.4753 10.0231C12.6163 9.97111 12.7944 10.0156 13.0171 10.0156C13.544 9.55551 13.5514 9.55551 13.2842 9.03602C13.2397 8.94696 13.0913 8.86532 12.9874 8.85048C12.7573 8.8208 12.5272 8.85048 12.2972 8.83564C12.2155 8.82822 12.1042 8.78369 12.0745 8.7169C11.9187 8.43489 11.7851 8.14545 11.6293 7.84118C12.0077 7.58885 12.3565 7.35137 12.7202 7.11389C12.7721 7.07678 12.8612 7.06194 12.9206 7.07678C13.2768 7.15841 13.6404 7.23263 13.9892 7.35137C14.3974 7.49237 14.4494 7.63338 14.3677 8.0564C14.3529 8.11577 14.3826 8.1974 14.4197 8.24193C14.5904 8.44973 14.7759 8.65011 14.954 8.84306C15.0653 8.77627 15.1099 8.754 15.147 8.72432C15.4884 8.50168 15.8446 8.3013 15.7704 7.78923C15.7555 7.67791 15.8965 7.50722 16.0004 7.41074C16.186 7.24005 16.2973 7.06194 16.2528 6.80961C16.1711 6.38659 16.3418 6.08974 16.7055 5.87452C17.084 5.64446 17.1433 5.28823 17.0246 4.88748C16.9504 4.65 16.8836 4.40509 16.8316 4.16019C16.7945 3.9895 16.839 3.87818 17.0468 3.81881C18.5831 3.38837 20.1564 3.41063 21.7223 3.39579C21.8485 3.39579 22.0414 3.49227 22.0934 3.59617C22.3531 4.11566 22.8132 4.39767 23.2734 4.69453C23.7186 4.98396 24.253 4.87264 24.5944 4.6871C25.1287 4.39025 25.5369 3.85591 26.0118 3.41063C20.1341 -0.0328742 12.8389 0.798317 8.19317 4.21956C8.45292 4.47189 8.70525 4.72421 8.97241 4.96169C9.37317 5.32534 9.39543 5.34018 8.98726 5.68899C8.62361 6.00068 8.45292 6.34207 8.50487 6.83187C8.5494 7.292 8.51229 7.76697 8.51229 8.27162C7.94085 8.17514 7.46588 8.33841 6.99091 8.56105C6.67179 8.70948 6.33041 8.8208 5.98903 8.93954C5.60312 9.07312 5.4918 9.2735 5.7367 9.5852C5.96677 9.87463 5.88513 10.1195 5.72186 10.3496C5.55859 10.5797 5.36564 10.8023 5.143 10.9581C5.00199 11.0546 4.74966 11.0695 4.59382 11.0101C4.28212 10.8988 4.01495 10.9062 3.72552 11.0695C3.6142 11.1363 3.42866 11.1511 3.29508 11.1066C2.80527 10.9359 2.52326 11.0472 2.33773 11.5222C1.26905 14.2681 0.957354 17.103 1.39521 20.0196C1.46201 20.4501 1.49169 20.4797 1.93697 20.4797C2.04087 20.4797 2.14477 20.4872 2.27835 20.4946C2.27835 20.9918 2.27835 21.4668 2.27835 21.9789C2.69395 21.9789 3.07986 21.9789 3.45835 21.9789C3.43609 22.0085 3.4064 22.0382 3.38414 22.0679C3.50288 22.246 3.59193 22.4538 3.74778 22.5874C4.08174 22.8768 4.43797 23.1366 4.80161 23.3815C4.95004 23.478 5.13557 23.5448 5.31369 23.5522C5.70702 23.5744 6.10035 23.5596 6.53079 23.5596C6.53079 23.7154 6.53079 23.8268 6.53079 23.9381C6.53079 24.8212 6.53821 25.7044 6.52337 26.5801C6.51595 26.8324 6.56047 27.0625 6.74601 27.2406C7.11708 27.6117 7.04286 28.0569 6.99833 28.5245C6.77569 28.5393 6.5679 28.5393 6.37494 28.5393Z" fill="#693061"/>
<path d="M25.2103 28.7991C25.1064 28.7472 24.9357 28.6878 24.8021 28.5913C24.5498 28.3984 24.5498 28.198 24.8244 28.0496C24.9951 27.9531 25.0322 27.8418 25.0174 27.6711C25.0099 27.5672 25.0322 27.4558 25.0099 27.3594C24.9209 26.8844 25.1064 26.595 25.5591 26.4317C25.9079 26.3055 26.2493 26.1348 26.5981 26.0013C26.8504 25.9048 27.2883 26.0977 27.4145 26.3501C27.459 26.4317 27.4961 26.5208 27.5406 26.6024C27.8078 27.1367 27.8301 27.1961 27.3848 27.5894C26.8504 28.0644 26.3161 28.5542 25.5962 28.7472C25.4923 28.7694 25.3884 28.7768 25.2103 28.7991Z" fill="#693061"/>
</svg>
