<svg width="40" height="37" viewBox="0 0 40 37" fill="none" xmlns="http://www.w3.org/2000/svg">
<path d="M36.2833 1.4025H34.9607V0.637475C34.9607 0.286983 34.6771 0 34.3307 0C33.9844 0 33.7008 0.286983 33.7008 0.637475V1.4025H30.2362V0.637475C30.2362 0.286983 29.9529 0 29.6063 0C29.2599 0 28.9763 0.286983 28.9763 0.637475V1.4025H25.5117V0.637475C25.5117 0.286983 25.2284 0 24.8818 0C24.5354 0 24.2521 0.286983 24.2521 0.637475V1.4025H20.4724V0.637475C20.4724 0.286983 20.1891 0 19.8424 0C19.4961 0 19.2125 0.286983 19.2125 0.637475V1.4025H16.063V0.637475C16.063 0.286983 15.7794 0 15.4331 0C15.0867 0 14.8031 0.286983 14.8031 0.637475V1.4025H11.3385V0.637475C11.3385 0.286983 11.0552 0 10.7086 0C10.3622 0 10.0786 0.286983 10.0786 0.637475V1.4025H6.61406V0.637475C6.61406 0.286983 6.33073 0 5.98438 0C5.63776 0 5.35443 0.286983 5.35443 0.637475V1.4025H4C1.79531 1.4025 0 3.41032 0 5.64135V28.1116C0 30.3427 1.79531 32 4 32H12.8505C12.693 31.6811 12.5669 31.0439 12.4409 30.725H4C2.48828 30.725 1.2599 29.6095 1.2599 28.1116V5.86456H38.7401V28.1116C38.7401 29.6414 37.7953 30.725 36.2833 30.725H27.7479C27.7479 30.725 27.7794 30.8207 27.7794 30.8526C27.874 30.8845 27.9055 30.9164 27.9055 30.9801C27.9055 31.3306 27.937 31.6811 27.9055 32H36.2833C38.4883 32 40 30.3427 40 28.1116V5.64135C40 3.41032 38.4883 1.4025 36.2833 1.4025Z" fill="white"/>
<path d="M9.41172 11H5.58828C5.26459 11 5 10.7751 5 10.5C5 10.2251 5.26459 10 5.58828 10H9.41172C9.73541 10 10 10.2251 10 10.5C10 10.7751 9.73541 11 9.41172 11Z" fill="white"/>
<path d="M9.41172 16H5.58828C5.26459 16 5 15.7751 5 15.4999C5 15.2249 5.26459 15 5.58828 15H9.41172C9.73541 15 10 15.2249 10 15.4999C10 15.7751 9.73541 16 9.41172 16Z" fill="white"/>
<path d="M9.41172 22H5.58828C5.26459 22 5 21.7751 5 21.5001C5 21.2249 5.26459 21 5.58828 21H9.41172C9.73541 21 10 21.2249 10 21.5001C10 21.7751 9.73541 22 9.41172 22Z" fill="white"/>
<path d="M9.41172 27H5.58828C5.26459 27 5 26.7749 5 26.5C5 26.2249 5.26459 26 5.58828 26H9.41172C9.73541 26 10 26.2249 10 26.5C10 26.7749 9.73541 27 9.41172 27Z" fill="white"/>
<path d="M17.4118 11H13.5882C13.2648 11 13 10.7751 13 10.5C13 10.2251 13.2648 10 13.5882 10H17.4118C17.7352 10 18 10.2251 18 10.5C18 10.7751 17.7352 11 17.4118 11Z" fill="white"/>
<path d="M17.4118 16H13.5882C13.2648 16 13 15.7751 13 15.4999C13 15.2249 13.2648 15 13.5882 15H17.4118C17.7352 15 18 15.2249 18 15.4999C18 15.7751 17.7352 16 17.4118 16Z" fill="white"/>
<path d="M26.4118 11H22.5882C22.2646 11 22 10.7751 22 10.5C22 10.2251 22.2646 10 22.5882 10H26.4118C26.7352 10 27 10.2251 27 10.5C27 10.7751 26.7352 11 26.4118 11Z" fill="white"/>
<path d="M26.4118 16H22.5882C22.2646 16 22 15.7751 22 15.4999C22 15.2249 22.2646 15 22.5882 15H26.4118C26.7352 15 27 15.2249 27 15.4999C27 15.7751 26.7352 16 26.4118 16Z" fill="white"/>
<path d="M34.4117 11H30.5883C30.2646 11 30 10.7751 30 10.5C30 10.2251 30.2646 10 30.5883 10H34.4117C34.7354 10 35 10.2251 35 10.5C35 10.7751 34.7354 11 34.4117 11Z" fill="white"/>
<path d="M34.4117 16H30.5883C30.2646 16 30 15.7751 30 15.4999C30 15.2249 30.2646 15 30.5883 15H34.4117C34.7354 15 35 15.2249 35 15.4999C35 15.7751 34.7354 16 34.4117 16Z" fill="white"/>
<path d="M34.4117 22H30.5883C30.2646 22 30 21.7751 30 21.5001C30 21.2249 30.2646 21 30.5883 21H34.4117C34.7354 21 35 21.2249 35 21.5001C35 21.7751 34.7354 22 34.4117 22Z" fill="white"/>
<path d="M34.4117 27H30.5883C30.2646 27 30 26.7749 30 26.5C30 26.2249 30.2646 26 30.5883 26H34.4117C34.7354 26 35 26.2249 35 26.5C35 26.7749 34.7354 27 34.4117 27Z" fill="white"/>
<ellipse cx="20.5" cy="28" rx="8.5" ry="8" fill="#64E200"/>
<path d="M20.5 37C15.2587 37 11 32.9655 11 28C11 23.0345 15.2587 19 20.5 19C25.7413 19 30 23.0345 30 28C30 32.9655 25.7413 37 20.5 37ZM20.5 20.2725C15.9791 20.2725 12.3104 23.7481 12.3104 28.031C12.3104 32.3137 15.9791 35.7896 20.5 35.7896C25.0206 35.7896 28.6896 32.3137 28.6896 28.031C28.6896 23.7481 25.0206 20.2725 20.5 20.2725Z" fill="#64E200"/>
<path d="M24.9348 25.0982L24.9351 25.098L24.928 25.0911C24.5953 24.7696 24.091 24.7696 23.7583 25.0911C23.7583 25.0911 23.7583 25.0911 23.7583 25.0911L19.5021 29.2004L17.2716 27.0469C16.9387 26.7255 16.4346 26.7255 16.1017 27.0469C15.7661 27.371 15.7661 27.8668 16.1017 28.1908L18.9173 30.9092C19.082 31.0683 19.291 31.15 19.5021 31.15C19.7132 31.15 19.9218 31.0682 20.0868 30.9093L20.0869 30.9092L24.8935 26.2682C24.8935 26.2681 24.8936 26.2681 24.8936 26.2681C25.2284 25.9451 25.2281 25.4215 24.9348 25.0982Z" fill="#663366" stroke="#5B2B5A" stroke-width="0.3"/>
</svg>
