<svg width="27" height="20" viewBox="0 0 27 20" fill="none" xmlns="http://www.w3.org/2000/svg">
<path d="M0.53259 0.0446777H25.9964C26.2909 0.0446777 26.5289 0.282887 26.5289 0.5712V19.4735C26.5289 19.7618 26.2909 20 25.9964 20H0.53259C0.238036 20 0 19.7618 0 19.4735V0.5712C0 0.282887 0.238036 0.0446777 0.53259 0.0446777ZM25.4638 1.10379H1.06518V18.9407H25.4638V1.10379Z" fill="white"/>
<path d="M0.413156 0.911604C0.212216 0.702513 0.212216 0.366706 0.413156 0.157616C0.614097 -0.0514749 0.936645 -0.0514749 1.14365 0.151306L13.513 13.0257C13.714 13.2348 13.714 13.5706 13.513 13.7797C13.3122 13.9888 12.9895 13.9888 12.7827 13.786L0.413156 0.911604Z" fill="white"/>
<path d="M25.6124 0.151306C25.8277 -0.0514749 26.1631 -0.0514749 26.3721 0.157616C26.5811 0.366706 26.5811 0.702513 26.3721 0.911604L13.5071 13.786C13.2983 13.9888 12.9563 13.9888 12.7475 13.7797C12.5385 13.5706 12.5385 13.2348 12.7538 13.0257L25.6124 0.151306Z" fill="white"/>
</svg>
