<svg width="43" height="35" viewBox="0 0 43 35" fill="none" xmlns="http://www.w3.org/2000/svg">
<mask id="path-1-inside-1_71_1687" fill="white">
<path d="M16.293 33.2228H1.77743V29.3715C1.77743 29.1922 1.7821 29.013 1.79099 28.8339C1.8001 28.6549 1.81343 28.476 1.83119 28.2977C1.84896 28.1191 1.87093 27.9412 1.89758 27.7638C1.92399 27.5866 1.95484 27.4099 1.98991 27.2341C2.02497 27.0581 2.06447 26.8833 2.10818 26.7094C2.1519 26.5354 2.19981 26.3627 2.25194 26.1911C2.30407 26.0196 2.3604 25.8494 2.42094 25.6806C2.48148 25.5119 2.546 25.3445 2.61472 25.179C2.68344 25.0133 2.75637 24.8494 2.83304 24.6874C2.90971 24.5252 2.99035 24.3651 3.07497 24.2071C3.15959 24.049 3.24795 23.8929 3.34028 23.7391C3.43261 23.5855 3.52844 23.4341 3.62825 23.2849C3.72783 23.1358 3.83115 22.9892 3.93797 22.8452C4.0448 22.7012 4.15513 22.5598 4.26896 22.4212C4.3828 22.2828 4.49991 22.147 4.62029 22.014C4.74067 21.8813 4.86432 21.7515 4.99101 21.6246C5.11794 21.4979 5.24767 21.3742 5.38067 21.2536C5.51344 21.1333 5.64925 21.0161 5.78786 20.9023C5.92648 20.7887 6.06766 20.6784 6.21165 20.5716C6.35587 20.4645 6.50244 20.3614 6.65133 20.2616C6.80047 20.162 6.95193 20.0659 7.10574 19.9739C7.25955 19.8815 7.41546 19.7932 7.57347 19.7085C7.73172 19.6239 7.89184 19.5433 8.05383 19.4666C8.21582 19.3897 8.37967 19.317 8.5454 19.2483C8.71113 19.1796 8.87826 19.1151 9.04703 19.0545C9.2158 18.994 9.38597 18.9376 9.55754 18.8855C9.72911 18.8332 9.90208 18.7852 10.076 18.7415C10.2499 18.6978 10.4247 18.6585 10.6005 18.6235C10.7763 18.5882 10.953 18.5576 11.1304 18.5309C11.3079 18.5045 11.4857 18.4823 11.6641 18.4648C11.8424 18.447 12.0213 18.4334 12.2005 18.4246C12.3796 18.4157 12.5586 18.411 12.7382 18.4108H16.293C16.4744 18.4112 16.6558 18.4063 16.837 18.396C17.0181 18.3858 17.199 18.3701 17.3793 18.3491C17.5595 18.328 17.739 18.3018 17.9178 18.2703C18.0966 18.2385 18.2743 18.2018 18.4508 18.1597C18.6272 18.1174 18.8023 18.0702 18.9762 18.0178C19.1499 17.9652 19.3219 17.9077 19.4923 17.8451C19.6627 17.7824 19.831 17.7147 19.9975 17.6422C20.1637 17.5695 20.3278 17.4921 20.4895 17.4098C20.6513 17.3276 20.8105 17.2404 20.9671 17.1488C21.1239 17.0569 21.2775 16.9606 21.4285 16.8598C21.5795 16.7591 21.7272 16.6539 21.8719 16.5443C22.0166 16.4346 22.158 16.321 22.2959 16.203C22.4338 16.0852 22.5683 15.9632 22.6992 15.8372C22.8298 15.7114 22.9567 15.5817 23.0799 15.4485C23.2029 15.315 23.3221 15.178 23.4371 15.0378C23.5521 14.8973 23.6627 14.7535 23.7693 14.6065C23.8758 14.4595 23.9778 14.3096 24.0755 14.1565C24.1729 14.0034 24.266 13.8477 24.3546 13.6893C24.4429 13.5308 24.5266 13.3697 24.6054 13.2063C24.6844 13.0427 24.7582 12.8772 24.8274 12.7094C24.8964 12.5415 24.9604 12.3716 25.0196 12.2C25.0787 12.0285 25.1325 11.8553 25.1813 11.6804C25.2302 11.5056 25.2737 11.3293 25.3122 11.1521C25.3506 10.9747 25.3835 10.7961 25.4113 10.6168C25.4392 10.4376 25.4618 10.2576 25.4789 10.0769C25.4962 9.89619 25.5079 9.71504 25.5144 9.53365C25.521 9.35226 25.5219 9.17087 25.5177 8.98948C25.5135 8.80785 25.5039 8.6267 25.4889 8.44577C25.474 8.26509 25.4537 8.08463 25.4279 7.90511C25.4022 7.72536 25.3714 7.54654 25.3351 7.36865C25.2989 7.19077 25.2575 7.01429 25.2108 6.83874C25.1643 6.66343 25.1124 6.48952 25.0553 6.31725C24.9985 6.14474 24.9366 5.97434 24.8695 5.80557C24.8024 5.63703 24.7304 5.47037 24.6535 5.30605C24.5766 5.14149 24.495 4.9795 24.4086 4.82008C24.3221 4.66043 24.2309 4.50358 24.1353 4.34931C24.0395 4.19503 23.9392 4.0438 23.8345 3.8956C23.7297 3.7474 23.6208 3.60224 23.5075 3.46036C23.3943 3.3187 23.277 3.18032 23.1554 3.04545C23.0341 2.91058 22.9086 2.77944 22.7793 2.65181C22.6503 2.52442 22.5173 2.401 22.3808 2.28132C22.2443 2.16164 22.1043 2.04617 21.961 1.9349C21.8177 1.82364 21.6711 1.71658 21.5215 1.61397C21.3717 1.51135 21.219 1.41317 21.0636 1.31944C20.9082 1.22571 20.7501 1.13688 20.5893 1.0525C20.4285 0.968348 20.2654 0.888873 20.1001 0.814307C19.9346 0.739507 19.767 0.669849 19.5975 0.605101C19.4278 0.540352 19.2565 0.480746 19.0835 0.426282C18.9103 0.371584 18.7357 0.322263 18.5597 0.277851C18.3837 0.233672 18.2065 0.194636 18.0281 0.160976C17.8498 0.127082 17.6707 0.0985645 17.4908 0.0754232C17.3105 0.052282 17.1301 0.0342832 16.9489 0.0218945C16.768 0.00927198 16.5866 0.00225952 16.4052 0.000389519C16.2236 -0.00124669 16.0422 0.00225949 15.8611 0.011142C15.6797 0.0202583 15.4987 0.034517 15.3183 0.054152C15.1378 0.073787 14.9583 0.0987982 14.7793 0.128952C14.6002 0.159339 14.4223 0.194869 14.2456 0.235542C14.0687 0.276448 13.8931 0.322497 13.719 0.373688C13.5448 0.424879 13.3723 0.481213 13.2017 0.542456C13.0308 0.603932 12.8618 0.670317 12.6952 0.741611C12.5283 0.812904 12.3635 0.88934 12.2012 0.970452C12.0388 1.05156 11.8789 1.13735 11.7216 1.22781C11.5643 1.31851 11.4098 1.41364 11.2583 1.51322C11.1066 1.61303 10.9579 1.71705 10.8123 1.82551C10.6669 1.9342 10.5248 2.04687 10.3859 2.16374C10.2471 2.28062 10.1118 2.40147 9.98015 2.52652C9.84832 2.65135 9.72046 2.77991 9.59634 2.91245C9.47222 3.04498 9.35231 3.18102 9.23613 3.32057C9.12019 3.46012 9.00846 3.60294 8.9007 3.74927C8.79318 3.89536 8.69009 4.04473 8.59122 4.1969C8.49258 4.34931 8.39837 4.50428 8.30885 4.66206C8.21932 4.82008 8.13447 4.98043 8.0543 5.14335C7.97412 5.30605 7.89909 5.47131 7.82873 5.63867C7.75837 5.8058 7.69292 5.97527 7.63261 6.14638C7.57231 6.31748 7.51714 6.49046 7.46712 6.66483C7.41686 6.83921 7.37198 7.01499 7.33248 7.19217C7.29274 7.36936 7.25815 7.54747 7.22916 7.72653C7.19994 7.90581 7.1761 8.08557 7.15763 8.26625C7.13917 8.44671 7.12584 8.62763 7.11813 8.80902C7.11018 8.99041 7.10785 9.1718 7.11065 9.35319C7.11369 9.53481 7.12187 9.71597 7.13566 9.89689C7.14922 10.078 7.16815 10.2585 7.19246 10.4383C7.21677 10.6182 7.24646 10.7971 7.28129 10.9752C7.31612 11.1533 7.35632 11.3302 7.40167 11.506C7.44702 11.6818 7.49751 11.8562 7.55314 12.0289C7.60877 12.2017 7.66954 12.3725 7.73546 12.5418C7.80115 12.711 7.87197 12.8779 7.94747 13.0429C8.02321 13.208 8.10362 13.3707 8.18894 13.5308C8.27425 13.6909 8.36425 13.8487 8.45892 14.0034C8.55335 14.1584 8.65246 14.3103 8.75624 14.4595C8.8598 14.6084 8.96755 14.7542 9.07975 14.897C9.19219 15.0396 9.30836 15.1787 9.42898 15.3145C9.54936 15.4503 9.67371 15.5824 9.80204 15.711C9.93013 15.8393 10.0622 15.9639 10.1978 16.0845C10.3334 16.2051 10.4724 16.3215 10.615 16.4339C10.7576 16.5464 10.9032 16.6544 11.0524 16.7582C10.8633 16.7836 10.6749 16.8131 10.4874 16.847C10.2997 16.8806 10.1127 16.9187 9.92686 16.9611C9.7408 17.0031 9.5559 17.0494 9.37217 17.0999C9.18821 17.1504 9.00566 17.2051 8.82403 17.2638C8.64264 17.3224 8.46266 17.3851 8.28407 17.4519C8.10549 17.5188 7.92854 17.5894 7.75299 17.6642C7.57768 17.739 7.40401 17.8175 7.23197 17.9C7.06016 17.9825 6.88999 18.0688 6.72216 18.159C6.55409 18.249 6.38813 18.343 6.22427 18.4405C6.06042 18.5382 5.89889 18.6394 5.73971 18.7441C5.58029 18.849 5.42345 18.9573 5.26894 19.0692C5.11467 19.181 4.96273 19.2962 4.8136 19.415C4.66423 19.5337 4.5179 19.6557 4.37391 19.7808C4.23016 19.9061 4.08944 20.0346 3.9513 20.1662C3.81338 20.2976 3.67828 20.4322 3.54644 20.5699C3.41437 20.7076 3.28558 20.8481 3.15982 20.9916C3.0343 21.1349 2.91181 21.2812 2.79284 21.4301C2.67362 21.579 2.55792 21.7305 2.44572 21.8845C2.33328 22.0386 2.22459 22.1952 2.11917 22.3541C2.01398 22.5131 1.9123 22.6744 1.81413 22.838C1.71619 23.0014 1.62175 23.1671 1.53129 23.3349C1.4406 23.5028 1.35388 23.6725 1.27089 23.844C1.18791 24.0159 1.10867 24.1893 1.03341 24.3644C0.958372 24.5397 0.887078 24.7164 0.819758 24.895C0.752439 25.0733 0.689326 25.2531 0.629954 25.4345C0.570816 25.6156 0.515651 25.7982 0.464693 25.9819C0.413736 26.1657 0.366752 26.3505 0.323976 26.5364C0.281434 26.7222 0.242865 26.9087 0.208504 27.0964C0.174143 27.2839 0.14399 27.4721 0.118043 27.6612C0.0920972 27.8501 0.0705922 28.0394 0.0530611 28.2292C0.0357636 28.4192 0.0224399 28.6093 0.0137912 28.7998C0.0049087 28.9903 0.000233734 29.1808 0 29.3715V35H16.293V33.2228ZM8.88691 9.22743C8.88691 9.10635 8.88995 8.98504 8.89603 8.86395C8.90187 8.7431 8.91075 8.62226 8.92267 8.50164C8.9346 8.38103 8.94932 8.26064 8.96709 8.14073C8.98485 8.02082 9.00566 7.9016 9.02926 7.78263C9.05287 7.66365 9.07952 7.5456 9.10897 7.42803C9.13842 7.31045 9.17068 7.19358 9.20598 7.07764C9.24104 6.9617 9.27914 6.84669 9.31981 6.73239C9.36072 6.61832 9.40443 6.50518 9.45071 6.39322C9.49723 6.28125 9.54632 6.17045 9.59798 6.06106C9.64987 5.95143 9.70433 5.8432 9.76137 5.73638C9.81863 5.62932 9.87824 5.5239 9.94065 5.42011C10.0031 5.3161 10.0678 5.21371 10.1351 5.11297C10.2025 5.01222 10.2721 4.91311 10.3443 4.81564C10.4166 4.7184 10.4911 4.62279 10.568 4.52906C10.6449 4.43556 10.7242 4.3437 10.8055 4.25394C10.8869 4.16418 10.9703 4.07629 11.0561 3.99073C11.1419 3.90495 11.2295 3.8215 11.3193 3.73992C11.4093 3.65858 11.5009 3.57957 11.5947 3.50266C11.6884 3.42576 11.7838 3.35119 11.8812 3.27897C11.9785 3.20674 12.0776 3.13708 12.1783 3.06953C12.2791 3.00221 12.3815 2.93746 12.4855 2.87505C12.5895 2.81287 12.6949 2.75303 12.8017 2.69599C12.9086 2.63896 13.0168 2.58426 13.1264 2.5326C13.236 2.48071 13.3468 2.43162 13.4588 2.38534C13.5708 2.33882 13.6839 2.29535 13.798 2.25444C13.9121 2.21353 14.0271 2.17567 14.143 2.14037C14.2592 2.10531 14.3758 2.07282 14.4934 2.04336C14.611 2.01391 14.7292 1.9875 14.848 1.96389C14.967 1.94028 15.0864 1.91948 15.2063 1.90171C15.3262 1.88395 15.4464 1.86899 15.567 1.85707C15.6876 1.84538 15.8085 1.83626 15.9295 1.83042C16.0506 1.82457 16.1717 1.82154 16.293 1.82154C16.4141 1.82154 16.5352 1.82457 16.6563 1.83042C16.7773 1.83626 16.8982 1.84538 17.0188 1.85707C17.1394 1.86899 17.2598 1.88395 17.3795 1.90171C17.4994 1.91948 17.6188 1.94028 17.7378 1.96389C17.8566 1.9875 17.9748 2.01391 18.0924 2.04336C18.21 2.07282 18.3266 2.10531 18.4428 2.14037C18.5588 2.17567 18.6738 2.21353 18.7878 2.25444C18.9019 2.29535 19.015 2.33882 19.127 2.38534C19.239 2.43162 19.3498 2.48071 19.4594 2.5326C19.569 2.58426 19.6772 2.63896 19.7841 2.69599C19.8909 2.75303 19.9963 2.81287 20.1003 2.87505C20.2043 2.93746 20.3067 3.00221 20.4075 3.06953C20.5082 3.13708 20.6073 3.20674 20.7046 3.27897C20.802 3.35119 20.8974 3.42576 20.9911 3.50266C21.0849 3.57957 21.1765 3.65858 21.2665 3.73992C21.3563 3.8215 21.4439 3.90495 21.5297 3.99073C21.6155 4.07629 21.6989 4.16418 21.7803 4.25394C21.8616 4.3437 21.9409 4.43556 22.0178 4.52906C22.0947 4.62279 22.1692 4.7184 22.2415 4.81564C22.3137 4.91311 22.3834 5.01222 22.4507 5.11297C22.518 5.21371 22.583 5.3161 22.6452 5.42011C22.7076 5.5239 22.7672 5.62932 22.8244 5.73638C22.8815 5.8432 22.9359 5.95143 22.9878 6.06106C23.0395 6.17045 23.0888 6.28125 23.1351 6.39322C23.1814 6.50518 23.2251 6.61832 23.266 6.73239C23.3067 6.84669 23.3448 6.9617 23.3798 7.07764C23.4151 7.19358 23.4474 7.31045 23.4768 7.42803C23.5063 7.5456 23.5329 7.66365 23.5565 7.78263C23.5802 7.9016 23.601 8.02082 23.6187 8.14073C23.6365 8.26064 23.6512 8.38103 23.6631 8.50164C23.6751 8.62226 23.6839 8.7431 23.69 8.86395C23.6959 8.98504 23.6989 9.10635 23.6989 9.22743C23.6989 9.34875 23.6959 9.46983 23.69 9.59092C23.6839 9.712 23.6751 9.83285 23.6631 9.95346C23.6512 10.0741 23.6365 10.1942 23.6187 10.3141C23.601 10.4341 23.5802 10.5535 23.5565 10.6722C23.5329 10.7912 23.5063 10.9093 23.4768 11.0268C23.4474 11.1444 23.4151 11.2613 23.3798 11.3772C23.3448 11.4932 23.3067 11.6084 23.266 11.7225C23.2251 11.8366 23.1814 11.9497 23.1351 12.0617C23.0888 12.1736 23.0395 12.2844 22.9878 12.3938C22.9359 12.5034 22.8815 12.6117 22.8244 12.7185C22.7672 12.8255 22.7076 12.931 22.6452 13.0348C22.583 13.1388 22.518 13.2412 22.4507 13.3419C22.3834 13.4426 22.3137 13.5418 22.2415 13.6392C22.1692 13.7365 22.0947 13.8321 22.0178 13.9258C21.9409 14.0193 21.8616 14.1112 21.7803 14.2009C21.6989 14.2907 21.6155 14.3786 21.5297 14.4641C21.4439 14.5499 21.3563 14.6334 21.2665 14.7149C21.1765 14.7963 21.0849 14.8755 20.9911 14.9522C20.8974 15.0291 20.802 15.1037 20.7046 15.1759C20.6073 15.2481 20.5082 15.318 20.4075 15.3853C20.3067 15.4527 20.2043 15.5174 20.1003 15.5798C19.9963 15.642 19.8909 15.7018 19.7841 15.7589C19.6772 15.8161 19.569 15.8706 19.4594 15.9223C19.3498 15.9742 19.239 16.0232 19.127 16.0695C19.015 16.116 18.9019 16.1595 18.7878 16.2004C18.6738 16.2413 18.5588 16.2792 18.4428 16.3145C18.3266 16.3496 18.21 16.3821 18.0924 16.4115C17.9748 16.441 17.8566 16.4674 17.7378 16.491C17.6188 16.5148 17.4994 16.5354 17.3795 16.5532C17.2598 16.5709 17.1394 16.5859 17.0188 16.5978C16.8982 16.6095 16.7773 16.6186 16.6563 16.6244C16.5352 16.6303 16.4141 16.6333 16.293 16.6333C16.1717 16.6333 16.0506 16.6301 15.9295 16.624C15.8087 16.6179 15.6878 16.609 15.5672 16.5969C15.4466 16.5849 15.3265 16.57 15.2066 16.5522C15.0869 16.5342 14.9674 16.5134 14.8487 16.4898C14.7299 16.466 14.6117 16.4393 14.4941 16.4099C14.3767 16.3802 14.2599 16.3479 14.1439 16.3126C14.028 16.2773 13.913 16.2392 13.7991 16.1983C13.6851 16.1574 13.5719 16.1139 13.46 16.0674C13.3482 16.0209 13.2375 15.9718 13.1281 15.9199C13.0184 15.868 12.9102 15.8136 12.8034 15.7565C12.6966 15.6993 12.5911 15.6397 12.4873 15.5772C12.3833 15.5148 12.2812 15.4501 12.1804 15.3828C12.0797 15.3154 11.9806 15.2456 11.8833 15.1733C11.7861 15.1011 11.6905 15.0268 11.5968 14.9499C11.5033 14.873 11.4114 14.7937 11.3216 14.7124C11.2319 14.631 11.1442 14.5476 11.0587 14.4618C10.9729 14.3762 10.8894 14.2884 10.8081 14.1986C10.7265 14.1088 10.6475 14.0172 10.5706 13.9235C10.4937 13.8297 10.4191 13.7344 10.3469 13.6371C10.2747 13.5397 10.205 13.4408 10.1377 13.34C10.0704 13.2393 10.0054 13.1369 9.94322 13.0331C9.88081 12.9291 9.82097 12.8237 9.76394 12.7169C9.70667 12.61 9.65221 12.502 9.60031 12.3924C9.54842 12.283 9.49933 12.1722 9.45305 12.0602C9.40654 11.9483 9.36282 11.8354 9.32192 11.7213C9.28101 11.6072 9.24291 11.4922 9.20785 11.3763C9.17255 11.2604 9.14006 11.1437 9.11061 11.0261C9.08092 10.9088 9.05451 10.7905 9.03067 10.6718C9.00682 10.5528 8.98602 10.4336 8.96826 10.3137C8.95026 10.1938 8.9353 10.0736 8.92338 9.95299C8.91145 9.83261 8.90234 9.71176 8.89626 9.59068C8.89018 9.4696 8.88714 9.34852 8.88691 9.22743Z"/>
</mask>
<path d="M16.293 33.2228H1.77743V29.3715C1.77743 29.1922 1.7821 29.013 1.79099 28.8339C1.8001 28.6549 1.81343 28.476 1.83119 28.2977C1.84896 28.1191 1.87093 27.9412 1.89758 27.7638C1.92399 27.5866 1.95484 27.4099 1.98991 27.2341C2.02497 27.0581 2.06447 26.8833 2.10818 26.7094C2.1519 26.5354 2.19981 26.3627 2.25194 26.1911C2.30407 26.0196 2.3604 25.8494 2.42094 25.6806C2.48148 25.5119 2.546 25.3445 2.61472 25.179C2.68344 25.0133 2.75637 24.8494 2.83304 24.6874C2.90971 24.5252 2.99035 24.3651 3.07497 24.2071C3.15959 24.049 3.24795 23.8929 3.34028 23.7391C3.43261 23.5855 3.52844 23.4341 3.62825 23.2849C3.72783 23.1358 3.83115 22.9892 3.93797 22.8452C4.0448 22.7012 4.15513 22.5598 4.26896 22.4212C4.3828 22.2828 4.49991 22.147 4.62029 22.014C4.74067 21.8813 4.86432 21.7515 4.99101 21.6246C5.11794 21.4979 5.24767 21.3742 5.38067 21.2536C5.51344 21.1333 5.64925 21.0161 5.78786 20.9023C5.92648 20.7887 6.06766 20.6784 6.21165 20.5716C6.35587 20.4645 6.50244 20.3614 6.65133 20.2616C6.80047 20.162 6.95193 20.0659 7.10574 19.9739C7.25955 19.8815 7.41546 19.7932 7.57347 19.7085C7.73172 19.6239 7.89184 19.5433 8.05383 19.4666C8.21582 19.3897 8.37967 19.317 8.5454 19.2483C8.71113 19.1796 8.87826 19.1151 9.04703 19.0545C9.2158 18.994 9.38597 18.9376 9.55754 18.8855C9.72911 18.8332 9.90208 18.7852 10.076 18.7415C10.2499 18.6978 10.4247 18.6585 10.6005 18.6235C10.7763 18.5882 10.953 18.5576 11.1304 18.5309C11.3079 18.5045 11.4857 18.4823 11.6641 18.4648C11.8424 18.447 12.0213 18.4334 12.2005 18.4246C12.3796 18.4157 12.5586 18.411 12.7382 18.4108H16.293C16.4744 18.4112 16.6558 18.4063 16.837 18.396C17.0181 18.3858 17.199 18.3701 17.3793 18.3491C17.5595 18.328 17.739 18.3018 17.9178 18.2703C18.0966 18.2385 18.2743 18.2018 18.4508 18.1597C18.6272 18.1174 18.8023 18.0702 18.9762 18.0178C19.1499 17.9652 19.3219 17.9077 19.4923 17.8451C19.6627 17.7824 19.831 17.7147 19.9975 17.6422C20.1637 17.5695 20.3278 17.4921 20.4895 17.4098C20.6513 17.3276 20.8105 17.2404 20.9671 17.1488C21.1239 17.0569 21.2775 16.9606 21.4285 16.8598C21.5795 16.7591 21.7272 16.6539 21.8719 16.5443C22.0166 16.4346 22.158 16.321 22.2959 16.203C22.4338 16.0852 22.5683 15.9632 22.6992 15.8372C22.8298 15.7114 22.9567 15.5817 23.0799 15.4485C23.2029 15.315 23.3221 15.178 23.4371 15.0378C23.5521 14.8973 23.6627 14.7535 23.7693 14.6065C23.8758 14.4595 23.9778 14.3096 24.0755 14.1565C24.1729 14.0034 24.266 13.8477 24.3546 13.6893C24.4429 13.5308 24.5266 13.3697 24.6054 13.2063C24.6844 13.0427 24.7582 12.8772 24.8274 12.7094C24.8964 12.5415 24.9604 12.3716 25.0196 12.2C25.0787 12.0285 25.1325 11.8553 25.1813 11.6804C25.2302 11.5056 25.2737 11.3293 25.3122 11.1521C25.3506 10.9747 25.3835 10.7961 25.4113 10.6168C25.4392 10.4376 25.4618 10.2576 25.4789 10.0769C25.4962 9.89619 25.5079 9.71504 25.5144 9.53365C25.521 9.35226 25.5219 9.17087 25.5177 8.98948C25.5135 8.80785 25.5039 8.6267 25.4889 8.44577C25.474 8.26509 25.4537 8.08463 25.4279 7.90511C25.4022 7.72536 25.3714 7.54654 25.3351 7.36865C25.2989 7.19077 25.2575 7.01429 25.2108 6.83874C25.1643 6.66343 25.1124 6.48952 25.0553 6.31725C24.9985 6.14474 24.9366 5.97434 24.8695 5.80557C24.8024 5.63703 24.7304 5.47037 24.6535 5.30605C24.5766 5.14149 24.495 4.9795 24.4086 4.82008C24.3221 4.66043 24.2309 4.50358 24.1353 4.34931C24.0395 4.19503 23.9392 4.0438 23.8345 3.8956C23.7297 3.7474 23.6208 3.60224 23.5075 3.46036C23.3943 3.3187 23.277 3.18032 23.1554 3.04545C23.0341 2.91058 22.9086 2.77944 22.7793 2.65181C22.6503 2.52442 22.5173 2.401 22.3808 2.28132C22.2443 2.16164 22.1043 2.04617 21.961 1.9349C21.8177 1.82364 21.6711 1.71658 21.5215 1.61397C21.3717 1.51135 21.219 1.41317 21.0636 1.31944C20.9082 1.22571 20.7501 1.13688 20.5893 1.0525C20.4285 0.968348 20.2654 0.888873 20.1001 0.814307C19.9346 0.739507 19.767 0.669849 19.5975 0.605101C19.4278 0.540352 19.2565 0.480746 19.0835 0.426282C18.9103 0.371584 18.7357 0.322263 18.5597 0.277851C18.3837 0.233672 18.2065 0.194636 18.0281 0.160976C17.8498 0.127082 17.6707 0.0985645 17.4908 0.0754232C17.3105 0.052282 17.1301 0.0342832 16.9489 0.0218945C16.768 0.00927198 16.5866 0.00225952 16.4052 0.000389519C16.2236 -0.00124669 16.0422 0.00225949 15.8611 0.011142C15.6797 0.0202583 15.4987 0.034517 15.3183 0.054152C15.1378 0.073787 14.9583 0.0987982 14.7793 0.128952C14.6002 0.159339 14.4223 0.194869 14.2456 0.235542C14.0687 0.276448 13.8931 0.322497 13.719 0.373688C13.5448 0.424879 13.3723 0.481213 13.2017 0.542456C13.0308 0.603932 12.8618 0.670317 12.6952 0.741611C12.5283 0.812904 12.3635 0.88934 12.2012 0.970452C12.0388 1.05156 11.8789 1.13735 11.7216 1.22781C11.5643 1.31851 11.4098 1.41364 11.2583 1.51322C11.1066 1.61303 10.9579 1.71705 10.8123 1.82551C10.6669 1.9342 10.5248 2.04687 10.3859 2.16374C10.2471 2.28062 10.1118 2.40147 9.98015 2.52652C9.84832 2.65135 9.72046 2.77991 9.59634 2.91245C9.47222 3.04498 9.35231 3.18102 9.23613 3.32057C9.12019 3.46012 9.00846 3.60294 8.9007 3.74927C8.79318 3.89536 8.69009 4.04473 8.59122 4.1969C8.49258 4.34931 8.39837 4.50428 8.30885 4.66206C8.21932 4.82008 8.13447 4.98043 8.0543 5.14335C7.97412 5.30605 7.89909 5.47131 7.82873 5.63867C7.75837 5.8058 7.69292 5.97527 7.63261 6.14638C7.57231 6.31748 7.51714 6.49046 7.46712 6.66483C7.41686 6.83921 7.37198 7.01499 7.33248 7.19217C7.29274 7.36936 7.25815 7.54747 7.22916 7.72653C7.19994 7.90581 7.1761 8.08557 7.15763 8.26625C7.13917 8.44671 7.12584 8.62763 7.11813 8.80902C7.11018 8.99041 7.10785 9.1718 7.11065 9.35319C7.11369 9.53481 7.12187 9.71597 7.13566 9.89689C7.14922 10.078 7.16815 10.2585 7.19246 10.4383C7.21677 10.6182 7.24646 10.7971 7.28129 10.9752C7.31612 11.1533 7.35632 11.3302 7.40167 11.506C7.44702 11.6818 7.49751 11.8562 7.55314 12.0289C7.60877 12.2017 7.66954 12.3725 7.73546 12.5418C7.80115 12.711 7.87197 12.8779 7.94747 13.0429C8.02321 13.208 8.10362 13.3707 8.18894 13.5308C8.27425 13.6909 8.36425 13.8487 8.45892 14.0034C8.55335 14.1584 8.65246 14.3103 8.75624 14.4595C8.8598 14.6084 8.96755 14.7542 9.07975 14.897C9.19219 15.0396 9.30836 15.1787 9.42898 15.3145C9.54936 15.4503 9.67371 15.5824 9.80204 15.711C9.93013 15.8393 10.0622 15.9639 10.1978 16.0845C10.3334 16.2051 10.4724 16.3215 10.615 16.4339C10.7576 16.5464 10.9032 16.6544 11.0524 16.7582C10.8633 16.7836 10.6749 16.8131 10.4874 16.847C10.2997 16.8806 10.1127 16.9187 9.92686 16.9611C9.7408 17.0031 9.5559 17.0494 9.37217 17.0999C9.18821 17.1504 9.00566 17.2051 8.82403 17.2638C8.64264 17.3224 8.46266 17.3851 8.28407 17.4519C8.10549 17.5188 7.92854 17.5894 7.75299 17.6642C7.57768 17.739 7.40401 17.8175 7.23197 17.9C7.06016 17.9825 6.88999 18.0688 6.72216 18.159C6.55409 18.249 6.38813 18.343 6.22427 18.4405C6.06042 18.5382 5.89889 18.6394 5.73971 18.7441C5.58029 18.849 5.42345 18.9573 5.26894 19.0692C5.11467 19.181 4.96273 19.2962 4.8136 19.415C4.66423 19.5337 4.5179 19.6557 4.37391 19.7808C4.23016 19.9061 4.08944 20.0346 3.9513 20.1662C3.81338 20.2976 3.67828 20.4322 3.54644 20.5699C3.41437 20.7076 3.28558 20.8481 3.15982 20.9916C3.0343 21.1349 2.91181 21.2812 2.79284 21.4301C2.67362 21.579 2.55792 21.7305 2.44572 21.8845C2.33328 22.0386 2.22459 22.1952 2.11917 22.3541C2.01398 22.5131 1.9123 22.6744 1.81413 22.838C1.71619 23.0014 1.62175 23.1671 1.53129 23.3349C1.4406 23.5028 1.35388 23.6725 1.27089 23.844C1.18791 24.0159 1.10867 24.1893 1.03341 24.3644C0.958372 24.5397 0.887078 24.7164 0.819758 24.895C0.752439 25.0733 0.689326 25.2531 0.629954 25.4345C0.570816 25.6156 0.515651 25.7982 0.464693 25.9819C0.413736 26.1657 0.366752 26.3505 0.323976 26.5364C0.281434 26.7222 0.242865 26.9087 0.208504 27.0964C0.174143 27.2839 0.14399 27.4721 0.118043 27.6612C0.0920972 27.8501 0.0705922 28.0394 0.0530611 28.2292C0.0357636 28.4192 0.0224399 28.6093 0.0137912 28.7998C0.0049087 28.9903 0.000233734 29.1808 0 29.3715V35H16.293V33.2228ZM8.88691 9.22743C8.88691 9.10635 8.88995 8.98504 8.89603 8.86395C8.90187 8.7431 8.91075 8.62226 8.92267 8.50164C8.9346 8.38103 8.94932 8.26064 8.96709 8.14073C8.98485 8.02082 9.00566 7.9016 9.02926 7.78263C9.05287 7.66365 9.07952 7.5456 9.10897 7.42803C9.13842 7.31045 9.17068 7.19358 9.20598 7.07764C9.24104 6.9617 9.27914 6.84669 9.31981 6.73239C9.36072 6.61832 9.40443 6.50518 9.45071 6.39322C9.49723 6.28125 9.54632 6.17045 9.59798 6.06106C9.64987 5.95143 9.70433 5.8432 9.76137 5.73638C9.81863 5.62932 9.87824 5.5239 9.94065 5.42011C10.0031 5.3161 10.0678 5.21371 10.1351 5.11297C10.2025 5.01222 10.2721 4.91311 10.3443 4.81564C10.4166 4.7184 10.4911 4.62279 10.568 4.52906C10.6449 4.43556 10.7242 4.3437 10.8055 4.25394C10.8869 4.16418 10.9703 4.07629 11.0561 3.99073C11.1419 3.90495 11.2295 3.8215 11.3193 3.73992C11.4093 3.65858 11.5009 3.57957 11.5947 3.50266C11.6884 3.42576 11.7838 3.35119 11.8812 3.27897C11.9785 3.20674 12.0776 3.13708 12.1783 3.06953C12.2791 3.00221 12.3815 2.93746 12.4855 2.87505C12.5895 2.81287 12.6949 2.75303 12.8017 2.69599C12.9086 2.63896 13.0168 2.58426 13.1264 2.5326C13.236 2.48071 13.3468 2.43162 13.4588 2.38534C13.5708 2.33882 13.6839 2.29535 13.798 2.25444C13.9121 2.21353 14.0271 2.17567 14.143 2.14037C14.2592 2.10531 14.3758 2.07282 14.4934 2.04336C14.611 2.01391 14.7292 1.9875 14.848 1.96389C14.967 1.94028 15.0864 1.91948 15.2063 1.90171C15.3262 1.88395 15.4464 1.86899 15.567 1.85707C15.6876 1.84538 15.8085 1.83626 15.9295 1.83042C16.0506 1.82457 16.1717 1.82154 16.293 1.82154C16.4141 1.82154 16.5352 1.82457 16.6563 1.83042C16.7773 1.83626 16.8982 1.84538 17.0188 1.85707C17.1394 1.86899 17.2598 1.88395 17.3795 1.90171C17.4994 1.91948 17.6188 1.94028 17.7378 1.96389C17.8566 1.9875 17.9748 2.01391 18.0924 2.04336C18.21 2.07282 18.3266 2.10531 18.4428 2.14037C18.5588 2.17567 18.6738 2.21353 18.7878 2.25444C18.9019 2.29535 19.015 2.33882 19.127 2.38534C19.239 2.43162 19.3498 2.48071 19.4594 2.5326C19.569 2.58426 19.6772 2.63896 19.7841 2.69599C19.8909 2.75303 19.9963 2.81287 20.1003 2.87505C20.2043 2.93746 20.3067 3.00221 20.4075 3.06953C20.5082 3.13708 20.6073 3.20674 20.7046 3.27897C20.802 3.35119 20.8974 3.42576 20.9911 3.50266C21.0849 3.57957 21.1765 3.65858 21.2665 3.73992C21.3563 3.8215 21.4439 3.90495 21.5297 3.99073C21.6155 4.07629 21.6989 4.16418 21.7803 4.25394C21.8616 4.3437 21.9409 4.43556 22.0178 4.52906C22.0947 4.62279 22.1692 4.7184 22.2415 4.81564C22.3137 4.91311 22.3834 5.01222 22.4507 5.11297C22.518 5.21371 22.583 5.3161 22.6452 5.42011C22.7076 5.5239 22.7672 5.62932 22.8244 5.73638C22.8815 5.8432 22.9359 5.95143 22.9878 6.06106C23.0395 6.17045 23.0888 6.28125 23.1351 6.39322C23.1814 6.50518 23.2251 6.61832 23.266 6.73239C23.3067 6.84669 23.3448 6.9617 23.3798 7.07764C23.4151 7.19358 23.4474 7.31045 23.4768 7.42803C23.5063 7.5456 23.5329 7.66365 23.5565 7.78263C23.5802 7.9016 23.601 8.02082 23.6187 8.14073C23.6365 8.26064 23.6512 8.38103 23.6631 8.50164C23.6751 8.62226 23.6839 8.7431 23.69 8.86395C23.6959 8.98504 23.6989 9.10635 23.6989 9.22743C23.6989 9.34875 23.6959 9.46983 23.69 9.59092C23.6839 9.712 23.6751 9.83285 23.6631 9.95346C23.6512 10.0741 23.6365 10.1942 23.6187 10.3141C23.601 10.4341 23.5802 10.5535 23.5565 10.6722C23.5329 10.7912 23.5063 10.9093 23.4768 11.0268C23.4474 11.1444 23.4151 11.2613 23.3798 11.3772C23.3448 11.4932 23.3067 11.6084 23.266 11.7225C23.2251 11.8366 23.1814 11.9497 23.1351 12.0617C23.0888 12.1736 23.0395 12.2844 22.9878 12.3938C22.9359 12.5034 22.8815 12.6117 22.8244 12.7185C22.7672 12.8255 22.7076 12.931 22.6452 13.0348C22.583 13.1388 22.518 13.2412 22.4507 13.3419C22.3834 13.4426 22.3137 13.5418 22.2415 13.6392C22.1692 13.7365 22.0947 13.8321 22.0178 13.9258C21.9409 14.0193 21.8616 14.1112 21.7803 14.2009C21.6989 14.2907 21.6155 14.3786 21.5297 14.4641C21.4439 14.5499 21.3563 14.6334 21.2665 14.7149C21.1765 14.7963 21.0849 14.8755 20.9911 14.9522C20.8974 15.0291 20.802 15.1037 20.7046 15.1759C20.6073 15.2481 20.5082 15.318 20.4075 15.3853C20.3067 15.4527 20.2043 15.5174 20.1003 15.5798C19.9963 15.642 19.8909 15.7018 19.7841 15.7589C19.6772 15.8161 19.569 15.8706 19.4594 15.9223C19.3498 15.9742 19.239 16.0232 19.127 16.0695C19.015 16.116 18.9019 16.1595 18.7878 16.2004C18.6738 16.2413 18.5588 16.2792 18.4428 16.3145C18.3266 16.3496 18.21 16.3821 18.0924 16.4115C17.9748 16.441 17.8566 16.4674 17.7378 16.491C17.6188 16.5148 17.4994 16.5354 17.3795 16.5532C17.2598 16.5709 17.1394 16.5859 17.0188 16.5978C16.8982 16.6095 16.7773 16.6186 16.6563 16.6244C16.5352 16.6303 16.4141 16.6333 16.293 16.6333C16.1717 16.6333 16.0506 16.6301 15.9295 16.624C15.8087 16.6179 15.6878 16.609 15.5672 16.5969C15.4466 16.5849 15.3265 16.57 15.2066 16.5522C15.0869 16.5342 14.9674 16.5134 14.8487 16.4898C14.7299 16.466 14.6117 16.4393 14.4941 16.4099C14.3767 16.3802 14.2599 16.3479 14.1439 16.3126C14.028 16.2773 13.913 16.2392 13.7991 16.1983C13.6851 16.1574 13.5719 16.1139 13.46 16.0674C13.3482 16.0209 13.2375 15.9718 13.1281 15.9199C13.0184 15.868 12.9102 15.8136 12.8034 15.7565C12.6966 15.6993 12.5911 15.6397 12.4873 15.5772C12.3833 15.5148 12.2812 15.4501 12.1804 15.3828C12.0797 15.3154 11.9806 15.2456 11.8833 15.1733C11.7861 15.1011 11.6905 15.0268 11.5968 14.9499C11.5033 14.873 11.4114 14.7937 11.3216 14.7124C11.2319 14.631 11.1442 14.5476 11.0587 14.4618C10.9729 14.3762 10.8894 14.2884 10.8081 14.1986C10.7265 14.1088 10.6475 14.0172 10.5706 13.9235C10.4937 13.8297 10.4191 13.7344 10.3469 13.6371C10.2747 13.5397 10.205 13.4408 10.1377 13.34C10.0704 13.2393 10.0054 13.1369 9.94322 13.0331C9.88081 12.9291 9.82097 12.8237 9.76394 12.7169C9.70667 12.61 9.65221 12.502 9.60031 12.3924C9.54842 12.283 9.49933 12.1722 9.45305 12.0602C9.40654 11.9483 9.36282 11.8354 9.32192 11.7213C9.28101 11.6072 9.24291 11.4922 9.20785 11.3763C9.17255 11.2604 9.14006 11.1437 9.11061 11.0261C9.08092 10.9088 9.05451 10.7905 9.03067 10.6718C9.00682 10.5528 8.98602 10.4336 8.96826 10.3137C8.95026 10.1938 8.9353 10.0736 8.92338 9.95299C8.91145 9.83261 8.90234 9.71176 8.89626 9.59068C8.89018 9.4696 8.88714 9.34852 8.88691 9.22743Z" fill="white" stroke="#663366" stroke-width="0.6" mask="url(#path-1-inside-1_71_1687)"/>
<circle cx="25" cy="27" r="6.85" fill="#FA8072" stroke="#663366" stroke-width="0.3"/>
<path d="M16.5891 27.0017C16.5891 27.1326 16.5924 27.2633 16.5987 27.3942C16.6052 27.5249 16.6148 27.6553 16.6277 27.7857C16.6405 27.9159 16.6564 28.0459 16.6756 28.1752C16.6948 28.3047 16.7172 28.4337 16.7427 28.562C16.7684 28.6903 16.7969 28.8182 16.8287 28.9451C16.8605 29.0721 16.8956 29.1983 16.9334 29.3236C16.9715 29.4486 17.0124 29.573 17.0566 29.6962C17.1008 29.8196 17.1478 29.9416 17.198 30.0625C17.2481 30.1835 17.3011 30.303 17.357 30.4215C17.4131 30.5398 17.4718 30.6566 17.5335 30.7721C17.5952 30.8876 17.6597 31.0014 17.727 31.1136C17.7943 31.2258 17.8642 31.3364 17.9371 31.4453C18.0098 31.5542 18.0851 31.6611 18.1632 31.7663C18.241 31.8714 18.3217 31.9745 18.4046 32.0757C18.4876 32.177 18.5732 32.2761 18.6611 32.3731C18.749 32.4701 18.8392 32.5647 18.9318 32.6573C19.0243 32.7499 19.119 32.8401 19.216 32.928C19.313 33.0159 19.4121 33.1014 19.5133 33.1844C19.6145 33.2676 19.7176 33.348 19.8228 33.4261C19.928 33.504 20.0351 33.5795 20.1437 33.6522C20.2527 33.7248 20.3632 33.7947 20.4754 33.8621C20.5879 33.9294 20.7017 33.9939 20.8169 34.0556C20.9324 34.1173 21.0493 34.1762 21.1678 34.2321C21.2861 34.2882 21.4058 34.341 21.5266 34.3913C21.6475 34.4413 21.7697 34.4885 21.8929 34.5325C22.0161 34.5766 22.1404 34.6178 22.2657 34.6556C22.391 34.6937 22.517 34.7286 22.6439 34.7604C22.7711 34.7921 22.8987 34.8209 23.0271 34.8464C23.1554 34.8719 23.2844 34.8943 23.4139 34.9135C23.5434 34.9326 23.6731 34.9488 23.8036 34.9616C23.9338 34.9745 24.0642 34.9841 24.1951 34.9904C24.3258 34.9969 24.4567 35 24.5876 35C24.7185 35 24.8491 34.9969 24.98 34.9904C25.1107 34.9841 25.2411 34.9745 25.3716 34.9616C25.5018 34.9488 25.6317 34.9326 25.761 34.9135C25.8905 34.8943 26.0195 34.8719 26.1479 34.8464C26.2762 34.8209 26.404 34.7921 26.531 34.7604C26.6579 34.7286 26.7841 34.6937 26.9094 34.6556C27.0345 34.6178 27.1588 34.5766 27.282 34.5325C27.4054 34.4885 27.5274 34.4413 27.6483 34.3913C27.7694 34.341 27.8888 34.2882 28.0073 34.2321C28.1256 34.1762 28.2425 34.1173 28.358 34.0556C28.4734 33.9939 28.5873 33.9294 28.6995 33.8621C28.8117 33.7947 28.9222 33.7248 29.0312 33.6522C29.1401 33.5795 29.2469 33.504 29.3521 33.4261C29.4573 33.348 29.5604 33.2676 29.6616 33.1844C29.7628 33.1014 29.8619 33.0159 29.9589 32.928C30.0559 32.8401 30.1506 32.7499 30.2432 32.6573C30.3357 32.5647 30.4259 32.4701 30.5138 32.3731C30.6017 32.2761 30.6873 32.177 30.7703 32.0757C30.8535 31.9745 30.9339 31.8714 31.012 31.7663C31.0898 31.6611 31.1653 31.5542 31.238 31.4453C31.3107 31.3364 31.3806 31.2258 31.4479 31.1136C31.5152 31.0014 31.5797 30.8876 31.6414 30.7721C31.7032 30.6566 31.7621 30.5398 31.8179 30.4215C31.874 30.303 31.9271 30.1835 31.9771 30.0625C32.0271 29.9416 32.0744 29.8196 32.1183 29.6962C32.1625 29.573 32.2036 29.4486 32.2415 29.3236C32.2796 29.1983 32.3144 29.0721 32.3462 28.9451C32.378 28.8182 32.4067 28.6903 32.4322 28.562C32.4577 28.4337 32.4801 28.3047 32.4993 28.1752C32.5185 28.0459 32.5346 27.9159 32.5475 27.7857C32.5603 27.6553 32.5699 27.5249 32.5762 27.3942C32.5828 27.2633 32.586 27.1326 32.586 27.0017C32.586 26.8708 32.5828 26.7399 32.5762 26.6093C32.5699 26.4784 32.5603 26.3479 32.5475 26.2177C32.5346 26.0873 32.5185 25.9576 32.4993 25.8281C32.4801 25.6986 32.4577 25.5696 32.4322 25.4412C32.4067 25.3129 32.378 25.1853 32.3462 25.0581C32.3144 24.9312 32.2796 24.8052 32.2415 24.6799C32.2036 24.5546 32.1625 24.4303 32.1183 24.3071C32.0744 24.1839 32.0271 24.0616 31.9771 23.9408C31.9271 23.8199 31.874 23.7003 31.8179 23.582C31.7621 23.4635 31.7032 23.3466 31.6414 23.2311C31.5797 23.1159 31.5152 23.0018 31.4479 22.8896C31.3806 22.7774 31.3107 22.6669 31.238 22.5579C31.1653 22.4492 31.0898 22.3422 31.012 22.237C30.9339 22.1318 30.8535 22.0287 30.7703 21.9275C30.6873 21.8263 30.6017 21.7272 30.5138 21.6302C30.4259 21.5332 30.3357 21.4385 30.2432 21.3459C30.1506 21.2534 30.0559 21.1631 29.9589 21.0753C29.8619 20.9874 29.7628 20.9018 29.6616 20.8188C29.5604 20.7358 29.4573 20.6552 29.3521 20.5774C29.2469 20.4993 29.1401 20.424 29.0312 20.3513C28.9222 20.2784 28.8117 20.2085 28.6995 20.1412C28.5873 20.0739 28.4734 20.0094 28.358 19.9476C28.2425 19.8859 28.1256 19.8273 28.0073 19.7712C27.8888 19.7153 27.7694 19.6622 27.6483 19.612C27.5274 19.562 27.4054 19.515 27.282 19.4708C27.1588 19.4266 27.0345 19.3857 26.9094 19.3476C26.7841 19.3097 26.6579 19.2747 26.531 19.2429C26.404 19.2111 26.2762 19.1826 26.1479 19.1569C26.0195 19.1314 25.8905 19.109 25.761 19.0898C25.6317 19.0706 25.5018 19.0547 25.3716 19.0419C25.2411 19.029 25.1107 19.0194 24.98 19.0129C24.8491 19.0066 24.7185 19.0033 24.5876 19.0033C24.4567 19.0033 24.3258 19.0068 24.1951 19.0133C24.0644 19.0199 23.934 19.0297 23.8038 19.0426C23.6736 19.0554 23.5436 19.0716 23.4144 19.091C23.2849 19.1104 23.1561 19.1328 23.0278 19.1583C22.8994 19.184 22.7718 19.2127 22.6449 19.2448C22.5179 19.2765 22.392 19.3116 22.2667 19.3497C22.1414 19.3876 22.0173 19.4287 21.8941 19.4729C21.7709 19.5171 21.6489 19.5643 21.528 19.6143C21.4072 19.6646 21.2875 19.7176 21.1692 19.7737C21.0509 19.8296 20.9341 19.8885 20.8188 19.9502C20.7033 20.0119 20.5895 20.0764 20.4773 20.1438C20.3651 20.2111 20.2545 20.2812 20.1459 20.3539C20.0372 20.4266 19.9301 20.5019 19.8251 20.5799C19.72 20.658 19.6169 20.7384 19.5157 20.8214C19.4144 20.9044 19.3156 20.9899 19.2186 21.0778C19.1216 21.1657 19.0269 21.2559 18.9343 21.3485C18.8418 21.4411 18.7515 21.5357 18.6636 21.6327C18.5758 21.7298 18.4902 21.8286 18.4072 21.9298C18.3242 22.0311 18.2438 22.1341 18.1658 22.2391C18.0877 22.3443 18.0124 22.4513 17.9397 22.56C17.867 22.6687 17.7969 22.7793 17.7296 22.8915C17.6623 23.0037 17.5977 23.1175 17.536 23.233C17.4743 23.3482 17.4154 23.4651 17.3596 23.5834C17.3035 23.7017 17.2504 23.8213 17.2001 23.9422C17.1501 24.063 17.1029 24.1851 17.0587 24.3082C17.0145 24.4314 16.9734 24.5556 16.9355 24.6808C16.8974 24.8059 16.8624 24.9321 16.8306 25.059C16.7986 25.186 16.7698 25.3136 16.7441 25.4419C16.7186 25.5703 16.6962 25.6991 16.6768 25.8286C16.6574 25.9578 16.6412 26.0878 16.6284 26.218C16.6155 26.3482 16.6057 26.4786 16.5992 26.6093C16.5926 26.7399 16.5891 26.8708 16.5891 27.0017ZM30.8086 27.0017C30.8086 27.1034 30.806 27.2051 30.8009 27.307C30.796 27.4087 30.7885 27.5101 30.7784 27.6114C30.7686 27.7128 30.756 27.8138 30.741 27.9145C30.7263 28.0153 30.7088 28.1156 30.6889 28.2154C30.669 28.3152 30.6468 28.4145 30.6221 28.5132C30.5973 28.612 30.5702 28.71 30.5407 28.8075C30.511 28.9049 30.4792 29.0015 30.4449 29.0975C30.4105 29.1934 30.3738 29.2883 30.335 29.3822C30.296 29.4764 30.2548 29.5695 30.2111 29.6616C30.1677 29.7534 30.1218 29.8444 30.0739 29.9341C30.026 30.0239 29.9757 30.1125 29.9234 30.1999C29.871 30.2871 29.8166 30.3731 29.76 30.4577C29.7034 30.5426 29.645 30.6258 29.5842 30.7076C29.5237 30.7892 29.461 30.8696 29.3963 30.9481C29.3318 31.0269 29.2654 31.104 29.1969 31.1793C29.1286 31.2548 29.0585 31.3284 28.9865 31.4004C28.9145 31.4724 28.8407 31.5428 28.7652 31.611C28.6899 31.6795 28.6127 31.7459 28.534 31.8104C28.4554 31.8752 28.375 31.9378 28.2934 31.9984C28.2116 32.0591 28.1284 32.1176 28.0438 32.1742C27.9589 32.2307 27.8732 32.2852 27.7857 32.3375C27.6983 32.3899 27.61 32.4402 27.52 32.4881C27.4302 32.536 27.3393 32.5818 27.2474 32.6253C27.1553 32.669 27.0623 32.7101 26.9681 32.7492C26.8741 32.788 26.7792 32.8247 26.6834 32.859C26.5875 32.8932 26.4908 32.9252 26.3933 32.9549C26.2958 32.9843 26.1979 33.0114 26.099 33.0362C26.0004 33.061 25.901 33.0832 25.8012 33.1031C25.7014 33.1229 25.6011 33.1405 25.5004 33.1552C25.3996 33.1702 25.2986 33.1828 25.1972 33.1926C25.096 33.2027 24.9945 33.2101 24.8928 33.215C24.7912 33.2202 24.6893 33.2228 24.5876 33.2228C24.4857 33.2228 24.384 33.2202 24.2823 33.215C24.1806 33.2101 24.0792 33.2027 23.9777 33.1926C23.8765 33.1828 23.7753 33.1702 23.6748 33.1552C23.574 33.1405 23.4738 33.1229 23.3739 33.1031C23.2739 33.0832 23.1748 33.061 23.0759 33.0362C22.9773 33.0114 22.8791 32.9843 22.7816 32.9549C22.6841 32.9252 22.5876 32.8932 22.4918 32.859C22.3959 32.8247 22.3008 32.788 22.2068 32.7492C22.1129 32.7101 22.0198 32.669 21.9277 32.6253C21.8356 32.5818 21.7447 32.536 21.6549 32.4881C21.5652 32.4402 21.4766 32.3899 21.3892 32.3375C21.302 32.2852 21.216 32.2307 21.1313 32.1742C21.0467 32.1176 20.9635 32.0591 20.8817 31.9984C20.7999 31.9378 20.7197 31.8752 20.6409 31.8104C20.5622 31.7459 20.4853 31.6795 20.4098 31.611C20.3343 31.5428 20.2606 31.4724 20.1886 31.4004C20.1166 31.3284 20.0465 31.2548 19.978 31.1793C19.9098 31.104 19.8431 31.0269 19.7786 30.9481C19.7141 30.8696 19.6515 30.7892 19.5907 30.7074C19.5302 30.6258 19.4715 30.5426 19.4149 30.4577C19.3583 30.3731 19.3039 30.2871 19.2515 30.1999C19.1992 30.1125 19.1491 30.0239 19.101 29.9341C19.0531 29.8444 19.0073 29.7534 18.9638 29.6616C18.9203 29.5695 18.8789 29.4764 18.8401 29.3822C18.8011 29.2883 18.7644 29.1934 18.7303 29.0975C18.6959 29.0015 18.6639 28.9049 18.6344 28.8075C18.6047 28.71 18.5776 28.612 18.5528 28.5132C18.5283 28.4145 18.5059 28.3152 18.486 28.2154C18.4661 28.1156 18.4488 28.0153 18.4339 27.9145C18.4189 27.8138 18.4065 27.7128 18.3965 27.6114C18.3864 27.5101 18.3789 27.4087 18.374 27.307C18.3691 27.2051 18.3665 27.1034 18.3665 27.0017C18.3665 26.8998 18.3691 26.7981 18.374 26.6965C18.3789 26.5948 18.3864 26.4931 18.3965 26.3919C18.4065 26.2907 18.4189 26.1895 18.4339 26.0889C18.4488 25.9882 18.4661 25.8879 18.486 25.7881C18.5059 25.6881 18.5283 25.5887 18.5528 25.4901C18.5776 25.3912 18.6047 25.2933 18.6344 25.1958C18.6639 25.0983 18.6959 25.0018 18.7303 24.9059C18.7644 24.8101 18.8011 24.715 18.8401 24.621C18.8789 24.527 18.9203 24.4338 18.9638 24.3419C19.0073 24.2498 19.0531 24.1589 19.101 24.0691C19.1491 23.9794 19.1992 23.8908 19.2515 23.8033C19.3039 23.7162 19.3583 23.6301 19.4149 23.5455C19.4715 23.4609 19.5302 23.3777 19.5907 23.2959C19.6515 23.2141 19.7141 23.1339 19.7786 23.0551C19.8431 22.9763 19.9098 22.8994 19.978 22.8239C20.0465 22.7484 20.1166 22.6748 20.1886 22.6028C20.2606 22.5308 20.3343 22.4607 20.4098 22.3922C20.4853 22.3239 20.5622 22.2573 20.6409 22.1928C20.7197 22.1283 20.7999 22.0656 20.8817 22.0049C20.9635 21.9443 21.0467 21.8857 21.1313 21.8291C21.216 21.7725 21.302 21.7181 21.3892 21.6657C21.4766 21.6133 21.5652 21.5633 21.6549 21.5152C21.7447 21.4673 21.8356 21.4214 21.9277 21.378C22.0198 21.3345 22.1129 21.2931 22.2068 21.2543C22.3008 21.2153 22.3959 21.1786 22.4918 21.1444C22.5876 21.1101 22.6841 21.0781 22.7816 21.0486C22.8791 21.0189 22.9773 20.9918 23.0759 20.967C23.1748 20.9425 23.2739 20.92 23.3739 20.9002C23.4738 20.8803 23.574 20.863 23.6748 20.848C23.7753 20.8331 23.8765 20.8207 23.9777 20.8106C24.0792 20.8006 24.1806 20.7931 24.2823 20.7882C24.384 20.7831 24.4857 20.7807 24.5876 20.7807C24.6893 20.7807 24.7909 20.7833 24.8926 20.7884C24.9943 20.7936 25.0957 20.8011 25.197 20.8113C25.2984 20.8214 25.3994 20.8338 25.4999 20.849C25.6006 20.8639 25.7009 20.8815 25.8007 20.9013C25.9005 20.9212 25.9997 20.9437 26.0985 20.9684C26.1972 20.9932 26.2951 21.0206 26.3926 21.05C26.4901 21.0797 26.5866 21.1117 26.6824 21.1461C26.7783 21.1804 26.8732 21.2171 26.9671 21.2559C27.0611 21.295 27.1541 21.3364 27.246 21.3798C27.3381 21.4235 27.429 21.4694 27.5188 21.5173C27.6083 21.5652 27.6969 21.6154 27.7843 21.6678C27.8715 21.7202 27.9575 21.7746 28.0422 21.8312C28.1268 21.8878 28.2098 21.9464 28.2916 22.007C28.3734 22.0678 28.4536 22.1304 28.5321 22.1949C28.6109 22.2594 28.688 22.3258 28.7633 22.3943C28.8388 22.4626 28.9124 22.5329 28.9844 22.6047C29.0564 22.6767 29.1265 22.7505 29.1948 22.8258C29.2633 22.9013 29.3297 22.9782 29.3942 23.057C29.4589 23.1355 29.5216 23.2159 29.5821 23.2975C29.6429 23.3793 29.7013 23.4625 29.7579 23.5472C29.8145 23.6318 29.8689 23.7176 29.9213 23.805C29.9736 23.8922 30.0239 23.9808 30.0718 24.0705C30.12 24.1603 30.1658 24.251 30.2093 24.3431C30.2527 24.4349 30.2941 24.528 30.3331 24.6222C30.3722 24.7161 30.4089 24.811 30.4432 24.9069C30.4774 25.0025 30.5094 25.0993 30.5391 25.1965C30.5688 25.294 30.5959 25.3919 30.6207 25.4908C30.6454 25.5894 30.6679 25.6888 30.6877 25.7886C30.7078 25.8884 30.7251 25.9884 30.7403 26.0892C30.7553 26.1899 30.7679 26.2909 30.778 26.3921C30.788 26.4933 30.7955 26.5948 30.8006 26.6965C30.8058 26.7981 30.8084 26.8998 30.8086 27.0017Z" fill="#FA8072"/>
<ellipse cx="34.9109" cy="26.9967" rx="6.5" ry="7" fill="#FA8072"/>
<path d="M27 26.9984C27 27.1293 27.0033 27.26 27.0096 27.3909C27.0161 27.5216 27.0257 27.652 27.0386 27.7824C27.0514 27.9126 27.0673 28.0426 27.0865 28.1719C27.1057 28.3014 27.1281 28.4304 27.1536 28.5587C27.1793 28.6871 27.2078 28.8149 27.2396 28.9418C27.2714 29.0688 27.3064 29.195 27.3443 29.3203C27.3824 29.4453 27.4233 29.5697 27.4675 29.6929C27.5117 29.8163 27.5587 29.9383 27.6089 30.0592C27.6589 30.1802 27.712 30.2997 27.7679 30.4182C27.824 30.5365 27.8826 30.6534 27.9444 30.7688C28.0061 30.8843 28.0706 30.9981 28.1379 31.1103C28.2052 31.2225 28.2751 31.3331 28.348 31.442C28.4207 31.551 28.496 31.6578 28.5741 31.763C28.6519 31.8682 28.7326 31.9712 28.8155 32.0724C28.8985 32.1737 28.9841 32.2728 29.072 32.3698C29.1599 32.4668 29.2501 32.5615 29.3426 32.654C29.4352 32.7466 29.5299 32.8368 29.6269 32.9247C29.7239 33.0126 29.823 33.0981 29.9242 33.1811C30.0254 33.2643 30.1285 33.3447 30.2337 33.4228C30.3389 33.5007 30.4459 33.5762 30.5546 33.6489C30.6636 33.7216 30.7741 33.7914 30.8863 33.8588C30.9988 33.9261 31.1126 33.9906 31.2278 34.0523C31.3433 34.114 31.4602 34.1729 31.5787 34.2288C31.697 34.2849 31.8167 34.3377 31.9375 34.388C32.0584 34.438 32.1806 34.4852 32.3038 34.5292C32.427 34.5733 32.5513 34.6145 32.6766 34.6523C32.8019 34.6904 32.9279 34.7253 33.0548 34.7571C33.182 34.7889 33.3096 34.8176 33.4379 34.8431C33.5663 34.8686 33.6953 34.891 33.8248 34.9102C33.9543 34.9293 34.084 34.9455 34.2145 34.9583C34.3447 34.9712 34.4751 34.9808 34.606 34.9871C34.7367 34.9936 34.8676 34.9967 34.9985 34.9967C35.1294 34.9967 35.26 34.9936 35.3909 34.9871C35.5216 34.9808 35.652 34.9712 35.7825 34.9583C35.9127 34.9455 36.0426 34.9293 36.1719 34.9102C36.3014 34.891 36.4304 34.8686 36.5587 34.8431C36.6871 34.8176 36.8149 34.7889 36.9419 34.7571C37.0688 34.7253 37.195 34.6904 37.3203 34.6523C37.4454 34.6145 37.5697 34.5733 37.6929 34.5292C37.8163 34.4852 37.9383 34.438 38.0592 34.388C38.1803 34.3377 38.2997 34.2849 38.4182 34.2288C38.5365 34.1729 38.6534 34.114 38.7688 34.0523C38.8843 33.9906 38.9982 33.9261 39.1104 33.8588C39.2226 33.7914 39.3331 33.7216 39.442 33.6489C39.551 33.5762 39.6578 33.5007 39.763 33.4228C39.8682 33.3447 39.9713 33.2643 40.0725 33.1811C40.1737 33.0981 40.2728 33.0126 40.3698 32.9247C40.4668 32.8368 40.5615 32.7466 40.654 32.654C40.7466 32.5615 40.8368 32.4668 40.9247 32.3698C41.0126 32.2728 41.0982 32.1737 41.1811 32.0724C41.2644 31.9712 41.3448 31.8682 41.4228 31.763C41.5007 31.6578 41.5762 31.551 41.6489 31.442C41.7216 31.3331 41.7915 31.2225 41.8588 31.1103C41.9261 30.9981 41.9906 30.8843 42.0523 30.7688C42.114 30.6534 42.1729 30.5365 42.2288 30.4182C42.2849 30.2997 42.338 30.1802 42.388 30.0592C42.438 29.9383 42.4852 29.8163 42.5292 29.6929C42.5734 29.5697 42.6145 29.4453 42.6524 29.3203C42.6905 29.195 42.7253 29.0688 42.7571 28.9418C42.7889 28.8149 42.8176 28.6871 42.8431 28.5587C42.8686 28.4304 42.891 28.3014 42.9102 28.1719C42.9294 28.0426 42.9455 27.9126 42.9583 27.7824C42.9712 27.652 42.9808 27.5216 42.9871 27.3909C42.9936 27.26 42.9969 27.1293 42.9969 26.9984C42.9969 26.8675 42.9936 26.7366 42.9871 26.606C42.9808 26.4751 42.9712 26.3446 42.9583 26.2144C42.9455 26.084 42.9294 25.9543 42.9102 25.8248C42.891 25.6953 42.8686 25.5663 42.8431 25.4379C42.8176 25.3096 42.7889 25.182 42.7571 25.0548C42.7253 24.9279 42.6905 24.8019 42.6524 24.6766C42.6145 24.5513 42.5734 24.427 42.5292 24.3038C42.4852 24.1806 42.438 24.0583 42.388 23.9375C42.338 23.8166 42.2849 23.697 42.2288 23.5787C42.1729 23.4602 42.114 23.3433 42.0523 23.2278C41.9906 23.1126 41.9261 22.9985 41.8588 22.8863C41.7915 22.7741 41.7216 22.6636 41.6489 22.5546C41.5762 22.4459 41.5007 22.3389 41.4228 22.2337C41.3448 22.1285 41.2644 22.0254 41.1811 21.9242C41.0982 21.823 41.0126 21.7239 40.9247 21.6269C40.8368 21.5299 40.7466 21.4352 40.654 21.3426C40.5615 21.2501 40.4668 21.1598 40.3698 21.072C40.2728 20.9841 40.1737 20.8985 40.0725 20.8155C39.9713 20.7326 39.8682 20.6519 39.763 20.5741C39.6578 20.496 39.551 20.4207 39.442 20.348C39.3331 20.2751 39.2226 20.2052 39.1104 20.1379C38.9982 20.0706 38.8843 20.0061 38.7688 19.9443C38.6534 19.8826 38.5365 19.824 38.4182 19.7679C38.2997 19.712 38.1803 19.6589 38.0592 19.6087C37.9383 19.5587 37.8163 19.5117 37.6929 19.4675C37.5697 19.4233 37.4454 19.3824 37.3203 19.3443C37.195 19.3064 37.0688 19.2714 36.9419 19.2396C36.8149 19.2078 36.6871 19.1793 36.5587 19.1536C36.4304 19.1281 36.3014 19.1057 36.1719 19.0865C36.0426 19.0673 35.9127 19.0514 35.7825 19.0386C35.652 19.0257 35.5216 19.0161 35.3909 19.0096C35.26 19.0033 35.1294 19 34.9985 19C34.8676 19 34.7367 19.0035 34.606 19.0101C34.4753 19.0166 34.3449 19.0264 34.2147 19.0393C34.0845 19.0521 33.9545 19.0683 33.8253 19.0877C33.6958 19.1071 33.567 19.1295 33.4386 19.155C33.3103 19.1807 33.1827 19.2094 33.0558 19.2415C32.9288 19.2733 32.8028 19.3083 32.6776 19.3464C32.5523 19.3843 32.4281 19.4254 32.305 19.4696C32.1818 19.5138 32.0598 19.561 31.9389 19.611C31.8181 19.6613 31.6984 19.7143 31.5801 19.7704C31.4618 19.8263 31.3449 19.8852 31.2297 19.9469C31.1142 20.0086 31.0004 20.0731 30.8882 20.1405C30.776 20.2078 30.6654 20.2779 30.5567 20.3506C30.448 20.4233 30.341 20.4986 30.236 20.5766C30.1308 20.6547 30.0278 20.7351 29.9266 20.8181C29.8253 20.9011 29.7265 20.9866 29.6295 21.0745C29.5324 21.1624 29.4378 21.2526 29.3452 21.3452C29.2526 21.4378 29.1624 21.5324 29.0745 21.6294C28.9866 21.7265 28.9011 21.8253 28.8181 21.9265C28.7351 22.0278 28.6547 22.1308 28.5766 22.2358C28.4986 22.341 28.4233 22.448 28.3506 22.5567C28.2779 22.6654 28.2078 22.776 28.1405 22.8882C28.0731 23.0004 28.0086 23.1142 27.9469 23.2297C27.8852 23.3449 27.8263 23.4618 27.7704 23.5801C27.7143 23.6984 27.6613 23.818 27.611 23.9389C27.561 24.0597 27.5138 24.1818 27.4696 24.3049C27.4254 24.4281 27.3843 24.5523 27.3464 24.6775C27.3083 24.8026 27.2733 24.9288 27.2415 25.0558C27.2094 25.1827 27.1807 25.3103 27.155 25.4386C27.1295 25.567 27.1071 25.6958 27.0877 25.8253C27.0683 25.9545 27.0521 26.0845 27.0393 26.2147C27.0264 26.3449 27.0166 26.4753 27.0101 26.606C27.0035 26.7366 27 26.8675 27 26.9984ZM41.2195 26.9984C41.2195 27.1001 41.2169 27.2018 41.2118 27.3037C41.2069 27.4054 41.1994 27.5069 41.1893 27.6081C41.1795 27.7095 41.1669 27.8105 41.1519 27.9112C41.1372 28.012 41.1197 28.1123 41.0998 28.2121C41.0799 28.3119 41.0577 28.4112 41.033 28.5099C41.0082 28.6087 40.9811 28.7067 40.9516 28.8042C40.9219 28.9016 40.8901 28.9982 40.8558 29.0942C40.8214 29.1901 40.7847 29.285 40.7459 29.379C40.7069 29.4732 40.6657 29.5662 40.622 29.6583C40.5785 29.7501 40.5327 29.8411 40.4848 29.9308C40.4369 30.0206 40.3866 30.1092 40.3343 30.1966C40.2819 30.2838 40.2274 30.3698 40.1709 30.4544C40.1143 30.5393 40.0559 30.6225 39.9951 30.7043C39.9346 30.7859 39.8719 30.8663 39.8072 30.9448C39.7427 31.0236 39.6763 31.1008 39.6078 31.176C39.5395 31.2515 39.4694 31.3252 39.3974 31.3971C39.3254 31.4691 39.2515 31.5395 39.176 31.6078C39.1008 31.6762 39.0236 31.7426 38.9449 31.8071C38.8663 31.8719 38.7859 31.9345 38.7043 31.9951C38.6225 32.0559 38.5393 32.1143 38.4547 32.1709C38.3698 32.2274 38.284 32.2819 38.1966 32.3342C38.1092 32.3866 38.0208 32.4369 37.9309 32.4848C37.8411 32.5327 37.7502 32.5785 37.6583 32.622C37.5662 32.6657 37.4732 32.7068 37.379 32.7459C37.285 32.7847 37.1901 32.8214 37.0943 32.8557C36.9984 32.8899 36.9017 32.9219 36.8042 32.9516C36.7067 32.981 36.6088 33.0081 36.5099 33.0329C36.4112 33.0577 36.3119 33.0799 36.2121 33.0998C36.1123 33.1196 36.012 33.1372 35.9113 33.1519C35.8105 33.1669 35.7095 33.1795 35.6081 33.1893C35.5069 33.1994 35.4054 33.2068 35.3037 33.2117C35.2021 33.2169 35.1001 33.2195 34.9985 33.2195C34.8965 33.2195 34.7949 33.2169 34.6932 33.2117C34.5915 33.2068 34.4901 33.1994 34.3886 33.1893C34.2874 33.1795 34.1862 33.1669 34.0857 33.1519C33.9849 33.1372 33.8846 33.1196 33.7848 33.0998C33.6848 33.0799 33.5857 33.0577 33.4868 33.0329C33.3882 33.0081 33.29 32.981 33.1925 32.9516C33.095 32.9219 32.9985 32.8899 32.9027 32.8557C32.8068 32.8214 32.7117 32.7847 32.6177 32.7459C32.5237 32.7068 32.4307 32.6657 32.3386 32.622C32.2465 32.5785 32.1556 32.5327 32.0658 32.4848C31.9761 32.4369 31.8875 32.3866 31.8001 32.3342C31.7129 32.2819 31.6268 32.2274 31.5422 32.1709C31.4576 32.1143 31.3744 32.0559 31.2926 31.9951C31.2108 31.9345 31.1306 31.8719 31.0518 31.8071C30.973 31.7426 30.8961 31.6762 30.8206 31.6078C30.7451 31.5395 30.6715 31.4691 30.5995 31.3971C30.5275 31.3252 30.4574 31.2515 30.3889 31.176C30.3207 31.1008 30.254 31.0236 30.1895 30.9448C30.125 30.8663 30.0624 30.7859 30.0016 30.7041C29.941 30.6225 29.8824 30.5393 29.8258 30.4544C29.7692 30.3698 29.7148 30.2838 29.6624 30.1966C29.6101 30.1092 29.56 30.0206 29.5119 29.9308C29.464 29.8411 29.4181 29.7501 29.3747 29.6583C29.3312 29.5662 29.2898 29.4732 29.251 29.379C29.212 29.285 29.1753 29.1901 29.1412 29.0942C29.1068 28.9982 29.0748 28.9016 29.0453 28.8042C29.0156 28.7067 28.9885 28.6087 28.9637 28.5099C28.9392 28.4112 28.9168 28.3119 28.8969 28.2121C28.877 28.1123 28.8597 28.012 28.8448 27.9112C28.8298 27.8105 28.8174 27.7095 28.8074 27.6081C28.7973 27.5069 28.7898 27.4054 28.7849 27.3037C28.78 27.2018 28.7774 27.1001 28.7774 26.9984C28.7774 26.8965 28.78 26.7948 28.7849 26.6932C28.7898 26.5915 28.7973 26.4898 28.8074 26.3886C28.8174 26.2874 28.8298 26.1862 28.8448 26.0857C28.8597 25.9849 28.877 25.8846 28.8969 25.7848C28.9168 25.6848 28.9392 25.5854 28.9637 25.4868C28.9885 25.3879 29.0156 25.29 29.0453 25.1925C29.0748 25.095 29.1068 24.9985 29.1412 24.9026C29.1753 24.8068 29.212 24.7117 29.251 24.6177C29.2898 24.5237 29.3312 24.4305 29.3747 24.3386C29.4181 24.2465 29.464 24.1556 29.5119 24.0658C29.56 23.9761 29.6101 23.8875 29.6624 23.8C29.7148 23.7129 29.7692 23.6268 29.8258 23.5422C29.8824 23.4576 29.941 23.3744 30.0016 23.2926C30.0624 23.2108 30.125 23.1306 30.1895 23.0518C30.254 22.973 30.3207 22.8961 30.3889 22.8206C30.4574 22.7451 30.5275 22.6715 30.5995 22.5995C30.6715 22.5275 30.7451 22.4574 30.8206 22.3889C30.8961 22.3206 30.973 22.254 31.0518 22.1895C31.1306 22.125 31.2108 22.0624 31.2926 22.0016C31.3744 21.941 31.4576 21.8824 31.5422 21.8258C31.6268 21.7692 31.7129 21.7148 31.8001 21.6624C31.8875 21.61 31.9761 21.56 32.0658 21.5119C32.1556 21.464 32.2465 21.4181 32.3386 21.3747C32.4307 21.3312 32.5237 21.2898 32.6177 21.251C32.7117 21.212 32.8068 21.1753 32.9027 21.1411C32.9985 21.1068 33.095 21.0748 33.1925 21.0453C33.29 21.0156 33.3882 20.9885 33.4868 20.9637C33.5857 20.9392 33.6848 20.9167 33.7848 20.8969C33.8846 20.877 33.9849 20.8597 34.0857 20.8448C34.1862 20.8298 34.2874 20.8174 34.3886 20.8074C34.4901 20.7973 34.5915 20.7898 34.6932 20.7849C34.7949 20.7798 34.8965 20.7774 34.9985 20.7774C35.1001 20.7774 35.2018 20.78 35.3035 20.7851C35.4052 20.7903 35.5066 20.7978 35.6078 20.8081C35.7093 20.8181 35.8103 20.8305 35.9108 20.8457C36.0115 20.8606 36.1118 20.8782 36.2116 20.898C36.3114 20.9179 36.4105 20.9404 36.5094 20.9651C36.6081 20.9899 36.706 21.0173 36.8035 21.0467C36.901 21.0764 36.9975 21.1084 37.0933 21.1428C37.1892 21.1771 37.2841 21.2138 37.378 21.2526C37.472 21.2917 37.565 21.3331 37.6569 21.3765C37.749 21.4202 37.8399 21.4661 37.9297 21.514C38.0192 21.5619 38.1078 21.6122 38.1952 21.6645C38.2824 21.7169 38.3684 21.7713 38.4531 21.8279C38.5377 21.8845 38.6207 21.9431 38.7025 22.0037C38.7843 22.0645 38.8645 22.1271 38.943 22.1916C39.0218 22.2561 39.0989 22.3225 39.1742 22.391C39.2497 22.4593 39.3233 22.5296 39.3953 22.6014C39.4673 22.6734 39.5374 22.7472 39.6057 22.8225C39.6742 22.898 39.7405 22.9749 39.8051 23.0537C39.8698 23.1322 39.9325 23.2126 39.993 23.2942C40.0538 23.376 40.1122 23.4592 40.1688 23.5439C40.2253 23.6285 40.2798 23.7143 40.3322 23.8017C40.3845 23.8889 40.4348 23.9775 40.4827 24.0672C40.5309 24.157 40.5767 24.2477 40.6201 24.3398C40.6636 24.4316 40.705 24.5247 40.744 24.6189C40.7831 24.7128 40.8198 24.8077 40.8541 24.9036C40.8883 24.9992 40.9203 25.096 40.95 25.1932C40.9797 25.2907 41.0068 25.3886 41.0315 25.4875C41.0563 25.5861 41.0788 25.6855 41.0986 25.7853C41.1187 25.8851 41.136 25.9851 41.1512 26.0859C41.1662 26.1866 41.1788 26.2876 41.1889 26.3888C41.1989 26.49 41.2064 26.5915 41.2115 26.6932C41.2167 26.7948 41.2192 26.8965 41.2195 26.9984Z" fill="#FA8072"/>
<path d="M28.6661 23V25.6661H26V27.4436H28.6661V30.1097H30.4436V27.4436H33.1097V25.6661H30.4436V23H28.6661Z" fill="#663366"/>
</svg>
